G04 #@! TF.GenerationSoftware,KiCad,Pcbnew,(6.0.10)*
G04 #@! TF.CreationDate,2023-01-25T16:02:22-05:00*
G04 #@! TF.ProjectId,SlimeVRMotherBoardV2,536c696d-6556-4524-9d6f-74686572426f,V1.2*
G04 #@! TF.SameCoordinates,Original*
G04 #@! TF.FileFunction,Soldermask,Top*
G04 #@! TF.FilePolarity,Negative*
%FSLAX46Y46*%
G04 Gerber Fmt 4.6, Leading zero omitted, Abs format (unit mm)*
G04 Created by KiCad (PCBNEW (6.0.10)) date 2023-01-25 16:02:22*
%MOMM*%
%LPD*%
G01*
G04 APERTURE LIST*
G04 Aperture macros list*
%AMRoundRect*
0 Rectangle with rounded corners*
0 $1 Rounding radius*
0 $2 $3 $4 $5 $6 $7 $8 $9 X,Y pos of 4 corners*
0 Add a 4 corners polygon primitive as box body*
4,1,4,$2,$3,$4,$5,$6,$7,$8,$9,$2,$3,0*
0 Add four circle primitives for the rounded corners*
1,1,$1+$1,$2,$3*
1,1,$1+$1,$4,$5*
1,1,$1+$1,$6,$7*
1,1,$1+$1,$8,$9*
0 Add four rect primitives between the rounded corners*
20,1,$1+$1,$2,$3,$4,$5,0*
20,1,$1+$1,$4,$5,$6,$7,0*
20,1,$1+$1,$6,$7,$8,$9,0*
20,1,$1+$1,$8,$9,$2,$3,0*%
G04 Aperture macros list end*
%ADD10C,1.900000*%
%ADD11C,2.100000*%
%ADD12RoundRect,0.050000X1.100000X-1.100000X1.100000X1.100000X-1.100000X1.100000X-1.100000X-1.100000X0*%
%ADD13O,2.300000X2.300000*%
%ADD14C,1.878000*%
%ADD15RoundRect,0.050000X-0.500000X-0.750000X0.500000X-0.750000X0.500000X0.750000X-0.500000X0.750000X0*%
%ADD16C,2.300000*%
%ADD17C,1.879600*%
G04 APERTURE END LIST*
D10*
X136570000Y-121110000D03*
X136570000Y-123650000D03*
X136570000Y-126190000D03*
X136570000Y-128730000D03*
X136570000Y-131270000D03*
X136570000Y-133810000D03*
X136570000Y-136350000D03*
X136570000Y-138890000D03*
X159430000Y-138890000D03*
X159430000Y-136350000D03*
X159430000Y-133810000D03*
X159430000Y-131270000D03*
X159430000Y-128730000D03*
X159430000Y-126190000D03*
X159430000Y-123650000D03*
X159430000Y-121110000D03*
D11*
X191040000Y-104720000D03*
X191040000Y-113720000D03*
X191040000Y-107720000D03*
X191040000Y-110720000D03*
X191040000Y-116720000D03*
X191040000Y-101720000D03*
X182880000Y-126460000D03*
X182880000Y-122460000D03*
X137000000Y-102500000D03*
X137000000Y-109500000D03*
D12*
X189837550Y-132080000D03*
D13*
X189837550Y-121920000D03*
D14*
X167709610Y-115436639D03*
X172789610Y-115436639D03*
X175329610Y-115436639D03*
X177869610Y-115436639D03*
X170249610Y-115436639D03*
X180409610Y-115436639D03*
D11*
X164000000Y-122500000D03*
X167000000Y-122500000D03*
X175000000Y-122500000D03*
X178000000Y-122500000D03*
X164000000Y-145000000D03*
X178000000Y-145000000D03*
D15*
X184220000Y-130540000D03*
X185520000Y-130540000D03*
D12*
X189837550Y-146405602D03*
D13*
X189837550Y-136245602D03*
D16*
X182400000Y-141000000D03*
X182400000Y-137000000D03*
X182400000Y-145000000D03*
X185000000Y-137000000D03*
X185000000Y-145000000D03*
X185000000Y-141000000D03*
D17*
X167699610Y-97656639D03*
X170239610Y-97656639D03*
X172779610Y-97656639D03*
X175319610Y-97656639D03*
X177859610Y-97656639D03*
X180399610Y-97656639D03*
M02*
