G04 #@! TF.GenerationSoftware,KiCad,Pcbnew,(6.0.10)*
G04 #@! TF.CreationDate,2023-01-25T16:02:22-05:00*
G04 #@! TF.ProjectId,SlimeVRMotherBoardV2,536c696d-6556-4524-9d6f-74686572426f,V1.2*
G04 #@! TF.SameCoordinates,Original*
G04 #@! TF.FileFunction,Legend,Bot*
G04 #@! TF.FilePolarity,Positive*
%FSLAX46Y46*%
G04 Gerber Fmt 4.6, Leading zero omitted, Abs format (unit mm)*
G04 Created by KiCad (PCBNEW (6.0.10)) date 2023-01-25 16:02:22*
%MOMM*%
%LPD*%
G01*
G04 APERTURE LIST*
G04 Aperture macros list*
%AMRoundRect*
0 Rectangle with rounded corners*
0 $1 Rounding radius*
0 $2 $3 $4 $5 $6 $7 $8 $9 X,Y pos of 4 corners*
0 Add a 4 corners polygon primitive as box body*
4,1,4,$2,$3,$4,$5,$6,$7,$8,$9,$2,$3,0*
0 Add four circle primitives for the rounded corners*
1,1,$1+$1,$2,$3*
1,1,$1+$1,$4,$5*
1,1,$1+$1,$6,$7*
1,1,$1+$1,$8,$9*
0 Add four rect primitives between the rounded corners*
20,1,$1+$1,$2,$3,$4,$5,0*
20,1,$1+$1,$4,$5,$6,$7,0*
20,1,$1+$1,$6,$7,$8,$9,0*
20,1,$1+$1,$8,$9,$2,$3,0*%
G04 Aperture macros list end*
%ADD10C,0.150000*%
%ADD11C,0.300000*%
%ADD12C,1.900000*%
%ADD13C,2.100000*%
%ADD14RoundRect,0.050000X1.100000X-1.100000X1.100000X1.100000X-1.100000X1.100000X-1.100000X-1.100000X0*%
%ADD15O,2.300000X2.300000*%
%ADD16C,1.878000*%
%ADD17C,2.300000*%
%ADD18C,1.879600*%
G04 APERTURE END LIST*
D10*
X187889325Y-126415811D02*
X187746468Y-126463430D01*
X187698849Y-126511049D01*
X187651230Y-126606287D01*
X187651230Y-126749144D01*
X187698849Y-126844382D01*
X187746468Y-126892001D01*
X187841706Y-126939620D01*
X188222659Y-126939620D01*
X188222659Y-125939620D01*
X187889325Y-125939620D01*
X187794087Y-125987240D01*
X187746468Y-126034859D01*
X187698849Y-126130097D01*
X187698849Y-126225335D01*
X187746468Y-126320573D01*
X187794087Y-126368192D01*
X187889325Y-126415811D01*
X188222659Y-126415811D01*
X187270278Y-126653906D02*
X186794087Y-126653906D01*
X187365516Y-126939620D02*
X187032183Y-125939620D01*
X186698849Y-126939620D01*
X186508373Y-125939620D02*
X185936944Y-125939620D01*
X186222659Y-126939620D02*
X186222659Y-125939620D01*
X185603611Y-126558668D02*
X184841706Y-126558668D01*
X180547929Y-122237402D02*
X180595548Y-122380259D01*
X180643167Y-122427878D01*
X180738405Y-122475497D01*
X180881262Y-122475497D01*
X180976500Y-122427878D01*
X181024119Y-122380259D01*
X181071738Y-122285021D01*
X181071738Y-121904069D01*
X180071738Y-121904069D01*
X180071738Y-122237402D01*
X180119358Y-122332640D01*
X180166977Y-122380259D01*
X180262215Y-122427878D01*
X180357453Y-122427878D01*
X180452691Y-122380259D01*
X180500310Y-122332640D01*
X180547929Y-122237402D01*
X180547929Y-121904069D01*
X181071738Y-123332640D02*
X180547929Y-123332640D01*
X180452691Y-123285021D01*
X180405072Y-123189783D01*
X180405072Y-122999307D01*
X180452691Y-122904069D01*
X181024119Y-123332640D02*
X181071738Y-123237402D01*
X181071738Y-122999307D01*
X181024119Y-122904069D01*
X180928881Y-122856450D01*
X180833643Y-122856450D01*
X180738405Y-122904069D01*
X180690786Y-122999307D01*
X180690786Y-123237402D01*
X180643167Y-123332640D01*
X180405072Y-123665973D02*
X180405072Y-124046926D01*
X180071738Y-123808831D02*
X180928881Y-123808831D01*
X181024119Y-123856450D01*
X181071738Y-123951688D01*
X181071738Y-124046926D01*
X180405072Y-124237402D02*
X180405072Y-124618354D01*
X180071738Y-124380259D02*
X180928881Y-124380259D01*
X181024119Y-124427878D01*
X181071738Y-124523116D01*
X181071738Y-124618354D01*
X181024119Y-125332640D02*
X181071738Y-125237402D01*
X181071738Y-125046926D01*
X181024119Y-124951688D01*
X180928881Y-124904069D01*
X180547929Y-124904069D01*
X180452691Y-124951688D01*
X180405072Y-125046926D01*
X180405072Y-125237402D01*
X180452691Y-125332640D01*
X180547929Y-125380259D01*
X180643167Y-125380259D01*
X180738405Y-124904069D01*
X181071738Y-125808831D02*
X180405072Y-125808831D01*
X180595548Y-125808831D02*
X180500310Y-125856450D01*
X180452691Y-125904069D01*
X180405072Y-125999307D01*
X180405072Y-126094545D01*
X180405072Y-126332640D02*
X181071738Y-126570735D01*
X180405072Y-126808831D02*
X181071738Y-126570735D01*
X181309834Y-126475497D01*
X181357453Y-126427878D01*
X181405072Y-126332640D01*
X140738095Y-138452380D02*
X140119047Y-138452380D01*
X140452380Y-138833333D01*
X140309523Y-138833333D01*
X140214285Y-138880952D01*
X140166666Y-138928571D01*
X140119047Y-139023809D01*
X140119047Y-139261904D01*
X140166666Y-139357142D01*
X140214285Y-139404761D01*
X140309523Y-139452380D01*
X140595238Y-139452380D01*
X140690476Y-139404761D01*
X140738095Y-139357142D01*
X139833333Y-138452380D02*
X139500000Y-139452380D01*
X139166666Y-138452380D01*
X138928571Y-138452380D02*
X138309523Y-138452380D01*
X138642857Y-138833333D01*
X138500000Y-138833333D01*
X138404761Y-138880952D01*
X138357142Y-138928571D01*
X138309523Y-139023809D01*
X138309523Y-139261904D01*
X138357142Y-139357142D01*
X138404761Y-139404761D01*
X138500000Y-139452380D01*
X138785714Y-139452380D01*
X138880952Y-139404761D01*
X138928571Y-139357142D01*
X157261904Y-136000000D02*
X157357142Y-135952380D01*
X157500000Y-135952380D01*
X157642857Y-136000000D01*
X157738095Y-136095238D01*
X157785714Y-136190476D01*
X157833333Y-136380952D01*
X157833333Y-136523809D01*
X157785714Y-136714285D01*
X157738095Y-136809523D01*
X157642857Y-136904761D01*
X157500000Y-136952380D01*
X157404761Y-136952380D01*
X157261904Y-136904761D01*
X157214285Y-136857142D01*
X157214285Y-136523809D01*
X157404761Y-136523809D01*
X156785714Y-136952380D02*
X156785714Y-135952380D01*
X156214285Y-136952380D01*
X156214285Y-135952380D01*
X155738095Y-136952380D02*
X155738095Y-135952380D01*
X155500000Y-135952380D01*
X155357142Y-136000000D01*
X155261904Y-136095238D01*
X155214285Y-136190476D01*
X155166666Y-136380952D01*
X155166666Y-136523809D01*
X155214285Y-136714285D01*
X155261904Y-136809523D01*
X155357142Y-136904761D01*
X155500000Y-136952380D01*
X155738095Y-136952380D01*
X157190476Y-138452380D02*
X157666666Y-138452380D01*
X157714285Y-138928571D01*
X157666666Y-138880952D01*
X157571428Y-138833333D01*
X157333333Y-138833333D01*
X157238095Y-138880952D01*
X157190476Y-138928571D01*
X157142857Y-139023809D01*
X157142857Y-139261904D01*
X157190476Y-139357142D01*
X157238095Y-139404761D01*
X157333333Y-139452380D01*
X157571428Y-139452380D01*
X157666666Y-139404761D01*
X157714285Y-139357142D01*
X156857142Y-138452380D02*
X156523809Y-139452380D01*
X156190476Y-138452380D01*
X185627818Y-99247503D02*
X185627818Y-99437979D01*
X185675438Y-99533217D01*
X185770676Y-99628455D01*
X185961152Y-99676074D01*
X186294485Y-99676074D01*
X186484961Y-99628455D01*
X186580199Y-99533217D01*
X186627818Y-99437979D01*
X186627818Y-99247503D01*
X186580199Y-99152265D01*
X186484961Y-99057027D01*
X186294485Y-99009408D01*
X185961152Y-99009408D01*
X185770676Y-99057027D01*
X185675438Y-99152265D01*
X185627818Y-99247503D01*
X186627818Y-100104646D02*
X185961152Y-100104646D01*
X186151628Y-100104646D02*
X186056390Y-100152265D01*
X186008771Y-100199884D01*
X185961152Y-100295122D01*
X185961152Y-100390360D01*
X186627818Y-100723693D02*
X185961152Y-100723693D01*
X185627818Y-100723693D02*
X185675438Y-100676074D01*
X185723057Y-100723693D01*
X185675438Y-100771312D01*
X185627818Y-100723693D01*
X185723057Y-100723693D01*
X185961152Y-101628455D02*
X186770676Y-101628455D01*
X186865914Y-101580836D01*
X186913533Y-101533217D01*
X186961152Y-101437979D01*
X186961152Y-101295122D01*
X186913533Y-101199884D01*
X186580199Y-101628455D02*
X186627818Y-101533217D01*
X186627818Y-101342741D01*
X186580199Y-101247503D01*
X186532580Y-101199884D01*
X186437342Y-101152265D01*
X186151628Y-101152265D01*
X186056390Y-101199884D01*
X186008771Y-101247503D01*
X185961152Y-101342741D01*
X185961152Y-101533217D01*
X186008771Y-101628455D01*
X186627818Y-102104646D02*
X185961152Y-102104646D01*
X185627818Y-102104646D02*
X185675438Y-102057027D01*
X185723057Y-102104646D01*
X185675438Y-102152265D01*
X185627818Y-102104646D01*
X185723057Y-102104646D01*
X185961152Y-102580836D02*
X186627818Y-102580836D01*
X186056390Y-102580836D02*
X186008771Y-102628455D01*
X185961152Y-102723693D01*
X185961152Y-102866550D01*
X186008771Y-102961789D01*
X186104009Y-103009408D01*
X186627818Y-103009408D01*
X186627818Y-103914170D02*
X186104009Y-103914170D01*
X186008771Y-103866550D01*
X185961152Y-103771312D01*
X185961152Y-103580836D01*
X186008771Y-103485598D01*
X186580199Y-103914170D02*
X186627818Y-103818931D01*
X186627818Y-103580836D01*
X186580199Y-103485598D01*
X186484961Y-103437979D01*
X186389723Y-103437979D01*
X186294485Y-103485598D01*
X186246866Y-103580836D01*
X186246866Y-103818931D01*
X186199247Y-103914170D01*
X186627818Y-104533217D02*
X186580199Y-104437979D01*
X186484961Y-104390360D01*
X185627818Y-104390360D01*
X186104009Y-106009408D02*
X186151628Y-106152265D01*
X186199247Y-106199884D01*
X186294485Y-106247503D01*
X186437342Y-106247503D01*
X186532580Y-106199884D01*
X186580199Y-106152265D01*
X186627818Y-106057027D01*
X186627818Y-105676074D01*
X185627818Y-105676074D01*
X185627818Y-106009408D01*
X185675438Y-106104646D01*
X185723057Y-106152265D01*
X185818295Y-106199884D01*
X185913533Y-106199884D01*
X186008771Y-106152265D01*
X186056390Y-106104646D01*
X186104009Y-106009408D01*
X186104009Y-105676074D01*
X186627818Y-106818931D02*
X186580199Y-106723693D01*
X186532580Y-106676074D01*
X186437342Y-106628455D01*
X186151628Y-106628455D01*
X186056390Y-106676074D01*
X186008771Y-106723693D01*
X185961152Y-106818931D01*
X185961152Y-106961789D01*
X186008771Y-107057027D01*
X186056390Y-107104646D01*
X186151628Y-107152265D01*
X186437342Y-107152265D01*
X186532580Y-107104646D01*
X186580199Y-107057027D01*
X186627818Y-106961789D01*
X186627818Y-106818931D01*
X186627818Y-108009408D02*
X186104009Y-108009408D01*
X186008771Y-107961789D01*
X185961152Y-107866550D01*
X185961152Y-107676074D01*
X186008771Y-107580836D01*
X186580199Y-108009408D02*
X186627818Y-107914170D01*
X186627818Y-107676074D01*
X186580199Y-107580836D01*
X186484961Y-107533217D01*
X186389723Y-107533217D01*
X186294485Y-107580836D01*
X186246866Y-107676074D01*
X186246866Y-107914170D01*
X186199247Y-108009408D01*
X186627818Y-108485598D02*
X185961152Y-108485598D01*
X186151628Y-108485598D02*
X186056390Y-108533217D01*
X186008771Y-108580836D01*
X185961152Y-108676074D01*
X185961152Y-108771312D01*
X186627818Y-109533217D02*
X185627818Y-109533217D01*
X186580199Y-109533217D02*
X186627818Y-109437979D01*
X186627818Y-109247503D01*
X186580199Y-109152265D01*
X186532580Y-109104646D01*
X186437342Y-109057027D01*
X186151628Y-109057027D01*
X186056390Y-109104646D01*
X186008771Y-109152265D01*
X185961152Y-109247503D01*
X185961152Y-109437979D01*
X186008771Y-109533217D01*
X186532580Y-111342741D02*
X186580199Y-111295122D01*
X186627818Y-111152265D01*
X186627818Y-111057027D01*
X186580199Y-110914170D01*
X186484961Y-110818931D01*
X186389723Y-110771312D01*
X186199247Y-110723693D01*
X186056390Y-110723693D01*
X185865914Y-110771312D01*
X185770676Y-110818931D01*
X185675438Y-110914170D01*
X185627818Y-111057027D01*
X185627818Y-111152265D01*
X185675438Y-111295122D01*
X185723057Y-111342741D01*
X186627818Y-111771312D02*
X185961152Y-111771312D01*
X186151628Y-111771312D02*
X186056390Y-111818931D01*
X186008771Y-111866550D01*
X185961152Y-111961789D01*
X185961152Y-112057027D01*
X186580199Y-112771312D02*
X186627818Y-112676074D01*
X186627818Y-112485598D01*
X186580199Y-112390360D01*
X186484961Y-112342741D01*
X186104009Y-112342741D01*
X186008771Y-112390360D01*
X185961152Y-112485598D01*
X185961152Y-112676074D01*
X186008771Y-112771312D01*
X186104009Y-112818931D01*
X186199247Y-112818931D01*
X186294485Y-112342741D01*
X186627818Y-113676074D02*
X186104009Y-113676074D01*
X186008771Y-113628455D01*
X185961152Y-113533217D01*
X185961152Y-113342741D01*
X186008771Y-113247503D01*
X186580199Y-113676074D02*
X186627818Y-113580836D01*
X186627818Y-113342741D01*
X186580199Y-113247503D01*
X186484961Y-113199884D01*
X186389723Y-113199884D01*
X186294485Y-113247503D01*
X186246866Y-113342741D01*
X186246866Y-113580836D01*
X186199247Y-113676074D01*
X185961152Y-114009408D02*
X185961152Y-114390360D01*
X185627818Y-114152265D02*
X186484961Y-114152265D01*
X186580199Y-114199884D01*
X186627818Y-114295122D01*
X186627818Y-114390360D01*
X186580199Y-115104646D02*
X186627818Y-115009408D01*
X186627818Y-114818931D01*
X186580199Y-114723693D01*
X186484961Y-114676074D01*
X186104009Y-114676074D01*
X186008771Y-114723693D01*
X185961152Y-114818931D01*
X185961152Y-115009408D01*
X186008771Y-115104646D01*
X186104009Y-115152265D01*
X186199247Y-115152265D01*
X186294485Y-114676074D01*
X186627818Y-116009408D02*
X185627818Y-116009408D01*
X186580199Y-116009408D02*
X186627818Y-115914170D01*
X186627818Y-115723693D01*
X186580199Y-115628455D01*
X186532580Y-115580836D01*
X186437342Y-115533217D01*
X186151628Y-115533217D01*
X186056390Y-115580836D01*
X186008771Y-115628455D01*
X185961152Y-115723693D01*
X185961152Y-115914170D01*
X186008771Y-116009408D01*
X186104009Y-117580836D02*
X186151628Y-117723693D01*
X186199247Y-117771312D01*
X186294485Y-117818931D01*
X186437342Y-117818931D01*
X186532580Y-117771312D01*
X186580199Y-117723693D01*
X186627818Y-117628455D01*
X186627818Y-117247503D01*
X185627818Y-117247503D01*
X185627818Y-117580836D01*
X185675438Y-117676074D01*
X185723057Y-117723693D01*
X185818295Y-117771312D01*
X185913533Y-117771312D01*
X186008771Y-117723693D01*
X186056390Y-117676074D01*
X186104009Y-117580836D01*
X186104009Y-117247503D01*
X185961152Y-118152265D02*
X186627818Y-118390360D01*
X185961152Y-118628455D02*
X186627818Y-118390360D01*
X186865914Y-118295122D01*
X186913533Y-118247503D01*
X186961152Y-118152265D01*
X186532580Y-119009408D02*
X186580199Y-119057027D01*
X186627818Y-119009408D01*
X186580199Y-118961789D01*
X186532580Y-119009408D01*
X186627818Y-119009408D01*
X186008771Y-119009408D02*
X186056390Y-119057027D01*
X186104009Y-119009408D01*
X186056390Y-118961789D01*
X186008771Y-119009408D01*
X186104009Y-119009408D01*
X187237818Y-100414170D02*
X187237818Y-100985598D01*
X188237818Y-100699884D02*
X187237818Y-100699884D01*
X188237818Y-101318931D02*
X187237818Y-101318931D01*
X188237818Y-101747503D02*
X187714009Y-101747503D01*
X187618771Y-101699884D01*
X187571152Y-101604646D01*
X187571152Y-101461789D01*
X187618771Y-101366550D01*
X187666390Y-101318931D01*
X188190199Y-102604646D02*
X188237818Y-102509408D01*
X188237818Y-102318931D01*
X188190199Y-102223693D01*
X188094961Y-102176074D01*
X187714009Y-102176074D01*
X187618771Y-102223693D01*
X187571152Y-102318931D01*
X187571152Y-102509408D01*
X187618771Y-102604646D01*
X187714009Y-102652265D01*
X187809247Y-102652265D01*
X187904485Y-102176074D01*
X188237818Y-103080836D02*
X187237818Y-103080836D01*
X187237818Y-103318931D01*
X187285438Y-103461789D01*
X187380676Y-103557027D01*
X187475914Y-103604646D01*
X187666390Y-103652265D01*
X187809247Y-103652265D01*
X187999723Y-103604646D01*
X188094961Y-103557027D01*
X188190199Y-103461789D01*
X188237818Y-103318931D01*
X188237818Y-103080836D01*
X188237818Y-104509408D02*
X187714009Y-104509408D01*
X187618771Y-104461789D01*
X187571152Y-104366550D01*
X187571152Y-104176074D01*
X187618771Y-104080836D01*
X188190199Y-104509408D02*
X188237818Y-104414170D01*
X188237818Y-104176074D01*
X188190199Y-104080836D01*
X188094961Y-104033217D01*
X187999723Y-104033217D01*
X187904485Y-104080836D01*
X187856866Y-104176074D01*
X187856866Y-104414170D01*
X187809247Y-104509408D01*
X188237818Y-104985598D02*
X187571152Y-104985598D01*
X187761628Y-104985598D02*
X187666390Y-105033217D01*
X187618771Y-105080836D01*
X187571152Y-105176074D01*
X187571152Y-105271312D01*
X188237818Y-105604646D02*
X187237818Y-105604646D01*
X187856866Y-105699884D02*
X188237818Y-105985598D01*
X187571152Y-105985598D02*
X187952104Y-105604646D01*
X188237818Y-106414170D02*
X187237818Y-106414170D01*
X187714009Y-106414170D02*
X187714009Y-106985598D01*
X188237818Y-106985598D02*
X187237818Y-106985598D01*
X188237818Y-107604646D02*
X188190199Y-107509408D01*
X188142580Y-107461789D01*
X188047342Y-107414170D01*
X187761628Y-107414170D01*
X187666390Y-107461789D01*
X187618771Y-107509408D01*
X187571152Y-107604646D01*
X187571152Y-107747503D01*
X187618771Y-107842741D01*
X187666390Y-107890360D01*
X187761628Y-107937979D01*
X188047342Y-107937979D01*
X188142580Y-107890360D01*
X188190199Y-107842741D01*
X188237818Y-107747503D01*
X188237818Y-107604646D01*
X188237818Y-108509408D02*
X188190199Y-108414170D01*
X188142580Y-108366550D01*
X188047342Y-108318931D01*
X187761628Y-108318931D01*
X187666390Y-108366550D01*
X187618771Y-108414170D01*
X187571152Y-108509408D01*
X187571152Y-108652265D01*
X187618771Y-108747503D01*
X187666390Y-108795122D01*
X187761628Y-108842741D01*
X188047342Y-108842741D01*
X188142580Y-108795122D01*
X188190199Y-108747503D01*
X188237818Y-108652265D01*
X188237818Y-108509408D01*
X188237818Y-109699884D02*
X187237818Y-109699884D01*
X188190199Y-109699884D02*
X188237818Y-109604646D01*
X188237818Y-109414170D01*
X188190199Y-109318931D01*
X188142580Y-109271312D01*
X188047342Y-109223693D01*
X187761628Y-109223693D01*
X187666390Y-109271312D01*
X187618771Y-109318931D01*
X187571152Y-109414170D01*
X187571152Y-109604646D01*
X187618771Y-109699884D01*
X188237818Y-111461789D02*
X188237818Y-110890360D01*
X188237818Y-111176074D02*
X187237818Y-111176074D01*
X187380676Y-111080836D01*
X187475914Y-110985598D01*
X187523533Y-110890360D01*
X187190199Y-112604646D02*
X188475914Y-111747503D01*
X187237818Y-112842741D02*
X187237818Y-113461789D01*
X187618771Y-113128455D01*
X187618771Y-113271312D01*
X187666390Y-113366550D01*
X187714009Y-113414170D01*
X187809247Y-113461789D01*
X188047342Y-113461789D01*
X188142580Y-113414170D01*
X188190199Y-113366550D01*
X188237818Y-113271312D01*
X188237818Y-112985598D01*
X188190199Y-112890360D01*
X188142580Y-112842741D01*
X187190199Y-114604646D02*
X188475914Y-113747503D01*
X187333057Y-114890360D02*
X187285438Y-114937979D01*
X187237818Y-115033217D01*
X187237818Y-115271312D01*
X187285438Y-115366550D01*
X187333057Y-115414170D01*
X187428295Y-115461789D01*
X187523533Y-115461789D01*
X187666390Y-115414170D01*
X188237818Y-114842741D01*
X188237818Y-115461789D01*
X187237818Y-116080836D02*
X187237818Y-116176074D01*
X187285438Y-116271312D01*
X187333057Y-116318931D01*
X187428295Y-116366550D01*
X187618771Y-116414170D01*
X187856866Y-116414170D01*
X188047342Y-116366550D01*
X188142580Y-116318931D01*
X188190199Y-116271312D01*
X188237818Y-116176074D01*
X188237818Y-116080836D01*
X188190199Y-115985598D01*
X188142580Y-115937979D01*
X188047342Y-115890360D01*
X187856866Y-115842741D01*
X187618771Y-115842741D01*
X187428295Y-115890360D01*
X187333057Y-115937979D01*
X187285438Y-115985598D01*
X187237818Y-116080836D01*
X187333057Y-116795122D02*
X187285438Y-116842741D01*
X187237818Y-116937979D01*
X187237818Y-117176074D01*
X187285438Y-117271312D01*
X187333057Y-117318931D01*
X187428295Y-117366550D01*
X187523533Y-117366550D01*
X187666390Y-117318931D01*
X188237818Y-116747503D01*
X188237818Y-117366550D01*
X188237818Y-118318931D02*
X188237818Y-117747503D01*
X188237818Y-118033217D02*
X187237818Y-118033217D01*
X187380676Y-117937979D01*
X187475914Y-117842741D01*
X187523533Y-117747503D01*
X134452380Y-103309523D02*
X134452380Y-103500000D01*
X134500000Y-103595238D01*
X134595238Y-103690476D01*
X134785714Y-103738095D01*
X135119047Y-103738095D01*
X135309523Y-103690476D01*
X135404761Y-103595238D01*
X135452380Y-103500000D01*
X135452380Y-103309523D01*
X135404761Y-103214285D01*
X135309523Y-103119047D01*
X135119047Y-103071428D01*
X134785714Y-103071428D01*
X134595238Y-103119047D01*
X134500000Y-103214285D01*
X134452380Y-103309523D01*
X134785714Y-104166666D02*
X135785714Y-104166666D01*
X134833333Y-104166666D02*
X134785714Y-104261904D01*
X134785714Y-104452380D01*
X134833333Y-104547619D01*
X134880952Y-104595238D01*
X134976190Y-104642857D01*
X135261904Y-104642857D01*
X135357142Y-104595238D01*
X135404761Y-104547619D01*
X135452380Y-104452380D01*
X135452380Y-104261904D01*
X135404761Y-104166666D01*
X134785714Y-104928571D02*
X134785714Y-105309523D01*
X134452380Y-105071428D02*
X135309523Y-105071428D01*
X135404761Y-105119047D01*
X135452380Y-105214285D01*
X135452380Y-105309523D01*
X135452380Y-105642857D02*
X134785714Y-105642857D01*
X134452380Y-105642857D02*
X134500000Y-105595238D01*
X134547619Y-105642857D01*
X134500000Y-105690476D01*
X134452380Y-105642857D01*
X134547619Y-105642857D01*
X135452380Y-106261904D02*
X135404761Y-106166666D01*
X135357142Y-106119047D01*
X135261904Y-106071428D01*
X134976190Y-106071428D01*
X134880952Y-106119047D01*
X134833333Y-106166666D01*
X134785714Y-106261904D01*
X134785714Y-106404761D01*
X134833333Y-106500000D01*
X134880952Y-106547619D01*
X134976190Y-106595238D01*
X135261904Y-106595238D01*
X135357142Y-106547619D01*
X135404761Y-106500000D01*
X135452380Y-106404761D01*
X135452380Y-106261904D01*
X134785714Y-107023809D02*
X135452380Y-107023809D01*
X134880952Y-107023809D02*
X134833333Y-107071428D01*
X134785714Y-107166666D01*
X134785714Y-107309523D01*
X134833333Y-107404761D01*
X134928571Y-107452380D01*
X135452380Y-107452380D01*
X135452380Y-108357142D02*
X134928571Y-108357142D01*
X134833333Y-108309523D01*
X134785714Y-108214285D01*
X134785714Y-108023809D01*
X134833333Y-107928571D01*
X135404761Y-108357142D02*
X135452380Y-108261904D01*
X135452380Y-108023809D01*
X135404761Y-107928571D01*
X135309523Y-107880952D01*
X135214285Y-107880952D01*
X135119047Y-107928571D01*
X135071428Y-108023809D01*
X135071428Y-108261904D01*
X135023809Y-108357142D01*
X135452380Y-108976190D02*
X135404761Y-108880952D01*
X135309523Y-108833333D01*
X134452380Y-108833333D01*
X178756984Y-139838883D02*
X178185556Y-139838883D01*
X178471270Y-140838883D02*
X178471270Y-139838883D01*
X177852222Y-140838883D02*
X177852222Y-139838883D01*
X177423651Y-140838883D02*
X177423651Y-140315074D01*
X177471270Y-140219836D01*
X177566508Y-140172217D01*
X177709365Y-140172217D01*
X177804603Y-140219836D01*
X177852222Y-140267455D01*
X176518889Y-140838883D02*
X176518889Y-140315074D01*
X176566508Y-140219836D01*
X176661746Y-140172217D01*
X176852222Y-140172217D01*
X176947460Y-140219836D01*
X176518889Y-140791264D02*
X176614127Y-140838883D01*
X176852222Y-140838883D01*
X176947460Y-140791264D01*
X176995079Y-140696026D01*
X176995079Y-140600788D01*
X176947460Y-140505550D01*
X176852222Y-140457931D01*
X176614127Y-140457931D01*
X176518889Y-140410312D01*
X176042698Y-140172217D02*
X176042698Y-140838883D01*
X176042698Y-140267455D02*
X175995079Y-140219836D01*
X175899841Y-140172217D01*
X175756984Y-140172217D01*
X175661746Y-140219836D01*
X175614127Y-140315074D01*
X175614127Y-140838883D01*
X175137937Y-140838883D02*
X175137937Y-139838883D01*
X175042698Y-140457931D02*
X174756984Y-140838883D01*
X174756984Y-140172217D02*
X175137937Y-140553169D01*
X174376032Y-140791264D02*
X174280794Y-140838883D01*
X174090317Y-140838883D01*
X173995079Y-140791264D01*
X173947460Y-140696026D01*
X173947460Y-140648407D01*
X173995079Y-140553169D01*
X174090317Y-140505550D01*
X174233175Y-140505550D01*
X174328413Y-140457931D01*
X174376032Y-140362693D01*
X174376032Y-140315074D01*
X174328413Y-140219836D01*
X174233175Y-140172217D01*
X174090317Y-140172217D01*
X173995079Y-140219836D01*
X172899841Y-140172217D02*
X172518889Y-140172217D01*
X172756984Y-139838883D02*
X172756984Y-140696026D01*
X172709365Y-140791264D01*
X172614127Y-140838883D01*
X172518889Y-140838883D01*
X172042698Y-140838883D02*
X172137937Y-140791264D01*
X172185556Y-140743645D01*
X172233175Y-140648407D01*
X172233175Y-140362693D01*
X172185556Y-140267455D01*
X172137937Y-140219836D01*
X172042698Y-140172217D01*
X171899841Y-140172217D01*
X171804603Y-140219836D01*
X171756984Y-140267455D01*
X171709365Y-140362693D01*
X171709365Y-140648407D01*
X171756984Y-140743645D01*
X171804603Y-140791264D01*
X171899841Y-140838883D01*
X172042698Y-140838883D01*
X170090317Y-140838883D02*
X170090317Y-140315074D01*
X170137937Y-140219836D01*
X170233175Y-140172217D01*
X170423651Y-140172217D01*
X170518889Y-140219836D01*
X170090317Y-140791264D02*
X170185556Y-140838883D01*
X170423651Y-140838883D01*
X170518889Y-140791264D01*
X170566508Y-140696026D01*
X170566508Y-140600788D01*
X170518889Y-140505550D01*
X170423651Y-140457931D01*
X170185556Y-140457931D01*
X170090317Y-140410312D01*
X169471270Y-140838883D02*
X169566508Y-140791264D01*
X169614127Y-140696026D01*
X169614127Y-139838883D01*
X168709365Y-140791264D02*
X168804603Y-140838883D01*
X168995079Y-140838883D01*
X169090317Y-140791264D01*
X169137937Y-140696026D01*
X169137937Y-140315074D01*
X169090317Y-140219836D01*
X168995079Y-140172217D01*
X168804603Y-140172217D01*
X168709365Y-140219836D01*
X168661746Y-140315074D01*
X168661746Y-140410312D01*
X169137937Y-140505550D01*
X167804603Y-140791264D02*
X167899841Y-140838883D01*
X168090317Y-140838883D01*
X168185556Y-140791264D01*
X168233175Y-140743645D01*
X168280794Y-140648407D01*
X168280794Y-140362693D01*
X168233175Y-140267455D01*
X168185556Y-140219836D01*
X168090317Y-140172217D01*
X167899841Y-140172217D01*
X167804603Y-140219836D01*
X167376032Y-140172217D02*
X167376032Y-141029360D01*
X167423651Y-141124598D01*
X167518889Y-141172217D01*
X167566508Y-141172217D01*
X167376032Y-139838883D02*
X167423651Y-139886503D01*
X167376032Y-139934122D01*
X167328413Y-139886503D01*
X167376032Y-139838883D01*
X167376032Y-139934122D01*
X166899841Y-140172217D02*
X166899841Y-141172217D01*
X166899841Y-140219836D02*
X166804603Y-140172217D01*
X166614127Y-140172217D01*
X166518889Y-140219836D01*
X166471270Y-140267455D01*
X166423651Y-140362693D01*
X166423651Y-140648407D01*
X166471270Y-140743645D01*
X166518889Y-140791264D01*
X166614127Y-140838883D01*
X166804603Y-140838883D01*
X166899841Y-140791264D01*
X165995079Y-140838883D02*
X165995079Y-140172217D01*
X165995079Y-140362693D02*
X165947460Y-140267455D01*
X165899841Y-140219836D01*
X165804603Y-140172217D01*
X165709365Y-140172217D01*
X165233175Y-140838883D02*
X165328413Y-140791264D01*
X165376032Y-140743645D01*
X165423651Y-140648407D01*
X165423651Y-140362693D01*
X165376032Y-140267455D01*
X165328413Y-140219836D01*
X165233175Y-140172217D01*
X165090317Y-140172217D01*
X164995079Y-140219836D01*
X164947460Y-140267455D01*
X164899841Y-140362693D01*
X164899841Y-140648407D01*
X164947460Y-140743645D01*
X164995079Y-140791264D01*
X165090317Y-140838883D01*
X165233175Y-140838883D01*
X164471270Y-140838883D02*
X164471270Y-139838883D01*
X164471270Y-140219836D02*
X164376032Y-140172217D01*
X164185556Y-140172217D01*
X164090317Y-140219836D01*
X164042698Y-140267455D01*
X163995079Y-140362693D01*
X163995079Y-140648407D01*
X164042698Y-140743645D01*
X164090317Y-140791264D01*
X164185556Y-140838883D01*
X164376032Y-140838883D01*
X164471270Y-140791264D01*
X163614127Y-140791264D02*
X163518889Y-140838883D01*
X163328413Y-140838883D01*
X163233175Y-140791264D01*
X163185556Y-140696026D01*
X163185556Y-140648407D01*
X163233175Y-140553169D01*
X163328413Y-140505550D01*
X163471270Y-140505550D01*
X163566508Y-140457931D01*
X163614127Y-140362693D01*
X163614127Y-140315074D01*
X163566508Y-140219836D01*
X163471270Y-140172217D01*
X163328413Y-140172217D01*
X163233175Y-140219836D01*
X162899841Y-140172217D02*
X162518889Y-140172217D01*
X162756984Y-139838883D02*
X162756984Y-140696026D01*
X162709365Y-140791264D01*
X162614127Y-140838883D01*
X162518889Y-140838883D01*
X176185556Y-141782217D02*
X175804603Y-141782217D01*
X176042698Y-142448883D02*
X176042698Y-141591741D01*
X175995079Y-141496503D01*
X175899841Y-141448883D01*
X175804603Y-141448883D01*
X175328413Y-142448883D02*
X175423651Y-142401264D01*
X175471270Y-142353645D01*
X175518889Y-142258407D01*
X175518889Y-141972693D01*
X175471270Y-141877455D01*
X175423651Y-141829836D01*
X175328413Y-141782217D01*
X175185556Y-141782217D01*
X175090317Y-141829836D01*
X175042698Y-141877455D01*
X174995079Y-141972693D01*
X174995079Y-142258407D01*
X175042698Y-142353645D01*
X175090317Y-142401264D01*
X175185556Y-142448883D01*
X175328413Y-142448883D01*
X174566508Y-142448883D02*
X174566508Y-141782217D01*
X174566508Y-141972693D02*
X174518889Y-141877455D01*
X174471270Y-141829836D01*
X174376032Y-141782217D01*
X174280794Y-141782217D01*
X173185556Y-142448883D02*
X173185556Y-141782217D01*
X173185556Y-141448883D02*
X173233175Y-141496503D01*
X173185556Y-141544122D01*
X173137937Y-141496503D01*
X173185556Y-141448883D01*
X173185556Y-141544122D01*
X172709365Y-141782217D02*
X172709365Y-142448883D01*
X172709365Y-141877455D02*
X172661746Y-141829836D01*
X172566508Y-141782217D01*
X172423651Y-141782217D01*
X172328413Y-141829836D01*
X172280794Y-141925074D01*
X172280794Y-142448883D01*
X171852222Y-142401264D02*
X171756984Y-142448883D01*
X171566508Y-142448883D01*
X171471270Y-142401264D01*
X171423651Y-142306026D01*
X171423651Y-142258407D01*
X171471270Y-142163169D01*
X171566508Y-142115550D01*
X171709365Y-142115550D01*
X171804603Y-142067931D01*
X171852222Y-141972693D01*
X171852222Y-141925074D01*
X171804603Y-141829836D01*
X171709365Y-141782217D01*
X171566508Y-141782217D01*
X171471270Y-141829836D01*
X170995079Y-141782217D02*
X170995079Y-142782217D01*
X170995079Y-141829836D02*
X170899841Y-141782217D01*
X170709365Y-141782217D01*
X170614127Y-141829836D01*
X170566508Y-141877455D01*
X170518889Y-141972693D01*
X170518889Y-142258407D01*
X170566508Y-142353645D01*
X170614127Y-142401264D01*
X170709365Y-142448883D01*
X170899841Y-142448883D01*
X170995079Y-142401264D01*
X170090317Y-142448883D02*
X170090317Y-141782217D01*
X170090317Y-141448883D02*
X170137937Y-141496503D01*
X170090317Y-141544122D01*
X170042698Y-141496503D01*
X170090317Y-141448883D01*
X170090317Y-141544122D01*
X169614127Y-142448883D02*
X169614127Y-141782217D01*
X169614127Y-141972693D02*
X169566508Y-141877455D01*
X169518889Y-141829836D01*
X169423651Y-141782217D01*
X169328413Y-141782217D01*
X168566508Y-142448883D02*
X168566508Y-141925074D01*
X168614127Y-141829836D01*
X168709365Y-141782217D01*
X168899841Y-141782217D01*
X168995079Y-141829836D01*
X168566508Y-142401264D02*
X168661746Y-142448883D01*
X168899841Y-142448883D01*
X168995079Y-142401264D01*
X169042698Y-142306026D01*
X169042698Y-142210788D01*
X168995079Y-142115550D01*
X168899841Y-142067931D01*
X168661746Y-142067931D01*
X168566508Y-142020312D01*
X168233175Y-141782217D02*
X167852222Y-141782217D01*
X168090317Y-141448883D02*
X168090317Y-142306026D01*
X168042698Y-142401264D01*
X167947460Y-142448883D01*
X167852222Y-142448883D01*
X167518889Y-142448883D02*
X167518889Y-141782217D01*
X167518889Y-141448883D02*
X167566508Y-141496503D01*
X167518889Y-141544122D01*
X167471270Y-141496503D01*
X167518889Y-141448883D01*
X167518889Y-141544122D01*
X166899841Y-142448883D02*
X166995079Y-142401264D01*
X167042698Y-142353645D01*
X167090317Y-142258407D01*
X167090317Y-141972693D01*
X167042698Y-141877455D01*
X166995079Y-141829836D01*
X166899841Y-141782217D01*
X166756984Y-141782217D01*
X166661746Y-141829836D01*
X166614127Y-141877455D01*
X166566508Y-141972693D01*
X166566508Y-142258407D01*
X166614127Y-142353645D01*
X166661746Y-142401264D01*
X166756984Y-142448883D01*
X166899841Y-142448883D01*
X166137937Y-141782217D02*
X166137937Y-142448883D01*
X166137937Y-141877455D02*
X166090317Y-141829836D01*
X165995079Y-141782217D01*
X165852222Y-141782217D01*
X165756984Y-141829836D01*
X165709365Y-141925074D01*
X165709365Y-142448883D01*
X165233175Y-142353645D02*
X165185556Y-142401264D01*
X165233175Y-142448883D01*
X165280794Y-142401264D01*
X165233175Y-142353645D01*
X165233175Y-142448883D01*
X165233175Y-142067931D02*
X165280794Y-141496503D01*
X165233175Y-141448883D01*
X165185556Y-141496503D01*
X165233175Y-142067931D01*
X165233175Y-141448883D01*
X187967125Y-121928571D02*
X187824268Y-121976190D01*
X187776649Y-122023809D01*
X187729030Y-122119047D01*
X187729030Y-122261904D01*
X187776649Y-122357142D01*
X187824268Y-122404761D01*
X187919506Y-122452380D01*
X188300459Y-122452380D01*
X188300459Y-121452380D01*
X187967125Y-121452380D01*
X187871887Y-121500000D01*
X187824268Y-121547619D01*
X187776649Y-121642857D01*
X187776649Y-121738095D01*
X187824268Y-121833333D01*
X187871887Y-121880952D01*
X187967125Y-121928571D01*
X188300459Y-121928571D01*
X187348078Y-122166666D02*
X186871887Y-122166666D01*
X187443316Y-122452380D02*
X187109983Y-121452380D01*
X186776649Y-122452380D01*
X186586173Y-121452380D02*
X186014744Y-121452380D01*
X186300459Y-122452380D02*
X186300459Y-121452380D01*
X185681411Y-122071428D02*
X184919506Y-122071428D01*
X185300459Y-122452380D02*
X185300459Y-121690476D01*
X167047619Y-95928571D02*
X166904761Y-95976190D01*
X166857142Y-96023809D01*
X166809523Y-96119047D01*
X166809523Y-96261904D01*
X166857142Y-96357142D01*
X166904761Y-96404761D01*
X167000000Y-96452380D01*
X167380952Y-96452380D01*
X167380952Y-95452380D01*
X167047619Y-95452380D01*
X166952380Y-95500000D01*
X166904761Y-95547619D01*
X166857142Y-95642857D01*
X166857142Y-95738095D01*
X166904761Y-95833333D01*
X166952380Y-95880952D01*
X167047619Y-95928571D01*
X167380952Y-95928571D01*
X166238095Y-96452380D02*
X166333333Y-96404761D01*
X166380952Y-96357142D01*
X166428571Y-96261904D01*
X166428571Y-95976190D01*
X166380952Y-95880952D01*
X166333333Y-95833333D01*
X166238095Y-95785714D01*
X166095238Y-95785714D01*
X166000000Y-95833333D01*
X165952380Y-95880952D01*
X165904761Y-95976190D01*
X165904761Y-96261904D01*
X165952380Y-96357142D01*
X166000000Y-96404761D01*
X166095238Y-96452380D01*
X166238095Y-96452380D01*
X165619047Y-95785714D02*
X165238095Y-95785714D01*
X165476190Y-95452380D02*
X165476190Y-96309523D01*
X165428571Y-96404761D01*
X165333333Y-96452380D01*
X165238095Y-96452380D01*
X165047619Y-95785714D02*
X164666666Y-95785714D01*
X164904761Y-95452380D02*
X164904761Y-96309523D01*
X164857142Y-96404761D01*
X164761904Y-96452380D01*
X164666666Y-96452380D01*
X164190476Y-96452380D02*
X164285714Y-96404761D01*
X164333333Y-96357142D01*
X164380952Y-96261904D01*
X164380952Y-95976190D01*
X164333333Y-95880952D01*
X164285714Y-95833333D01*
X164190476Y-95785714D01*
X164047619Y-95785714D01*
X163952380Y-95833333D01*
X163904761Y-95880952D01*
X163857142Y-95976190D01*
X163857142Y-96261904D01*
X163904761Y-96357142D01*
X163952380Y-96404761D01*
X164047619Y-96452380D01*
X164190476Y-96452380D01*
X163428571Y-96452380D02*
X163428571Y-95785714D01*
X163428571Y-95880952D02*
X163380952Y-95833333D01*
X163285714Y-95785714D01*
X163142857Y-95785714D01*
X163047619Y-95833333D01*
X163000000Y-95928571D01*
X163000000Y-96452380D01*
X163000000Y-95928571D02*
X162952380Y-95833333D01*
X162857142Y-95785714D01*
X162714285Y-95785714D01*
X162619047Y-95833333D01*
X162571428Y-95928571D01*
X162571428Y-96452380D01*
X161380952Y-96404761D02*
X161238095Y-96452380D01*
X161000000Y-96452380D01*
X160904761Y-96404761D01*
X160857142Y-96357142D01*
X160809523Y-96261904D01*
X160809523Y-96166666D01*
X160857142Y-96071428D01*
X160904761Y-96023809D01*
X161000000Y-95976190D01*
X161190476Y-95928571D01*
X161285714Y-95880952D01*
X161333333Y-95833333D01*
X161380952Y-95738095D01*
X161380952Y-95642857D01*
X161333333Y-95547619D01*
X161285714Y-95500000D01*
X161190476Y-95452380D01*
X160952380Y-95452380D01*
X160809523Y-95500000D01*
X160380952Y-96452380D02*
X160380952Y-95785714D01*
X160380952Y-95452380D02*
X160428571Y-95500000D01*
X160380952Y-95547619D01*
X160333333Y-95500000D01*
X160380952Y-95452380D01*
X160380952Y-95547619D01*
X159476190Y-96452380D02*
X159476190Y-95452380D01*
X159476190Y-96404761D02*
X159571428Y-96452380D01*
X159761904Y-96452380D01*
X159857142Y-96404761D01*
X159904761Y-96357142D01*
X159952380Y-96261904D01*
X159952380Y-95976190D01*
X159904761Y-95880952D01*
X159857142Y-95833333D01*
X159761904Y-95785714D01*
X159571428Y-95785714D01*
X159476190Y-95833333D01*
X158619047Y-96404761D02*
X158714285Y-96452380D01*
X158904761Y-96452380D01*
X159000000Y-96404761D01*
X159047619Y-96309523D01*
X159047619Y-95928571D01*
X159000000Y-95833333D01*
X158904761Y-95785714D01*
X158714285Y-95785714D01*
X158619047Y-95833333D01*
X158571428Y-95928571D01*
X158571428Y-96023809D01*
X159047619Y-96119047D01*
D11*
X158639559Y-145052382D02*
X158784702Y-144979810D01*
X159002416Y-144979810D01*
X159220130Y-145052382D01*
X159365273Y-145197524D01*
X159437845Y-145342667D01*
X159510416Y-145632953D01*
X159510416Y-145850667D01*
X159437845Y-146140953D01*
X159365273Y-146286096D01*
X159220130Y-146431239D01*
X159002416Y-146503810D01*
X158857273Y-146503810D01*
X158639559Y-146431239D01*
X158566988Y-146358667D01*
X158566988Y-145850667D01*
X158857273Y-145850667D01*
X157696130Y-144979810D02*
X157696130Y-145342667D01*
X158058988Y-145197524D02*
X157696130Y-145342667D01*
X157333273Y-145197524D01*
X157913845Y-145632953D02*
X157696130Y-145342667D01*
X157478416Y-145632953D01*
X156534988Y-144979810D02*
X156534988Y-145342667D01*
X156897845Y-145197524D02*
X156534988Y-145342667D01*
X156172130Y-145197524D01*
X156752702Y-145632953D02*
X156534988Y-145342667D01*
X156317273Y-145632953D01*
X155373845Y-144979810D02*
X155373845Y-145342667D01*
X155736702Y-145197524D02*
X155373845Y-145342667D01*
X155010988Y-145197524D01*
X155591559Y-145632953D02*
X155373845Y-145342667D01*
X155156130Y-145632953D01*
G36*
X152732910Y-125776850D02*
G01*
X152637625Y-125855974D01*
X152632704Y-125858899D01*
X152564526Y-125889077D01*
X152503377Y-125901467D01*
X152436885Y-125896151D01*
X152312997Y-125859439D01*
X152201148Y-125794149D01*
X152110237Y-125707749D01*
X152049164Y-125607710D01*
X152047369Y-125599172D01*
X152145966Y-125599172D01*
X152152486Y-125619893D01*
X152188472Y-125668388D01*
X152244848Y-125723246D01*
X152308901Y-125772684D01*
X152367921Y-125804918D01*
X152408446Y-125817265D01*
X152524933Y-125822010D01*
X152633231Y-125783273D01*
X152723250Y-125703921D01*
X152756281Y-125656605D01*
X152762203Y-125632552D01*
X152736409Y-125641583D01*
X152681253Y-125684774D01*
X152609631Y-125735139D01*
X152521984Y-125758725D01*
X152502378Y-125757615D01*
X152421146Y-125738685D01*
X152333486Y-125702696D01*
X152257202Y-125657976D01*
X152210103Y-125612854D01*
X152184058Y-125580344D01*
X152156966Y-125570403D01*
X152145966Y-125599172D01*
X152047369Y-125599172D01*
X152026829Y-125501499D01*
X152029897Y-125480509D01*
X152365276Y-125480509D01*
X152395650Y-125511115D01*
X152450958Y-125534015D01*
X152535065Y-125543139D01*
X152620137Y-125534579D01*
X152683485Y-125508537D01*
X152709658Y-125487004D01*
X152715570Y-125465714D01*
X152683485Y-125437055D01*
X152656391Y-125422027D01*
X152584951Y-125404762D01*
X152502961Y-125402048D01*
X152429112Y-125413725D01*
X152382100Y-125439633D01*
X152374021Y-125449950D01*
X152365276Y-125480509D01*
X152029897Y-125480509D01*
X152034224Y-125450904D01*
X152069868Y-125397708D01*
X152140694Y-125355412D01*
X152252935Y-125318985D01*
X152277170Y-125312931D01*
X152447134Y-125286090D01*
X152596924Y-125290216D01*
X152720597Y-125324571D01*
X152812210Y-125388417D01*
X152838289Y-125420250D01*
X152855246Y-125465714D01*
X152857463Y-125471659D01*
X152854286Y-125544224D01*
X152850546Y-125565535D01*
X152824209Y-125632552D01*
X152807715Y-125674524D01*
X152732910Y-125776850D01*
G37*
G36*
X150469064Y-126876716D02*
G01*
X150324449Y-126962212D01*
X150307686Y-126970284D01*
X150202358Y-127007502D01*
X150105874Y-127021576D01*
X150078957Y-127020585D01*
X149996067Y-127001237D01*
X149924733Y-126954151D01*
X149862337Y-126875349D01*
X149806258Y-126760853D01*
X149753879Y-126606684D01*
X149702582Y-126408863D01*
X149688446Y-126348918D01*
X149647576Y-126185166D01*
X149618300Y-126084704D01*
X149715612Y-126084704D01*
X149721575Y-126160291D01*
X149740817Y-126269361D01*
X149772748Y-126406900D01*
X149819351Y-126574186D01*
X149877638Y-126738656D01*
X149936630Y-126856475D01*
X149996111Y-126927141D01*
X150004614Y-126933689D01*
X150056057Y-126963651D01*
X150108267Y-126969624D01*
X150174063Y-126950583D01*
X150266262Y-126905498D01*
X150357866Y-126847435D01*
X150408654Y-126787032D01*
X150423274Y-126713700D01*
X150407064Y-126616482D01*
X150406155Y-126613159D01*
X150361514Y-126519907D01*
X150281602Y-126417047D01*
X150174856Y-126312851D01*
X150049716Y-126215598D01*
X149914621Y-126133562D01*
X149891320Y-126121465D01*
X149813870Y-126082337D01*
X149756401Y-126054960D01*
X149729958Y-126044653D01*
X149723521Y-126047616D01*
X149715612Y-126084704D01*
X149618300Y-126084704D01*
X149611774Y-126062311D01*
X149578483Y-125975771D01*
X149545146Y-125920963D01*
X149509206Y-125893303D01*
X149468106Y-125888208D01*
X149419290Y-125901096D01*
X149373650Y-125912640D01*
X149359477Y-125903856D01*
X149378903Y-125881496D01*
X149430037Y-125853871D01*
X149480587Y-125838578D01*
X149557836Y-125836417D01*
X149648561Y-125859012D01*
X149760292Y-125908494D01*
X149900561Y-125986993D01*
X150046406Y-126071672D01*
X150213157Y-126162568D01*
X150363705Y-126238202D01*
X150490319Y-126294719D01*
X150585272Y-126328268D01*
X150626372Y-126338374D01*
X150722623Y-126351492D01*
X150822984Y-126347127D01*
X150940327Y-126324071D01*
X151087523Y-126281116D01*
X151154761Y-126260157D01*
X151240376Y-126235436D01*
X151300935Y-126220445D01*
X151326360Y-126217855D01*
X151326634Y-126218288D01*
X151308870Y-126232784D01*
X151257966Y-126259346D01*
X151184218Y-126292561D01*
X151162973Y-126301835D01*
X151069335Y-126351833D01*
X150987045Y-126416268D01*
X150898418Y-126508498D01*
X150773136Y-126635908D01*
X150682346Y-126713700D01*
X150623893Y-126763784D01*
X150469064Y-126876716D01*
G37*
G36*
X151399374Y-126195560D02*
G01*
X151403102Y-126202727D01*
X151383489Y-126211445D01*
X151370875Y-126209725D01*
X151367605Y-126195560D01*
X151371097Y-126192708D01*
X151399374Y-126195560D01*
G37*
G36*
X156454610Y-121720293D02*
G01*
X156489732Y-121772468D01*
X156498947Y-121794924D01*
X156483910Y-121788987D01*
X156431466Y-121764506D01*
X156346934Y-121723718D01*
X156236059Y-121669422D01*
X156104587Y-121604416D01*
X155958261Y-121531501D01*
X155873974Y-121489679D01*
X155706347Y-121408231D01*
X155541191Y-121330019D01*
X155388486Y-121259677D01*
X155258213Y-121201836D01*
X155160353Y-121161130D01*
X155120157Y-121145690D01*
X154979351Y-121095278D01*
X154840620Y-121050618D01*
X154712433Y-121014009D01*
X154603261Y-120987748D01*
X154521575Y-120974133D01*
X154475845Y-120975461D01*
X154463924Y-120985298D01*
X154456831Y-120995905D01*
X154434379Y-121029480D01*
X154398662Y-121098115D01*
X154361434Y-121180066D01*
X154327355Y-121264191D01*
X154301084Y-121339353D01*
X154287283Y-121394412D01*
X154290611Y-121418228D01*
X154316652Y-121429936D01*
X154390465Y-121481785D01*
X154479173Y-121562972D01*
X154575126Y-121666136D01*
X154670676Y-121783917D01*
X154719939Y-121850539D01*
X154848859Y-122037109D01*
X154982117Y-122245206D01*
X155114093Y-122464990D01*
X155239161Y-122686623D01*
X155351701Y-122900266D01*
X155446087Y-123096081D01*
X155516698Y-123264228D01*
X155534002Y-123310469D01*
X155556150Y-123373748D01*
X155562165Y-123404394D01*
X155552738Y-123410295D01*
X155528563Y-123399335D01*
X155527640Y-123398824D01*
X155493992Y-123376345D01*
X155428077Y-123329420D01*
X155335337Y-123262027D01*
X155221217Y-123178146D01*
X155091160Y-123081758D01*
X154950610Y-122976840D01*
X154831180Y-122887779D01*
X154671171Y-122769545D01*
X154514010Y-122654519D01*
X154368482Y-122549090D01*
X154243372Y-122459650D01*
X154147467Y-122392589D01*
X153873452Y-122204703D01*
X153747299Y-122343581D01*
X153675168Y-122427424D01*
X153593672Y-122530126D01*
X153526896Y-122622181D01*
X153512551Y-122643579D01*
X153468573Y-122714973D01*
X153444604Y-122774064D01*
X153434633Y-122840825D01*
X153432645Y-122935228D01*
X153431623Y-122983264D01*
X153423823Y-123073601D01*
X153406924Y-123172414D01*
X153379244Y-123285561D01*
X153339098Y-123418897D01*
X153284805Y-123578281D01*
X153214680Y-123769567D01*
X153127042Y-123998614D01*
X153072613Y-124139491D01*
X153001859Y-124325590D01*
X152946062Y-124477413D01*
X152903283Y-124600912D01*
X152871587Y-124702040D01*
X152849033Y-124786749D01*
X152833685Y-124860992D01*
X152823605Y-124930723D01*
X152818532Y-124973753D01*
X152815388Y-125027457D01*
X152826611Y-125056106D01*
X152860310Y-125063727D01*
X152924597Y-125054346D01*
X153027580Y-125031989D01*
X153089130Y-125020589D01*
X153214673Y-125006041D01*
X153349537Y-124998823D01*
X153479652Y-124999130D01*
X153590947Y-125007157D01*
X153669352Y-125023099D01*
X153690041Y-125030957D01*
X153730678Y-125058280D01*
X153734707Y-125094582D01*
X153730134Y-125120115D01*
X153729373Y-125124366D01*
X153738023Y-125134162D01*
X153766125Y-125110249D01*
X153815915Y-125050585D01*
X153889629Y-124953130D01*
X154079464Y-124713695D01*
X154278309Y-124502934D01*
X154480439Y-124331195D01*
X154690840Y-124194270D01*
X154914499Y-124087947D01*
X154968379Y-124066934D01*
X155058228Y-124036348D01*
X155138507Y-124018713D01*
X155228270Y-124010514D01*
X155346573Y-124008236D01*
X155580670Y-124007411D01*
X155659646Y-124093533D01*
X155730619Y-124202578D01*
X155763243Y-124328971D01*
X155757407Y-124462877D01*
X155714603Y-124596201D01*
X155636326Y-124720845D01*
X155524067Y-124828715D01*
X155518652Y-124832719D01*
X155450500Y-124878146D01*
X155353464Y-124937260D01*
X155239685Y-125002857D01*
X155121307Y-125067730D01*
X155076741Y-125091781D01*
X154882081Y-125207095D01*
X154728887Y-125318998D01*
X154612778Y-125432424D01*
X154529369Y-125552307D01*
X154474278Y-125683581D01*
X154443124Y-125831179D01*
X154426060Y-125961257D01*
X154602477Y-125777369D01*
X154653840Y-125724549D01*
X154724726Y-125656634D01*
X154779479Y-125614137D01*
X154815495Y-125596221D01*
X155100563Y-125596221D01*
X155107660Y-125610112D01*
X155141734Y-125649663D01*
X155194480Y-125700733D01*
X155208588Y-125713948D01*
X155298766Y-125833194D01*
X155348359Y-125976505D01*
X155357459Y-126144338D01*
X155326162Y-126337144D01*
X155325166Y-126378053D01*
X155349296Y-126437805D01*
X155371980Y-126465605D01*
X155388250Y-126467213D01*
X155402322Y-126425999D01*
X155405988Y-126413653D01*
X155445276Y-126314326D01*
X155503903Y-126196893D01*
X155572913Y-126077059D01*
X155643350Y-125970528D01*
X155706258Y-125893006D01*
X155753700Y-125846734D01*
X155826485Y-125788079D01*
X155907890Y-125740302D01*
X156007546Y-125698936D01*
X156135082Y-125659514D01*
X156300128Y-125617571D01*
X156440312Y-125581830D01*
X156609385Y-125529004D01*
X156738081Y-125473085D01*
X156830706Y-125410944D01*
X156891561Y-125339452D01*
X156924953Y-125255480D01*
X156935183Y-125155900D01*
X156932983Y-125104877D01*
X156903484Y-124985324D01*
X156840079Y-124899150D01*
X156743384Y-124846985D01*
X156614020Y-124829456D01*
X156591195Y-124830109D01*
X156500553Y-124841789D01*
X156423436Y-124863473D01*
X156379077Y-124879779D01*
X156294685Y-124907351D01*
X156188241Y-124939943D01*
X156072747Y-124973478D01*
X156046915Y-124980808D01*
X155869217Y-125034638D01*
X155726705Y-125086316D01*
X155608979Y-125141337D01*
X155505639Y-125205193D01*
X155406285Y-125283379D01*
X155300518Y-125381387D01*
X155225215Y-125456344D01*
X155160481Y-125523734D01*
X155116672Y-125572787D01*
X155100563Y-125596221D01*
X154815495Y-125596221D01*
X154827575Y-125590212D01*
X154878494Y-125578014D01*
X154928208Y-125567054D01*
X154976106Y-125543183D01*
X155024522Y-125498437D01*
X155086227Y-125423304D01*
X155093339Y-125414201D01*
X155193309Y-125298380D01*
X155301478Y-125198093D01*
X155425554Y-125108368D01*
X155573243Y-125024231D01*
X155752251Y-124940711D01*
X155970285Y-124852833D01*
X156026204Y-124832034D01*
X156256234Y-124759475D01*
X156461684Y-124716588D01*
X156639595Y-124703642D01*
X156787011Y-124720904D01*
X156900972Y-124768641D01*
X156991664Y-124849562D01*
X157063814Y-124968435D01*
X157097230Y-125105070D01*
X157098706Y-125155900D01*
X157099607Y-125186911D01*
X157081414Y-125289163D01*
X157031556Y-125379673D01*
X156943821Y-125473354D01*
X156930866Y-125485072D01*
X156834697Y-125558222D01*
X156723300Y-125617388D01*
X156585868Y-125667442D01*
X156411594Y-125713255D01*
X156317710Y-125736512D01*
X156155094Y-125784488D01*
X156011190Y-125836688D01*
X155895492Y-125889500D01*
X155817494Y-125939311D01*
X155787614Y-125972011D01*
X155743598Y-126033054D01*
X155695151Y-126108912D01*
X155648554Y-126188762D01*
X155610084Y-126261784D01*
X155586021Y-126317156D01*
X155582644Y-126344058D01*
X155593046Y-126343474D01*
X155639415Y-126329374D01*
X155713481Y-126301989D01*
X155805267Y-126264867D01*
X155845590Y-126248014D01*
X155921686Y-126217705D01*
X155984987Y-126197327D01*
X156047583Y-126184910D01*
X156121565Y-126178481D01*
X156219022Y-126176070D01*
X156352044Y-126175704D01*
X156408798Y-126175732D01*
X156526251Y-126176620D01*
X156611278Y-126180078D01*
X156674845Y-126187858D01*
X156727918Y-126201709D01*
X156781464Y-126223383D01*
X156846450Y-126254630D01*
X156954488Y-126318496D01*
X157077717Y-126410078D01*
X157201350Y-126517484D01*
X157314900Y-126630923D01*
X157407879Y-126740601D01*
X157469801Y-126836727D01*
X157511453Y-126940516D01*
X157525733Y-127029916D01*
X157532435Y-127071874D01*
X157513066Y-127187429D01*
X157454351Y-127282578D01*
X157357292Y-127352720D01*
X157296285Y-127379088D01*
X157210199Y-127401441D01*
X157122233Y-127401949D01*
X157023155Y-127379162D01*
X156903733Y-127331624D01*
X156754735Y-127257883D01*
X156711529Y-127235468D01*
X156589598Y-127175569D01*
X156494501Y-127135870D01*
X156415827Y-127112408D01*
X156343167Y-127101219D01*
X156208536Y-127089486D01*
X156339587Y-127163852D01*
X156470456Y-127250044D01*
X156612659Y-127385915D01*
X156716025Y-127545779D01*
X156742521Y-127603156D01*
X156762483Y-127661583D01*
X156773604Y-127725725D01*
X156778174Y-127809548D01*
X156778481Y-127927017D01*
X156776422Y-128009608D01*
X156758677Y-128183773D01*
X156720784Y-128324220D01*
X156660117Y-128438766D01*
X156574047Y-128535227D01*
X156541674Y-128564050D01*
X156497280Y-128597336D01*
X156453770Y-128613636D01*
X156394993Y-128617692D01*
X156304794Y-128614244D01*
X156241672Y-128610104D01*
X156161787Y-128598305D01*
X156102007Y-128576187D01*
X156044997Y-128538712D01*
X156027503Y-128525140D01*
X155950403Y-128454354D01*
X155903882Y-128381721D01*
X155881034Y-128292316D01*
X155874953Y-128171213D01*
X155874953Y-127996333D01*
X155793223Y-128003373D01*
X155757743Y-128007674D01*
X155723611Y-128022607D01*
X155702790Y-128058997D01*
X155684315Y-128129550D01*
X155675044Y-128166301D01*
X155647515Y-128253308D01*
X155619006Y-128321304D01*
X155585402Y-128371014D01*
X155524765Y-128442860D01*
X155452846Y-128518090D01*
X155382949Y-128582876D01*
X155328377Y-128623392D01*
X155308212Y-128646047D01*
X155294914Y-128699923D01*
X155290659Y-128791944D01*
X155290650Y-128793802D01*
X155287815Y-128824611D01*
X155283140Y-128875413D01*
X155278424Y-128926669D01*
X155245844Y-129034991D01*
X155224511Y-129074763D01*
X155142637Y-129181507D01*
X155036673Y-129277963D01*
X154922742Y-129348485D01*
X154881969Y-129369770D01*
X154834704Y-129412106D01*
X154812178Y-129471763D01*
X154787113Y-129542157D01*
X154716002Y-129633847D01*
X154610290Y-129708378D01*
X154476696Y-129763237D01*
X154321941Y-129795909D01*
X154152745Y-129803882D01*
X153975829Y-129784639D01*
X153898807Y-129771196D01*
X153833399Y-129764768D01*
X153789563Y-129770025D01*
X153753572Y-129787120D01*
X153671332Y-129838507D01*
X153580871Y-129892659D01*
X153512872Y-129928312D01*
X153457129Y-129949982D01*
X153403437Y-129962187D01*
X153341589Y-129969442D01*
X153278218Y-129972098D01*
X153131953Y-129956782D01*
X152966619Y-129911270D01*
X152774902Y-129833811D01*
X152628631Y-129767489D01*
X152616812Y-130045765D01*
X152615850Y-130068407D01*
X152597561Y-130293164D01*
X152549095Y-130547834D01*
X152468835Y-130780319D01*
X152353080Y-131000814D01*
X152198131Y-131219513D01*
X152059056Y-131375566D01*
X151893680Y-131514320D01*
X151703663Y-131627382D01*
X151654055Y-131653862D01*
X151592243Y-131691807D01*
X151557725Y-131719671D01*
X151547515Y-131739418D01*
X151534821Y-131780869D01*
X151532051Y-131789916D01*
X151513520Y-131871498D01*
X151491311Y-131987397D01*
X151464815Y-132140850D01*
X151433418Y-132335092D01*
X151396512Y-132573359D01*
X151379849Y-132683362D01*
X151355503Y-132846424D01*
X151331103Y-133012216D01*
X151307665Y-133173616D01*
X151286208Y-133323501D01*
X151267748Y-133454749D01*
X151253302Y-133560236D01*
X151243889Y-133632841D01*
X151240525Y-133665440D01*
X151243350Y-133670009D01*
X151277175Y-133692782D01*
X151341186Y-133726185D01*
X151425187Y-133764739D01*
X151464084Y-133781961D01*
X151683636Y-133895922D01*
X151860504Y-134020914D01*
X151998472Y-134160027D01*
X152101324Y-134316346D01*
X152113053Y-134341112D01*
X152148779Y-134469676D01*
X152156193Y-134583287D01*
X152158374Y-134616701D01*
X152141896Y-134764786D01*
X152099402Y-134896529D01*
X152086375Y-134925633D01*
X152054436Y-135032532D01*
X152049027Y-135150390D01*
X152049941Y-135186147D01*
X152040208Y-135290437D01*
X152004749Y-135375755D01*
X151936302Y-135462181D01*
X151925513Y-135474068D01*
X151893406Y-135515135D01*
X151885602Y-135536036D01*
X151906723Y-135543427D01*
X151965707Y-135560018D01*
X152052659Y-135582870D01*
X152157880Y-135609371D01*
X152386919Y-135673351D01*
X152698600Y-135779567D01*
X152712565Y-135785122D01*
X153026086Y-135909835D01*
X153358832Y-136059359D01*
X153686293Y-136223348D01*
X153997925Y-136397007D01*
X154283182Y-136575543D01*
X154476031Y-136708581D01*
X154735294Y-136905095D01*
X154951450Y-137093949D01*
X155126453Y-137277267D01*
X155262253Y-137457167D01*
X155360804Y-137635772D01*
X155413551Y-137785400D01*
X155424057Y-137815203D01*
X155426050Y-137823111D01*
X155450964Y-137995409D01*
X155434186Y-138145549D01*
X155375279Y-138275192D01*
X155273808Y-138385996D01*
X155268600Y-138390123D01*
X155200024Y-138430459D01*
X155094294Y-138477828D01*
X155066786Y-138488366D01*
X154959809Y-138529348D01*
X154804971Y-138582137D01*
X154638180Y-138633313D01*
X154467838Y-138679993D01*
X154302345Y-138719294D01*
X154080116Y-138760192D01*
X153785500Y-138798663D01*
X153457409Y-138827649D01*
X153102936Y-138847153D01*
X152729177Y-138857174D01*
X152343226Y-138857717D01*
X151952175Y-138848782D01*
X151563119Y-138830371D01*
X151183152Y-138802486D01*
X150819369Y-138765129D01*
X150478862Y-138718301D01*
X150342806Y-138694902D01*
X150183825Y-138663860D01*
X150171750Y-138661257D01*
X151502626Y-138661257D01*
X151514540Y-138673171D01*
X151526454Y-138661257D01*
X151518920Y-138653724D01*
X151554219Y-138653724D01*
X151564297Y-138661257D01*
X151573931Y-138668458D01*
X151639634Y-138675157D01*
X151645147Y-138675294D01*
X151723218Y-138679579D01*
X151788555Y-138686631D01*
X151813366Y-138688853D01*
X151884475Y-138692109D01*
X151990609Y-138695344D01*
X152124308Y-138698465D01*
X152278113Y-138701377D01*
X152444567Y-138703988D01*
X152616209Y-138706205D01*
X152785582Y-138707933D01*
X152945226Y-138709081D01*
X153087682Y-138709554D01*
X153205491Y-138709260D01*
X153291196Y-138708105D01*
X153337336Y-138705996D01*
X153364742Y-138703014D01*
X153443982Y-138694477D01*
X153547152Y-138683427D01*
X153659005Y-138671497D01*
X153764842Y-138658723D01*
X153901143Y-138639008D01*
X154042143Y-138615799D01*
X154179193Y-138590769D01*
X154303642Y-138565591D01*
X154406839Y-138541940D01*
X154480135Y-138521488D01*
X154514878Y-138505910D01*
X154526942Y-138488366D01*
X154512126Y-138463204D01*
X154486293Y-138433738D01*
X154459095Y-138380251D01*
X154453120Y-138365661D01*
X154424336Y-138328310D01*
X154380165Y-138326153D01*
X154368399Y-138328429D01*
X154302042Y-138338816D01*
X154200003Y-138352839D01*
X154071248Y-138369389D01*
X153924742Y-138387361D01*
X153769453Y-138405646D01*
X153614345Y-138423138D01*
X153468386Y-138438730D01*
X153387978Y-138445290D01*
X153251865Y-138452648D01*
X153085369Y-138458786D01*
X152898092Y-138463423D01*
X152699636Y-138466278D01*
X152499605Y-138467071D01*
X151816751Y-138465924D01*
X151791274Y-138521842D01*
X151746064Y-138570817D01*
X151658039Y-138606579D01*
X151650498Y-138608629D01*
X151579931Y-138633075D01*
X151554219Y-138653724D01*
X151518920Y-138653724D01*
X151514540Y-138649344D01*
X151502626Y-138661257D01*
X150171750Y-138661257D01*
X150024877Y-138629595D01*
X149877722Y-138594770D01*
X149754119Y-138562049D01*
X149665827Y-138534097D01*
X149640123Y-138528564D01*
X149609383Y-138535890D01*
X149569204Y-138562529D01*
X149511930Y-138613690D01*
X149429904Y-138694580D01*
X149204862Y-138905786D01*
X149085621Y-139004301D01*
X148905715Y-139152937D01*
X148574776Y-139396495D01*
X148430651Y-139492066D01*
X148220398Y-139631487D01*
X147850937Y-139852941D01*
X147474748Y-140055886D01*
X147100187Y-140235349D01*
X146735608Y-140386359D01*
X146389367Y-140503943D01*
X146245436Y-140544189D01*
X146045067Y-140594866D01*
X145828514Y-140645095D01*
X145611205Y-140691464D01*
X145408565Y-140730562D01*
X145236022Y-140758977D01*
X145088855Y-140774424D01*
X144912903Y-140783408D01*
X144722942Y-140785819D01*
X144531245Y-140781912D01*
X144350087Y-140771940D01*
X144191741Y-140756158D01*
X144068480Y-140734819D01*
X143964813Y-140706195D01*
X143857264Y-140669503D01*
X143772768Y-140633621D01*
X143650307Y-140558201D01*
X143516220Y-140434974D01*
X143454598Y-140348464D01*
X144100874Y-140348464D01*
X144106036Y-140375936D01*
X144136510Y-140424332D01*
X144182948Y-140482731D01*
X144236004Y-140540215D01*
X144286332Y-140585864D01*
X144324585Y-140608757D01*
X144380612Y-140619476D01*
X144486937Y-140630244D01*
X144617223Y-140636704D01*
X144758024Y-140638506D01*
X144895896Y-140635303D01*
X145017394Y-140626744D01*
X145093936Y-140618012D01*
X145378356Y-140574980D01*
X145687128Y-140514027D01*
X146006409Y-140438356D01*
X146322356Y-140351170D01*
X146621125Y-140255672D01*
X146721344Y-140219790D01*
X146870915Y-140162146D01*
X147020332Y-140100381D01*
X147163252Y-140037499D01*
X147293333Y-139976506D01*
X147404231Y-139920408D01*
X147489606Y-139872209D01*
X147543114Y-139834916D01*
X147558414Y-139811533D01*
X147558066Y-139810430D01*
X147566234Y-139774176D01*
X147596657Y-139713283D01*
X147643121Y-139640313D01*
X147647918Y-139633437D01*
X147693191Y-139565296D01*
X147722883Y-139514666D01*
X147730777Y-139492066D01*
X147719892Y-139494257D01*
X147672702Y-139513204D01*
X147595104Y-139548069D01*
X147494458Y-139595511D01*
X147378123Y-139652188D01*
X147169594Y-139752355D01*
X146805320Y-139911145D01*
X146451391Y-140042543D01*
X146093697Y-140151573D01*
X145718129Y-140243258D01*
X145643040Y-140259312D01*
X145299616Y-140324298D01*
X144993559Y-140366923D01*
X144721117Y-140387498D01*
X144478542Y-140386332D01*
X144262084Y-140363737D01*
X144187365Y-140352910D01*
X144127553Y-140346915D01*
X144101342Y-140347939D01*
X144100874Y-140348464D01*
X143454598Y-140348464D01*
X143412766Y-140289736D01*
X143342910Y-140129747D01*
X143309616Y-139962272D01*
X143315849Y-139794573D01*
X143364577Y-139633911D01*
X143376777Y-139605743D01*
X143414269Y-139505810D01*
X143428280Y-139462903D01*
X143588008Y-139462903D01*
X143594672Y-139651801D01*
X143642360Y-139816938D01*
X143730944Y-139958004D01*
X143860293Y-140074691D01*
X144030279Y-140166687D01*
X144240772Y-140233683D01*
X144328559Y-140249613D01*
X144476896Y-140263197D01*
X144628715Y-140264810D01*
X144759474Y-140253514D01*
X144931821Y-140224653D01*
X145530447Y-140105996D01*
X146091911Y-139964265D01*
X146620449Y-139798168D01*
X147120296Y-139606410D01*
X147595688Y-139387699D01*
X147611991Y-139379529D01*
X147785436Y-139291288D01*
X147920192Y-139219489D01*
X148020635Y-139161193D01*
X148091142Y-139113463D01*
X148136086Y-139073363D01*
X148159844Y-139037955D01*
X148166792Y-139004301D01*
X148157960Y-138885562D01*
X148132466Y-138731446D01*
X148093214Y-138555311D01*
X148043116Y-138368020D01*
X148035569Y-138343626D01*
X148214446Y-138343626D01*
X148216894Y-138361655D01*
X148229099Y-138417166D01*
X148248108Y-138490798D01*
X148259894Y-138534504D01*
X148281366Y-138617455D01*
X148296216Y-138679128D01*
X148311016Y-138724113D01*
X148328080Y-138743898D01*
X148328857Y-138743840D01*
X148364709Y-138726839D01*
X148425698Y-138684697D01*
X148502400Y-138624409D01*
X148585392Y-138552966D01*
X148642795Y-138505140D01*
X148733147Y-138437281D01*
X148823666Y-138375612D01*
X148919935Y-138308575D01*
X148977862Y-138262802D01*
X151240525Y-138262802D01*
X151317964Y-138276819D01*
X151349521Y-138281646D01*
X151428882Y-138291517D01*
X151532328Y-138302806D01*
X151645591Y-138313898D01*
X151668161Y-138315899D01*
X151833542Y-138327263D01*
X152033439Y-138336594D01*
X152256564Y-138343719D01*
X152491624Y-138348460D01*
X152727331Y-138350641D01*
X152952393Y-138350087D01*
X153155520Y-138346623D01*
X153325422Y-138340071D01*
X153661728Y-138317263D01*
X154006712Y-138282643D01*
X154311124Y-138239025D01*
X154574030Y-138186672D01*
X154794496Y-138125847D01*
X154971586Y-138056814D01*
X155104366Y-137979834D01*
X155191901Y-137895173D01*
X155233257Y-137803092D01*
X155236032Y-137785400D01*
X155228446Y-137660830D01*
X155176707Y-137525498D01*
X155082464Y-137380704D01*
X154947367Y-137227750D01*
X154773066Y-137067939D01*
X154561209Y-136902571D01*
X154313447Y-136732949D01*
X154031430Y-136560375D01*
X153716806Y-136386149D01*
X153371226Y-136211574D01*
X152996339Y-136037952D01*
X152886544Y-135991236D01*
X152720593Y-135928279D01*
X152569058Y-135879835D01*
X152441059Y-135848710D01*
X152345714Y-135837711D01*
X152328860Y-135838420D01*
X152226845Y-135868975D01*
X152116830Y-135942618D01*
X152001340Y-136056551D01*
X151889367Y-136199705D01*
X151882899Y-136207974D01*
X151764031Y-136394091D01*
X151647259Y-136612102D01*
X151630308Y-136646712D01*
X151486425Y-136964477D01*
X151377014Y-137256836D01*
X151300597Y-137528955D01*
X151263051Y-137743903D01*
X151255698Y-137786000D01*
X151240838Y-138033137D01*
X151240525Y-138262802D01*
X148977862Y-138262802D01*
X149036509Y-138216460D01*
X149153843Y-138114425D01*
X149261889Y-138011640D01*
X149350599Y-137917276D01*
X149409927Y-137840504D01*
X149411338Y-137838285D01*
X149438449Y-137793371D01*
X149456817Y-137752578D01*
X149468067Y-137705551D01*
X149473824Y-137641936D01*
X149475712Y-137551379D01*
X149475356Y-137423525D01*
X149474050Y-137214458D01*
X149667917Y-137214458D01*
X149668282Y-137461310D01*
X149669186Y-137535931D01*
X149669791Y-137551379D01*
X149672904Y-137630881D01*
X149678808Y-137700946D01*
X149686153Y-137734745D01*
X149724574Y-137766901D01*
X149802276Y-137808149D01*
X149910385Y-137854509D01*
X150040728Y-137903113D01*
X150185134Y-137951097D01*
X150335431Y-137995593D01*
X150483448Y-138033735D01*
X150621013Y-138062657D01*
X150725979Y-138080899D01*
X150880715Y-138104467D01*
X150996934Y-138117283D01*
X151072059Y-138119096D01*
X151103515Y-138109656D01*
X151104111Y-138108452D01*
X151112241Y-138072474D01*
X151122092Y-138003973D01*
X151131666Y-137916651D01*
X151148101Y-137743903D01*
X151077362Y-137743903D01*
X151070353Y-137743839D01*
X150989105Y-137738797D01*
X150874484Y-137726895D01*
X150738506Y-137709821D01*
X150593186Y-137689265D01*
X150450537Y-137666915D01*
X150322575Y-137644460D01*
X150221314Y-137623588D01*
X150199259Y-137618406D01*
X150071938Y-137584699D01*
X149977932Y-137549096D01*
X149905093Y-137504407D01*
X149841276Y-137443443D01*
X149774334Y-137359014D01*
X149667917Y-137214458D01*
X149474050Y-137214458D01*
X149473413Y-137112477D01*
X149438538Y-137279269D01*
X149417720Y-137367295D01*
X149386839Y-137453010D01*
X149342303Y-137524757D01*
X149275387Y-137595915D01*
X149177370Y-137679866D01*
X149122569Y-137722882D01*
X149008784Y-137807008D01*
X148873383Y-137902787D01*
X148728156Y-138002193D01*
X148584898Y-138097202D01*
X148455400Y-138179788D01*
X148351454Y-138241927D01*
X148284058Y-138283140D01*
X148233697Y-138320343D01*
X148214446Y-138343626D01*
X148035569Y-138343626D01*
X147985083Y-138180436D01*
X147922026Y-138003421D01*
X147856857Y-137847840D01*
X147760226Y-137658065D01*
X147594388Y-137395198D01*
X147404976Y-137156582D01*
X147197366Y-136948056D01*
X146976936Y-136775461D01*
X146749062Y-136644636D01*
X146653782Y-136603924D01*
X146488702Y-136549026D01*
X146319816Y-136509426D01*
X146156438Y-136486271D01*
X146007882Y-136480707D01*
X145883462Y-136493880D01*
X145792492Y-136526935D01*
X145777204Y-136537396D01*
X145719605Y-136583594D01*
X145636490Y-136655611D01*
X145533689Y-136748003D01*
X145417037Y-136855324D01*
X145292366Y-136972130D01*
X145165508Y-137092975D01*
X145042297Y-137212415D01*
X144928566Y-137325004D01*
X144830146Y-137425297D01*
X144808932Y-137447431D01*
X144562873Y-137716800D01*
X144337071Y-137987419D01*
X144135457Y-138253829D01*
X143961964Y-138510575D01*
X143820522Y-138752199D01*
X143715063Y-138973243D01*
X143698269Y-139015065D01*
X143622497Y-139250554D01*
X143588008Y-139462903D01*
X143428280Y-139462903D01*
X143453117Y-139386840D01*
X143486627Y-139268856D01*
X143556372Y-139051343D01*
X143665633Y-138796652D01*
X143807735Y-138524081D01*
X143979610Y-138238701D01*
X144178190Y-137945585D01*
X144400408Y-137649808D01*
X144643195Y-137356440D01*
X144648550Y-137350257D01*
X144718680Y-137266641D01*
X144772755Y-137197337D01*
X144805524Y-137149403D01*
X144811736Y-137129897D01*
X144801578Y-137128935D01*
X144753140Y-137134649D01*
X144685379Y-137149271D01*
X144648146Y-137156508D01*
X144551441Y-137167599D01*
X144421670Y-137176754D01*
X144268057Y-137183809D01*
X144099825Y-137188600D01*
X143926198Y-137190962D01*
X143756398Y-137190732D01*
X143599649Y-137187744D01*
X143465175Y-137181835D01*
X143362198Y-137172840D01*
X143222456Y-137152519D01*
X142930164Y-137093923D01*
X142637314Y-137015290D01*
X142353527Y-136920022D01*
X142088429Y-136811521D01*
X141851642Y-136693192D01*
X141652790Y-136568435D01*
X141595187Y-136525473D01*
X141375119Y-136331942D01*
X141159046Y-136096085D01*
X140950265Y-135822127D01*
X140752071Y-135514297D01*
X140567759Y-135176820D01*
X140478257Y-134992297D01*
X140395992Y-134806484D01*
X140322784Y-134620119D01*
X140256158Y-134425412D01*
X140193642Y-134214570D01*
X140132760Y-133979802D01*
X140071041Y-133713315D01*
X140006009Y-133407317D01*
X139955381Y-133172656D01*
X139882798Y-132868652D01*
X139805471Y-132577088D01*
X139725478Y-132304939D01*
X139644894Y-132059183D01*
X139565796Y-131846795D01*
X139490260Y-131674751D01*
X139489225Y-131672633D01*
X139425810Y-131548733D01*
X139358137Y-131425911D01*
X139294238Y-131318250D01*
X139242148Y-131239834D01*
X139198913Y-131179405D01*
X139152140Y-131105155D01*
X139136166Y-131062225D01*
X139149927Y-131048406D01*
X139152586Y-131049086D01*
X139187088Y-131064199D01*
X139253680Y-131096143D01*
X139344152Y-131140925D01*
X139450297Y-131194551D01*
X139464511Y-131201829D01*
X139637130Y-131296986D01*
X139774354Y-131387630D01*
X139886272Y-131480378D01*
X140035593Y-131620060D01*
X140050034Y-131529752D01*
X140054041Y-131478127D01*
X140053249Y-131378506D01*
X140046627Y-131253787D01*
X140035242Y-131116383D01*
X140020161Y-130978706D01*
X140002451Y-130853168D01*
X139983180Y-130752183D01*
X139914420Y-130505924D01*
X139805631Y-130211597D01*
X139671443Y-129919897D01*
X139517615Y-129642065D01*
X139349908Y-129389344D01*
X139174081Y-129172978D01*
X139111351Y-129109385D01*
X138983656Y-128998935D01*
X138842529Y-128895112D01*
X138702334Y-128808139D01*
X138577435Y-128748242D01*
X138552001Y-128737884D01*
X138491111Y-128702954D01*
X138473953Y-128671066D01*
X138477362Y-128664320D01*
X138496718Y-128647088D01*
X138778567Y-128647088D01*
X138797077Y-128677429D01*
X138855281Y-128729705D01*
X138954036Y-128804740D01*
X139002691Y-128840885D01*
X139105047Y-128921201D01*
X139199272Y-129000155D01*
X139269802Y-129064923D01*
X139341313Y-129142578D01*
X139473480Y-129316602D01*
X139604102Y-129524917D01*
X139729121Y-129759037D01*
X139844478Y-130010477D01*
X139946114Y-130270752D01*
X140029970Y-130531376D01*
X140091989Y-130783863D01*
X140107992Y-130879647D01*
X140124820Y-131020108D01*
X140139056Y-131180610D01*
X140150106Y-131349936D01*
X140157378Y-131516870D01*
X140160278Y-131670196D01*
X140158212Y-131798698D01*
X140150587Y-131891160D01*
X140133632Y-132004226D01*
X139990963Y-131812584D01*
X139895378Y-131696333D01*
X139771053Y-131570038D01*
X139643331Y-131462578D01*
X139524972Y-131385642D01*
X139510058Y-131377892D01*
X139473297Y-131362532D01*
X139462870Y-131370997D01*
X139478482Y-131408776D01*
X139519841Y-131481356D01*
X139551513Y-131535606D01*
X139645304Y-131705281D01*
X139723364Y-131864879D01*
X139789024Y-132023990D01*
X139845616Y-132192205D01*
X139896469Y-132379114D01*
X139944915Y-132594307D01*
X139994285Y-132847374D01*
X140044950Y-133110913D01*
X140125755Y-133488828D01*
X140210129Y-133830278D01*
X140300097Y-134142092D01*
X140397689Y-134431100D01*
X140504931Y-134704130D01*
X140623850Y-134968012D01*
X140671155Y-135065262D01*
X140778683Y-135273509D01*
X140883290Y-135455195D01*
X140992960Y-135623702D01*
X141115675Y-135792410D01*
X141121114Y-135799521D01*
X141230743Y-135932554D01*
X141361068Y-136075387D01*
X141502263Y-136218408D01*
X141644505Y-136352010D01*
X141777969Y-136466584D01*
X141892829Y-136552519D01*
X142087854Y-136663946D01*
X142336472Y-136769388D01*
X142626390Y-136861445D01*
X142955113Y-136939330D01*
X143320147Y-137002257D01*
X143447084Y-137019917D01*
X143584823Y-137037612D01*
X143709170Y-137052130D01*
X143813365Y-137062786D01*
X143890647Y-137068896D01*
X143934256Y-137069776D01*
X143937429Y-137064741D01*
X143925700Y-137060572D01*
X143873855Y-137043703D01*
X143789576Y-137017019D01*
X143681280Y-136983175D01*
X143557384Y-136944826D01*
X143434205Y-136906140D01*
X143203297Y-136829757D01*
X142983501Y-136752201D01*
X142781806Y-136676154D01*
X142605203Y-136604295D01*
X142460679Y-136539305D01*
X142355226Y-136483862D01*
X142211809Y-136388876D01*
X142020462Y-136236365D01*
X141833449Y-136060372D01*
X141663723Y-135872352D01*
X141627786Y-135828260D01*
X141545481Y-135723877D01*
X141538294Y-135714368D01*
X141643802Y-135714368D01*
X141660786Y-135740818D01*
X141705151Y-135794774D01*
X141784338Y-135877741D01*
X141884455Y-135974456D01*
X141996440Y-136076675D01*
X142111229Y-136176155D01*
X142219758Y-136264653D01*
X142312963Y-136333927D01*
X142464024Y-136429261D01*
X142727455Y-136565159D01*
X143035886Y-136693412D01*
X143388018Y-136813499D01*
X143782551Y-136924896D01*
X143857851Y-136943671D01*
X144116493Y-136996377D01*
X144346118Y-137020692D01*
X144554982Y-137015268D01*
X144751341Y-136978755D01*
X144943451Y-136909805D01*
X145139568Y-136807070D01*
X145347948Y-136669202D01*
X145382754Y-136644040D01*
X145463276Y-136585181D01*
X145567794Y-136508264D01*
X145691115Y-136417155D01*
X145828046Y-136315721D01*
X145973396Y-136207828D01*
X146121971Y-136097341D01*
X146268578Y-135988128D01*
X146282440Y-135977782D01*
X147275173Y-135977782D01*
X147320718Y-136028109D01*
X147331421Y-136038153D01*
X147385727Y-136076347D01*
X147465653Y-136123260D01*
X147558038Y-136170969D01*
X147651305Y-136212136D01*
X147791389Y-136258782D01*
X147912714Y-136280207D01*
X148005957Y-136274261D01*
X148038965Y-136248581D01*
X148044874Y-136199705D01*
X148017870Y-136144760D01*
X147994698Y-136126383D01*
X147925427Y-136094178D01*
X147826705Y-136061739D01*
X147709634Y-136032105D01*
X147585311Y-136008314D01*
X147464838Y-135993402D01*
X147275173Y-135977782D01*
X146282440Y-135977782D01*
X146408026Y-135884053D01*
X146535121Y-135788983D01*
X146644671Y-135706785D01*
X146731484Y-135641324D01*
X146790367Y-135596466D01*
X146816126Y-135576078D01*
X146820506Y-135559040D01*
X146814386Y-135506662D01*
X146795363Y-135435413D01*
X146772877Y-135344113D01*
X146763196Y-135237653D01*
X146765304Y-135101048D01*
X146767183Y-135081245D01*
X146859580Y-135081245D01*
X146870832Y-135197409D01*
X146926305Y-135317555D01*
X147026884Y-135445930D01*
X147136638Y-135550224D01*
X147306384Y-135678418D01*
X147502418Y-135799316D01*
X147713019Y-135906469D01*
X147926469Y-135993425D01*
X148131050Y-136053734D01*
X148239318Y-136074835D01*
X148379457Y-136092915D01*
X148546424Y-136105375D01*
X148750563Y-136113208D01*
X148754424Y-136113308D01*
X148949768Y-136115771D01*
X149105473Y-136111289D01*
X149229072Y-136098703D01*
X149328098Y-136076857D01*
X149410084Y-136044594D01*
X149482561Y-136000756D01*
X149524265Y-135963531D01*
X149584548Y-135875264D01*
X149625386Y-135769464D01*
X149641775Y-135671299D01*
X150290929Y-135671299D01*
X150301314Y-135734142D01*
X150350269Y-135788955D01*
X150442308Y-135840964D01*
X150466237Y-135851296D01*
X150530534Y-135873928D01*
X150573358Y-135881711D01*
X150583481Y-135880944D01*
X150699480Y-135869145D01*
X150824433Y-135852167D01*
X150939508Y-135832829D01*
X151025874Y-135813951D01*
X151132893Y-135785122D01*
X151013960Y-135739702D01*
X150956643Y-135719857D01*
X150823240Y-135682813D01*
X150674956Y-135650294D01*
X150531612Y-135626406D01*
X150413027Y-135615252D01*
X150383067Y-135614471D01*
X150327564Y-135617663D01*
X150301469Y-135633080D01*
X150291557Y-135666274D01*
X150290929Y-135671299D01*
X149641775Y-135671299D01*
X149643754Y-135659443D01*
X149636624Y-135558512D01*
X149600970Y-135479983D01*
X149591736Y-135468706D01*
X149563248Y-135442276D01*
X149532180Y-135442563D01*
X149478877Y-135467571D01*
X149432531Y-135486438D01*
X149371121Y-135498253D01*
X149286158Y-135502462D01*
X149165729Y-135500312D01*
X149120639Y-135498343D01*
X148998693Y-135487156D01*
X148918555Y-135469181D01*
X148882084Y-135444994D01*
X148891139Y-135415172D01*
X148901150Y-135410937D01*
X148951077Y-135403256D01*
X149031133Y-135397471D01*
X149129636Y-135394592D01*
X149242941Y-135391225D01*
X149331892Y-135381457D01*
X149406769Y-135362261D01*
X149484720Y-135330544D01*
X149571196Y-135287922D01*
X149691644Y-135211109D01*
X149779825Y-135124903D01*
X149845458Y-135020962D01*
X149888131Y-134898820D01*
X149907555Y-134747428D01*
X149898125Y-134595584D01*
X149859371Y-134462110D01*
X149851594Y-134445755D01*
X149795261Y-134354740D01*
X149725093Y-134274066D01*
X149647670Y-134207271D01*
X149569569Y-134157894D01*
X149497372Y-134129475D01*
X149437656Y-134125551D01*
X149397002Y-134149662D01*
X149381989Y-134205346D01*
X149382633Y-134214489D01*
X149412324Y-134274854D01*
X149486867Y-134347853D01*
X149549178Y-134409237D01*
X149601219Y-134495168D01*
X149615631Y-134577837D01*
X149591551Y-134649809D01*
X149528118Y-134703648D01*
X149491060Y-134719550D01*
X149363682Y-134747755D01*
X149206492Y-134754103D01*
X149027664Y-134740468D01*
X148835369Y-134708720D01*
X148637781Y-134660734D01*
X148443070Y-134598382D01*
X148259411Y-134523536D01*
X148094974Y-134438069D01*
X148034006Y-134396154D01*
X148259722Y-134396154D01*
X148319380Y-134443827D01*
X148326542Y-134449108D01*
X148384664Y-134481776D01*
X148469310Y-134520235D01*
X148564800Y-134557240D01*
X148585362Y-134564356D01*
X148681540Y-134593803D01*
X148765858Y-134614006D01*
X148822045Y-134620935D01*
X148838240Y-134620058D01*
X148931494Y-134602548D01*
X149019289Y-134569047D01*
X149080530Y-134527205D01*
X149086348Y-134519729D01*
X149102620Y-134489561D01*
X149124318Y-134438214D01*
X149152464Y-134362628D01*
X149188080Y-134259740D01*
X149232187Y-134126488D01*
X149285809Y-133959811D01*
X149288505Y-133951274D01*
X149459563Y-133951274D01*
X149466319Y-133983220D01*
X149498111Y-134008084D01*
X149564845Y-134037467D01*
X149592799Y-134049684D01*
X149731301Y-134136980D01*
X149848406Y-134254836D01*
X149931146Y-134390744D01*
X149945443Y-134427329D01*
X149980057Y-134583906D01*
X149984498Y-134747428D01*
X149984774Y-134757582D01*
X149961222Y-134933907D01*
X149911029Y-135098432D01*
X149835823Y-135236708D01*
X149764206Y-135335572D01*
X149960292Y-135397578D01*
X149971711Y-135401167D01*
X150089166Y-135436219D01*
X150210531Y-135469768D01*
X150311257Y-135494999D01*
X150346713Y-135501627D01*
X150445504Y-135513526D01*
X150575089Y-135523797D01*
X150725680Y-135532177D01*
X150887490Y-135538399D01*
X151050731Y-135542198D01*
X151205615Y-135543308D01*
X151342355Y-135541464D01*
X151451164Y-135536401D01*
X151522253Y-135527852D01*
X151568950Y-135515729D01*
X151663096Y-135484183D01*
X151755393Y-135446444D01*
X151831488Y-135406761D01*
X151886342Y-135361018D01*
X151920428Y-135303302D01*
X151947117Y-135229046D01*
X151952762Y-135173365D01*
X151935496Y-135128507D01*
X151925063Y-135117056D01*
X151894211Y-135114286D01*
X151837730Y-135137616D01*
X151770872Y-135159422D01*
X151669889Y-135177455D01*
X151549990Y-135188771D01*
X151476782Y-135192577D01*
X151401797Y-135193928D01*
X151356802Y-135188756D01*
X151331361Y-135175446D01*
X151315038Y-135152380D01*
X151311747Y-135145961D01*
X151302563Y-135111589D01*
X151317606Y-135085853D01*
X151362717Y-135065974D01*
X151443737Y-135049169D01*
X151566505Y-135032658D01*
X151608695Y-135027136D01*
X151713217Y-135009326D01*
X151801593Y-134988802D01*
X151858157Y-134968984D01*
X151920504Y-134922112D01*
X151983097Y-134830215D01*
X152021312Y-134713821D01*
X152033336Y-134583287D01*
X152017356Y-134448973D01*
X151971557Y-134321237D01*
X151916239Y-134232582D01*
X151831498Y-134134401D01*
X151731015Y-134044385D01*
X151621698Y-133966332D01*
X151510454Y-133904039D01*
X151404191Y-133861304D01*
X151309816Y-133841926D01*
X151234237Y-133849701D01*
X151184361Y-133888427D01*
X151174924Y-133919191D01*
X151196756Y-133969768D01*
X151260938Y-134019923D01*
X151364359Y-134066574D01*
X151396954Y-134080132D01*
X151478028Y-134127666D01*
X151550201Y-134186724D01*
X151601953Y-134246947D01*
X151621763Y-134297981D01*
X151620276Y-134310787D01*
X151587809Y-134359120D01*
X151520717Y-134398504D01*
X151429403Y-134422219D01*
X151405791Y-134424555D01*
X151295055Y-134422502D01*
X151152059Y-134405536D01*
X150986239Y-134375737D01*
X150807034Y-134335182D01*
X150623878Y-134285951D01*
X150446208Y-134230123D01*
X150283462Y-134169776D01*
X150179122Y-134124625D01*
X150019741Y-134040847D01*
X150017426Y-134039169D01*
X150342659Y-134039169D01*
X150357014Y-134067265D01*
X150396933Y-134093764D01*
X150471659Y-134128557D01*
X150531190Y-134153588D01*
X150640641Y-134195030D01*
X150738518Y-134227314D01*
X150780995Y-134238950D01*
X150886657Y-134260056D01*
X150965958Y-134263712D01*
X151010194Y-134249219D01*
X151011084Y-134248205D01*
X151021704Y-134212974D01*
X151026079Y-134154201D01*
X151029158Y-134104361D01*
X151038054Y-134013366D01*
X151051957Y-133888215D01*
X151070053Y-133735474D01*
X151091530Y-133561711D01*
X151115578Y-133373495D01*
X151141383Y-133177393D01*
X151168134Y-132979974D01*
X151195018Y-132787805D01*
X151220467Y-132619705D01*
X151255791Y-132406452D01*
X151294964Y-132185964D01*
X151334746Y-131976415D01*
X151371895Y-131795982D01*
X151374918Y-131780869D01*
X151373315Y-131761750D01*
X151353721Y-131755742D01*
X151306587Y-131761736D01*
X151222363Y-131778623D01*
X151215240Y-131780105D01*
X151074634Y-131812181D01*
X150968392Y-131843745D01*
X150884035Y-131879146D01*
X150809085Y-131922737D01*
X150778383Y-131944140D01*
X150742005Y-131975775D01*
X150713858Y-132011876D01*
X150711842Y-132014462D01*
X150686098Y-132065942D01*
X150662977Y-132135953D01*
X150640681Y-132230236D01*
X150617416Y-132354529D01*
X150591386Y-132514572D01*
X150560792Y-132716105D01*
X150549612Y-132789511D01*
X150522747Y-132957236D01*
X150494131Y-133126358D01*
X150466542Y-133280678D01*
X150442760Y-133403999D01*
X150422936Y-133503669D01*
X150400334Y-133624162D01*
X150382261Y-133728105D01*
X150371421Y-133800469D01*
X150366954Y-133836198D01*
X150355367Y-133924261D01*
X150345517Y-133993597D01*
X150344624Y-133999587D01*
X150342659Y-134039169D01*
X150017426Y-134039169D01*
X149904474Y-133957296D01*
X149834471Y-133874885D01*
X149810882Y-133794527D01*
X149810899Y-133792173D01*
X149826195Y-133737018D01*
X149873390Y-133698922D01*
X149957378Y-133675548D01*
X150083056Y-133664559D01*
X150144881Y-133661535D01*
X150224270Y-133653039D01*
X150271486Y-133638693D01*
X150296435Y-133616254D01*
X150308890Y-133577408D01*
X150283734Y-133536374D01*
X150257222Y-133518945D01*
X150207494Y-133505743D01*
X150128115Y-133498054D01*
X150010123Y-133494507D01*
X149958767Y-133494229D01*
X149826468Y-133500619D01*
X149728364Y-133521537D01*
X149654845Y-133561569D01*
X149596298Y-133625302D01*
X149543111Y-133717321D01*
X149515183Y-133777210D01*
X149482468Y-133858819D01*
X149464213Y-133919606D01*
X149459563Y-133951274D01*
X149288505Y-133951274D01*
X149349966Y-133756648D01*
X149425681Y-133513935D01*
X149463746Y-133390930D01*
X149787054Y-133390930D01*
X149800016Y-133392564D01*
X149851734Y-133394977D01*
X149933768Y-133397376D01*
X150036253Y-133399423D01*
X150123507Y-133400338D01*
X150207538Y-133398790D01*
X150258798Y-133392946D01*
X150285847Y-133381632D01*
X150297246Y-133363676D01*
X150308673Y-133319251D01*
X150329464Y-133220848D01*
X150353211Y-133093508D01*
X150378123Y-132948197D01*
X150402409Y-132795881D01*
X150424277Y-132647527D01*
X150441936Y-132514100D01*
X150453594Y-132406567D01*
X150459253Y-132340709D01*
X150472670Y-132153537D01*
X150477999Y-132011876D01*
X150475224Y-131914607D01*
X150464328Y-131860613D01*
X150445293Y-131848775D01*
X150434453Y-131854795D01*
X150417648Y-131876338D01*
X150397875Y-131901686D01*
X150359525Y-131991309D01*
X150318808Y-132125261D01*
X150275129Y-132305138D01*
X150238857Y-132458755D01*
X150202540Y-132587237D01*
X150161085Y-132702724D01*
X150109172Y-132818381D01*
X150041480Y-132947371D01*
X149952688Y-133102857D01*
X149933427Y-133135865D01*
X149875915Y-133234817D01*
X149829448Y-133315357D01*
X149798378Y-133369917D01*
X149787054Y-133390930D01*
X149463746Y-133390930D01*
X149467891Y-133377536D01*
X149606366Y-133377536D01*
X149620867Y-133370335D01*
X149654650Y-133329317D01*
X149701986Y-133260393D01*
X149758176Y-133171290D01*
X149818518Y-133069733D01*
X149878312Y-132963448D01*
X149932857Y-132860162D01*
X149977453Y-132767600D01*
X149984198Y-132752245D01*
X150020769Y-132659237D01*
X150060553Y-132544907D01*
X150101234Y-132417563D01*
X150140498Y-132285511D01*
X150176028Y-132157056D01*
X150205511Y-132040504D01*
X150226630Y-131944163D01*
X150237070Y-131876338D01*
X150234516Y-131845336D01*
X150209128Y-131838321D01*
X150158342Y-131844001D01*
X150132218Y-131853808D01*
X150097995Y-131889734D01*
X150073663Y-131960043D01*
X150064247Y-131994911D01*
X150036712Y-132086120D01*
X149997046Y-132210211D01*
X149947782Y-132359619D01*
X149891457Y-132526778D01*
X149830603Y-132704121D01*
X149767758Y-132884082D01*
X149705454Y-133059095D01*
X149693370Y-133092933D01*
X149655968Y-133201449D01*
X149627243Y-133290702D01*
X149609830Y-133352222D01*
X149606366Y-133377536D01*
X149467891Y-133377536D01*
X149513976Y-133228612D01*
X149569079Y-133052351D01*
X149631656Y-132856854D01*
X149693946Y-132666541D01*
X149752597Y-132491528D01*
X149804259Y-132341930D01*
X149845578Y-132227862D01*
X149862727Y-132182253D01*
X149908801Y-132058592D01*
X149949677Y-131947344D01*
X149981440Y-131859219D01*
X150000174Y-131804925D01*
X150022656Y-131748806D01*
X150052852Y-131721548D01*
X150104615Y-131715247D01*
X150177726Y-131711842D01*
X150250596Y-131693171D01*
X150282642Y-131653910D01*
X150276743Y-131589210D01*
X150235776Y-131494220D01*
X150229064Y-131480897D01*
X150206251Y-131425466D01*
X150194021Y-131366503D01*
X150190405Y-131289377D01*
X150193436Y-131179456D01*
X150194126Y-131162632D01*
X150197542Y-131049883D01*
X150200376Y-130908905D01*
X150202349Y-130756033D01*
X150203181Y-130607599D01*
X150203159Y-130559016D01*
X150201540Y-130421211D01*
X150196659Y-130316142D01*
X150187375Y-130232315D01*
X150172547Y-130158234D01*
X150151034Y-130082407D01*
X150072392Y-129891612D01*
X149947688Y-129689335D01*
X149789269Y-129504110D01*
X149769319Y-129484503D01*
X149640394Y-129377025D01*
X149508754Y-129304863D01*
X149359144Y-129259336D01*
X149312293Y-129248723D01*
X149267005Y-129233404D01*
X149254237Y-129214810D01*
X149264970Y-129185911D01*
X149268177Y-129180485D01*
X149318616Y-129133367D01*
X149398369Y-129090711D01*
X149491119Y-129059678D01*
X149580550Y-129047428D01*
X149594482Y-129047173D01*
X149650164Y-129038531D01*
X149662135Y-129017120D01*
X149649060Y-129002129D01*
X149599166Y-128967409D01*
X149521333Y-128922002D01*
X149425087Y-128870628D01*
X149319953Y-128818009D01*
X149215458Y-128768865D01*
X149121127Y-128727917D01*
X149046486Y-128699886D01*
X149001059Y-128689494D01*
X148929631Y-128689494D01*
X149010745Y-128842392D01*
X149050848Y-128927303D01*
X149093238Y-129037830D01*
X149120760Y-129134277D01*
X149125924Y-129162373D01*
X149133284Y-129238052D01*
X149132009Y-129326471D01*
X149121307Y-129434274D01*
X149100388Y-129568106D01*
X149068460Y-129734610D01*
X149024731Y-129940432D01*
X148995608Y-130112304D01*
X148979873Y-130324641D01*
X148985271Y-130528152D01*
X149012079Y-130706035D01*
X149023077Y-130747982D01*
X149054787Y-130851083D01*
X149095703Y-130970245D01*
X149139736Y-131087273D01*
X149168051Y-131158857D01*
X149210738Y-131268523D01*
X149217901Y-131288180D01*
X149238155Y-131343759D01*
X149251982Y-131391027D01*
X149253898Y-131416789D01*
X149245583Y-131427507D01*
X149228716Y-131429644D01*
X149215143Y-131432316D01*
X149196733Y-131460281D01*
X149191369Y-131525958D01*
X149190762Y-131560464D01*
X149185442Y-131634521D01*
X149173750Y-131717576D01*
X149164712Y-131762705D01*
X149154604Y-131813175D01*
X149126925Y-131924863D01*
X149089631Y-132056185D01*
X149041643Y-132210687D01*
X148981879Y-132391914D01*
X148909259Y-132603410D01*
X148822703Y-132848722D01*
X148721131Y-133131394D01*
X148603461Y-133454972D01*
X148259722Y-134396154D01*
X148034006Y-134396154D01*
X147957932Y-134343854D01*
X147880475Y-134270671D01*
X147813442Y-134174703D01*
X147785223Y-134082446D01*
X147797252Y-133999429D01*
X147850963Y-133931182D01*
X147872014Y-133915581D01*
X147907754Y-133897205D01*
X147952798Y-133888913D01*
X148019837Y-133889052D01*
X148121562Y-133895971D01*
X148136091Y-133897105D01*
X148233212Y-133903070D01*
X148293451Y-133902179D01*
X148326098Y-133893606D01*
X148340444Y-133876527D01*
X148341004Y-133875025D01*
X148338216Y-133823247D01*
X148292887Y-133779726D01*
X148209579Y-133746314D01*
X148092857Y-133724857D01*
X147947282Y-133717206D01*
X147888852Y-133719222D01*
X147719276Y-133747615D01*
X147564221Y-133805765D01*
X147438033Y-133888838D01*
X147405286Y-133921619D01*
X147336641Y-134032376D01*
X147301312Y-134163992D01*
X147299850Y-134306220D01*
X147332807Y-134448814D01*
X147400735Y-134581528D01*
X147410023Y-134594594D01*
X147483379Y-134683052D01*
X147577132Y-134779935D01*
X147675257Y-134869506D01*
X147761726Y-134936026D01*
X147773566Y-134944171D01*
X147803655Y-134975899D01*
X147794345Y-135003411D01*
X147771758Y-135014018D01*
X147715227Y-135003401D01*
X147639469Y-134962290D01*
X147551192Y-134894644D01*
X147457103Y-134804419D01*
X147436471Y-134782729D01*
X147376795Y-134723674D01*
X147334099Y-134692209D01*
X147297155Y-134681745D01*
X147254733Y-134685696D01*
X147233646Y-134690168D01*
X147109390Y-134739320D01*
X146997948Y-134818888D01*
X146916487Y-134917127D01*
X146891663Y-134964818D01*
X146859580Y-135081245D01*
X146767183Y-135081245D01*
X146778402Y-134963026D01*
X146808044Y-134857430D01*
X146861588Y-134776235D01*
X146946549Y-134708134D01*
X147070443Y-134641817D01*
X147149008Y-134602793D01*
X147201308Y-134570287D01*
X147223918Y-134543232D01*
X147224556Y-134515291D01*
X147217048Y-134481216D01*
X147202564Y-134372136D01*
X147196590Y-134251969D01*
X147199641Y-134139937D01*
X147212232Y-134055263D01*
X147249269Y-133962159D01*
X147336422Y-133845133D01*
X147459052Y-133749064D01*
X147611835Y-133676297D01*
X147789445Y-133629177D01*
X147986556Y-133610049D01*
X148197843Y-133621259D01*
X148226057Y-133624726D01*
X148310367Y-133634149D01*
X148370482Y-133639424D01*
X148394879Y-133639483D01*
X148404196Y-133620094D01*
X148428623Y-133564961D01*
X148464113Y-133483102D01*
X148506745Y-133383490D01*
X148546084Y-133289443D01*
X148636279Y-133061567D01*
X148720950Y-132831121D01*
X148798094Y-132604680D01*
X148865706Y-132388821D01*
X148921781Y-132190118D01*
X148964317Y-132015147D01*
X148991308Y-131870484D01*
X149000750Y-131762705D01*
X149000733Y-131756842D01*
X148998721Y-131730759D01*
X148989619Y-131720790D01*
X148968135Y-131730481D01*
X148928976Y-131763378D01*
X148866852Y-131823026D01*
X148776469Y-131912972D01*
X148769409Y-131920023D01*
X148497005Y-132176722D01*
X148233757Y-132392290D01*
X148089754Y-132490631D01*
X147972972Y-132570382D01*
X147707954Y-132714655D01*
X147432006Y-132828766D01*
X147138435Y-132916370D01*
X146820544Y-132981124D01*
X146742336Y-132990884D01*
X146603554Y-133000772D01*
X146435586Y-133007045D01*
X146248932Y-133009767D01*
X146054090Y-133009004D01*
X145861558Y-133004819D01*
X145681836Y-132997277D01*
X145525422Y-132986444D01*
X145402814Y-132972384D01*
X145176454Y-132937718D01*
X145077526Y-133024542D01*
X145064854Y-133035497D01*
X144922140Y-133137953D01*
X144777044Y-133207086D01*
X144636499Y-133241140D01*
X144507441Y-133238358D01*
X144396805Y-133196984D01*
X144342805Y-133156815D01*
X144276740Y-133070170D01*
X144243552Y-132956862D01*
X144240849Y-132810978D01*
X144252284Y-132651164D01*
X144037327Y-132634937D01*
X143899049Y-132620995D01*
X143650015Y-132580140D01*
X143405374Y-132521552D01*
X143179385Y-132448884D01*
X142986307Y-132365788D01*
X142961062Y-132352770D01*
X142813348Y-132270028D01*
X142647091Y-132168005D01*
X142477333Y-132056208D01*
X142319116Y-131944142D01*
X142271860Y-131909929D01*
X142203215Y-131863360D01*
X142156016Y-131835539D01*
X142138461Y-131831574D01*
X142140539Y-131844248D01*
X142159488Y-131898201D01*
X142193672Y-131976855D01*
X142237523Y-132068380D01*
X142285475Y-132160946D01*
X142331959Y-132242723D01*
X142459289Y-132436571D01*
X142698948Y-132738515D01*
X142972391Y-133017739D01*
X143271716Y-133266482D01*
X143589017Y-133476986D01*
X143723609Y-133548697D01*
X143913302Y-133636248D01*
X144135020Y-133727799D01*
X144380949Y-133820538D01*
X144643273Y-133911650D01*
X144914178Y-133998323D01*
X145185848Y-134077743D01*
X145450469Y-134147096D01*
X145487257Y-134156185D01*
X145601136Y-134185232D01*
X145695538Y-134210669D01*
X145761500Y-134230025D01*
X145790063Y-134240825D01*
X145780882Y-134253565D01*
X145733811Y-134278009D01*
X145726720Y-134280973D01*
X145655279Y-134310833D01*
X145552726Y-134349357D01*
X145433589Y-134390905D01*
X145305308Y-134432796D01*
X145175322Y-134472353D01*
X145051069Y-134506898D01*
X144836589Y-134559503D01*
X144506987Y-134623132D01*
X144196195Y-134658344D01*
X143892765Y-134665189D01*
X143585246Y-134643713D01*
X143262191Y-134593967D01*
X142912149Y-134515999D01*
X142782320Y-134480570D01*
X142641416Y-134436797D01*
X142513106Y-134391954D01*
X142414375Y-134351649D01*
X142378524Y-134335169D01*
X142299077Y-134299319D01*
X142241766Y-134274426D01*
X142217109Y-134265104D01*
X142215148Y-134266028D01*
X142225327Y-134289118D01*
X142261191Y-134338105D01*
X142316816Y-134406113D01*
X142386274Y-134486264D01*
X142463641Y-134571681D01*
X142542990Y-134655487D01*
X142618395Y-134730804D01*
X142669414Y-134779308D01*
X142832498Y-134924014D01*
X142989176Y-135043575D01*
X143152733Y-135146611D01*
X143336452Y-135241741D01*
X143553619Y-135337583D01*
X143626420Y-135368455D01*
X143811230Y-135451829D01*
X143993719Y-135540655D01*
X144166902Y-135631067D01*
X144323794Y-135719203D01*
X144457410Y-135801197D01*
X144560764Y-135873186D01*
X144626871Y-135931305D01*
X144643098Y-135950114D01*
X144651098Y-135971653D01*
X144627606Y-135987153D01*
X144565266Y-136005470D01*
X144455333Y-136032211D01*
X144300884Y-136064687D01*
X144126469Y-136097558D01*
X143946512Y-136128250D01*
X143775439Y-136154189D01*
X143627673Y-136172801D01*
X143281661Y-136186777D01*
X142925873Y-136155919D01*
X142566995Y-136080981D01*
X142209683Y-135962936D01*
X141858589Y-135802758D01*
X141801843Y-135773224D01*
X141717359Y-135730343D01*
X141666550Y-135707396D01*
X141643877Y-135702649D01*
X141643802Y-135714368D01*
X141538294Y-135714368D01*
X141468153Y-135621570D01*
X141400789Y-135528346D01*
X141348376Y-135451207D01*
X141315899Y-135397158D01*
X141308347Y-135373204D01*
X141309686Y-135373063D01*
X141338384Y-135386523D01*
X141397894Y-135420503D01*
X141480514Y-135470477D01*
X141578540Y-135531920D01*
X141649737Y-135576237D01*
X141809577Y-135669998D01*
X141979625Y-135763297D01*
X142151455Y-135851988D01*
X142316637Y-135931924D01*
X142466744Y-135998961D01*
X142593347Y-136048950D01*
X142688019Y-136077746D01*
X142701446Y-136080569D01*
X142827842Y-136097921D01*
X142988347Y-136107998D01*
X143171509Y-136111001D01*
X143365876Y-136107133D01*
X143559996Y-136096595D01*
X143742417Y-136079591D01*
X143901688Y-136056322D01*
X143997647Y-136037996D01*
X144115246Y-136013612D01*
X144215233Y-135990825D01*
X144282927Y-135972850D01*
X144390150Y-135939530D01*
X144241230Y-135794915D01*
X144140507Y-135710460D01*
X143986722Y-135608354D01*
X143802393Y-135507065D01*
X143596366Y-135411392D01*
X143377486Y-135326137D01*
X143352669Y-135317227D01*
X143064725Y-135188832D01*
X142800419Y-135021863D01*
X142556574Y-134814007D01*
X142330011Y-134562946D01*
X142323224Y-134554405D01*
X142264098Y-134475682D01*
X142201513Y-134386232D01*
X142141800Y-134295883D01*
X142091292Y-134214465D01*
X142056319Y-134151805D01*
X142043213Y-134117733D01*
X142045044Y-134116204D01*
X142075565Y-134123174D01*
X142135893Y-134146019D01*
X142215900Y-134181026D01*
X142354482Y-134241024D01*
X142575325Y-134324684D01*
X142811369Y-134402412D01*
X143051120Y-134470993D01*
X143283082Y-134527215D01*
X143495761Y-134567862D01*
X143677664Y-134589722D01*
X143741967Y-134593027D01*
X143970530Y-134589933D01*
X144228191Y-134567264D01*
X144504713Y-134526440D01*
X144789860Y-134468882D01*
X145073394Y-134396011D01*
X145096083Y-134389519D01*
X145228270Y-134351511D01*
X145316186Y-134323318D01*
X145360890Y-134301088D01*
X145363444Y-134280973D01*
X145324906Y-134259120D01*
X145246338Y-134231679D01*
X145128799Y-134194801D01*
X144810653Y-134089805D01*
X144450718Y-133957741D01*
X144114035Y-133819563D01*
X143805431Y-133677513D01*
X143529730Y-133533834D01*
X143291760Y-133390766D01*
X143096345Y-133250552D01*
X142968015Y-133138848D01*
X142774084Y-132937903D01*
X142583542Y-132703664D01*
X142402926Y-132444378D01*
X142238770Y-132168293D01*
X142199333Y-132093130D01*
X142147909Y-131988805D01*
X142096073Y-131878201D01*
X142048177Y-131771095D01*
X142008575Y-131677261D01*
X141981622Y-131606477D01*
X141971670Y-131568519D01*
X141983600Y-131569813D01*
X142025820Y-131594667D01*
X142091360Y-131640324D01*
X142172681Y-131701786D01*
X142310863Y-131806218D01*
X142493362Y-131936145D01*
X142683286Y-132064026D01*
X142869661Y-132182702D01*
X143041512Y-132285018D01*
X143187866Y-132363818D01*
X143221871Y-132380419D01*
X143418677Y-132461978D01*
X143613110Y-132514390D01*
X143820437Y-132540832D01*
X144055928Y-132544482D01*
X144317390Y-132537618D01*
X143996359Y-132277423D01*
X143900829Y-132199257D01*
X143733542Y-132056956D01*
X143588899Y-131923923D01*
X143461793Y-131793496D01*
X143347116Y-131659012D01*
X143239760Y-131513807D01*
X143134618Y-131351219D01*
X143026581Y-131164585D01*
X142910542Y-130947241D01*
X142781393Y-130692525D01*
X142676043Y-130485890D01*
X142552628Y-130258820D01*
X142436495Y-130064452D01*
X142323188Y-129895825D01*
X142208253Y-129745981D01*
X142087234Y-129607958D01*
X142025192Y-129543378D01*
X141798905Y-129333450D01*
X141551840Y-129138704D01*
X141292554Y-128964558D01*
X141029602Y-128816431D01*
X140771540Y-128699740D01*
X140526924Y-128619903D01*
X140449679Y-128601673D01*
X140162557Y-128553496D01*
X139857431Y-128529347D01*
X139553189Y-128530952D01*
X139450695Y-128537650D01*
X139310942Y-128550501D01*
X139169436Y-128566925D01*
X139036034Y-128585520D01*
X138920593Y-128604887D01*
X138832970Y-128623626D01*
X138783021Y-128640337D01*
X138778567Y-128647088D01*
X138496718Y-128647088D01*
X138512534Y-128633008D01*
X138576825Y-128591012D01*
X138659662Y-128545484D01*
X138787219Y-128488828D01*
X139035088Y-128414358D01*
X139307970Y-128370981D01*
X139599681Y-128357705D01*
X139904038Y-128373542D01*
X140214858Y-128417501D01*
X140525959Y-128488590D01*
X140831155Y-128585819D01*
X141124266Y-128708198D01*
X141399107Y-128854737D01*
X141649496Y-129024445D01*
X141672251Y-129041823D01*
X141740351Y-129093011D01*
X141789594Y-129128767D01*
X141810573Y-129142214D01*
X141812451Y-129129265D01*
X141813156Y-129077595D01*
X141811909Y-128995635D01*
X141808779Y-128893241D01*
X141807586Y-128856792D01*
X141806814Y-128731528D01*
X141813098Y-128615122D01*
X141828165Y-128498705D01*
X141853742Y-128373407D01*
X141891555Y-128230359D01*
X141943330Y-128060691D01*
X142010795Y-127855535D01*
X142013014Y-127848924D01*
X142117595Y-127516456D01*
X142195633Y-127221439D01*
X142247432Y-126961992D01*
X142273296Y-126736231D01*
X142273525Y-126542274D01*
X142248424Y-126378237D01*
X142165855Y-126137764D01*
X142037739Y-125899301D01*
X141871023Y-125679766D01*
X141670168Y-125486039D01*
X141592030Y-125425902D01*
X141453637Y-125333775D01*
X141307052Y-125250115D01*
X141166652Y-125182901D01*
X141094344Y-125157083D01*
X141376041Y-125157083D01*
X141389122Y-125171937D01*
X141434503Y-125203181D01*
X141501135Y-125241299D01*
X141548864Y-125267796D01*
X141760718Y-125414991D01*
X141952636Y-125596379D01*
X142117689Y-125803530D01*
X142248947Y-126028011D01*
X142339483Y-126261392D01*
X142358153Y-126330918D01*
X142399350Y-126557086D01*
X142411559Y-126792012D01*
X142394201Y-127041029D01*
X142346699Y-127309468D01*
X142268473Y-127602664D01*
X142158946Y-127925947D01*
X142152843Y-127942589D01*
X142104527Y-128079765D01*
X142058679Y-128218495D01*
X142020221Y-128343451D01*
X141994076Y-128439306D01*
X141968418Y-128577737D01*
X141950392Y-128788664D01*
X141952301Y-129006222D01*
X141974683Y-129209047D01*
X141977067Y-129222598D01*
X141991433Y-129291447D01*
X142010738Y-129344774D01*
X142042365Y-129394683D01*
X142093700Y-129453280D01*
X142172129Y-129532669D01*
X142202626Y-129563290D01*
X142314523Y-129682899D01*
X142415212Y-129804844D01*
X142510418Y-129937528D01*
X142605868Y-130089356D01*
X142707288Y-130268732D01*
X142820406Y-130484060D01*
X142844736Y-130531436D01*
X142965217Y-130760398D01*
X143072143Y-130951744D01*
X143169486Y-131110864D01*
X143261218Y-131243150D01*
X143351313Y-131353992D01*
X143443744Y-131448781D01*
X143542482Y-131532906D01*
X143651501Y-131611759D01*
X143728331Y-131663258D01*
X143839892Y-131736202D01*
X143924515Y-131788972D01*
X143978213Y-131819116D01*
X143996998Y-131824184D01*
X143995093Y-131819675D01*
X143972828Y-131785253D01*
X143930837Y-131725905D01*
X143875778Y-131651137D01*
X143788892Y-131531401D01*
X143634932Y-131296520D01*
X143494815Y-131048361D01*
X143362349Y-130775542D01*
X143322498Y-130681590D01*
X143380780Y-130681590D01*
X143389909Y-130718424D01*
X143422027Y-130787120D01*
X143473548Y-130881923D01*
X143540890Y-130997077D01*
X143620469Y-131126827D01*
X143708703Y-131265418D01*
X143802007Y-131407094D01*
X143896799Y-131546100D01*
X143989495Y-131676679D01*
X144076511Y-131793077D01*
X144115678Y-131844633D01*
X144166852Y-131915325D01*
X144200028Y-131965665D01*
X144209393Y-131987164D01*
X144204858Y-131986896D01*
X144168065Y-131971836D01*
X144102241Y-131939823D01*
X144016337Y-131895599D01*
X143919305Y-131843905D01*
X143820095Y-131789480D01*
X143727658Y-131737066D01*
X143650947Y-131691403D01*
X143629905Y-131679089D01*
X143585707Y-131659177D01*
X143568105Y-131661200D01*
X143570249Y-131670588D01*
X143596745Y-131715703D01*
X143647336Y-131781608D01*
X143714252Y-131859501D01*
X143789722Y-131940580D01*
X143865977Y-132016044D01*
X143935246Y-132077091D01*
X144016610Y-132137657D01*
X144129912Y-132212580D01*
X144235995Y-132274244D01*
X144251625Y-132282426D01*
X144327654Y-132321263D01*
X144384199Y-132348586D01*
X144409991Y-132358912D01*
X144416314Y-132356422D01*
X144454181Y-132331513D01*
X144517548Y-132284896D01*
X144598530Y-132222808D01*
X144689245Y-132151488D01*
X144781808Y-132077173D01*
X144868335Y-132006101D01*
X144940942Y-131944509D01*
X144991746Y-131898635D01*
X145035156Y-131854310D01*
X145082114Y-131799267D01*
X145105271Y-131762284D01*
X145107590Y-131752089D01*
X145100795Y-131683945D01*
X145067045Y-131590494D01*
X145010068Y-131480419D01*
X144933592Y-131362402D01*
X144898831Y-131315689D01*
X144832684Y-131233177D01*
X144757725Y-131145107D01*
X144680462Y-131058545D01*
X144607405Y-130980554D01*
X144545065Y-130918198D01*
X144499950Y-130878541D01*
X144478571Y-130868647D01*
X144478518Y-130893608D01*
X144494924Y-130953838D01*
X144525161Y-131039569D01*
X144565757Y-131141640D01*
X144613239Y-131250891D01*
X144664136Y-131358162D01*
X144675283Y-131380712D01*
X144718037Y-131470634D01*
X144752085Y-131547414D01*
X144770879Y-131596436D01*
X144776532Y-131611347D01*
X144811939Y-131671477D01*
X144862087Y-131733443D01*
X144884092Y-131757730D01*
X144912816Y-131795853D01*
X144914800Y-131810882D01*
X144911324Y-131810021D01*
X144875222Y-131792165D01*
X144808979Y-131754727D01*
X144720638Y-131702347D01*
X144618240Y-131639669D01*
X144586780Y-131620104D01*
X144327742Y-131456111D01*
X144107593Y-131310783D01*
X143923028Y-131181625D01*
X143770743Y-131066146D01*
X143647433Y-130961852D01*
X143549793Y-130866251D01*
X143474520Y-130776849D01*
X143438099Y-130730603D01*
X143400901Y-130689772D01*
X143382370Y-130678168D01*
X143380780Y-130681590D01*
X143322498Y-130681590D01*
X143231342Y-130466684D01*
X143228750Y-130460165D01*
X143208486Y-130402715D01*
X143206253Y-130376286D01*
X143224013Y-130382409D01*
X143263729Y-130422614D01*
X143327362Y-130498433D01*
X143416876Y-130611396D01*
X143452664Y-130656141D01*
X143537988Y-130756530D01*
X143623115Y-130849662D01*
X143694050Y-130919954D01*
X143710163Y-130933778D01*
X143773269Y-130982753D01*
X143863475Y-131048668D01*
X143973464Y-131126559D01*
X144095917Y-131211466D01*
X144223516Y-131298425D01*
X144348944Y-131382474D01*
X144464882Y-131458650D01*
X144564013Y-131521990D01*
X144639019Y-131567532D01*
X144682582Y-131590314D01*
X144683040Y-131590487D01*
X144695624Y-131583346D01*
X144682362Y-131541795D01*
X144642520Y-131463513D01*
X144638528Y-131456195D01*
X144573001Y-131326569D01*
X144514840Y-131194773D01*
X144468179Y-131071655D01*
X144437152Y-130968066D01*
X144425891Y-130894856D01*
X144421449Y-130823692D01*
X144403167Y-130760919D01*
X144372650Y-130738650D01*
X144354901Y-130730188D01*
X144306165Y-130696338D01*
X144236585Y-130642619D01*
X144154796Y-130575498D01*
X144115679Y-130543153D01*
X143995161Y-130448446D01*
X143864842Y-130351453D01*
X143746810Y-130268781D01*
X143679898Y-130222964D01*
X143592795Y-130160165D01*
X143524133Y-130106958D01*
X143484709Y-130071473D01*
X143483308Y-130069923D01*
X143437808Y-130029534D01*
X143366886Y-129976377D01*
X143285269Y-129921525D01*
X143207123Y-129865947D01*
X143116120Y-129771972D01*
X143072406Y-129675411D01*
X143074267Y-129625561D01*
X143168875Y-129625561D01*
X143181788Y-129710655D01*
X143215527Y-129779464D01*
X143237728Y-129799993D01*
X143268721Y-129806798D01*
X143280329Y-129779597D01*
X143276759Y-129760563D01*
X143260660Y-129703783D01*
X143236372Y-129630676D01*
X143219632Y-129584679D01*
X143201012Y-129543894D01*
X143188338Y-129539773D01*
X143176499Y-129566870D01*
X143168875Y-129625561D01*
X143074267Y-129625561D01*
X143076095Y-129576581D01*
X143127298Y-129475798D01*
X143145792Y-129448570D01*
X143176715Y-129374531D01*
X143266125Y-129374531D01*
X143294217Y-129502960D01*
X143322921Y-129585304D01*
X143388677Y-129734987D01*
X143415594Y-129779597D01*
X143470328Y-129870311D01*
X143573503Y-129997784D01*
X143703833Y-130123918D01*
X143866949Y-130255223D01*
X144068480Y-130398209D01*
X144202986Y-130491285D01*
X144420412Y-130652424D01*
X144602348Y-130803995D01*
X144754477Y-130951266D01*
X144882484Y-131099503D01*
X144992054Y-131253974D01*
X145023921Y-131306366D01*
X145087998Y-131429343D01*
X145140262Y-131553266D01*
X145175467Y-131664857D01*
X145188368Y-131750840D01*
X145188248Y-131752089D01*
X145185164Y-131784181D01*
X145165126Y-131837963D01*
X145122818Y-131897614D01*
X145053771Y-131968083D01*
X144953512Y-132054320D01*
X144817571Y-132161272D01*
X144693145Y-132260650D01*
X144571794Y-132372119D01*
X144483550Y-132476657D01*
X144423061Y-132582124D01*
X144384973Y-132696379D01*
X144363932Y-132827284D01*
X144361551Y-132854727D01*
X144364649Y-132979097D01*
X144395560Y-133069686D01*
X144455857Y-133131710D01*
X144513038Y-133162792D01*
X144604442Y-133183836D01*
X144698754Y-133167806D01*
X144799907Y-133113008D01*
X144911833Y-133017743D01*
X145038464Y-132880316D01*
X145062413Y-132852424D01*
X145136859Y-132771777D01*
X145261952Y-132771777D01*
X145274471Y-132811958D01*
X145290449Y-132819872D01*
X145347050Y-132835715D01*
X145432308Y-132853580D01*
X145534900Y-132870904D01*
X145735159Y-132893472D01*
X146010640Y-132906041D01*
X146301866Y-132902200D01*
X146593485Y-132882645D01*
X146870144Y-132848073D01*
X147116490Y-132799180D01*
X147152027Y-132789942D01*
X147260935Y-132757305D01*
X147377254Y-132717403D01*
X147492175Y-132673842D01*
X147596891Y-132630226D01*
X147682594Y-132590160D01*
X147740475Y-132557250D01*
X147761726Y-132535100D01*
X147764404Y-132520913D01*
X147789525Y-132501877D01*
X147799032Y-132501069D01*
X147806077Y-132490631D01*
X147804661Y-132489835D01*
X147770891Y-132483447D01*
X147700410Y-132474945D01*
X147602488Y-132465342D01*
X147486393Y-132455654D01*
X147433630Y-132451376D01*
X147256010Y-132432255D01*
X147114640Y-132407260D01*
X147000519Y-132373923D01*
X146904644Y-132329775D01*
X146818010Y-132272347D01*
X146706237Y-132187028D01*
X146453635Y-132306807D01*
X146419243Y-132322793D01*
X146278912Y-132381801D01*
X146149579Y-132426900D01*
X146046154Y-132452749D01*
X145974740Y-132464771D01*
X145856479Y-132484554D01*
X145752872Y-132501758D01*
X145643522Y-132526950D01*
X145531022Y-132566834D01*
X145429705Y-132615741D01*
X145346480Y-132669187D01*
X145288259Y-132722693D01*
X145261952Y-132771777D01*
X145136859Y-132771777D01*
X145171599Y-132734143D01*
X145277240Y-132638667D01*
X145387839Y-132561507D01*
X145511899Y-132498171D01*
X145657924Y-132444171D01*
X145834417Y-132395015D01*
X146049882Y-132346213D01*
X146170372Y-132319657D01*
X146332873Y-132278782D01*
X146453965Y-132240969D01*
X146530647Y-132207089D01*
X146554325Y-132192311D01*
X146628489Y-132137560D01*
X146645853Y-132122134D01*
X146856285Y-132122134D01*
X146865588Y-132133705D01*
X146911516Y-132158801D01*
X146986700Y-132189465D01*
X147080880Y-132221976D01*
X147183793Y-132252613D01*
X147285178Y-132277655D01*
X147371599Y-132293674D01*
X147532318Y-132313235D01*
X147697990Y-132322939D01*
X147851610Y-132322001D01*
X147976172Y-132309634D01*
X148069660Y-132288160D01*
X148222794Y-132227646D01*
X148374616Y-132132828D01*
X148534288Y-131998600D01*
X148569491Y-131964960D01*
X148704413Y-131820057D01*
X148817025Y-131672854D01*
X148902919Y-131530424D01*
X148957687Y-131399842D01*
X148976923Y-131288180D01*
X148975049Y-131269060D01*
X148960416Y-131202838D01*
X148934423Y-131112476D01*
X148900865Y-131011764D01*
X148876152Y-130940673D01*
X148852553Y-130862841D01*
X148837438Y-130790896D01*
X148828877Y-130711456D01*
X148824941Y-130611134D01*
X148823699Y-130476548D01*
X148823969Y-130385886D01*
X148828389Y-130245974D01*
X148839674Y-130120638D01*
X148859940Y-129989756D01*
X148891301Y-129833209D01*
X148923917Y-129660747D01*
X148951178Y-129449764D01*
X148960448Y-129262805D01*
X148951473Y-129106464D01*
X148923996Y-128987336D01*
X148888312Y-128892027D01*
X148684769Y-129298112D01*
X148633139Y-129399013D01*
X148548930Y-129556916D01*
X148462250Y-129712839D01*
X148380753Y-129853101D01*
X148312095Y-129964023D01*
X148302154Y-129979353D01*
X148239969Y-130078051D01*
X148189393Y-130163044D01*
X148155400Y-130225705D01*
X148142964Y-130257406D01*
X148143498Y-130262594D01*
X148162626Y-130305949D01*
X148200682Y-130359557D01*
X148243696Y-130422385D01*
X148300788Y-130544509D01*
X148348024Y-130690150D01*
X148381805Y-130845083D01*
X148392520Y-130941182D01*
X148398530Y-130995081D01*
X148394601Y-131125920D01*
X148369261Y-131249631D01*
X148302566Y-131405558D01*
X148200825Y-131529425D01*
X148063839Y-131621396D01*
X147891409Y-131681634D01*
X147683336Y-131710301D01*
X147641279Y-131712875D01*
X147548760Y-131721377D01*
X147485034Y-131734610D01*
X147436154Y-131756361D01*
X147388174Y-131790414D01*
X147334483Y-131827678D01*
X147267511Y-131852176D01*
X147178892Y-131858537D01*
X147156163Y-131858620D01*
X147095984Y-131862543D01*
X147052838Y-131878575D01*
X147011266Y-131915195D01*
X146996934Y-131932170D01*
X146955808Y-131980882D01*
X146906927Y-132043425D01*
X146870291Y-132095275D01*
X146856285Y-132122134D01*
X146645853Y-132122134D01*
X146698569Y-132075302D01*
X146755938Y-132014405D01*
X146791972Y-131963739D01*
X146798046Y-131932170D01*
X146783277Y-131922582D01*
X146730834Y-131910795D01*
X146657395Y-131906192D01*
X146588630Y-131901973D01*
X146443993Y-131861134D01*
X146319625Y-131778544D01*
X146218082Y-131656236D01*
X146141922Y-131496244D01*
X146140715Y-131492791D01*
X146140336Y-131491434D01*
X146334249Y-131491434D01*
X146342068Y-131574618D01*
X146381467Y-131652791D01*
X146385105Y-131657352D01*
X146423622Y-131698621D01*
X146450031Y-131715573D01*
X146471962Y-131707175D01*
X146507225Y-131663922D01*
X146533469Y-131596302D01*
X146536389Y-131556938D01*
X146515521Y-131517128D01*
X146461275Y-131468230D01*
X146408288Y-131429906D01*
X146374129Y-131417747D01*
X146353647Y-131432489D01*
X146334249Y-131491434D01*
X146140336Y-131491434D01*
X146095709Y-131331813D01*
X146060485Y-131142693D01*
X146035832Y-130937686D01*
X146022540Y-130729047D01*
X146021706Y-130583146D01*
X146145652Y-130583146D01*
X146149327Y-130654857D01*
X146158474Y-130747961D01*
X146175712Y-130824369D01*
X146206043Y-130903453D01*
X146254468Y-131004582D01*
X146365049Y-131197870D01*
X146492501Y-131369638D01*
X146629731Y-131510965D01*
X146691538Y-131556938D01*
X146771298Y-131616265D01*
X146911765Y-131679948D01*
X146954213Y-131691439D01*
X147034284Y-131707900D01*
X147092927Y-131713424D01*
X147094507Y-131713364D01*
X147165292Y-131704711D01*
X147234884Y-131687263D01*
X147287913Y-131665862D01*
X147309005Y-131645353D01*
X147307820Y-131640923D01*
X147281528Y-131612144D01*
X147231566Y-131576123D01*
X147197931Y-131553054D01*
X147140256Y-131506388D01*
X147084406Y-131454755D01*
X147039126Y-131406966D01*
X147013159Y-131371831D01*
X147015249Y-131358162D01*
X147021872Y-131359563D01*
X147064391Y-131377928D01*
X147132689Y-131413114D01*
X147215509Y-131459428D01*
X147255649Y-131482576D01*
X147325783Y-131520548D01*
X147383147Y-131543652D01*
X147442848Y-131555582D01*
X147519992Y-131560032D01*
X147629685Y-131560695D01*
X147740986Y-131558420D01*
X147854876Y-131546397D01*
X147944564Y-131520274D01*
X148023078Y-131475883D01*
X148103448Y-131409053D01*
X148112886Y-131400167D01*
X148190120Y-131311154D01*
X148239634Y-131213048D01*
X148265811Y-131093755D01*
X148273035Y-130941182D01*
X148272940Y-130925663D01*
X148269716Y-130817231D01*
X148259882Y-130737395D01*
X148240223Y-130669198D01*
X148207524Y-130595685D01*
X148177232Y-130537029D01*
X148134075Y-130461135D01*
X148099700Y-130409063D01*
X148056407Y-130353492D01*
X147886772Y-130579176D01*
X147825645Y-130658664D01*
X147747895Y-130755292D01*
X147678166Y-130837395D01*
X147626437Y-130892947D01*
X147581042Y-130938193D01*
X147555602Y-130971449D01*
X147557251Y-130993153D01*
X147581803Y-131014720D01*
X147582847Y-131015478D01*
X147654477Y-131045546D01*
X147733465Y-131047209D01*
X147806439Y-131024574D01*
X147860028Y-130981749D01*
X147880863Y-130922842D01*
X147883453Y-130903875D01*
X147904690Y-130869700D01*
X147918360Y-130872304D01*
X147926872Y-130905054D01*
X147925922Y-130956172D01*
X147916094Y-131009897D01*
X147897976Y-131050470D01*
X147838148Y-131101320D01*
X147741835Y-131138278D01*
X147629951Y-131150674D01*
X147516793Y-131137144D01*
X147416661Y-131096327D01*
X147384652Y-131074677D01*
X147276948Y-130974596D01*
X147177298Y-130842920D01*
X147089357Y-130688985D01*
X147016779Y-130522127D01*
X146963218Y-130351683D01*
X146959467Y-130331682D01*
X147057948Y-130331682D01*
X147060042Y-130362495D01*
X147067710Y-130385103D01*
X147110207Y-130483401D01*
X147167963Y-130593459D01*
X147230533Y-130696402D01*
X147287469Y-130773359D01*
X147322683Y-130809839D01*
X147387684Y-130852147D01*
X147453357Y-130854941D01*
X147527085Y-130817447D01*
X147616250Y-130738891D01*
X147660711Y-130692898D01*
X147732996Y-130610375D01*
X147806268Y-130515583D01*
X147884640Y-130402475D01*
X147972221Y-130265003D01*
X148073123Y-130097120D01*
X148191458Y-129892777D01*
X148250622Y-129787958D01*
X148335441Y-129633716D01*
X148421731Y-129472853D01*
X148506434Y-129311415D01*
X148586493Y-129155448D01*
X148658850Y-129010997D01*
X148720450Y-128884107D01*
X148768235Y-128780826D01*
X148799148Y-128707197D01*
X148810131Y-128669268D01*
X148810067Y-128666994D01*
X148798496Y-128649000D01*
X148760115Y-128644011D01*
X148685037Y-128650547D01*
X148640221Y-128656482D01*
X148561041Y-128669059D01*
X148506332Y-128680434D01*
X148477697Y-128685706D01*
X148453020Y-128676373D01*
X148462343Y-128646986D01*
X148502927Y-128602990D01*
X148572033Y-128549829D01*
X148615728Y-128521678D01*
X148726462Y-128461835D01*
X148829623Y-128420770D01*
X148910913Y-128404611D01*
X148922032Y-128401855D01*
X148961264Y-128368683D01*
X149000750Y-128308256D01*
X149015493Y-128281140D01*
X149048226Y-128232298D01*
X149071310Y-128212946D01*
X149093724Y-128219498D01*
X149110302Y-128254738D01*
X149096323Y-128307763D01*
X149083707Y-128338234D01*
X149097272Y-128352202D01*
X149148833Y-128353535D01*
X149217272Y-128347572D01*
X149278539Y-128335665D01*
X149329967Y-128320169D01*
X149262687Y-128172459D01*
X149246614Y-128138784D01*
X149180839Y-128033533D01*
X149104036Y-127961898D01*
X149028980Y-127910851D01*
X148896376Y-127823582D01*
X148777876Y-127749280D01*
X148679643Y-127691635D01*
X148607839Y-127654341D01*
X148568626Y-127641089D01*
X148560395Y-127641562D01*
X148529566Y-127653986D01*
X148497891Y-127687712D01*
X148461691Y-127748675D01*
X148417287Y-127842809D01*
X148361000Y-127976050D01*
X148272928Y-128187292D01*
X148102481Y-128574015D01*
X147934664Y-128923421D01*
X147765984Y-129241944D01*
X147592942Y-129536020D01*
X147412044Y-129812082D01*
X147219793Y-130076566D01*
X147163732Y-130151062D01*
X147105787Y-130233136D01*
X147071860Y-130290953D01*
X147057948Y-130331682D01*
X146959467Y-130331682D01*
X146932329Y-130186990D01*
X146927765Y-130037383D01*
X146953182Y-129912199D01*
X146971145Y-129873524D01*
X147016286Y-129807233D01*
X147067126Y-129757497D01*
X147111339Y-129737899D01*
X147118848Y-129738942D01*
X147122599Y-129758688D01*
X147092740Y-129806745D01*
X147082157Y-129822526D01*
X147047900Y-129909002D01*
X147029196Y-130033106D01*
X147024607Y-130112193D01*
X147024697Y-130168960D01*
X147029482Y-130190620D01*
X147033202Y-130188058D01*
X147059493Y-130157671D01*
X147104547Y-130099722D01*
X147162207Y-130022686D01*
X147226314Y-129935037D01*
X147290708Y-129845248D01*
X147349229Y-129761794D01*
X147395720Y-129693148D01*
X147424022Y-129647786D01*
X147435053Y-129626308D01*
X147441502Y-129585787D01*
X147414395Y-129545254D01*
X147374268Y-129509862D01*
X147284410Y-129454461D01*
X147176737Y-129405294D01*
X147069125Y-129370111D01*
X146979445Y-129356661D01*
X146934090Y-129358160D01*
X146881278Y-129370195D01*
X146832863Y-129401712D01*
X146771568Y-129461419D01*
X146771071Y-129461938D01*
X146704945Y-129544848D01*
X146650778Y-129645823D01*
X146605945Y-129772254D01*
X146567821Y-129931532D01*
X146533782Y-130131051D01*
X146520523Y-130220293D01*
X146503064Y-130334481D01*
X146489846Y-130412511D01*
X146479263Y-130461250D01*
X146469704Y-130487564D01*
X146459561Y-130498317D01*
X146447225Y-130500376D01*
X146439885Y-130486215D01*
X146434214Y-130434187D01*
X146432177Y-130354095D01*
X146433449Y-130256739D01*
X146437701Y-130152918D01*
X146444608Y-130053429D01*
X146453841Y-129969073D01*
X146465076Y-129910648D01*
X146470498Y-129874196D01*
X146452487Y-129859513D01*
X146406190Y-129882607D01*
X146331936Y-129943399D01*
X146251788Y-130038724D01*
X146185882Y-130183980D01*
X146150532Y-130365355D01*
X146145652Y-130583146D01*
X146021706Y-130583146D01*
X146021396Y-130529031D01*
X146033192Y-130349895D01*
X146058714Y-130203894D01*
X146059081Y-130202494D01*
X146091490Y-130112107D01*
X146139280Y-130016613D01*
X146194613Y-129928514D01*
X146249653Y-129860312D01*
X146296561Y-129824508D01*
X146313157Y-129815783D01*
X146332082Y-129790666D01*
X146316694Y-129771919D01*
X146269770Y-129730674D01*
X146198870Y-129673892D01*
X146111679Y-129607946D01*
X146069741Y-129577459D01*
X145882123Y-129453591D01*
X145719681Y-129368911D01*
X145581520Y-129322937D01*
X145579703Y-129322552D01*
X145532826Y-129313871D01*
X145528000Y-129321115D01*
X145560787Y-129350092D01*
X145618273Y-129398104D01*
X145708724Y-129474346D01*
X145769529Y-129527057D01*
X145805543Y-129560651D01*
X145821619Y-129579542D01*
X145822613Y-129588144D01*
X145808854Y-129590192D01*
X145759077Y-129571000D01*
X145679735Y-129525803D01*
X145575356Y-129457278D01*
X145450469Y-129368102D01*
X145435988Y-129357522D01*
X145178338Y-129199503D01*
X144896338Y-129078436D01*
X144598876Y-128997461D01*
X144294840Y-128959719D01*
X144230992Y-128956866D01*
X144135577Y-128955277D01*
X144069010Y-128960081D01*
X144018979Y-128972593D01*
X143973171Y-128994133D01*
X143960876Y-129001379D01*
X143894463Y-129060854D01*
X143859001Y-129131065D01*
X143861580Y-129198995D01*
X143868591Y-129210995D01*
X143908192Y-129231343D01*
X143985341Y-129237524D01*
X143993946Y-129237579D01*
X144140638Y-129250754D01*
X144315373Y-129285105D01*
X144505986Y-129337768D01*
X144700311Y-129405877D01*
X144713544Y-129411088D01*
X144831618Y-129461849D01*
X144951295Y-129519920D01*
X145067031Y-129581757D01*
X145173284Y-129643811D01*
X145264508Y-129702536D01*
X145335161Y-129754385D01*
X145379697Y-129795811D01*
X145392575Y-129823268D01*
X145368249Y-129833209D01*
X145360051Y-129832316D01*
X145310598Y-129811569D01*
X145253503Y-129771956D01*
X145249006Y-129768279D01*
X145186036Y-129725528D01*
X145093517Y-129671654D01*
X144984396Y-129613354D01*
X144871621Y-129557325D01*
X144768139Y-129510265D01*
X144686898Y-129478870D01*
X144650391Y-129468085D01*
X144568505Y-129447029D01*
X144465765Y-129422920D01*
X144351776Y-129397754D01*
X144236147Y-129373523D01*
X144128482Y-129352220D01*
X144038389Y-129335839D01*
X143975474Y-129326374D01*
X143949343Y-129325818D01*
X143948008Y-129327732D01*
X143959126Y-129355923D01*
X144003676Y-129405212D01*
X144075905Y-129471277D01*
X144170061Y-129549795D01*
X144280392Y-129636444D01*
X144401144Y-129726903D01*
X144526566Y-129816849D01*
X144650904Y-129901961D01*
X144768406Y-129977916D01*
X144873319Y-130040392D01*
X144959891Y-130085067D01*
X145081144Y-130140220D01*
X144997748Y-130141573D01*
X144959547Y-130138329D01*
X144861536Y-130110775D01*
X144744437Y-130059474D01*
X144619349Y-129989640D01*
X144497373Y-129906489D01*
X144445500Y-129865470D01*
X144360707Y-129795294D01*
X144256521Y-129706938D01*
X144141482Y-129607653D01*
X144024134Y-129504693D01*
X144011727Y-129493717D01*
X143866892Y-129366983D01*
X143751219Y-129269306D01*
X143659695Y-129197198D01*
X143587303Y-129147170D01*
X143529032Y-129115733D01*
X143479866Y-129099400D01*
X143434790Y-129094682D01*
X143430342Y-129094727D01*
X143352180Y-129116870D01*
X143297297Y-129175126D01*
X143267882Y-129263133D01*
X143266125Y-129374531D01*
X143176715Y-129374531D01*
X143177830Y-129371862D01*
X143186956Y-129274593D01*
X143195817Y-129180502D01*
X143234260Y-129076689D01*
X143269916Y-129027973D01*
X143312603Y-129004561D01*
X143381166Y-128999250D01*
X143476192Y-129013616D01*
X143607515Y-129070732D01*
X143666671Y-129102946D01*
X143723447Y-129131072D01*
X143752406Y-129141699D01*
X143754970Y-129141031D01*
X143778063Y-129115477D01*
X143806379Y-129064485D01*
X143811033Y-129055294D01*
X143859941Y-128989504D01*
X143923083Y-128933950D01*
X143924760Y-128932839D01*
X143973483Y-128905825D01*
X144027768Y-128889812D01*
X144101612Y-128882173D01*
X144209011Y-128880280D01*
X144216693Y-128880307D01*
X144461019Y-128900587D01*
X144729120Y-128957842D01*
X145016206Y-129051059D01*
X145057424Y-129066278D01*
X145138931Y-129094566D01*
X145197073Y-129112185D01*
X145221333Y-129115815D01*
X145222974Y-129105442D01*
X145221236Y-129054657D01*
X145214339Y-128969421D01*
X145203208Y-128857884D01*
X145188768Y-128728197D01*
X145171944Y-128588511D01*
X145153659Y-128446975D01*
X145134840Y-128311742D01*
X145116410Y-128190960D01*
X145073360Y-127947152D01*
X144986712Y-127558362D01*
X144882945Y-127206531D01*
X144760125Y-126886227D01*
X144616318Y-126592019D01*
X144449589Y-126318476D01*
X144429536Y-126289134D01*
X144367540Y-126203428D01*
X144316164Y-126139723D01*
X144279483Y-126102351D01*
X144261572Y-126095640D01*
X144266506Y-126123922D01*
X144294752Y-126204444D01*
X144352605Y-126404942D01*
X144402817Y-126627236D01*
X144443834Y-126860272D01*
X144474104Y-127092993D01*
X144492074Y-127314345D01*
X144496191Y-127513272D01*
X144484902Y-127678719D01*
X144465924Y-127819794D01*
X144434372Y-127593434D01*
X144396211Y-127377802D01*
X144320084Y-127105458D01*
X144212492Y-126849322D01*
X144069775Y-126602332D01*
X143888271Y-126357424D01*
X143664322Y-126107533D01*
X143624558Y-126066992D01*
X143329917Y-125800346D01*
X143020779Y-125578685D01*
X142695738Y-125401225D01*
X142353387Y-125267180D01*
X141992318Y-125175768D01*
X141969051Y-125171630D01*
X141871273Y-125158380D01*
X141761297Y-125148352D01*
X141649054Y-125141847D01*
X141544477Y-125139167D01*
X141457495Y-125140612D01*
X141398039Y-125146484D01*
X141376041Y-125157083D01*
X141094344Y-125157083D01*
X141046817Y-125140113D01*
X141020243Y-125132127D01*
X140968333Y-125107846D01*
X140953451Y-125084393D01*
X140956413Y-125078529D01*
X140997293Y-125051663D01*
X141076242Y-125028089D01*
X141185366Y-125008394D01*
X141316767Y-124993162D01*
X141462552Y-124982979D01*
X141614824Y-124978432D01*
X141765688Y-124980104D01*
X141907248Y-124988582D01*
X142031608Y-125004450D01*
X142163043Y-125030746D01*
X142507643Y-125132508D01*
X142838248Y-125278276D01*
X143152459Y-125466279D01*
X143447882Y-125694746D01*
X143722121Y-125961907D01*
X143972780Y-126265990D01*
X144197462Y-126605225D01*
X144239234Y-126675579D01*
X144283356Y-126747885D01*
X144309454Y-126785207D01*
X144321181Y-126791191D01*
X144322186Y-126769485D01*
X144316123Y-126723734D01*
X144305073Y-126668525D01*
X144276127Y-126560270D01*
X144234998Y-126426907D01*
X144185433Y-126279458D01*
X144131176Y-126128943D01*
X144075972Y-125986384D01*
X144023567Y-125862801D01*
X143995742Y-125800445D01*
X143959541Y-125717119D01*
X143934725Y-125657133D01*
X143925516Y-125630484D01*
X143933546Y-125622178D01*
X143971274Y-125615760D01*
X143974893Y-125616076D01*
X144017423Y-125639152D01*
X144081277Y-125694636D01*
X144161058Y-125776698D01*
X144251367Y-125879510D01*
X144346806Y-125997242D01*
X144441977Y-126124064D01*
X144500698Y-126208459D01*
X144606544Y-126372870D01*
X144711623Y-126549699D01*
X144808868Y-126726393D01*
X144891212Y-126890403D01*
X144951589Y-127029175D01*
X145029211Y-127247500D01*
X145131346Y-127595342D01*
X145217894Y-127966630D01*
X145285791Y-128347697D01*
X145331970Y-128724879D01*
X145333306Y-128739152D01*
X145345751Y-128859018D01*
X145358692Y-128964026D01*
X145370675Y-129043297D01*
X145380243Y-129085950D01*
X145382897Y-129091824D01*
X145396031Y-129105442D01*
X145417114Y-129127301D01*
X145486957Y-129166250D01*
X145597927Y-129211852D01*
X145697927Y-129249902D01*
X145817465Y-129298606D01*
X145911720Y-129343273D01*
X145992674Y-129390398D01*
X146072305Y-129446474D01*
X146162592Y-129517998D01*
X146213958Y-129559503D01*
X146321578Y-129641829D01*
X146398315Y-129692222D01*
X146446218Y-129711919D01*
X146467333Y-129702158D01*
X146493201Y-129643544D01*
X146543427Y-129554493D01*
X146604071Y-129461955D01*
X146664838Y-129381438D01*
X146715432Y-129328449D01*
X146786919Y-129283068D01*
X146914523Y-129246894D01*
X147059715Y-129251837D01*
X147219038Y-129297612D01*
X147389039Y-129383936D01*
X147439170Y-129413520D01*
X147489122Y-129440062D01*
X147510841Y-129447390D01*
X147515319Y-129441184D01*
X147542263Y-129397334D01*
X147585355Y-129322834D01*
X147639839Y-129226281D01*
X147700958Y-129116275D01*
X147763957Y-129001414D01*
X147824080Y-128890297D01*
X147876569Y-128791522D01*
X147916670Y-128713689D01*
X147925525Y-128695972D01*
X148012522Y-128517213D01*
X148095329Y-128339033D01*
X148171012Y-128168399D01*
X148236633Y-128012275D01*
X148289256Y-127877627D01*
X148325944Y-127771421D01*
X148343760Y-127700621D01*
X148352865Y-127648636D01*
X148385834Y-127550587D01*
X148407669Y-127521924D01*
X148643339Y-127521924D01*
X148650753Y-127537258D01*
X148694297Y-127580078D01*
X148773953Y-127642408D01*
X148886411Y-127721723D01*
X149028358Y-127815498D01*
X149079709Y-127849320D01*
X149201151Y-127939415D01*
X149288852Y-128025116D01*
X149350969Y-128115389D01*
X149395660Y-128219201D01*
X149400163Y-128232194D01*
X149427625Y-128294573D01*
X149454217Y-128320169D01*
X149460929Y-128326630D01*
X149513631Y-128342536D01*
X149580262Y-128358445D01*
X149600996Y-128372113D01*
X149576615Y-128382898D01*
X149508377Y-128390246D01*
X149397538Y-128393605D01*
X149326352Y-128396232D01*
X149166243Y-128413614D01*
X149005160Y-128444248D01*
X148859283Y-128484712D01*
X148744788Y-128531589D01*
X148741472Y-128533333D01*
X148713723Y-128550215D01*
X148714691Y-128560942D01*
X148750624Y-128568997D01*
X148827770Y-128577864D01*
X148892230Y-128587389D01*
X149046928Y-128625661D01*
X149218056Y-128684505D01*
X149390952Y-128758555D01*
X149550950Y-128842446D01*
X149558087Y-128846646D01*
X149652631Y-128906433D01*
X149741011Y-128969133D01*
X149819284Y-129030737D01*
X149883511Y-129087236D01*
X149929750Y-129134620D01*
X149954061Y-129168881D01*
X149952503Y-129186008D01*
X149921136Y-129181993D01*
X149856018Y-129152826D01*
X149816631Y-129136674D01*
X149707361Y-129116242D01*
X149584477Y-129117590D01*
X149468116Y-129141313D01*
X149423332Y-129159368D01*
X149387331Y-129185455D01*
X149389268Y-129205612D01*
X149432194Y-129213696D01*
X149475594Y-129222713D01*
X149547361Y-129248093D01*
X149629912Y-129284098D01*
X149795064Y-129387353D01*
X149949053Y-129533408D01*
X150085692Y-129716071D01*
X150201220Y-129930301D01*
X150291874Y-130171057D01*
X150304598Y-130214470D01*
X150318459Y-130270526D01*
X150328795Y-130329784D01*
X150336133Y-130399652D01*
X150341001Y-130487539D01*
X150343923Y-130600853D01*
X150345427Y-130747004D01*
X150346038Y-130933399D01*
X150346086Y-130961059D01*
X150346633Y-131138182D01*
X150347876Y-131274703D01*
X150350295Y-131376825D01*
X150354371Y-131450755D01*
X150360587Y-131502698D01*
X150369423Y-131538858D01*
X150381362Y-131565441D01*
X150396884Y-131588652D01*
X150397328Y-131589247D01*
X150456340Y-131644852D01*
X150472720Y-131653910D01*
X150527935Y-131684444D01*
X150566021Y-131696094D01*
X150637007Y-131708189D01*
X150722284Y-131709487D01*
X150832530Y-131699864D01*
X150978424Y-131679196D01*
X151136270Y-131650243D01*
X151404061Y-131576789D01*
X151636620Y-131476579D01*
X151838205Y-131347140D01*
X152013074Y-131186005D01*
X152165486Y-130990704D01*
X152235749Y-130878463D01*
X152367975Y-130608164D01*
X152454319Y-130329777D01*
X152494344Y-130045765D01*
X152487616Y-129758592D01*
X152433701Y-129470720D01*
X152383331Y-129302960D01*
X152312673Y-129105834D01*
X152232565Y-128913409D01*
X152147027Y-128734034D01*
X152138769Y-128719030D01*
X152286696Y-128719030D01*
X152298903Y-128757503D01*
X152326644Y-128824260D01*
X152366171Y-128909897D01*
X152379376Y-128938137D01*
X152425219Y-129047452D01*
X152462938Y-129153762D01*
X152485419Y-129237524D01*
X152502635Y-129327737D01*
X152525627Y-129440950D01*
X152545407Y-129520290D01*
X152565266Y-129573807D01*
X152588498Y-129609548D01*
X152618397Y-129635562D01*
X152658255Y-129659896D01*
X152713439Y-129687626D01*
X152807853Y-129727373D01*
X152904996Y-129761795D01*
X153067781Y-129800030D01*
X153225364Y-129803615D01*
X153377686Y-129767056D01*
X153537350Y-129688900D01*
X153630141Y-129633825D01*
X153513523Y-129537602D01*
X153373024Y-129412662D01*
X153244386Y-129271722D01*
X153148387Y-129129592D01*
X153078385Y-129005555D01*
X152888645Y-128994571D01*
X152836633Y-128990204D01*
X152654697Y-128951827D01*
X152496067Y-128881132D01*
X152369276Y-128781619D01*
X152355834Y-128767930D01*
X152312987Y-128728977D01*
X152287789Y-128713321D01*
X152286696Y-128719030D01*
X152138769Y-128719030D01*
X152060077Y-128576060D01*
X151975733Y-128447836D01*
X151898015Y-128357714D01*
X151874281Y-128331375D01*
X151842307Y-128255621D01*
X151847080Y-128160670D01*
X151889082Y-128043419D01*
X151968791Y-127900765D01*
X151985267Y-127873789D01*
X152015034Y-127819075D01*
X152026829Y-127787603D01*
X152026798Y-127787063D01*
X152005040Y-127779010D01*
X151953107Y-127781873D01*
X151885973Y-127793159D01*
X151818613Y-127810374D01*
X151766001Y-127831026D01*
X151736567Y-127854803D01*
X151703668Y-127907887D01*
X151687036Y-127960290D01*
X151646519Y-127910254D01*
X151640048Y-127901622D01*
X151625662Y-127872608D01*
X151616840Y-127830435D01*
X151612896Y-127766500D01*
X151613145Y-127672201D01*
X151616899Y-127538934D01*
X151620292Y-127438882D01*
X151728987Y-127438882D01*
X151729524Y-127534000D01*
X151732305Y-127617550D01*
X151738403Y-127666633D01*
X151748863Y-127688606D01*
X151764728Y-127690826D01*
X151785164Y-127687568D01*
X151847956Y-127681765D01*
X151938464Y-127675699D01*
X152044700Y-127670253D01*
X152159979Y-127666633D01*
X152235804Y-127668224D01*
X152276695Y-127675592D01*
X152288930Y-127689225D01*
X152288929Y-127689352D01*
X152272733Y-127720204D01*
X152230707Y-127772199D01*
X152171886Y-127834151D01*
X152104309Y-127908392D01*
X152033371Y-128024355D01*
X152008872Y-128138602D01*
X152030371Y-128254330D01*
X152097429Y-128374738D01*
X152107587Y-128387731D01*
X152170544Y-128451854D01*
X152261530Y-128529825D01*
X152369940Y-128613701D01*
X152485171Y-128695539D01*
X152596617Y-128767397D01*
X152693677Y-128821332D01*
X152694974Y-128821965D01*
X152757902Y-128847838D01*
X152831981Y-128871876D01*
X152903241Y-128890429D01*
X152957709Y-128899848D01*
X152981416Y-128896485D01*
X152981472Y-128896226D01*
X152983017Y-128869398D01*
X152985511Y-128808241D01*
X152988443Y-128725235D01*
X152991674Y-128671440D01*
X153008834Y-128556799D01*
X153024818Y-128507214D01*
X153123505Y-128507214D01*
X153124701Y-128571622D01*
X153129849Y-128658020D01*
X153131371Y-128676906D01*
X153147520Y-128794281D01*
X153177995Y-128898639D01*
X153229950Y-129015533D01*
X153298821Y-129136917D01*
X153425750Y-129305684D01*
X153574190Y-129453421D01*
X153734934Y-129571383D01*
X153863711Y-129633825D01*
X153898777Y-129650828D01*
X153955511Y-129668903D01*
X154129496Y-129699750D01*
X154291326Y-129691386D01*
X154433396Y-129643910D01*
X154440809Y-129639839D01*
X154492761Y-129603774D01*
X154553507Y-129553270D01*
X154611363Y-129499146D01*
X154654646Y-129452219D01*
X154671670Y-129423307D01*
X154654465Y-129414417D01*
X154601311Y-129407117D01*
X154524734Y-129404316D01*
X154456245Y-129402533D01*
X154406071Y-129397281D01*
X154392340Y-129389774D01*
X154392582Y-129389547D01*
X154422805Y-129377536D01*
X154486086Y-129360291D01*
X154569060Y-129341464D01*
X154640667Y-129323311D01*
X154793404Y-129259969D01*
X154919871Y-129171842D01*
X155013179Y-129064443D01*
X155066439Y-128943288D01*
X155083081Y-128875413D01*
X154954670Y-128960673D01*
X154825413Y-129030464D01*
X154665006Y-129074590D01*
X154494254Y-129076196D01*
X154309510Y-129035243D01*
X154107126Y-128951693D01*
X154082498Y-128939270D01*
X153908594Y-128832455D01*
X153747517Y-128694969D01*
X153744176Y-128691670D01*
X153924381Y-128691670D01*
X153961654Y-128727630D01*
X154039796Y-128784495D01*
X154053630Y-128793542D01*
X154129035Y-128830165D01*
X154206685Y-128851602D01*
X154277102Y-128857835D01*
X154330810Y-128848844D01*
X154358332Y-128824611D01*
X154350193Y-128785116D01*
X154332917Y-128772224D01*
X154276337Y-128748670D01*
X154193298Y-128722678D01*
X154095890Y-128697905D01*
X153996200Y-128678009D01*
X153968994Y-128674045D01*
X153927115Y-128674510D01*
X153924381Y-128691670D01*
X153744176Y-128691670D01*
X153711385Y-128659295D01*
X153622221Y-128564522D01*
X153553612Y-128475892D01*
X153500088Y-128382742D01*
X153456179Y-128274411D01*
X153416413Y-128140236D01*
X153375322Y-127969556D01*
X153364502Y-127938353D01*
X153334944Y-127917547D01*
X153293736Y-127941471D01*
X153242508Y-128009633D01*
X153216087Y-128062144D01*
X153193884Y-128171181D01*
X153208099Y-128296926D01*
X153259404Y-128443205D01*
X153348467Y-128613839D01*
X153354827Y-128624750D01*
X153394487Y-128697581D01*
X153419450Y-128752031D01*
X153424548Y-128777015D01*
X153418941Y-128779995D01*
X153384537Y-128767984D01*
X153333706Y-128726870D01*
X153274949Y-128664377D01*
X153216766Y-128588227D01*
X153182375Y-128539661D01*
X153146241Y-128493058D01*
X153127634Y-128475047D01*
X153126398Y-128476240D01*
X153123505Y-128507214D01*
X153024818Y-128507214D01*
X153036653Y-128470498D01*
X153039024Y-128465549D01*
X153062272Y-128400946D01*
X153069575Y-128329268D01*
X153063093Y-128230946D01*
X153058749Y-128170227D01*
X153070470Y-128033780D01*
X153115829Y-127930798D01*
X153194942Y-127860952D01*
X153240218Y-127831439D01*
X153259474Y-127795667D01*
X153254436Y-127736398D01*
X153220045Y-127505612D01*
X153200908Y-127259850D01*
X153321142Y-127259850D01*
X153335882Y-127459669D01*
X153363293Y-127638564D01*
X153406747Y-127791873D01*
X153470362Y-127930654D01*
X153558258Y-128065964D01*
X153674551Y-128208862D01*
X153854662Y-128389179D01*
X154060344Y-128540179D01*
X154288075Y-128654657D01*
X154397585Y-128692887D01*
X154588646Y-128727020D01*
X154774105Y-128716082D01*
X154956449Y-128659476D01*
X155138165Y-128556606D01*
X155321741Y-128406877D01*
X155336172Y-128393185D01*
X155455121Y-128258068D01*
X155533632Y-128117405D01*
X155577883Y-127960429D01*
X155596427Y-127855923D01*
X155611517Y-127781030D01*
X155623763Y-127737585D01*
X155635496Y-127717471D01*
X155649047Y-127712571D01*
X155649532Y-127712586D01*
X155665714Y-127734286D01*
X155672420Y-127784801D01*
X155672731Y-127803689D01*
X155679825Y-127840867D01*
X155704060Y-127863053D01*
X155755577Y-127876234D01*
X155844515Y-127886397D01*
X155912635Y-127889939D01*
X155952356Y-127881286D01*
X155969851Y-127856832D01*
X155971857Y-127852277D01*
X156004680Y-127818477D01*
X156060292Y-127780387D01*
X156120314Y-127749273D01*
X156166364Y-127736398D01*
X156167642Y-127740189D01*
X156149182Y-127767960D01*
X156108846Y-127813837D01*
X156061055Y-127867613D01*
X156011893Y-127943427D01*
X155988297Y-128025458D01*
X155982265Y-128133941D01*
X155983727Y-128178163D01*
X156010423Y-128307567D01*
X156070860Y-128403547D01*
X156165255Y-128466497D01*
X156249429Y-128489426D01*
X156357699Y-128482288D01*
X156455707Y-128435353D01*
X156539257Y-128353085D01*
X156604152Y-128239949D01*
X156646194Y-128100409D01*
X156661188Y-127938931D01*
X156660644Y-127891517D01*
X156647327Y-127739126D01*
X156612435Y-127615043D01*
X156550968Y-127505987D01*
X156457932Y-127398674D01*
X156397458Y-127340555D01*
X156326016Y-127284571D01*
X156250343Y-127245411D01*
X156150913Y-127211151D01*
X156131591Y-127205418D01*
X155983929Y-127173208D01*
X155860549Y-127170165D01*
X155783449Y-127174216D01*
X155739469Y-127165559D01*
X155737225Y-127141219D01*
X155774421Y-127099309D01*
X155796375Y-127080698D01*
X155919170Y-127011240D01*
X156069963Y-126970282D01*
X156239125Y-126959597D01*
X156417026Y-126980958D01*
X156506379Y-126999908D01*
X156508054Y-126909476D01*
X156508306Y-126900417D01*
X156515383Y-126827146D01*
X156528360Y-126771389D01*
X156530488Y-126766339D01*
X156542193Y-126757375D01*
X156552989Y-126788256D01*
X156564406Y-126862864D01*
X156580433Y-126951059D01*
X156611037Y-127024008D01*
X156665089Y-127094162D01*
X156713934Y-127140062D01*
X156836325Y-127215567D01*
X156979978Y-127265580D01*
X157129168Y-127283678D01*
X157146855Y-127283563D01*
X157220112Y-127276830D01*
X157273679Y-127252978D01*
X157330807Y-127202665D01*
X157370934Y-127158388D01*
X157402992Y-127099536D01*
X157410975Y-127029916D01*
X157407349Y-126973723D01*
X157393462Y-126920552D01*
X157364087Y-126866888D01*
X157313971Y-126805195D01*
X157237860Y-126727937D01*
X157130502Y-126627578D01*
X157030670Y-126538089D01*
X156927706Y-126454163D01*
X156838141Y-126394965D01*
X156751503Y-126354788D01*
X156657320Y-126327928D01*
X156545118Y-126308679D01*
X156453577Y-126296791D01*
X156338243Y-126286974D01*
X156238968Y-126288619D01*
X156140689Y-126303316D01*
X156028343Y-126332658D01*
X155886867Y-126378237D01*
X155884011Y-126379197D01*
X155770108Y-126415869D01*
X155667881Y-126445865D01*
X155588415Y-126466114D01*
X155542793Y-126473546D01*
X155522431Y-126474200D01*
X155495254Y-126484443D01*
X155484013Y-126517103D01*
X155481801Y-126584775D01*
X155483873Y-126640206D01*
X155493248Y-126742778D01*
X155507624Y-126844291D01*
X155523007Y-126944223D01*
X155529179Y-127020709D01*
X155523023Y-127051457D01*
X155505332Y-127036209D01*
X155476901Y-126974709D01*
X155438522Y-126866698D01*
X155431603Y-126845553D01*
X155389435Y-126717901D01*
X155355643Y-126632478D01*
X155323054Y-126587696D01*
X155284498Y-126581970D01*
X155232802Y-126613713D01*
X155160794Y-126681339D01*
X155061302Y-126783261D01*
X155035945Y-126809458D01*
X154951354Y-126899853D01*
X154879998Y-126980590D01*
X154828746Y-127043705D01*
X154804463Y-127081228D01*
X154797718Y-127109660D01*
X154802750Y-127154720D01*
X154826693Y-127218229D01*
X154872796Y-127311121D01*
X154898866Y-127361538D01*
X154933375Y-127435841D01*
X154950434Y-127493917D01*
X154953994Y-127552402D01*
X154948003Y-127627931D01*
X154940489Y-127686788D01*
X154921640Y-127796810D01*
X154900202Y-127891276D01*
X154867613Y-128010413D01*
X154866412Y-127814116D01*
X154866126Y-127785298D01*
X154861645Y-127688100D01*
X154848445Y-127608814D01*
X154821977Y-127527442D01*
X154777693Y-127423985D01*
X154762496Y-127389893D01*
X154706854Y-127250094D01*
X154679223Y-127140286D01*
X154680950Y-127052464D01*
X154713380Y-126978623D01*
X154777860Y-126910757D01*
X154875736Y-126840862D01*
X154912803Y-126815510D01*
X155044285Y-126690334D01*
X155142148Y-126531706D01*
X155206139Y-126340136D01*
X155236004Y-126116135D01*
X155238258Y-126048425D01*
X155230471Y-125919772D01*
X155201886Y-125824547D01*
X155149301Y-125754790D01*
X155069512Y-125702546D01*
X155017248Y-125678618D01*
X154977312Y-125671067D01*
X154933948Y-125682944D01*
X154867715Y-125715495D01*
X154813085Y-125749282D01*
X154728477Y-125820869D01*
X154631667Y-125923907D01*
X154519362Y-126061990D01*
X154388271Y-126238711D01*
X154339185Y-126304912D01*
X154253802Y-126404363D01*
X154169468Y-126475519D01*
X154073482Y-126528105D01*
X153953139Y-126571848D01*
X153876118Y-126594120D01*
X153797812Y-126610995D01*
X153759265Y-126611240D01*
X153762123Y-126596240D01*
X153808034Y-126567379D01*
X153898644Y-126526041D01*
X153995050Y-126484599D01*
X154078744Y-126442098D01*
X154143385Y-126396898D01*
X154202967Y-126338943D01*
X154271487Y-126258178D01*
X154320246Y-126195471D01*
X154343595Y-126151171D01*
X154346381Y-126108252D01*
X154333819Y-126049241D01*
X154325796Y-126011111D01*
X154321148Y-125917470D01*
X154336993Y-125802271D01*
X154346878Y-125756340D01*
X154419346Y-125541668D01*
X154529268Y-125356398D01*
X154676497Y-125200737D01*
X154860882Y-125074893D01*
X154878238Y-125065388D01*
X155077165Y-124952224D01*
X155236360Y-124852223D01*
X155360269Y-124761836D01*
X155453335Y-124677515D01*
X155520003Y-124595710D01*
X155564717Y-124512872D01*
X155570202Y-124498668D01*
X155586565Y-124386820D01*
X155559610Y-124278016D01*
X155492063Y-124184565D01*
X155440867Y-124151651D01*
X155340114Y-124127329D01*
X155213961Y-124128472D01*
X155070138Y-124153565D01*
X154916377Y-124201094D01*
X154760408Y-124269542D01*
X154609965Y-124357396D01*
X154547378Y-124402026D01*
X154384384Y-124540490D01*
X154217509Y-124710117D01*
X154054904Y-124900944D01*
X153904720Y-125103010D01*
X153814052Y-125245256D01*
X153775108Y-125306353D01*
X153674220Y-125501010D01*
X153638947Y-125582479D01*
X153519028Y-125910074D01*
X153444042Y-126183676D01*
X153424888Y-126253565D01*
X153388067Y-126447507D01*
X153358927Y-126600994D01*
X153323545Y-126940408D01*
X153321142Y-127259850D01*
X153200908Y-127259850D01*
X153196130Y-127198482D01*
X153202452Y-126914671D01*
X153238900Y-126646295D01*
X153249341Y-126589987D01*
X153262456Y-126505587D01*
X153268055Y-126447507D01*
X153264938Y-126425892D01*
X153249250Y-126429049D01*
X153196626Y-126443390D01*
X153119281Y-126466045D01*
X153028959Y-126493400D01*
X152937401Y-126521836D01*
X152856351Y-126547738D01*
X152797552Y-126567489D01*
X152772747Y-126577472D01*
X152772412Y-126578222D01*
X152779774Y-126606184D01*
X152802477Y-126664547D01*
X152836119Y-126741887D01*
X152871658Y-126830987D01*
X152906577Y-126947962D01*
X152930099Y-127062994D01*
X152941385Y-127167465D01*
X152940414Y-127213794D01*
X152939597Y-127252757D01*
X152923896Y-127310252D01*
X152893446Y-127331332D01*
X152875087Y-127326885D01*
X152818821Y-127304867D01*
X152738074Y-127268592D01*
X152643626Y-127222745D01*
X152582068Y-127193115D01*
X152491010Y-127154063D01*
X152418419Y-127128702D01*
X152376044Y-127121479D01*
X152350459Y-127128985D01*
X152332755Y-127151395D01*
X152323091Y-127199259D01*
X152317456Y-127283678D01*
X152311678Y-127360322D01*
X152302192Y-127425365D01*
X152291484Y-127457380D01*
X152270674Y-127457309D01*
X152220761Y-127435835D01*
X152155735Y-127396273D01*
X152112340Y-127366611D01*
X152014529Y-127299691D01*
X151925495Y-127238707D01*
X151918651Y-127234029D01*
X151843958Y-127186714D01*
X151791855Y-127166525D01*
X151758323Y-127177554D01*
X151739347Y-127223895D01*
X151730907Y-127309641D01*
X151728987Y-127438882D01*
X151620292Y-127438882D01*
X151627795Y-127217651D01*
X151565938Y-127229476D01*
X151534920Y-127237130D01*
X151493390Y-127261239D01*
X151463667Y-127308511D01*
X151456914Y-127328722D01*
X151436140Y-127390901D01*
X151411492Y-127462285D01*
X151328708Y-127607912D01*
X151282985Y-127654239D01*
X151215538Y-127722578D01*
X151078479Y-127803085D01*
X150924031Y-127846238D01*
X150758693Y-127848838D01*
X150588964Y-127807688D01*
X150559776Y-127795816D01*
X150442790Y-127737094D01*
X150305772Y-127655218D01*
X150159961Y-127557597D01*
X150092298Y-127507591D01*
X150360086Y-127507591D01*
X150361170Y-127521545D01*
X150389570Y-127545702D01*
X150426016Y-127571214D01*
X150495683Y-127615060D01*
X150575197Y-127661574D01*
X150724220Y-127731204D01*
X150864294Y-127763220D01*
X150990354Y-127752979D01*
X151105994Y-127700747D01*
X151123161Y-127688410D01*
X151149058Y-127654239D01*
X151137390Y-127619207D01*
X151085402Y-127579250D01*
X150990338Y-127530306D01*
X150932693Y-127507520D01*
X150805728Y-127480342D01*
X150651095Y-127474578D01*
X150461052Y-127489633D01*
X150393137Y-127498493D01*
X150360086Y-127507591D01*
X150092298Y-127507591D01*
X150016596Y-127451644D01*
X149979402Y-127420990D01*
X151047819Y-127420990D01*
X151053137Y-127436871D01*
X151089231Y-127471512D01*
X151148959Y-127514704D01*
X151265872Y-127590852D01*
X151336142Y-127478963D01*
X151346302Y-127462671D01*
X151393953Y-127378906D01*
X151409300Y-127328722D01*
X151389737Y-127308650D01*
X151332657Y-127315223D01*
X151235454Y-127344971D01*
X151220634Y-127350056D01*
X151138379Y-127380010D01*
X151076637Y-127405331D01*
X151047819Y-127420990D01*
X149979402Y-127420990D01*
X149886919Y-127344769D01*
X149792899Y-127268566D01*
X149708811Y-127214034D01*
X149644776Y-127188015D01*
X149606891Y-127193797D01*
X149606816Y-127204874D01*
X149622856Y-127247981D01*
X149654216Y-127309838D01*
X149686118Y-127376878D01*
X149723554Y-127475580D01*
X149758183Y-127584638D01*
X149786099Y-127690476D01*
X149803399Y-127779518D01*
X149806176Y-127838187D01*
X149799883Y-127860321D01*
X149784982Y-127860936D01*
X149755961Y-127830876D01*
X149706664Y-127765655D01*
X149659396Y-127707954D01*
X149585066Y-127634180D01*
X149516382Y-127582232D01*
X149458074Y-127552178D01*
X149314621Y-127499536D01*
X149157434Y-127463702D01*
X149008831Y-127450469D01*
X148986646Y-127450777D01*
X148895199Y-127457064D01*
X148803091Y-127469679D01*
X148722376Y-127486265D01*
X148665107Y-127504465D01*
X148643339Y-127521924D01*
X148407669Y-127521924D01*
X148443525Y-127474854D01*
X148536773Y-127404831D01*
X148641598Y-127338354D01*
X148550351Y-127311016D01*
X148509196Y-127300988D01*
X148380232Y-127286575D01*
X148223373Y-127286348D01*
X148050801Y-127299159D01*
X147874694Y-127323859D01*
X147707234Y-127359300D01*
X147560601Y-127404334D01*
X147481282Y-127437594D01*
X147343742Y-127512644D01*
X147198389Y-127614506D01*
X147039201Y-127747581D01*
X146860156Y-127916270D01*
X146843910Y-127932233D01*
X146741900Y-128030671D01*
X146667908Y-128097891D01*
X146617952Y-128137062D01*
X146588051Y-128151353D01*
X146574227Y-128143934D01*
X146573912Y-128143112D01*
X146567909Y-128103421D01*
X146563034Y-128027232D01*
X146559778Y-127925175D01*
X146558635Y-127807880D01*
X146559545Y-127713534D01*
X146566629Y-127581502D01*
X146583963Y-127475540D01*
X146615345Y-127382133D01*
X146664576Y-127287762D01*
X146735457Y-127178912D01*
X146764214Y-127136016D01*
X146796193Y-127084607D01*
X146808630Y-127058981D01*
X146795260Y-127046668D01*
X146740558Y-127049990D01*
X146644187Y-127074240D01*
X146506729Y-127119303D01*
X146397543Y-127158977D01*
X146161436Y-127256684D01*
X145945407Y-127365806D01*
X145730028Y-127495759D01*
X145650079Y-127546897D01*
X145571399Y-127595716D01*
X145515139Y-127628868D01*
X145489992Y-127641089D01*
X145480964Y-127632756D01*
X145474648Y-127587330D01*
X145478252Y-127510558D01*
X145491153Y-127411769D01*
X145512729Y-127300295D01*
X145513492Y-127296909D01*
X145591931Y-127047581D01*
X145710814Y-126801944D01*
X145863668Y-126571367D01*
X146044018Y-126367219D01*
X146048883Y-126362462D01*
X146107716Y-126302703D01*
X146149437Y-126256289D01*
X146165291Y-126232917D01*
X146158756Y-126226600D01*
X146117942Y-126212981D01*
X146052111Y-126200383D01*
X146033326Y-126197587D01*
X145930352Y-126180833D01*
X145804887Y-126158687D01*
X145664640Y-126132693D01*
X145517320Y-126104397D01*
X145370635Y-126075344D01*
X145232294Y-126047079D01*
X145110007Y-126021146D01*
X145011481Y-125999091D01*
X144944426Y-125982459D01*
X144916551Y-125972795D01*
X144918697Y-125953807D01*
X144949668Y-125909243D01*
X144954648Y-125903714D01*
X145116885Y-125903714D01*
X145117917Y-125907079D01*
X145146813Y-125920201D01*
X145203020Y-125925516D01*
X145224534Y-125926687D01*
X145300841Y-125937687D01*
X145400233Y-125957788D01*
X145506820Y-125983934D01*
X145582725Y-126002518D01*
X145720613Y-126031154D01*
X145870266Y-126057661D01*
X146010413Y-126078064D01*
X146091992Y-126088044D01*
X146193401Y-126098602D01*
X146269870Y-126102072D01*
X146335131Y-126098128D01*
X146402917Y-126086442D01*
X146486960Y-126066685D01*
X146591715Y-126045463D01*
X146782716Y-126022015D01*
X147011163Y-126008741D01*
X147088626Y-126006486D01*
X147192365Y-126005079D01*
X147253398Y-126007407D01*
X147270983Y-126013997D01*
X147244379Y-126025376D01*
X147172846Y-126042072D01*
X147055642Y-126064612D01*
X146892026Y-126093524D01*
X146840543Y-126102755D01*
X146642315Y-126147584D01*
X146476728Y-126204463D01*
X146331769Y-126279328D01*
X146195424Y-126378116D01*
X146055682Y-126506761D01*
X146048088Y-126514377D01*
X145950173Y-126617624D01*
X145876398Y-126709336D01*
X145814435Y-126806541D01*
X145751957Y-126926267D01*
X145721727Y-126991682D01*
X145679767Y-127093423D01*
X145641536Y-127197356D01*
X145609976Y-127294253D01*
X145588031Y-127374889D01*
X145578643Y-127430037D01*
X145584755Y-127450469D01*
X145588369Y-127449402D01*
X145623658Y-127432798D01*
X145686831Y-127400268D01*
X145767304Y-127357219D01*
X145780328Y-127350191D01*
X145917034Y-127280780D01*
X146072921Y-127207971D01*
X146237739Y-127135978D01*
X146401235Y-127069015D01*
X146553155Y-127011296D01*
X146683249Y-126967035D01*
X146781263Y-126940447D01*
X146842647Y-126925735D01*
X146949811Y-126889503D01*
X147067901Y-126835087D01*
X147210156Y-126756817D01*
X147213797Y-126754706D01*
X147313019Y-126697282D01*
X147397660Y-126648527D01*
X147458848Y-126613537D01*
X147487711Y-126597406D01*
X147488603Y-126598070D01*
X147468951Y-126620268D01*
X147422155Y-126667591D01*
X147353638Y-126734628D01*
X147268820Y-126815963D01*
X147139398Y-126944023D01*
X146948919Y-127158145D01*
X146802583Y-127361840D01*
X146699348Y-127556893D01*
X146638172Y-127745082D01*
X146618011Y-127928190D01*
X146623436Y-127977800D01*
X146636521Y-127998499D01*
X146648327Y-127991757D01*
X146688806Y-127957614D01*
X146749103Y-127901144D01*
X146821183Y-127829690D01*
X147018236Y-127648012D01*
X147259162Y-127474599D01*
X147513383Y-127343858D01*
X147786163Y-127253159D01*
X148082767Y-127199873D01*
X148153618Y-127190888D01*
X148193731Y-127181573D01*
X148199564Y-127169575D01*
X148178077Y-127151353D01*
X148101163Y-127097122D01*
X148016555Y-127032373D01*
X147964008Y-126985341D01*
X147944769Y-126958154D01*
X147960084Y-126952942D01*
X148011201Y-126971834D01*
X148099367Y-127016958D01*
X148123293Y-127029847D01*
X148304973Y-127114725D01*
X148518970Y-127196735D01*
X148751996Y-127271895D01*
X148990763Y-127336222D01*
X149221982Y-127385735D01*
X149432365Y-127416449D01*
X149491998Y-127421349D01*
X149571340Y-127420491D01*
X149606258Y-127406198D01*
X149606785Y-127395326D01*
X149589866Y-127349442D01*
X149553236Y-127279918D01*
X149502004Y-127197001D01*
X149473869Y-127153716D01*
X149428226Y-127080245D01*
X149398504Y-127027769D01*
X149390099Y-127005523D01*
X149405186Y-127005548D01*
X149456048Y-127021168D01*
X149532648Y-127051203D01*
X149625208Y-127091360D01*
X149723947Y-127137348D01*
X149819087Y-127184875D01*
X149900846Y-127229651D01*
X149906487Y-127232938D01*
X149996923Y-127283587D01*
X150082171Y-127328071D01*
X150144465Y-127357097D01*
X150182771Y-127369757D01*
X150310250Y-127387468D01*
X150473720Y-127383107D01*
X150668814Y-127356954D01*
X150891161Y-127309288D01*
X150912053Y-127304060D01*
X151263419Y-127205044D01*
X151574108Y-127094144D01*
X151638336Y-127064860D01*
X151860664Y-127064860D01*
X151865644Y-127071351D01*
X151902154Y-127098954D01*
X151966326Y-127140722D01*
X152048874Y-127190458D01*
X152236457Y-127299772D01*
X152245205Y-127126536D01*
X152245711Y-127116942D01*
X152252106Y-127031909D01*
X152260199Y-126968170D01*
X152268363Y-126938892D01*
X152294316Y-126935550D01*
X152358159Y-126959138D01*
X152457915Y-127013026D01*
X152593893Y-127097366D01*
X152703936Y-127165819D01*
X152790915Y-127212771D01*
X152847505Y-127232826D01*
X152877176Y-127227577D01*
X152881926Y-127213794D01*
X152878427Y-127161085D01*
X152862259Y-127082782D01*
X152836872Y-126990822D01*
X152805713Y-126897141D01*
X152772232Y-126813674D01*
X152739877Y-126752359D01*
X152699232Y-126690935D01*
X152665527Y-126647334D01*
X152632151Y-126622838D01*
X152592226Y-126618331D01*
X152538876Y-126634693D01*
X152465222Y-126672808D01*
X152364387Y-126733557D01*
X152229495Y-126817822D01*
X152116835Y-126888984D01*
X152014138Y-126955479D01*
X151932973Y-127009794D01*
X151879696Y-127047674D01*
X151860664Y-127064860D01*
X151638336Y-127064860D01*
X151849968Y-126968368D01*
X152096847Y-126824721D01*
X152320593Y-126660211D01*
X152527052Y-126471843D01*
X152541668Y-126456303D01*
X152720874Y-126456303D01*
X152721389Y-126470732D01*
X152750404Y-126465795D01*
X152817677Y-126452188D01*
X152911229Y-126432222D01*
X153020346Y-126408138D01*
X153090690Y-126392220D01*
X153183422Y-126369591D01*
X153243206Y-126350634D01*
X153278778Y-126331403D01*
X153298874Y-126307956D01*
X153312232Y-126276346D01*
X153317516Y-126260743D01*
X153335132Y-126183676D01*
X153326705Y-126121090D01*
X153287634Y-126059443D01*
X153213319Y-125985195D01*
X153089302Y-125872334D01*
X153014734Y-126035933D01*
X152971004Y-126118995D01*
X152895076Y-126235824D01*
X152814690Y-126336539D01*
X152797052Y-126356131D01*
X152747928Y-126415467D01*
X152720874Y-126456303D01*
X152541668Y-126456303D01*
X152626811Y-126365776D01*
X152775378Y-126178574D01*
X152882977Y-125998429D01*
X152948921Y-125827390D01*
X152955369Y-125783708D01*
X153151267Y-125783708D01*
X153156609Y-125794438D01*
X153193769Y-125821008D01*
X153255562Y-125852297D01*
X153296619Y-125869974D01*
X153354106Y-125892770D01*
X153383668Y-125901689D01*
X153395830Y-125886703D01*
X153417912Y-125837049D01*
X153443132Y-125764681D01*
X153446639Y-125753823D01*
X153481509Y-125660297D01*
X153528520Y-125549643D01*
X153578534Y-125443541D01*
X153595771Y-125408936D01*
X153634209Y-125329697D01*
X153660914Y-125271584D01*
X153670919Y-125245256D01*
X153663626Y-125249497D01*
X153629984Y-125280425D01*
X153575002Y-125334540D01*
X153505329Y-125404952D01*
X153427618Y-125484768D01*
X153348519Y-125567097D01*
X153274683Y-125645047D01*
X153212762Y-125711727D01*
X153169406Y-125760245D01*
X153151267Y-125783708D01*
X152955369Y-125783708D01*
X152972523Y-125667506D01*
X152953097Y-125520826D01*
X152889955Y-125389400D01*
X152887399Y-125385790D01*
X152816604Y-125314119D01*
X152708852Y-125237984D01*
X152590567Y-125171394D01*
X152861893Y-125171394D01*
X152946436Y-125274568D01*
X152999798Y-125347998D01*
X153057160Y-125473768D01*
X153075234Y-125609646D01*
X153075297Y-125615613D01*
X153082021Y-125666397D01*
X153082789Y-125667506D01*
X153096457Y-125687242D01*
X153103622Y-125684677D01*
X153140666Y-125656003D01*
X153198727Y-125601459D01*
X153270957Y-125528484D01*
X153350511Y-125444516D01*
X153430541Y-125356992D01*
X153504200Y-125273352D01*
X153564643Y-125201034D01*
X153605021Y-125147475D01*
X153618488Y-125120115D01*
X153618471Y-125120023D01*
X153592385Y-125088155D01*
X153539868Y-125063490D01*
X153528971Y-125061030D01*
X153451761Y-125056390D01*
X153345241Y-125062866D01*
X153223113Y-125078759D01*
X153099078Y-125102372D01*
X152986840Y-125132008D01*
X152861893Y-125171394D01*
X152590567Y-125171394D01*
X152573468Y-125161768D01*
X152419780Y-125089858D01*
X152257113Y-125026638D01*
X152094795Y-124976492D01*
X151942151Y-124943805D01*
X151918055Y-124940343D01*
X151711965Y-124930646D01*
X151477110Y-124952524D01*
X151212021Y-125006267D01*
X150915231Y-125092163D01*
X150585272Y-125210501D01*
X150446856Y-125264238D01*
X150292329Y-125323949D01*
X150170729Y-125369857D01*
X150075369Y-125403795D01*
X149999564Y-125427596D01*
X149936627Y-125443092D01*
X149879871Y-125452117D01*
X149822611Y-125456504D01*
X149758159Y-125458084D01*
X149679831Y-125458691D01*
X149638522Y-125458900D01*
X149517793Y-125456641D01*
X149424137Y-125448170D01*
X149341622Y-125431456D01*
X149254314Y-125404469D01*
X149209330Y-125388171D01*
X149044267Y-125318897D01*
X148861315Y-125230573D01*
X148675470Y-125131104D01*
X148501725Y-125028396D01*
X148355077Y-124930355D01*
X148178075Y-124813748D01*
X147885801Y-124661928D01*
X147567631Y-124538641D01*
X147232462Y-124446188D01*
X146889194Y-124386868D01*
X146546724Y-124362983D01*
X146213951Y-124376833D01*
X146045723Y-124398715D01*
X145868700Y-124429727D01*
X145698043Y-124466741D01*
X145547484Y-124506776D01*
X145430757Y-124546851D01*
X145351477Y-124579401D01*
X145621376Y-124716593D01*
X145716344Y-124767305D01*
X145853980Y-124847226D01*
X145986095Y-124930243D01*
X146093808Y-125004836D01*
X146296341Y-125155887D01*
X146534615Y-125138611D01*
X146669896Y-125133206D01*
X146832595Y-125135341D01*
X146993830Y-125145091D01*
X147138281Y-125161495D01*
X147250632Y-125183590D01*
X147260102Y-125187199D01*
X147249927Y-125195448D01*
X147193427Y-125203281D01*
X147090159Y-125210748D01*
X146939681Y-125217897D01*
X146930246Y-125218280D01*
X146727811Y-125228319D01*
X146561435Y-125241282D01*
X146420005Y-125258866D01*
X146292406Y-125282772D01*
X146167523Y-125314699D01*
X146034240Y-125356347D01*
X145932013Y-125394087D01*
X145796865Y-125452647D01*
X145657529Y-125520844D01*
X145520851Y-125594595D01*
X145393676Y-125669816D01*
X145282847Y-125742422D01*
X145195209Y-125808330D01*
X145137607Y-125863455D01*
X145116885Y-125903714D01*
X144954648Y-125903714D01*
X145005165Y-125847625D01*
X145078135Y-125775834D01*
X145161522Y-125700749D01*
X145248272Y-125629252D01*
X145331332Y-125568223D01*
X145334380Y-125566160D01*
X145469391Y-125482975D01*
X145617393Y-125405147D01*
X145767954Y-125337032D01*
X145910639Y-125282986D01*
X146035017Y-125247364D01*
X146130653Y-125234522D01*
X146156731Y-125233438D01*
X146187275Y-125223494D01*
X146185917Y-125200776D01*
X146150386Y-125162395D01*
X146078416Y-125105462D01*
X145967737Y-125027090D01*
X145854340Y-124950786D01*
X145687147Y-124847330D01*
X145535511Y-124767312D01*
X145387692Y-124704775D01*
X145231947Y-124653762D01*
X145035695Y-124597103D01*
X145129902Y-124549237D01*
X145176794Y-124526788D01*
X145352684Y-124458927D01*
X145559899Y-124398111D01*
X145786155Y-124346556D01*
X146019167Y-124306481D01*
X146246649Y-124280105D01*
X146456315Y-124269645D01*
X146635882Y-124277320D01*
X146648673Y-124278663D01*
X146729743Y-124284532D01*
X146786960Y-124284139D01*
X146808630Y-124277474D01*
X146808484Y-124276186D01*
X146799527Y-124242959D01*
X146778285Y-124172667D01*
X146747006Y-124072513D01*
X146707935Y-123949702D01*
X146663318Y-123811437D01*
X146616037Y-123669164D01*
X146554463Y-123497290D01*
X146495229Y-123350900D01*
X146433263Y-123217713D01*
X146363492Y-123085448D01*
X146359806Y-123078785D01*
X146228554Y-122820147D01*
X146097824Y-122523686D01*
X145970613Y-122198898D01*
X145849916Y-121855277D01*
X145738729Y-121502319D01*
X145640049Y-121149519D01*
X145556870Y-120806373D01*
X145492189Y-120482374D01*
X145449002Y-120187020D01*
X145443673Y-120133480D01*
X145434892Y-119995528D01*
X145430898Y-119846246D01*
X145431427Y-119695446D01*
X145433335Y-119638678D01*
X145546759Y-119638678D01*
X145547972Y-119742182D01*
X145552416Y-119883704D01*
X145560365Y-120042505D01*
X145577531Y-120236938D01*
X145604240Y-120433941D01*
X145642218Y-120644053D01*
X145693189Y-120877815D01*
X145758876Y-121145766D01*
X145776962Y-121216093D01*
X145862571Y-121531797D01*
X145947392Y-121812874D01*
X146035221Y-122069874D01*
X146129854Y-122313348D01*
X146235086Y-122553845D01*
X146354714Y-122801916D01*
X146391911Y-122879717D01*
X146444825Y-122997241D01*
X146506361Y-123138985D01*
X146573446Y-123297405D01*
X146643007Y-123464955D01*
X146711969Y-123634091D01*
X146777261Y-123797266D01*
X146835808Y-123946936D01*
X146884537Y-124075555D01*
X146920374Y-124175578D01*
X146940247Y-124239460D01*
X146950204Y-124266534D01*
X146970332Y-124285791D01*
X147009825Y-124299942D01*
X147078030Y-124312308D01*
X147184294Y-124326212D01*
X147382777Y-124360781D01*
X147664869Y-124440439D01*
X147947747Y-124552717D01*
X148218603Y-124692336D01*
X148464634Y-124854018D01*
X148640548Y-124974010D01*
X148900219Y-125112051D01*
X149186643Y-125220112D01*
X149223806Y-125231662D01*
X149309876Y-125257499D01*
X149374020Y-125275451D01*
X149404513Y-125282177D01*
X149409208Y-125277824D01*
X149410176Y-125241692D01*
X149398666Y-125180910D01*
X149396431Y-125171465D01*
X149383932Y-125082911D01*
X149375936Y-124959221D01*
X149372292Y-124811103D01*
X149372641Y-124710319D01*
X149443383Y-124710319D01*
X149445949Y-124885055D01*
X149456741Y-125031915D01*
X149476943Y-125143270D01*
X149507670Y-125225112D01*
X149550037Y-125283434D01*
X149582598Y-125307437D01*
X149632175Y-125326860D01*
X149674062Y-125329503D01*
X149691398Y-125311961D01*
X149689180Y-125300684D01*
X149674490Y-125253402D01*
X149650654Y-125186867D01*
X149645000Y-125169282D01*
X149628952Y-125082581D01*
X149617663Y-124961701D01*
X149611138Y-124816858D01*
X149610321Y-124743062D01*
X149672227Y-124743062D01*
X149684147Y-124919865D01*
X149710422Y-125074825D01*
X149750365Y-125199875D01*
X149803288Y-125286951D01*
X149848039Y-125320963D01*
X149908064Y-125322354D01*
X149970733Y-125276220D01*
X150003163Y-125236813D01*
X150076851Y-125098588D01*
X150114056Y-124933999D01*
X150117406Y-124871430D01*
X150110880Y-124817940D01*
X150095863Y-124805154D01*
X150077315Y-124835246D01*
X150060193Y-124910390D01*
X150059558Y-124914541D01*
X150031600Y-125024505D01*
X149989532Y-125104306D01*
X149938155Y-125149639D01*
X149882273Y-125156201D01*
X149826687Y-125119685D01*
X149805313Y-125087240D01*
X149774660Y-124997655D01*
X149753484Y-124873662D01*
X149742246Y-124723204D01*
X149741407Y-124554222D01*
X149751431Y-124374657D01*
X149770795Y-124209373D01*
X149839461Y-124209373D01*
X149840916Y-124290144D01*
X149856445Y-124349000D01*
X149875812Y-124378483D01*
X149912154Y-124398631D01*
X149946902Y-124373402D01*
X149978630Y-124304286D01*
X150005915Y-124192769D01*
X150007597Y-124183616D01*
X150019671Y-124096183D01*
X150016883Y-124034916D01*
X149998616Y-123981995D01*
X149996757Y-123978189D01*
X149967026Y-123931596D01*
X149941611Y-123912772D01*
X149925134Y-123919327D01*
X149894915Y-123961665D01*
X149868922Y-124032524D01*
X149849617Y-124119297D01*
X149839461Y-124209373D01*
X149770795Y-124209373D01*
X149772777Y-124192451D01*
X149777622Y-124161457D01*
X149811199Y-124000583D01*
X149852439Y-123885238D01*
X149901983Y-123814030D01*
X149960474Y-123785569D01*
X149987075Y-123784652D01*
X150033749Y-123800697D01*
X150068579Y-123845132D01*
X150093421Y-123922723D01*
X150110133Y-124038234D01*
X150113956Y-124096183D01*
X150120570Y-124196429D01*
X150133142Y-124483959D01*
X150162631Y-124357692D01*
X150169833Y-124324230D01*
X150188278Y-124182625D01*
X150189775Y-124041426D01*
X150176006Y-123908426D01*
X150148656Y-123791416D01*
X150109409Y-123698191D01*
X150059950Y-123636541D01*
X150001961Y-123614259D01*
X149991952Y-123614828D01*
X149929133Y-123645851D01*
X149869719Y-123723940D01*
X149813904Y-123848678D01*
X149761880Y-124019647D01*
X149713841Y-124236429D01*
X149694198Y-124356191D01*
X149675349Y-124552482D01*
X149672227Y-124743062D01*
X149610321Y-124743062D01*
X149609383Y-124658269D01*
X149612401Y-124496152D01*
X149620197Y-124340725D01*
X149632776Y-124202204D01*
X149650143Y-124090807D01*
X149682451Y-123953402D01*
X149737338Y-123782747D01*
X149800314Y-123655136D01*
X149872453Y-123568042D01*
X149950818Y-123512728D01*
X150021714Y-123496086D01*
X150084263Y-123522979D01*
X150141534Y-123594777D01*
X150196594Y-123712852D01*
X150216823Y-123776279D01*
X150244401Y-123923728D01*
X150254315Y-124041426D01*
X150259396Y-124101742D01*
X150262100Y-124300402D01*
X150252802Y-124509791D01*
X150231795Y-124719992D01*
X150199368Y-124921085D01*
X150155814Y-125103154D01*
X150146528Y-125135456D01*
X150123827Y-125216929D01*
X150108915Y-125274313D01*
X150104648Y-125296802D01*
X150112011Y-125294726D01*
X150155435Y-125278674D01*
X150231124Y-125249326D01*
X150331425Y-125209665D01*
X150448685Y-125162674D01*
X150476601Y-125151518D01*
X150622723Y-125095661D01*
X150773955Y-125041381D01*
X150913985Y-124994387D01*
X151026500Y-124960391D01*
X151099641Y-124939034D01*
X151184872Y-124910153D01*
X151243240Y-124885316D01*
X151265058Y-124868264D01*
X151265394Y-124862599D01*
X151269396Y-124817007D01*
X151277160Y-124736415D01*
X151287769Y-124630212D01*
X151300304Y-124507787D01*
X151306437Y-124444681D01*
X151322317Y-124228164D01*
X151332040Y-124001581D01*
X151335670Y-123774496D01*
X151333271Y-123556470D01*
X151324908Y-123357063D01*
X151310645Y-123185838D01*
X151290545Y-123052355D01*
X151254673Y-122906431D01*
X151188024Y-122728521D01*
X151103537Y-122592943D01*
X150999731Y-122498043D01*
X150875125Y-122442162D01*
X150728236Y-122423646D01*
X150689453Y-122425132D01*
X150538823Y-122459500D01*
X150388860Y-122536198D01*
X150241915Y-122651040D01*
X150100341Y-122799839D01*
X149966490Y-122978409D01*
X149842716Y-123182563D01*
X149731369Y-123408116D01*
X149634802Y-123650879D01*
X149555367Y-123906668D01*
X149495418Y-124171295D01*
X149457306Y-124440574D01*
X149443383Y-124710319D01*
X149372641Y-124710319D01*
X149372852Y-124649266D01*
X149377464Y-124484418D01*
X149385978Y-124327268D01*
X149398245Y-124188524D01*
X149414114Y-124078893D01*
X149487241Y-123755342D01*
X149593095Y-123414029D01*
X149720508Y-123113919D01*
X149869241Y-122855562D01*
X150039053Y-122639510D01*
X150154719Y-122525868D01*
X150319372Y-122399734D01*
X150484348Y-122311884D01*
X150645779Y-122262904D01*
X150799792Y-122253378D01*
X150942518Y-122283891D01*
X151070087Y-122355027D01*
X151178627Y-122467370D01*
X151210551Y-122513686D01*
X151298224Y-122680314D01*
X151364951Y-122878066D01*
X151411139Y-123109466D01*
X151437196Y-123377038D01*
X151443527Y-123683304D01*
X151440119Y-123774496D01*
X151430540Y-124030788D01*
X151420715Y-124209750D01*
X151414740Y-124382442D01*
X151415308Y-124517912D01*
X151422856Y-124621627D01*
X151437820Y-124699054D01*
X151460637Y-124755660D01*
X151491744Y-124796912D01*
X151544995Y-124833043D01*
X151631078Y-124854245D01*
X151718480Y-124845289D01*
X151788555Y-124805629D01*
X151803483Y-124788493D01*
X151820509Y-124755089D01*
X151830866Y-124705053D01*
X151833401Y-124669331D01*
X151934579Y-124669331D01*
X151936528Y-124744015D01*
X151944132Y-124790211D01*
X151959434Y-124818640D01*
X151984476Y-124840019D01*
X152052602Y-124872911D01*
X152109082Y-124865843D01*
X152146556Y-124815991D01*
X152153002Y-124797986D01*
X152166778Y-124744440D01*
X152167536Y-124712952D01*
X152156645Y-124711774D01*
X152135473Y-124749157D01*
X152129639Y-124762206D01*
X152093104Y-124823505D01*
X152057633Y-124840963D01*
X152018254Y-124817477D01*
X151997374Y-124785478D01*
X151976880Y-124718850D01*
X151966112Y-124650751D01*
X152169793Y-124650751D01*
X152181707Y-124662665D01*
X152193621Y-124650751D01*
X152181707Y-124638837D01*
X152169793Y-124650751D01*
X151966112Y-124650751D01*
X151960668Y-124616326D01*
X151947538Y-124472045D01*
X151945017Y-124449926D01*
X151941391Y-124456321D01*
X151938116Y-124502504D01*
X151935682Y-124583874D01*
X151934579Y-124669331D01*
X151833401Y-124669331D01*
X151836330Y-124628049D01*
X151838674Y-124513743D01*
X151839364Y-124456287D01*
X151840973Y-124343291D01*
X151843119Y-124204520D01*
X152003852Y-124204520D01*
X152017465Y-124291391D01*
X152024214Y-124305546D01*
X152054120Y-124328267D01*
X152084404Y-124308479D01*
X152090390Y-124290750D01*
X152101291Y-124235039D01*
X152111600Y-124159558D01*
X152116056Y-124107389D01*
X152112316Y-124033435D01*
X152090893Y-123984422D01*
X152080783Y-123971343D01*
X152061616Y-123956007D01*
X152047260Y-123974125D01*
X152029495Y-124032077D01*
X152015598Y-124090562D01*
X152003852Y-124204520D01*
X151843119Y-124204520D01*
X151843254Y-124195813D01*
X151846085Y-124021385D01*
X151847529Y-123935450D01*
X151960438Y-123935450D01*
X151963289Y-123963728D01*
X151970456Y-123967455D01*
X151979174Y-123947843D01*
X151977455Y-123935229D01*
X151963289Y-123931958D01*
X151960438Y-123935450D01*
X151847529Y-123935450D01*
X151848720Y-123864541D01*
X151979861Y-123864541D01*
X151988680Y-123866250D01*
X152013661Y-123834663D01*
X152019993Y-123826293D01*
X152060702Y-123787623D01*
X152096297Y-123792679D01*
X152137206Y-123842089D01*
X152157790Y-123890157D01*
X152170689Y-123947843D01*
X152178961Y-123984837D01*
X152193487Y-124107389D01*
X152193814Y-124110147D01*
X152194242Y-124115453D01*
X152202298Y-124204761D01*
X152208601Y-124248797D01*
X152213691Y-124249784D01*
X152218109Y-124209944D01*
X152220938Y-124082881D01*
X152210077Y-123942974D01*
X152186188Y-123818856D01*
X152151370Y-123720990D01*
X152107723Y-123659838D01*
X152083987Y-123647282D01*
X152043431Y-123658802D01*
X152009748Y-123709689D01*
X151987683Y-123794615D01*
X151983484Y-123823803D01*
X151979861Y-123864541D01*
X151848720Y-123864541D01*
X151849342Y-123827540D01*
X151852903Y-123621810D01*
X151853164Y-123607177D01*
X151939628Y-123607177D01*
X151942258Y-123677825D01*
X151947627Y-123707331D01*
X151955793Y-123697655D01*
X151996132Y-123609627D01*
X152046423Y-123558370D01*
X152100682Y-123549566D01*
X152155464Y-123581144D01*
X152207324Y-123651036D01*
X152252816Y-123757172D01*
X152288495Y-123897483D01*
X152304134Y-124012979D01*
X152308236Y-124082881D01*
X152313107Y-124165881D01*
X152313325Y-124329219D01*
X152305185Y-124488606D01*
X152289082Y-124629656D01*
X152284472Y-124650751D01*
X152270879Y-124712952D01*
X152265410Y-124737981D01*
X152241702Y-124813981D01*
X152224453Y-124869990D01*
X152217756Y-124892736D01*
X152218134Y-124893188D01*
X152242899Y-124906591D01*
X152298755Y-124934010D01*
X152375001Y-124970175D01*
X152384975Y-124974832D01*
X152461344Y-125009807D01*
X152517893Y-125034530D01*
X152543009Y-125043903D01*
X152559100Y-125027003D01*
X152583370Y-124973067D01*
X152610642Y-124892322D01*
X152637393Y-124795330D01*
X152660103Y-124692653D01*
X152672151Y-124613094D01*
X152685325Y-124461242D01*
X152692225Y-124284658D01*
X152692881Y-124096939D01*
X152687324Y-123911678D01*
X152675582Y-123742470D01*
X152657687Y-123602910D01*
X152646561Y-123545148D01*
X152604801Y-123377885D01*
X152549352Y-123202700D01*
X152484559Y-123030573D01*
X152414765Y-122872482D01*
X152344316Y-122739406D01*
X152277557Y-122642323D01*
X152258459Y-122622122D01*
X152195838Y-122574642D01*
X152126544Y-122540161D01*
X152064804Y-122524749D01*
X152024845Y-122534480D01*
X152012622Y-122552250D01*
X151992109Y-122614972D01*
X151975171Y-122717144D01*
X151961587Y-122860797D01*
X151951135Y-123047963D01*
X151943595Y-123280676D01*
X151942356Y-123334608D01*
X151939680Y-123493425D01*
X151939628Y-123607177D01*
X151853164Y-123607177D01*
X151856645Y-123411726D01*
X151858864Y-123290984D01*
X151862933Y-123086433D01*
X151866886Y-122921827D01*
X151871061Y-122792054D01*
X151875796Y-122692001D01*
X151881429Y-122616556D01*
X151888298Y-122560609D01*
X151896742Y-122519047D01*
X151907099Y-122486758D01*
X151919706Y-122458631D01*
X151951884Y-122403022D01*
X151991286Y-122368641D01*
X152047795Y-122355624D01*
X152059198Y-122354712D01*
X152101700Y-122357408D01*
X152142347Y-122375812D01*
X152192180Y-122416675D01*
X152262241Y-122486750D01*
X152380629Y-122634034D01*
X152493772Y-122827323D01*
X152592193Y-123052657D01*
X152672585Y-123302411D01*
X152731638Y-123568959D01*
X152743148Y-123650137D01*
X152756450Y-123811849D01*
X152762671Y-123996471D01*
X152762387Y-124096939D01*
X152762117Y-124192289D01*
X152755092Y-124387591D01*
X152741900Y-124570666D01*
X152722847Y-124729801D01*
X152698236Y-124853284D01*
X152676114Y-124947800D01*
X152666550Y-125019547D01*
X152672153Y-125054625D01*
X152682455Y-125063159D01*
X152705903Y-125061767D01*
X152727910Y-125025054D01*
X152750328Y-124948967D01*
X152775008Y-124829456D01*
X152788911Y-124765978D01*
X152819445Y-124649944D01*
X152860162Y-124510443D01*
X152907456Y-124359701D01*
X152957720Y-124209944D01*
X152988316Y-124120552D01*
X153045055Y-123948162D01*
X153100739Y-123771618D01*
X153150271Y-123607227D01*
X153188557Y-123471295D01*
X153216585Y-123363968D01*
X153242822Y-123252391D01*
X153259808Y-123156435D01*
X153269617Y-123060284D01*
X153274322Y-122948120D01*
X153275994Y-122804128D01*
X153276307Y-122733987D01*
X153275908Y-122617324D01*
X153272793Y-122532507D01*
X153265393Y-122468841D01*
X153252142Y-122415630D01*
X153231475Y-122362180D01*
X153201822Y-122297796D01*
X153195522Y-122284592D01*
X153157050Y-122209745D01*
X153125263Y-122157018D01*
X153106513Y-122137117D01*
X153103390Y-122137332D01*
X153063965Y-122142249D01*
X152988941Y-122152671D01*
X152887617Y-122167283D01*
X152769289Y-122184772D01*
X152745191Y-122188352D01*
X152625240Y-122205537D01*
X152520928Y-122219487D01*
X152442738Y-122228849D01*
X152401156Y-122232271D01*
X152395597Y-122232222D01*
X152363032Y-122226285D01*
X152373652Y-122211397D01*
X152424436Y-122188924D01*
X152512368Y-122160232D01*
X152634428Y-122126687D01*
X152683905Y-122113925D01*
X152769982Y-122091536D01*
X153246627Y-122091536D01*
X153306801Y-122199198D01*
X153327651Y-122239618D01*
X153371230Y-122339639D01*
X153405854Y-122437830D01*
X153444734Y-122568801D01*
X153507985Y-122501802D01*
X153532549Y-122471827D01*
X153575650Y-122409648D01*
X153623588Y-122333308D01*
X153670134Y-122253585D01*
X153709057Y-122181258D01*
X153734129Y-122127106D01*
X153739118Y-122101908D01*
X153722714Y-122094729D01*
X153666963Y-122084601D01*
X153587297Y-122076709D01*
X153498213Y-122072015D01*
X153414208Y-122071480D01*
X153349779Y-122076068D01*
X153246627Y-122091536D01*
X152769982Y-122091536D01*
X152815395Y-122079724D01*
X152944689Y-122045758D01*
X153049796Y-122017794D01*
X153061672Y-122014648D01*
X153248974Y-121979260D01*
X153437898Y-121973151D01*
X153646948Y-121995633D01*
X153657710Y-121997414D01*
X153740076Y-122014003D01*
X153819311Y-122036804D01*
X153899748Y-122068612D01*
X153965391Y-122101908D01*
X153985723Y-122112221D01*
X154081569Y-122170426D01*
X154191620Y-122246022D01*
X154320212Y-122341805D01*
X154471678Y-122460569D01*
X154650352Y-122605109D01*
X154860569Y-122778219D01*
X154965390Y-122864600D01*
X155083200Y-122960604D01*
X155185015Y-123042385D01*
X155265694Y-123105858D01*
X155320094Y-123146938D01*
X155343073Y-123161539D01*
X155352112Y-123160221D01*
X155359653Y-123148665D01*
X155353924Y-123120005D01*
X155332604Y-123068023D01*
X155293369Y-122986501D01*
X155233899Y-122869219D01*
X155160229Y-122730693D01*
X155051033Y-122539683D01*
X154934344Y-122349202D01*
X154814939Y-122166278D01*
X154697594Y-121997939D01*
X154587086Y-121851212D01*
X154488192Y-121733125D01*
X154405689Y-121650707D01*
X154405518Y-121650560D01*
X154293812Y-121576476D01*
X154143006Y-121509125D01*
X153961505Y-121451666D01*
X153757712Y-121407255D01*
X153691701Y-121396472D01*
X153573743Y-121382272D01*
X153463318Y-121378205D01*
X153351776Y-121385483D01*
X153230468Y-121405316D01*
X153090743Y-121438914D01*
X152923951Y-121487487D01*
X152721443Y-121552245D01*
X152667232Y-121569938D01*
X152528850Y-121614177D01*
X152408696Y-121651277D01*
X152313507Y-121679235D01*
X152250023Y-121696050D01*
X152224984Y-121699719D01*
X152222120Y-121694724D01*
X152225077Y-121688020D01*
X152237233Y-121678435D01*
X152261764Y-121664599D01*
X152301848Y-121645143D01*
X152360662Y-121618699D01*
X152441383Y-121583897D01*
X152547189Y-121539368D01*
X152681257Y-121483743D01*
X152846765Y-121415653D01*
X153046889Y-121333730D01*
X153209563Y-121267321D01*
X153484331Y-121267321D01*
X153499988Y-121271315D01*
X153554782Y-121279725D01*
X153639039Y-121290453D01*
X153742552Y-121302122D01*
X153815753Y-121310124D01*
X153923717Y-121322670D01*
X154012496Y-121333860D01*
X154067976Y-121341965D01*
X154078044Y-121343667D01*
X154116509Y-121346267D01*
X154145603Y-121334449D01*
X154171711Y-121300608D01*
X154201214Y-121237143D01*
X154240494Y-121136449D01*
X154260286Y-121080072D01*
X154275970Y-121022846D01*
X154277206Y-120995905D01*
X154269645Y-120993079D01*
X154223588Y-120996253D01*
X154146763Y-121011799D01*
X154049167Y-121036859D01*
X153940795Y-121068572D01*
X153831645Y-121104080D01*
X153731711Y-121140522D01*
X153650991Y-121175039D01*
X153623610Y-121188359D01*
X153549883Y-121225996D01*
X153500277Y-121254077D01*
X153484331Y-121267321D01*
X153209563Y-121267321D01*
X153284807Y-121236604D01*
X153563696Y-121122906D01*
X153749956Y-121050230D01*
X153999210Y-120965843D01*
X154215795Y-120910136D01*
X154402532Y-120882577D01*
X154562243Y-120882637D01*
X154697750Y-120909786D01*
X154789573Y-120941259D01*
X154945091Y-120998665D01*
X155124139Y-121068183D01*
X155315344Y-121145142D01*
X155507335Y-121224872D01*
X155688738Y-121302704D01*
X155848182Y-121373967D01*
X155974294Y-121433992D01*
X156264254Y-121579031D01*
X156164913Y-121459745D01*
X156118970Y-121405833D01*
X155930627Y-121204927D01*
X155719370Y-121006119D01*
X155494750Y-120817123D01*
X155266314Y-120645654D01*
X155043612Y-120499429D01*
X154836193Y-120386163D01*
X154664154Y-120315549D01*
X154492451Y-120275644D01*
X154317116Y-120270400D01*
X154121825Y-120297797D01*
X153892428Y-120357426D01*
X153593577Y-120469119D01*
X153283564Y-120620233D01*
X152966710Y-120808382D01*
X152647336Y-121031184D01*
X152329764Y-121286256D01*
X152315262Y-121298593D01*
X152250878Y-121350719D01*
X152203278Y-121384993D01*
X152181884Y-121394518D01*
X152181138Y-121391734D01*
X152197262Y-121361922D01*
X152239090Y-121307804D01*
X152300015Y-121236696D01*
X152373428Y-121155917D01*
X152452720Y-121072785D01*
X152531284Y-120994617D01*
X152602510Y-120928731D01*
X152625290Y-120909006D01*
X152724596Y-120826446D01*
X152836893Y-120736996D01*
X152941990Y-120656826D01*
X153015756Y-120597991D01*
X153123856Y-120502263D01*
X153181051Y-120447304D01*
X153309505Y-120447304D01*
X153310944Y-120464906D01*
X153347576Y-120452052D01*
X153420732Y-120409495D01*
X153462962Y-120386232D01*
X153575649Y-120337963D01*
X153718092Y-120288768D01*
X153878647Y-120241694D01*
X154045672Y-120199782D01*
X154207521Y-120166077D01*
X154352551Y-120143621D01*
X154469118Y-120135460D01*
X154471644Y-120135457D01*
X154514279Y-120132133D01*
X154541349Y-120115165D01*
X154561939Y-120073701D01*
X154585134Y-119996889D01*
X154614563Y-119865871D01*
X154619965Y-119751958D01*
X154595255Y-119672671D01*
X154539860Y-119626331D01*
X154453204Y-119611257D01*
X154443293Y-119611641D01*
X154360371Y-119632129D01*
X154251561Y-119680254D01*
X154123947Y-119751064D01*
X153984612Y-119839612D01*
X153840639Y-119940946D01*
X153699112Y-120050117D01*
X153567114Y-120162174D01*
X153451729Y-120272169D01*
X153360041Y-120375151D01*
X153341930Y-120398494D01*
X153309505Y-120447304D01*
X153181051Y-120447304D01*
X153235340Y-120395138D01*
X153335142Y-120290650D01*
X153408613Y-120211027D01*
X153570015Y-120046876D01*
X153731255Y-119896229D01*
X153883126Y-119767489D01*
X154016416Y-119669060D01*
X154086195Y-119628518D01*
X154201938Y-119578351D01*
X154348096Y-119531199D01*
X154528970Y-119485881D01*
X154748864Y-119441219D01*
X155012080Y-119396031D01*
X155092412Y-119383175D01*
X155269245Y-119354730D01*
X155403021Y-119332461D01*
X155496605Y-119315273D01*
X155552863Y-119302072D01*
X155574661Y-119291762D01*
X155564866Y-119283249D01*
X155526343Y-119275437D01*
X155461958Y-119267231D01*
X155374578Y-119257537D01*
X155317107Y-119251411D01*
X155092706Y-119231092D01*
X154862758Y-119215342D01*
X154637811Y-119204580D01*
X154428410Y-119199231D01*
X154245101Y-119199715D01*
X154098430Y-119206456D01*
X153956902Y-119221836D01*
X153807969Y-119250085D01*
X153668639Y-119292826D01*
X153533414Y-119353403D01*
X153396794Y-119435160D01*
X153253281Y-119541441D01*
X153097375Y-119675590D01*
X153029396Y-119740270D01*
X152923579Y-119840951D01*
X152726394Y-120040868D01*
X152685606Y-120083306D01*
X152580329Y-120195357D01*
X152487918Y-120298894D01*
X152400510Y-120403547D01*
X152310239Y-120518945D01*
X152209239Y-120654719D01*
X152089647Y-120820498D01*
X152052289Y-120872391D01*
X151982492Y-120967230D01*
X151924472Y-121043282D01*
X151883431Y-121093811D01*
X151864570Y-121112076D01*
X151835903Y-121105505D01*
X151774876Y-121088137D01*
X151695082Y-121063799D01*
X151627091Y-121043179D01*
X151524966Y-121015595D01*
X151422229Y-120993082D01*
X151313002Y-120975136D01*
X151191406Y-120961254D01*
X151051562Y-120950933D01*
X150887590Y-120943670D01*
X150693611Y-120938962D01*
X150463748Y-120936305D01*
X150192120Y-120935198D01*
X149298593Y-120933678D01*
X149142690Y-120859799D01*
X149092113Y-120832961D01*
X151255899Y-120832961D01*
X151273067Y-120838417D01*
X151330272Y-120850805D01*
X151416023Y-120866665D01*
X151519372Y-120883882D01*
X151591578Y-120895642D01*
X151687138Y-120912285D01*
X151758899Y-120926109D01*
X151795202Y-120934954D01*
X151804437Y-120934553D01*
X151843590Y-120905877D01*
X151903674Y-120839563D01*
X151982360Y-120738062D01*
X152045127Y-120654198D01*
X152262390Y-120381192D01*
X152484985Y-120126096D01*
X152701536Y-119902133D01*
X152774145Y-119831040D01*
X152829957Y-119773103D01*
X152853267Y-119740270D01*
X152841859Y-119731372D01*
X152793514Y-119745243D01*
X152706016Y-119780713D01*
X152577149Y-119836616D01*
X152326502Y-119955582D01*
X152066692Y-120104623D01*
X151818658Y-120277534D01*
X151796335Y-120294770D01*
X151710066Y-120365690D01*
X151616896Y-120447657D01*
X151522949Y-120534626D01*
X151434349Y-120620553D01*
X151357220Y-120699395D01*
X151297686Y-120765106D01*
X151261871Y-120811643D01*
X151255899Y-120832961D01*
X149092113Y-120832961D01*
X149075899Y-120824357D01*
X148972664Y-120761998D01*
X148858957Y-120687248D01*
X148749538Y-120609502D01*
X148740117Y-120602512D01*
X148531554Y-120454104D01*
X148301435Y-120300897D01*
X148058181Y-120147794D01*
X147810215Y-119999700D01*
X147565960Y-119861521D01*
X147333838Y-119738161D01*
X147122270Y-119634524D01*
X146939681Y-119555517D01*
X146862224Y-119526042D01*
X146674045Y-119461647D01*
X146480827Y-119404353D01*
X146290768Y-119355970D01*
X146112064Y-119318307D01*
X145952913Y-119293171D01*
X145821511Y-119282373D01*
X145726056Y-119287721D01*
X145711699Y-119290604D01*
X145659541Y-119309210D01*
X145623410Y-119345950D01*
X145588395Y-119414565D01*
X145569845Y-119460571D01*
X145556961Y-119507443D01*
X145549511Y-119563622D01*
X145546759Y-119638678D01*
X145433335Y-119638678D01*
X145436216Y-119552941D01*
X145445001Y-119428545D01*
X145457520Y-119332069D01*
X145473509Y-119273328D01*
X145499188Y-119232635D01*
X145549175Y-119193141D01*
X145623349Y-119170007D01*
X145729155Y-119161211D01*
X145874043Y-119164736D01*
X146092905Y-119189485D01*
X146347625Y-119242467D01*
X146622748Y-119320668D01*
X146909992Y-119421442D01*
X147201074Y-119542144D01*
X147487711Y-119680127D01*
X147492863Y-119682807D01*
X147585193Y-119733580D01*
X147708691Y-119805227D01*
X147855244Y-119892846D01*
X148016739Y-119991534D01*
X148185063Y-120096387D01*
X148352104Y-120202504D01*
X148374296Y-120216745D01*
X148537459Y-120320921D01*
X148697056Y-120421965D01*
X148845801Y-120515323D01*
X148976408Y-120596441D01*
X149081589Y-120660765D01*
X149154057Y-120703739D01*
X149353717Y-120818222D01*
X150166108Y-120823157D01*
X150234382Y-120823530D01*
X150471994Y-120824002D01*
X150664673Y-120822860D01*
X150814568Y-120820049D01*
X150923826Y-120815514D01*
X150994594Y-120809200D01*
X151029022Y-120801052D01*
X151029559Y-120800760D01*
X151066777Y-120773669D01*
X151129516Y-120721200D01*
X151209147Y-120650793D01*
X151297043Y-120569891D01*
X151353185Y-120518012D01*
X151702815Y-120229612D01*
X152071030Y-119984288D01*
X152460877Y-119780197D01*
X152875399Y-119615497D01*
X152906197Y-119603869D01*
X153003255Y-119558823D01*
X153113119Y-119499123D01*
X153217440Y-119434480D01*
X153330086Y-119363459D01*
X153556587Y-119248962D01*
X153790215Y-119170870D01*
X154041684Y-119126045D01*
X154321707Y-119111354D01*
X154353470Y-119111441D01*
X154508833Y-119115275D01*
X154685665Y-119124142D01*
X154876290Y-119137245D01*
X155073033Y-119153787D01*
X155268220Y-119172972D01*
X155454175Y-119194001D01*
X155623224Y-119216080D01*
X155767691Y-119238409D01*
X155879901Y-119260194D01*
X155952179Y-119280637D01*
X155993095Y-119298143D01*
X155999560Y-119310875D01*
X155967629Y-119325785D01*
X155960436Y-119328124D01*
X155907848Y-119340252D01*
X155821163Y-119356797D01*
X155710603Y-119375884D01*
X155586391Y-119395641D01*
X155531633Y-119403988D01*
X155313864Y-119437164D01*
X155138074Y-119464154D01*
X155000093Y-119485931D01*
X154895750Y-119503472D01*
X154820875Y-119517750D01*
X154771298Y-119529740D01*
X154742849Y-119540417D01*
X154731356Y-119550754D01*
X154732651Y-119561728D01*
X154742562Y-119574311D01*
X154756920Y-119589479D01*
X154775336Y-119616318D01*
X154785787Y-119656890D01*
X154786740Y-119720365D01*
X154784379Y-119751958D01*
X154779380Y-119818852D01*
X154778582Y-119827183D01*
X154765210Y-119929032D01*
X154747312Y-120021507D01*
X154728529Y-120085507D01*
X154723042Y-120098984D01*
X154705161Y-120148333D01*
X154701141Y-120170049D01*
X154704642Y-120171819D01*
X154739711Y-120189059D01*
X154803670Y-120220313D01*
X154886116Y-120260495D01*
X154961955Y-120300921D01*
X155105888Y-120390508D01*
X155266937Y-120503177D01*
X155435616Y-120631597D01*
X155602437Y-120768438D01*
X155757912Y-120906370D01*
X155892554Y-121038063D01*
X155915889Y-121062795D01*
X155988184Y-121143050D01*
X156070616Y-121238575D01*
X156158035Y-121342942D01*
X156245294Y-121449723D01*
X156327242Y-121552494D01*
X156347788Y-121579031D01*
X156398730Y-121644826D01*
X156454610Y-121720293D01*
G37*
G36*
X148673036Y-121344566D02*
G01*
X148631638Y-121369556D01*
X148542695Y-121421203D01*
X148436361Y-121481319D01*
X148327558Y-121541399D01*
X148327381Y-121541496D01*
X148065161Y-121708455D01*
X147812652Y-121916187D01*
X147576476Y-122157916D01*
X147363254Y-122426866D01*
X147179607Y-122716260D01*
X147149938Y-122767161D01*
X147087879Y-122863557D01*
X147028323Y-122944775D01*
X146980897Y-122997204D01*
X146946101Y-123025764D01*
X146900193Y-123050513D01*
X146869155Y-123043196D01*
X146869081Y-123043134D01*
X146843779Y-123008608D01*
X146802994Y-122937191D01*
X146750020Y-122835758D01*
X146688149Y-122711181D01*
X146620675Y-122570333D01*
X146550890Y-122420088D01*
X146482087Y-122267319D01*
X146417559Y-122118898D01*
X146360600Y-121981700D01*
X146315864Y-121868567D01*
X146176892Y-121481210D01*
X146067775Y-121110076D01*
X145984984Y-120742054D01*
X145924988Y-120364033D01*
X145919117Y-120312321D01*
X145909881Y-120183571D01*
X145909711Y-120176570D01*
X146010253Y-120176570D01*
X146025653Y-120355112D01*
X146058117Y-120561763D01*
X146107169Y-120792649D01*
X146172331Y-121043898D01*
X146253125Y-121311636D01*
X146293849Y-121433956D01*
X146359676Y-121620298D01*
X146433564Y-121819353D01*
X146511684Y-122021458D01*
X146590211Y-122216950D01*
X146665316Y-122396167D01*
X146733173Y-122549445D01*
X146789955Y-122667120D01*
X146809075Y-122703526D01*
X146851172Y-122779427D01*
X146883631Y-122832084D01*
X146900638Y-122851798D01*
X146905325Y-122847816D01*
X146910458Y-122809095D01*
X146907968Y-122728187D01*
X146897767Y-122603895D01*
X146879764Y-122435017D01*
X146853872Y-122220357D01*
X146833420Y-122043539D01*
X146812422Y-121819886D01*
X146797775Y-121608023D01*
X146792001Y-121469204D01*
X146885353Y-121469204D01*
X146886661Y-121667347D01*
X146894428Y-121887411D01*
X146908543Y-122123431D01*
X146928897Y-122369438D01*
X146955379Y-122619466D01*
X146963582Y-122684170D01*
X146976641Y-122770372D01*
X146988377Y-122829358D01*
X146996980Y-122851037D01*
X147012261Y-122834131D01*
X147049699Y-122783285D01*
X147104644Y-122704740D01*
X147172692Y-122604799D01*
X147249437Y-122489764D01*
X147408716Y-122260317D01*
X147601975Y-122015704D01*
X147797011Y-121808445D01*
X147999418Y-121633261D01*
X148214792Y-121484870D01*
X148448729Y-121357993D01*
X148630675Y-121270480D01*
X148559568Y-121239843D01*
X148536304Y-121229974D01*
X148363824Y-121164291D01*
X148170500Y-121101414D01*
X147967109Y-121043995D01*
X147764429Y-120994689D01*
X147573237Y-120956149D01*
X147404311Y-120931028D01*
X147268429Y-120921980D01*
X147200612Y-120922887D01*
X147087421Y-120932438D01*
X147009348Y-120954829D01*
X146958380Y-120993063D01*
X146926505Y-121050142D01*
X146921273Y-121065971D01*
X146902549Y-121162549D01*
X146890612Y-121298949D01*
X146885353Y-121469204D01*
X146792001Y-121469204D01*
X146789746Y-121414998D01*
X146788606Y-121247859D01*
X146794623Y-121113654D01*
X146808065Y-121019430D01*
X146828848Y-120948797D01*
X146862076Y-120889770D01*
X146912777Y-120848269D01*
X146928664Y-120839476D01*
X147036387Y-120808099D01*
X147183612Y-120801984D01*
X147369659Y-120821003D01*
X147593848Y-120865027D01*
X147855499Y-120933928D01*
X148153930Y-121027578D01*
X148488461Y-121145847D01*
X148494024Y-121141793D01*
X148472897Y-121112083D01*
X148425712Y-121060564D01*
X148357411Y-120992998D01*
X148283899Y-120928333D01*
X148172616Y-120839541D01*
X148037269Y-120737984D01*
X147886445Y-120630092D01*
X147728731Y-120522295D01*
X147700226Y-120503343D01*
X147431228Y-120331192D01*
X147178328Y-120181424D01*
X146944071Y-120055076D01*
X146731003Y-119953186D01*
X146541668Y-119876793D01*
X146378612Y-119826933D01*
X146244381Y-119804646D01*
X146141520Y-119810968D01*
X146072574Y-119846939D01*
X146071216Y-119848321D01*
X146032557Y-119919302D01*
X146012395Y-120030009D01*
X146010253Y-120176570D01*
X145909711Y-120176570D01*
X145906689Y-120052163D01*
X145909200Y-119928120D01*
X145917074Y-119821465D01*
X145929970Y-119742221D01*
X145947546Y-119700411D01*
X145982230Y-119681612D01*
X146063028Y-119673368D01*
X146176000Y-119685079D01*
X146315422Y-119715206D01*
X146475566Y-119762213D01*
X146650708Y-119824562D01*
X146835120Y-119900717D01*
X147023077Y-119989139D01*
X147146862Y-120053179D01*
X147345834Y-120163553D01*
X147550120Y-120284827D01*
X147754460Y-120413293D01*
X147953595Y-120545243D01*
X148142263Y-120676971D01*
X148315206Y-120804768D01*
X148467163Y-120924927D01*
X148592874Y-121033740D01*
X148687079Y-121127501D01*
X148698025Y-121141793D01*
X148744519Y-121202500D01*
X148783905Y-121270480D01*
X148786129Y-121274319D01*
X148673036Y-121344566D01*
G37*
%LPC*%
D12*
X136570000Y-121110000D03*
X136570000Y-123650000D03*
X136570000Y-126190000D03*
X136570000Y-128730000D03*
X136570000Y-131270000D03*
X136570000Y-133810000D03*
X136570000Y-136350000D03*
X136570000Y-138890000D03*
X159430000Y-138890000D03*
X159430000Y-136350000D03*
X159430000Y-133810000D03*
X159430000Y-131270000D03*
X159430000Y-128730000D03*
X159430000Y-126190000D03*
X159430000Y-123650000D03*
X159430000Y-121110000D03*
D13*
X191040000Y-104720000D03*
X191040000Y-113720000D03*
X191040000Y-107720000D03*
X191040000Y-110720000D03*
X191040000Y-116720000D03*
X191040000Y-101720000D03*
X182880000Y-126460000D03*
X182880000Y-122460000D03*
X137000000Y-102500000D03*
X137000000Y-109500000D03*
D14*
X189837550Y-132080000D03*
D15*
X189837550Y-121920000D03*
D16*
X167709610Y-115436639D03*
X172789610Y-115436639D03*
X175329610Y-115436639D03*
X177869610Y-115436639D03*
X170249610Y-115436639D03*
X180409610Y-115436639D03*
D13*
X164000000Y-122500000D03*
X167000000Y-122500000D03*
X175000000Y-122500000D03*
X178000000Y-122500000D03*
X164000000Y-145000000D03*
X178000000Y-145000000D03*
D14*
X189837550Y-146405602D03*
D15*
X189837550Y-136245602D03*
D17*
X182400000Y-141000000D03*
X182400000Y-137000000D03*
X182400000Y-145000000D03*
X185000000Y-137000000D03*
X185000000Y-145000000D03*
X185000000Y-141000000D03*
D18*
X167699610Y-97656639D03*
X170239610Y-97656639D03*
X172779610Y-97656639D03*
X175319610Y-97656639D03*
X177859610Y-97656639D03*
X180399610Y-97656639D03*
M02*
