G04 #@! TF.GenerationSoftware,KiCad,Pcbnew,(6.0.10)*
G04 #@! TF.CreationDate,2023-01-25T16:02:22-05:00*
G04 #@! TF.ProjectId,SlimeVRMotherBoardV2,536c696d-6556-4524-9d6f-74686572426f,V1.2*
G04 #@! TF.SameCoordinates,Original*
G04 #@! TF.FileFunction,Copper,L2,Bot*
G04 #@! TF.FilePolarity,Positive*
%FSLAX46Y46*%
G04 Gerber Fmt 4.6, Leading zero omitted, Abs format (unit mm)*
G04 Created by KiCad (PCBNEW (6.0.10)) date 2023-01-25 16:02:22*
%MOMM*%
%LPD*%
G01*
G04 APERTURE LIST*
G04 #@! TA.AperFunction,ComponentPad*
%ADD10C,1.800000*%
G04 #@! TD*
G04 #@! TA.AperFunction,ComponentPad*
%ADD11C,2.000000*%
G04 #@! TD*
G04 #@! TA.AperFunction,ComponentPad*
%ADD12R,2.200000X2.200000*%
G04 #@! TD*
G04 #@! TA.AperFunction,ComponentPad*
%ADD13O,2.200000X2.200000*%
G04 #@! TD*
G04 #@! TA.AperFunction,ComponentPad*
%ADD14C,1.778000*%
G04 #@! TD*
G04 #@! TA.AperFunction,ComponentPad*
%ADD15C,2.200000*%
G04 #@! TD*
G04 #@! TA.AperFunction,Conductor*
%ADD16C,0.250000*%
G04 #@! TD*
G04 APERTURE END LIST*
D10*
X136570000Y-121110000D03*
X136570000Y-123650000D03*
X136570000Y-126190000D03*
X136570000Y-128730000D03*
X136570000Y-131270000D03*
X136570000Y-133810000D03*
X136570000Y-136350000D03*
X136570000Y-138890000D03*
X159430000Y-138890000D03*
X159430000Y-136350000D03*
X159430000Y-133810000D03*
X159430000Y-131270000D03*
X159430000Y-128730000D03*
X159430000Y-126190000D03*
X159430000Y-123650000D03*
X159430000Y-121110000D03*
D11*
X191040000Y-104720000D03*
X191040000Y-113720000D03*
X191040000Y-107720000D03*
X191040000Y-110720000D03*
X191040000Y-116720000D03*
X191040000Y-101720000D03*
X182880000Y-126460000D03*
X182880000Y-122460000D03*
X137000000Y-102500000D03*
X137000000Y-109500000D03*
D12*
X189837550Y-132080000D03*
D13*
X189837550Y-121920000D03*
D14*
X167709610Y-115436639D03*
X172789610Y-115436639D03*
X175329610Y-115436639D03*
X177869610Y-115436639D03*
X170249610Y-115436639D03*
X180409610Y-115436639D03*
D11*
X164000000Y-122500000D03*
X167000000Y-122500000D03*
X175000000Y-122500000D03*
X178000000Y-122500000D03*
X164000000Y-145000000D03*
X178000000Y-145000000D03*
D12*
X189837550Y-146405602D03*
D13*
X189837550Y-136245602D03*
D15*
X182400000Y-141000000D03*
X182400000Y-137000000D03*
X182400000Y-145000000D03*
X185000000Y-137000000D03*
X185000000Y-145000000D03*
X185000000Y-141000000D03*
D14*
X167699610Y-97656639D03*
X170239610Y-97656639D03*
X172779610Y-97656639D03*
X175319610Y-97656639D03*
X177859610Y-97656639D03*
X180399610Y-97656639D03*
D16*
X146260000Y-111760000D02*
X162560000Y-111760000D01*
X162560000Y-111760000D02*
X165100000Y-114300000D01*
X165100000Y-114300000D02*
X165100000Y-120600000D01*
X165100000Y-120600000D02*
X167000000Y-122500000D01*
X137000000Y-102500000D02*
X146260000Y-111760000D01*
G04 #@! TA.AperFunction,Conductor*
G36*
X196319246Y-95528502D02*
G01*
X196365739Y-95582158D01*
X196377125Y-95634624D01*
X196332793Y-140263278D01*
X196324744Y-148365625D01*
X196304674Y-148433726D01*
X196250972Y-148480166D01*
X196198744Y-148491500D01*
X134634500Y-148491500D01*
X134566379Y-148471498D01*
X134519886Y-148417842D01*
X134508500Y-148365500D01*
X134508500Y-147553736D01*
X188229050Y-147553736D01*
X188235805Y-147615918D01*
X188286935Y-147752307D01*
X188374289Y-147868863D01*
X188490845Y-147956217D01*
X188627234Y-148007347D01*
X188689416Y-148014102D01*
X190985684Y-148014102D01*
X191047866Y-148007347D01*
X191184255Y-147956217D01*
X191300811Y-147868863D01*
X191388165Y-147752307D01*
X191439295Y-147615918D01*
X191446050Y-147553736D01*
X191446050Y-146190294D01*
X192788362Y-146190294D01*
X192808227Y-146442697D01*
X192809381Y-146447504D01*
X192809382Y-146447510D01*
X192829813Y-146532611D01*
X192867331Y-146688885D01*
X192869224Y-146693456D01*
X192869225Y-146693458D01*
X192897467Y-146761639D01*
X192964220Y-146922796D01*
X193096508Y-147138670D01*
X193260938Y-147331192D01*
X193453460Y-147495622D01*
X193669334Y-147627910D01*
X193673904Y-147629803D01*
X193673908Y-147629805D01*
X193898672Y-147722905D01*
X193903245Y-147724799D01*
X193982803Y-147743899D01*
X194144620Y-147782748D01*
X194144626Y-147782749D01*
X194149433Y-147783903D01*
X194401836Y-147803768D01*
X194654239Y-147783903D01*
X194659046Y-147782749D01*
X194659052Y-147782748D01*
X194820869Y-147743899D01*
X194900427Y-147724799D01*
X194905000Y-147722905D01*
X195129764Y-147629805D01*
X195129768Y-147629803D01*
X195134338Y-147627910D01*
X195350212Y-147495622D01*
X195542734Y-147331192D01*
X195707164Y-147138670D01*
X195839452Y-146922796D01*
X195906206Y-146761639D01*
X195934447Y-146693458D01*
X195934448Y-146693456D01*
X195936341Y-146688885D01*
X195973859Y-146532611D01*
X195994290Y-146447510D01*
X195994291Y-146447504D01*
X195995445Y-146442697D01*
X196015310Y-146190294D01*
X195995445Y-145937891D01*
X195985039Y-145894544D01*
X195937496Y-145696515D01*
X195936341Y-145691703D01*
X195930682Y-145678040D01*
X195841347Y-145462366D01*
X195841345Y-145462362D01*
X195839452Y-145457792D01*
X195707164Y-145241918D01*
X195542734Y-145049396D01*
X195350212Y-144884966D01*
X195134338Y-144752678D01*
X195129768Y-144750785D01*
X195129764Y-144750783D01*
X194905000Y-144657683D01*
X194904998Y-144657682D01*
X194900427Y-144655789D01*
X194815804Y-144635473D01*
X194659052Y-144597840D01*
X194659046Y-144597839D01*
X194654239Y-144596685D01*
X194401836Y-144576820D01*
X194149433Y-144596685D01*
X194144626Y-144597839D01*
X194144620Y-144597840D01*
X193987868Y-144635473D01*
X193903245Y-144655789D01*
X193898674Y-144657682D01*
X193898672Y-144657683D01*
X193673908Y-144750783D01*
X193673904Y-144750785D01*
X193669334Y-144752678D01*
X193453460Y-144884966D01*
X193260938Y-145049396D01*
X193096508Y-145241918D01*
X192964220Y-145457792D01*
X192962327Y-145462362D01*
X192962325Y-145462366D01*
X192872990Y-145678040D01*
X192867331Y-145691703D01*
X192866176Y-145696515D01*
X192818634Y-145894544D01*
X192808227Y-145937891D01*
X192788362Y-146190294D01*
X191446050Y-146190294D01*
X191446050Y-145257468D01*
X191439295Y-145195286D01*
X191388165Y-145058897D01*
X191300811Y-144942341D01*
X191184255Y-144854987D01*
X191047866Y-144803857D01*
X190985684Y-144797102D01*
X188689416Y-144797102D01*
X188627234Y-144803857D01*
X188490845Y-144854987D01*
X188374289Y-144942341D01*
X188286935Y-145058897D01*
X188235805Y-145195286D01*
X188229050Y-145257468D01*
X188229050Y-147553736D01*
X134508500Y-147553736D01*
X134508500Y-145000000D01*
X162486835Y-145000000D01*
X162505465Y-145236711D01*
X162506619Y-145241518D01*
X162506620Y-145241524D01*
X162541640Y-145387391D01*
X162560895Y-145467594D01*
X162651760Y-145686963D01*
X162654346Y-145691183D01*
X162773241Y-145885202D01*
X162773245Y-145885208D01*
X162775824Y-145889416D01*
X162930031Y-146069969D01*
X163110584Y-146224176D01*
X163114792Y-146226755D01*
X163114798Y-146226759D01*
X163305114Y-146343385D01*
X163313037Y-146348240D01*
X163317607Y-146350133D01*
X163317611Y-146350135D01*
X163522568Y-146435030D01*
X163532406Y-146439105D01*
X163612609Y-146458360D01*
X163758476Y-146493380D01*
X163758482Y-146493381D01*
X163763289Y-146494535D01*
X164000000Y-146513165D01*
X164236711Y-146494535D01*
X164241518Y-146493381D01*
X164241524Y-146493380D01*
X164387391Y-146458360D01*
X164467594Y-146439105D01*
X164477432Y-146435030D01*
X164682389Y-146350135D01*
X164682393Y-146350133D01*
X164686963Y-146348240D01*
X164694886Y-146343385D01*
X164885202Y-146226759D01*
X164885208Y-146226755D01*
X164889416Y-146224176D01*
X165069969Y-146069969D01*
X165224176Y-145889416D01*
X165226755Y-145885208D01*
X165226759Y-145885202D01*
X165345654Y-145691183D01*
X165348240Y-145686963D01*
X165439105Y-145467594D01*
X165458360Y-145387391D01*
X165493380Y-145241524D01*
X165493381Y-145241518D01*
X165494535Y-145236711D01*
X165513165Y-145000000D01*
X176486835Y-145000000D01*
X176505465Y-145236711D01*
X176506619Y-145241518D01*
X176506620Y-145241524D01*
X176541640Y-145387391D01*
X176560895Y-145467594D01*
X176651760Y-145686963D01*
X176654346Y-145691183D01*
X176773241Y-145885202D01*
X176773245Y-145885208D01*
X176775824Y-145889416D01*
X176930031Y-146069969D01*
X177110584Y-146224176D01*
X177114792Y-146226755D01*
X177114798Y-146226759D01*
X177305114Y-146343385D01*
X177313037Y-146348240D01*
X177317607Y-146350133D01*
X177317611Y-146350135D01*
X177522568Y-146435030D01*
X177532406Y-146439105D01*
X177612609Y-146458360D01*
X177758476Y-146493380D01*
X177758482Y-146493381D01*
X177763289Y-146494535D01*
X178000000Y-146513165D01*
X178236711Y-146494535D01*
X178241518Y-146493381D01*
X178241524Y-146493380D01*
X178387391Y-146458360D01*
X178467594Y-146439105D01*
X178477432Y-146435030D01*
X178682389Y-146350135D01*
X178682393Y-146350133D01*
X178686963Y-146348240D01*
X178694886Y-146343385D01*
X178885202Y-146226759D01*
X178885208Y-146226755D01*
X178889416Y-146224176D01*
X179069969Y-146069969D01*
X179224176Y-145889416D01*
X179226755Y-145885208D01*
X179226759Y-145885202D01*
X179345654Y-145691183D01*
X179348240Y-145686963D01*
X179439105Y-145467594D01*
X179458360Y-145387391D01*
X179493380Y-145241524D01*
X179493381Y-145241518D01*
X179494535Y-145236711D01*
X179513165Y-145000000D01*
X180786526Y-145000000D01*
X180806391Y-145252403D01*
X180865495Y-145498591D01*
X180867388Y-145503162D01*
X180867389Y-145503164D01*
X180947478Y-145696515D01*
X180962384Y-145732502D01*
X181094672Y-145948376D01*
X181259102Y-146140898D01*
X181451624Y-146305328D01*
X181667498Y-146437616D01*
X181672068Y-146439509D01*
X181672072Y-146439511D01*
X181896836Y-146532611D01*
X181901409Y-146534505D01*
X181986032Y-146554821D01*
X182142784Y-146592454D01*
X182142790Y-146592455D01*
X182147597Y-146593609D01*
X182400000Y-146613474D01*
X182652403Y-146593609D01*
X182657210Y-146592455D01*
X182657216Y-146592454D01*
X182813968Y-146554821D01*
X182898591Y-146534505D01*
X182903164Y-146532611D01*
X183127928Y-146439511D01*
X183127932Y-146439509D01*
X183132502Y-146437616D01*
X183348376Y-146305328D01*
X183540898Y-146140898D01*
X183604189Y-146066794D01*
X183663640Y-146027985D01*
X183734634Y-146027479D01*
X183795811Y-146066794D01*
X183859102Y-146140898D01*
X184051624Y-146305328D01*
X184267498Y-146437616D01*
X184272068Y-146439509D01*
X184272072Y-146439511D01*
X184496836Y-146532611D01*
X184501409Y-146534505D01*
X184586032Y-146554821D01*
X184742784Y-146592454D01*
X184742790Y-146592455D01*
X184747597Y-146593609D01*
X185000000Y-146613474D01*
X185252403Y-146593609D01*
X185257210Y-146592455D01*
X185257216Y-146592454D01*
X185413968Y-146554821D01*
X185498591Y-146534505D01*
X185503164Y-146532611D01*
X185727928Y-146439511D01*
X185727932Y-146439509D01*
X185732502Y-146437616D01*
X185948376Y-146305328D01*
X186140898Y-146140898D01*
X186305328Y-145948376D01*
X186437616Y-145732502D01*
X186452523Y-145696515D01*
X186532611Y-145503164D01*
X186532612Y-145503162D01*
X186534505Y-145498591D01*
X186593609Y-145252403D01*
X186613474Y-145000000D01*
X186593609Y-144747597D01*
X186534505Y-144501409D01*
X186532611Y-144496836D01*
X186439511Y-144272072D01*
X186439509Y-144272068D01*
X186437616Y-144267498D01*
X186305328Y-144051624D01*
X186140898Y-143859102D01*
X185948376Y-143694672D01*
X185732502Y-143562384D01*
X185727932Y-143560491D01*
X185727928Y-143560489D01*
X185503164Y-143467389D01*
X185503162Y-143467388D01*
X185498591Y-143465495D01*
X185413968Y-143445179D01*
X185257216Y-143407546D01*
X185257210Y-143407545D01*
X185252403Y-143406391D01*
X185000000Y-143386526D01*
X184747597Y-143406391D01*
X184742790Y-143407545D01*
X184742784Y-143407546D01*
X184586032Y-143445179D01*
X184501409Y-143465495D01*
X184496838Y-143467388D01*
X184496836Y-143467389D01*
X184272072Y-143560489D01*
X184272068Y-143560491D01*
X184267498Y-143562384D01*
X184051624Y-143694672D01*
X183859102Y-143859102D01*
X183855894Y-143862858D01*
X183795811Y-143933206D01*
X183736360Y-143972015D01*
X183665366Y-143972521D01*
X183604189Y-143933206D01*
X183544106Y-143862858D01*
X183540898Y-143859102D01*
X183348376Y-143694672D01*
X183132502Y-143562384D01*
X183127932Y-143560491D01*
X183127928Y-143560489D01*
X182903164Y-143467389D01*
X182903162Y-143467388D01*
X182898591Y-143465495D01*
X182813968Y-143445179D01*
X182657216Y-143407546D01*
X182657210Y-143407545D01*
X182652403Y-143406391D01*
X182400000Y-143386526D01*
X182147597Y-143406391D01*
X182142790Y-143407545D01*
X182142784Y-143407546D01*
X181986032Y-143445179D01*
X181901409Y-143465495D01*
X181896838Y-143467388D01*
X181896836Y-143467389D01*
X181672072Y-143560489D01*
X181672068Y-143560491D01*
X181667498Y-143562384D01*
X181451624Y-143694672D01*
X181259102Y-143859102D01*
X181094672Y-144051624D01*
X180962384Y-144267498D01*
X180960491Y-144272068D01*
X180960489Y-144272072D01*
X180867389Y-144496836D01*
X180865495Y-144501409D01*
X180806391Y-144747597D01*
X180786526Y-145000000D01*
X179513165Y-145000000D01*
X179494535Y-144763289D01*
X179492609Y-144755264D01*
X179440260Y-144537218D01*
X179439105Y-144532406D01*
X179348240Y-144313037D01*
X179345654Y-144308817D01*
X179226759Y-144114798D01*
X179226755Y-144114792D01*
X179224176Y-144110584D01*
X179069969Y-143930031D01*
X178889416Y-143775824D01*
X178885208Y-143773245D01*
X178885202Y-143773241D01*
X178691183Y-143654346D01*
X178686963Y-143651760D01*
X178682393Y-143649867D01*
X178682389Y-143649865D01*
X178472167Y-143562789D01*
X178472165Y-143562788D01*
X178467594Y-143560895D01*
X178387391Y-143541640D01*
X178241524Y-143506620D01*
X178241518Y-143506619D01*
X178236711Y-143505465D01*
X178000000Y-143486835D01*
X177763289Y-143505465D01*
X177758482Y-143506619D01*
X177758476Y-143506620D01*
X177612609Y-143541640D01*
X177532406Y-143560895D01*
X177527835Y-143562788D01*
X177527833Y-143562789D01*
X177317611Y-143649865D01*
X177317607Y-143649867D01*
X177313037Y-143651760D01*
X177308817Y-143654346D01*
X177114798Y-143773241D01*
X177114792Y-143773245D01*
X177110584Y-143775824D01*
X176930031Y-143930031D01*
X176775824Y-144110584D01*
X176773245Y-144114792D01*
X176773241Y-144114798D01*
X176654346Y-144308817D01*
X176651760Y-144313037D01*
X176560895Y-144532406D01*
X176559740Y-144537218D01*
X176507392Y-144755264D01*
X176505465Y-144763289D01*
X176486835Y-145000000D01*
X165513165Y-145000000D01*
X165494535Y-144763289D01*
X165492609Y-144755264D01*
X165440260Y-144537218D01*
X165439105Y-144532406D01*
X165348240Y-144313037D01*
X165345654Y-144308817D01*
X165226759Y-144114798D01*
X165226755Y-144114792D01*
X165224176Y-144110584D01*
X165069969Y-143930031D01*
X164889416Y-143775824D01*
X164885208Y-143773245D01*
X164885202Y-143773241D01*
X164691183Y-143654346D01*
X164686963Y-143651760D01*
X164682393Y-143649867D01*
X164682389Y-143649865D01*
X164472167Y-143562789D01*
X164472165Y-143562788D01*
X164467594Y-143560895D01*
X164387391Y-143541640D01*
X164241524Y-143506620D01*
X164241518Y-143506619D01*
X164236711Y-143505465D01*
X164000000Y-143486835D01*
X163763289Y-143505465D01*
X163758482Y-143506619D01*
X163758476Y-143506620D01*
X163612609Y-143541640D01*
X163532406Y-143560895D01*
X163527835Y-143562788D01*
X163527833Y-143562789D01*
X163317611Y-143649865D01*
X163317607Y-143649867D01*
X163313037Y-143651760D01*
X163308817Y-143654346D01*
X163114798Y-143773241D01*
X163114792Y-143773245D01*
X163110584Y-143775824D01*
X162930031Y-143930031D01*
X162775824Y-144110584D01*
X162773245Y-144114792D01*
X162773241Y-144114798D01*
X162654346Y-144308817D01*
X162651760Y-144313037D01*
X162560895Y-144532406D01*
X162559740Y-144537218D01*
X162507392Y-144755264D01*
X162505465Y-144763289D01*
X162486835Y-145000000D01*
X134508500Y-145000000D01*
X134508500Y-141000000D01*
X180786526Y-141000000D01*
X180806391Y-141252403D01*
X180865495Y-141498591D01*
X180962384Y-141732502D01*
X181094672Y-141948376D01*
X181259102Y-142140898D01*
X181451624Y-142305328D01*
X181667498Y-142437616D01*
X181672068Y-142439509D01*
X181672072Y-142439511D01*
X181896836Y-142532611D01*
X181901409Y-142534505D01*
X181986032Y-142554821D01*
X182142784Y-142592454D01*
X182142790Y-142592455D01*
X182147597Y-142593609D01*
X182400000Y-142613474D01*
X182652403Y-142593609D01*
X182657210Y-142592455D01*
X182657216Y-142592454D01*
X182813968Y-142554821D01*
X182898591Y-142534505D01*
X182903164Y-142532611D01*
X183127928Y-142439511D01*
X183127932Y-142439509D01*
X183132502Y-142437616D01*
X183348376Y-142305328D01*
X183540898Y-142140898D01*
X183604189Y-142066794D01*
X183663640Y-142027985D01*
X183734634Y-142027479D01*
X183795811Y-142066794D01*
X183859102Y-142140898D01*
X184051624Y-142305328D01*
X184267498Y-142437616D01*
X184272068Y-142439509D01*
X184272072Y-142439511D01*
X184496836Y-142532611D01*
X184501409Y-142534505D01*
X184586032Y-142554821D01*
X184742784Y-142592454D01*
X184742790Y-142592455D01*
X184747597Y-142593609D01*
X185000000Y-142613474D01*
X185252403Y-142593609D01*
X185257210Y-142592455D01*
X185257216Y-142592454D01*
X185413968Y-142554821D01*
X185498591Y-142534505D01*
X185503164Y-142532611D01*
X185727928Y-142439511D01*
X185727932Y-142439509D01*
X185732502Y-142437616D01*
X185948376Y-142305328D01*
X186140898Y-142140898D01*
X186305328Y-141948376D01*
X186437616Y-141732502D01*
X186534505Y-141498591D01*
X186593609Y-141252403D01*
X186613474Y-141000000D01*
X186593609Y-140747597D01*
X186534505Y-140501409D01*
X186532611Y-140496836D01*
X186439511Y-140272072D01*
X186439509Y-140272068D01*
X186437616Y-140267498D01*
X186305328Y-140051624D01*
X186140898Y-139859102D01*
X185948376Y-139694672D01*
X185732502Y-139562384D01*
X185727932Y-139560491D01*
X185727928Y-139560489D01*
X185503164Y-139467389D01*
X185503162Y-139467388D01*
X185498591Y-139465495D01*
X185413968Y-139445179D01*
X185257216Y-139407546D01*
X185257210Y-139407545D01*
X185252403Y-139406391D01*
X185000000Y-139386526D01*
X184747597Y-139406391D01*
X184742790Y-139407545D01*
X184742784Y-139407546D01*
X184586032Y-139445179D01*
X184501409Y-139465495D01*
X184496838Y-139467388D01*
X184496836Y-139467389D01*
X184272072Y-139560489D01*
X184272068Y-139560491D01*
X184267498Y-139562384D01*
X184051624Y-139694672D01*
X183859102Y-139859102D01*
X183855894Y-139862858D01*
X183795811Y-139933206D01*
X183736360Y-139972015D01*
X183665366Y-139972521D01*
X183604189Y-139933206D01*
X183544106Y-139862858D01*
X183540898Y-139859102D01*
X183348376Y-139694672D01*
X183132502Y-139562384D01*
X183127932Y-139560491D01*
X183127928Y-139560489D01*
X182903164Y-139467389D01*
X182903162Y-139467388D01*
X182898591Y-139465495D01*
X182813968Y-139445179D01*
X182657216Y-139407546D01*
X182657210Y-139407545D01*
X182652403Y-139406391D01*
X182400000Y-139386526D01*
X182147597Y-139406391D01*
X182142790Y-139407545D01*
X182142784Y-139407546D01*
X181986032Y-139445179D01*
X181901409Y-139465495D01*
X181896838Y-139467388D01*
X181896836Y-139467389D01*
X181672072Y-139560489D01*
X181672068Y-139560491D01*
X181667498Y-139562384D01*
X181451624Y-139694672D01*
X181259102Y-139859102D01*
X181094672Y-140051624D01*
X180962384Y-140267498D01*
X180960491Y-140272068D01*
X180960489Y-140272072D01*
X180867389Y-140496836D01*
X180865495Y-140501409D01*
X180806391Y-140747597D01*
X180786526Y-141000000D01*
X134508500Y-141000000D01*
X134508500Y-138855469D01*
X135157095Y-138855469D01*
X135157392Y-138860622D01*
X135157392Y-138860625D01*
X135163067Y-138959041D01*
X135170427Y-139086697D01*
X135171564Y-139091743D01*
X135171565Y-139091749D01*
X135203741Y-139234523D01*
X135221346Y-139312642D01*
X135223288Y-139317424D01*
X135223289Y-139317428D01*
X135282944Y-139464340D01*
X135308484Y-139527237D01*
X135429501Y-139724719D01*
X135581147Y-139899784D01*
X135759349Y-140047730D01*
X135959322Y-140164584D01*
X136175694Y-140247209D01*
X136180760Y-140248240D01*
X136180761Y-140248240D01*
X136233846Y-140259040D01*
X136402656Y-140293385D01*
X136533324Y-140298176D01*
X136628949Y-140301683D01*
X136628953Y-140301683D01*
X136634113Y-140301872D01*
X136639233Y-140301216D01*
X136639235Y-140301216D01*
X136712270Y-140291860D01*
X136863847Y-140272442D01*
X136868795Y-140270957D01*
X136868802Y-140270956D01*
X137080747Y-140207369D01*
X137085690Y-140205886D01*
X137166236Y-140166427D01*
X137289049Y-140106262D01*
X137289052Y-140106260D01*
X137293684Y-140103991D01*
X137482243Y-139969494D01*
X137646303Y-139806005D01*
X137781458Y-139617917D01*
X137828641Y-139522450D01*
X137881784Y-139414922D01*
X137881785Y-139414920D01*
X137884078Y-139410280D01*
X137951408Y-139188671D01*
X137981640Y-138959041D01*
X137983327Y-138890000D01*
X137980488Y-138855469D01*
X158017095Y-138855469D01*
X158017392Y-138860622D01*
X158017392Y-138860625D01*
X158023067Y-138959041D01*
X158030427Y-139086697D01*
X158031564Y-139091743D01*
X158031565Y-139091749D01*
X158063741Y-139234523D01*
X158081346Y-139312642D01*
X158083288Y-139317424D01*
X158083289Y-139317428D01*
X158142944Y-139464340D01*
X158168484Y-139527237D01*
X158289501Y-139724719D01*
X158441147Y-139899784D01*
X158619349Y-140047730D01*
X158819322Y-140164584D01*
X159035694Y-140247209D01*
X159040760Y-140248240D01*
X159040761Y-140248240D01*
X159093846Y-140259040D01*
X159262656Y-140293385D01*
X159393324Y-140298176D01*
X159488949Y-140301683D01*
X159488953Y-140301683D01*
X159494113Y-140301872D01*
X159499233Y-140301216D01*
X159499235Y-140301216D01*
X159572270Y-140291860D01*
X159723847Y-140272442D01*
X159728795Y-140270957D01*
X159728802Y-140270956D01*
X159940747Y-140207369D01*
X159945690Y-140205886D01*
X160026236Y-140166427D01*
X160149049Y-140106262D01*
X160149052Y-140106260D01*
X160153684Y-140103991D01*
X160342243Y-139969494D01*
X160506303Y-139806005D01*
X160641458Y-139617917D01*
X160688641Y-139522450D01*
X160741784Y-139414922D01*
X160741785Y-139414920D01*
X160744078Y-139410280D01*
X160811408Y-139188671D01*
X160841640Y-138959041D01*
X160843327Y-138890000D01*
X160837032Y-138813434D01*
X160824773Y-138664318D01*
X160824772Y-138664312D01*
X160824349Y-138659167D01*
X160767925Y-138434533D01*
X160765866Y-138429797D01*
X160677630Y-138226868D01*
X160677628Y-138226865D01*
X160675570Y-138222131D01*
X160549764Y-138027665D01*
X160393887Y-137856358D01*
X160389836Y-137853159D01*
X160389832Y-137853155D01*
X160216669Y-137716400D01*
X160175606Y-137658483D01*
X160172374Y-137587560D01*
X160207999Y-137526148D01*
X160213487Y-137521623D01*
X160223497Y-137508874D01*
X160216510Y-137495721D01*
X159442811Y-136722021D01*
X159428868Y-136714408D01*
X159427034Y-136714539D01*
X159420420Y-136718790D01*
X158640180Y-137499031D01*
X158633423Y-137511406D01*
X158652730Y-137537197D01*
X158652040Y-137537713D01*
X158676627Y-137563737D01*
X158689743Y-137633511D01*
X158663055Y-137699300D01*
X158640023Y-137721719D01*
X158562258Y-137780107D01*
X158491655Y-137833117D01*
X158331639Y-138000564D01*
X158328725Y-138004836D01*
X158328724Y-138004837D01*
X158313279Y-138027479D01*
X158201119Y-138191899D01*
X158103602Y-138401981D01*
X158041707Y-138625169D01*
X158017095Y-138855469D01*
X137980488Y-138855469D01*
X137977032Y-138813434D01*
X137964773Y-138664318D01*
X137964772Y-138664312D01*
X137964349Y-138659167D01*
X137907925Y-138434533D01*
X137905866Y-138429797D01*
X137817630Y-138226868D01*
X137817628Y-138226865D01*
X137815570Y-138222131D01*
X137689764Y-138027665D01*
X137533887Y-137856358D01*
X137529836Y-137853159D01*
X137529832Y-137853155D01*
X137357077Y-137716722D01*
X137316014Y-137658805D01*
X137312782Y-137587882D01*
X137348407Y-137526470D01*
X137362001Y-137515261D01*
X137367406Y-137511406D01*
X137482243Y-137429494D01*
X137646303Y-137266005D01*
X137659623Y-137247469D01*
X137671588Y-137230817D01*
X137781458Y-137077917D01*
X137783879Y-137073020D01*
X137881784Y-136874922D01*
X137881785Y-136874920D01*
X137884078Y-136870280D01*
X137951408Y-136648671D01*
X137981640Y-136419041D01*
X137983327Y-136350000D01*
X137980913Y-136320638D01*
X158017893Y-136320638D01*
X158030627Y-136541468D01*
X158032061Y-136551670D01*
X158080685Y-136767439D01*
X158083773Y-136777292D01*
X158166986Y-136982220D01*
X158171634Y-136991421D01*
X158260097Y-137135781D01*
X158270553Y-137145242D01*
X158279331Y-137141458D01*
X159057979Y-136362811D01*
X159064356Y-136351132D01*
X159794408Y-136351132D01*
X159794539Y-136352966D01*
X159798790Y-136359580D01*
X160576307Y-137137096D01*
X160588313Y-137143652D01*
X160600052Y-137134684D01*
X160638010Y-137081859D01*
X160643321Y-137073020D01*
X160679410Y-137000000D01*
X180786526Y-137000000D01*
X180806391Y-137252403D01*
X180807545Y-137257210D01*
X180807546Y-137257216D01*
X180839355Y-137389708D01*
X180865495Y-137498591D01*
X180867388Y-137503162D01*
X180867389Y-137503164D01*
X180958053Y-137722045D01*
X180962384Y-137732502D01*
X181094672Y-137948376D01*
X181259102Y-138140898D01*
X181451624Y-138305328D01*
X181667498Y-138437616D01*
X181672068Y-138439509D01*
X181672072Y-138439511D01*
X181896836Y-138532611D01*
X181901409Y-138534505D01*
X181986032Y-138554821D01*
X182142784Y-138592454D01*
X182142790Y-138592455D01*
X182147597Y-138593609D01*
X182400000Y-138613474D01*
X182652403Y-138593609D01*
X182657210Y-138592455D01*
X182657216Y-138592454D01*
X182813968Y-138554821D01*
X182898591Y-138534505D01*
X182903164Y-138532611D01*
X183127928Y-138439511D01*
X183127932Y-138439509D01*
X183132502Y-138437616D01*
X183348376Y-138305328D01*
X183540898Y-138140898D01*
X183604189Y-138066794D01*
X183663640Y-138027985D01*
X183734634Y-138027479D01*
X183795811Y-138066794D01*
X183859102Y-138140898D01*
X184051624Y-138305328D01*
X184267498Y-138437616D01*
X184272068Y-138439509D01*
X184272072Y-138439511D01*
X184496836Y-138532611D01*
X184501409Y-138534505D01*
X184586032Y-138554821D01*
X184742784Y-138592454D01*
X184742790Y-138592455D01*
X184747597Y-138593609D01*
X185000000Y-138613474D01*
X185252403Y-138593609D01*
X185257210Y-138592455D01*
X185257216Y-138592454D01*
X185413968Y-138554821D01*
X185498591Y-138534505D01*
X185503164Y-138532611D01*
X185727928Y-138439511D01*
X185727932Y-138439509D01*
X185732502Y-138437616D01*
X185948376Y-138305328D01*
X186140898Y-138140898D01*
X186305328Y-137948376D01*
X186437616Y-137732502D01*
X186441948Y-137722045D01*
X186532611Y-137503164D01*
X186532612Y-137503162D01*
X186534505Y-137498591D01*
X186560645Y-137389708D01*
X186592454Y-137257216D01*
X186592455Y-137257210D01*
X186593609Y-137252403D01*
X186613474Y-137000000D01*
X186593609Y-136747597D01*
X186586694Y-136718790D01*
X186546571Y-136551670D01*
X186534505Y-136501409D01*
X186531051Y-136493071D01*
X186439511Y-136272072D01*
X186439509Y-136272068D01*
X186437616Y-136267498D01*
X186424198Y-136245602D01*
X188224076Y-136245602D01*
X188243941Y-136498005D01*
X188245095Y-136502812D01*
X188245096Y-136502818D01*
X188280112Y-136648671D01*
X188303045Y-136744193D01*
X188304938Y-136748764D01*
X188304939Y-136748766D01*
X188357195Y-136874922D01*
X188399934Y-136978104D01*
X188532222Y-137193978D01*
X188696652Y-137386500D01*
X188889174Y-137550930D01*
X189105048Y-137683218D01*
X189109618Y-137685111D01*
X189109622Y-137685113D01*
X189224030Y-137732502D01*
X189338959Y-137780107D01*
X189423582Y-137800423D01*
X189580334Y-137838056D01*
X189580340Y-137838057D01*
X189585147Y-137839211D01*
X189837550Y-137859076D01*
X190089953Y-137839211D01*
X190094760Y-137838057D01*
X190094766Y-137838056D01*
X190251518Y-137800423D01*
X190336141Y-137780107D01*
X190451070Y-137732502D01*
X190565478Y-137685113D01*
X190565482Y-137685111D01*
X190570052Y-137683218D01*
X190785926Y-137550930D01*
X190978448Y-137386500D01*
X191142878Y-137193978D01*
X191275166Y-136978104D01*
X191317906Y-136874922D01*
X191370161Y-136748766D01*
X191370162Y-136748764D01*
X191372055Y-136744193D01*
X191394988Y-136648671D01*
X191430004Y-136502818D01*
X191430005Y-136502812D01*
X191431159Y-136498005D01*
X191451024Y-136245602D01*
X191431159Y-135993199D01*
X191429302Y-135985461D01*
X191373210Y-135751823D01*
X191372055Y-135747011D01*
X191334600Y-135656587D01*
X191277061Y-135517674D01*
X191277059Y-135517670D01*
X191275166Y-135513100D01*
X191142878Y-135297226D01*
X190978448Y-135104704D01*
X190785926Y-134940274D01*
X190570052Y-134807986D01*
X190565482Y-134806093D01*
X190565478Y-134806091D01*
X190340714Y-134712991D01*
X190340712Y-134712990D01*
X190336141Y-134711097D01*
X190251518Y-134690781D01*
X190094766Y-134653148D01*
X190094760Y-134653147D01*
X190089953Y-134651993D01*
X189837550Y-134632128D01*
X189585147Y-134651993D01*
X189580340Y-134653147D01*
X189580334Y-134653148D01*
X189423582Y-134690781D01*
X189338959Y-134711097D01*
X189334388Y-134712990D01*
X189334386Y-134712991D01*
X189109622Y-134806091D01*
X189109618Y-134806093D01*
X189105048Y-134807986D01*
X188889174Y-134940274D01*
X188696652Y-135104704D01*
X188532222Y-135297226D01*
X188399934Y-135513100D01*
X188398041Y-135517670D01*
X188398039Y-135517674D01*
X188340500Y-135656587D01*
X188303045Y-135747011D01*
X188301890Y-135751823D01*
X188245799Y-135985461D01*
X188243941Y-135993199D01*
X188224076Y-136245602D01*
X186424198Y-136245602D01*
X186305328Y-136051624D01*
X186140898Y-135859102D01*
X185948376Y-135694672D01*
X185732502Y-135562384D01*
X185727932Y-135560491D01*
X185727928Y-135560489D01*
X185503164Y-135467389D01*
X185503162Y-135467388D01*
X185498591Y-135465495D01*
X185413968Y-135445179D01*
X185257216Y-135407546D01*
X185257210Y-135407545D01*
X185252403Y-135406391D01*
X185000000Y-135386526D01*
X184747597Y-135406391D01*
X184742790Y-135407545D01*
X184742784Y-135407546D01*
X184586032Y-135445179D01*
X184501409Y-135465495D01*
X184496838Y-135467388D01*
X184496836Y-135467389D01*
X184272072Y-135560489D01*
X184272068Y-135560491D01*
X184267498Y-135562384D01*
X184051624Y-135694672D01*
X183859102Y-135859102D01*
X183855894Y-135862858D01*
X183795811Y-135933206D01*
X183736360Y-135972015D01*
X183665366Y-135972521D01*
X183604189Y-135933206D01*
X183544106Y-135862858D01*
X183540898Y-135859102D01*
X183348376Y-135694672D01*
X183132502Y-135562384D01*
X183127932Y-135560491D01*
X183127928Y-135560489D01*
X182903164Y-135467389D01*
X182903162Y-135467388D01*
X182898591Y-135465495D01*
X182813968Y-135445179D01*
X182657216Y-135407546D01*
X182657210Y-135407545D01*
X182652403Y-135406391D01*
X182400000Y-135386526D01*
X182147597Y-135406391D01*
X182142790Y-135407545D01*
X182142784Y-135407546D01*
X181986032Y-135445179D01*
X181901409Y-135465495D01*
X181896838Y-135467388D01*
X181896836Y-135467389D01*
X181672072Y-135560489D01*
X181672068Y-135560491D01*
X181667498Y-135562384D01*
X181451624Y-135694672D01*
X181259102Y-135859102D01*
X181094672Y-136051624D01*
X180962384Y-136267498D01*
X180960491Y-136272068D01*
X180960489Y-136272072D01*
X180868949Y-136493071D01*
X180865495Y-136501409D01*
X180853429Y-136551670D01*
X180813307Y-136718790D01*
X180806391Y-136747597D01*
X180786526Y-137000000D01*
X160679410Y-137000000D01*
X160741318Y-136874737D01*
X160745117Y-136865142D01*
X160809415Y-136653517D01*
X160811594Y-136643436D01*
X160840702Y-136422338D01*
X160841221Y-136415663D01*
X160842744Y-136353364D01*
X160842550Y-136346646D01*
X160824279Y-136124400D01*
X160822596Y-136114238D01*
X160768710Y-135899708D01*
X160765389Y-135889953D01*
X160677193Y-135687118D01*
X160672315Y-135678020D01*
X160599224Y-135565038D01*
X160588538Y-135555835D01*
X160578973Y-135560238D01*
X159802021Y-136337189D01*
X159794408Y-136351132D01*
X159064356Y-136351132D01*
X159065592Y-136348868D01*
X159065461Y-136347034D01*
X159061210Y-136340420D01*
X158283862Y-135563073D01*
X158272330Y-135556776D01*
X158260048Y-135566399D01*
X158204467Y-135647877D01*
X158199379Y-135656833D01*
X158106252Y-135857459D01*
X158102689Y-135867146D01*
X158043581Y-136080280D01*
X158041650Y-136090400D01*
X158018145Y-136310349D01*
X158017893Y-136320638D01*
X137980913Y-136320638D01*
X137974339Y-136240672D01*
X137964773Y-136124318D01*
X137964772Y-136124312D01*
X137964349Y-136119167D01*
X137930797Y-135985592D01*
X137909184Y-135899544D01*
X137909183Y-135899540D01*
X137907925Y-135894533D01*
X137896017Y-135867146D01*
X137817630Y-135686868D01*
X137817628Y-135686865D01*
X137815570Y-135682131D01*
X137689764Y-135487665D01*
X137671315Y-135467389D01*
X137616861Y-135407546D01*
X137533887Y-135316358D01*
X137529836Y-135313159D01*
X137529832Y-135313155D01*
X137357077Y-135176722D01*
X137316014Y-135118805D01*
X137312782Y-135047882D01*
X137348407Y-134986470D01*
X137362001Y-134975261D01*
X137365872Y-134972500D01*
X137482243Y-134889494D01*
X137646303Y-134726005D01*
X137657016Y-134711097D01*
X137707875Y-134640318D01*
X137781458Y-134537917D01*
X137828641Y-134442450D01*
X137881784Y-134334922D01*
X137881785Y-134334920D01*
X137884078Y-134330280D01*
X137951408Y-134108671D01*
X137981640Y-133879041D01*
X137983327Y-133810000D01*
X137980488Y-133775469D01*
X158017095Y-133775469D01*
X158017392Y-133780622D01*
X158017392Y-133780625D01*
X158023067Y-133879041D01*
X158030427Y-134006697D01*
X158031564Y-134011743D01*
X158031565Y-134011749D01*
X158063741Y-134154523D01*
X158081346Y-134232642D01*
X158083288Y-134237424D01*
X158083289Y-134237428D01*
X158166540Y-134442450D01*
X158168484Y-134447237D01*
X158289501Y-134644719D01*
X158441147Y-134819784D01*
X158619349Y-134967730D01*
X158623814Y-134970339D01*
X158627979Y-134972773D01*
X158676700Y-135024414D01*
X158689767Y-135094198D01*
X158663033Y-135159968D01*
X158646323Y-135176221D01*
X158635508Y-135190711D01*
X158642251Y-135203040D01*
X159417189Y-135977979D01*
X159431132Y-135985592D01*
X159432966Y-135985461D01*
X159439580Y-135981210D01*
X160218994Y-135201795D01*
X160226011Y-135188944D01*
X160218237Y-135178275D01*
X160216655Y-135177025D01*
X160175592Y-135119109D01*
X160172359Y-135048186D01*
X160207983Y-134986774D01*
X160221578Y-134975563D01*
X160266550Y-134943485D01*
X160342243Y-134889494D01*
X160506303Y-134726005D01*
X160517016Y-134711097D01*
X160567875Y-134640318D01*
X160641458Y-134537917D01*
X160688641Y-134442450D01*
X160741784Y-134334922D01*
X160741785Y-134334920D01*
X160744078Y-134330280D01*
X160811408Y-134108671D01*
X160841640Y-133879041D01*
X160843327Y-133810000D01*
X160832853Y-133682598D01*
X160824773Y-133584318D01*
X160824772Y-133584312D01*
X160824349Y-133579167D01*
X160786053Y-133426705D01*
X160769184Y-133359544D01*
X160769183Y-133359540D01*
X160767925Y-133354533D01*
X160765866Y-133349797D01*
X160712965Y-133228134D01*
X188229050Y-133228134D01*
X188235805Y-133290316D01*
X188286935Y-133426705D01*
X188374289Y-133543261D01*
X188490845Y-133630615D01*
X188627234Y-133681745D01*
X188689416Y-133688500D01*
X190985684Y-133688500D01*
X191047866Y-133681745D01*
X191184255Y-133630615D01*
X191300811Y-133543261D01*
X191388165Y-133426705D01*
X191439295Y-133290316D01*
X191446050Y-133228134D01*
X191446050Y-130931866D01*
X191439295Y-130869684D01*
X191388165Y-130733295D01*
X191300811Y-130616739D01*
X191184255Y-130529385D01*
X191047866Y-130478255D01*
X190985684Y-130471500D01*
X188689416Y-130471500D01*
X188627234Y-130478255D01*
X188490845Y-130529385D01*
X188374289Y-130616739D01*
X188286935Y-130733295D01*
X188235805Y-130869684D01*
X188229050Y-130931866D01*
X188229050Y-133228134D01*
X160712965Y-133228134D01*
X160677630Y-133146868D01*
X160677628Y-133146865D01*
X160675570Y-133142131D01*
X160549764Y-132947665D01*
X160393887Y-132776358D01*
X160389836Y-132773159D01*
X160389832Y-132773155D01*
X160217077Y-132636722D01*
X160176014Y-132578805D01*
X160172782Y-132507882D01*
X160208407Y-132446470D01*
X160222001Y-132435261D01*
X160225872Y-132432500D01*
X160342243Y-132349494D01*
X160506303Y-132186005D01*
X160641458Y-131997917D01*
X160688641Y-131902450D01*
X160741784Y-131794922D01*
X160741785Y-131794920D01*
X160744078Y-131790280D01*
X160811408Y-131568671D01*
X160841640Y-131339041D01*
X160843327Y-131270000D01*
X160837032Y-131193434D01*
X160824773Y-131044318D01*
X160824772Y-131044312D01*
X160824349Y-131039167D01*
X160781778Y-130869684D01*
X160769184Y-130819544D01*
X160769183Y-130819540D01*
X160767925Y-130814533D01*
X160765866Y-130809797D01*
X160677630Y-130606868D01*
X160677628Y-130606865D01*
X160675570Y-130602131D01*
X160549764Y-130407665D01*
X160393887Y-130236358D01*
X160389836Y-130233159D01*
X160389832Y-130233155D01*
X160217077Y-130096722D01*
X160176014Y-130038805D01*
X160172782Y-129967882D01*
X160208407Y-129906470D01*
X160222001Y-129895261D01*
X160225872Y-129892500D01*
X160342243Y-129809494D01*
X160506303Y-129646005D01*
X160641458Y-129457917D01*
X160688641Y-129362450D01*
X160741784Y-129254922D01*
X160741785Y-129254920D01*
X160744078Y-129250280D01*
X160811408Y-129028671D01*
X160841640Y-128799041D01*
X160843327Y-128730000D01*
X160837032Y-128653434D01*
X160824773Y-128504318D01*
X160824772Y-128504312D01*
X160824349Y-128499167D01*
X160767925Y-128274533D01*
X160765866Y-128269797D01*
X160677630Y-128066868D01*
X160677628Y-128066865D01*
X160675570Y-128062131D01*
X160549764Y-127867665D01*
X160393887Y-127696358D01*
X160389836Y-127693159D01*
X160389832Y-127693155D01*
X160217077Y-127556722D01*
X160176014Y-127498805D01*
X160172782Y-127427882D01*
X160208407Y-127366470D01*
X160222001Y-127355261D01*
X160342243Y-127269494D01*
X160506303Y-127106005D01*
X160641458Y-126917917D01*
X160688641Y-126822450D01*
X160741784Y-126714922D01*
X160741785Y-126714920D01*
X160744078Y-126710280D01*
X160811408Y-126488671D01*
X160815183Y-126460000D01*
X181366835Y-126460000D01*
X181385465Y-126696711D01*
X181386619Y-126701518D01*
X181386620Y-126701524D01*
X181389837Y-126714922D01*
X181440895Y-126927594D01*
X181442788Y-126932165D01*
X181442789Y-126932167D01*
X181516306Y-127109653D01*
X181531760Y-127146963D01*
X181534346Y-127151183D01*
X181653241Y-127345202D01*
X181653245Y-127345208D01*
X181655824Y-127349416D01*
X181810031Y-127529969D01*
X181813787Y-127533177D01*
X181821417Y-127539694D01*
X181990584Y-127684176D01*
X181994792Y-127686755D01*
X181994798Y-127686759D01*
X182188817Y-127805654D01*
X182193037Y-127808240D01*
X182197607Y-127810133D01*
X182197611Y-127810135D01*
X182407833Y-127897211D01*
X182412406Y-127899105D01*
X182492609Y-127918360D01*
X182638476Y-127953380D01*
X182638482Y-127953381D01*
X182643289Y-127954535D01*
X182880000Y-127973165D01*
X183116711Y-127954535D01*
X183121518Y-127953381D01*
X183121524Y-127953380D01*
X183267391Y-127918360D01*
X183347594Y-127899105D01*
X183352167Y-127897211D01*
X183562389Y-127810135D01*
X183562393Y-127810133D01*
X183566963Y-127808240D01*
X183571183Y-127805654D01*
X183765202Y-127686759D01*
X183765208Y-127686755D01*
X183769416Y-127684176D01*
X183938583Y-127539694D01*
X183946213Y-127533177D01*
X183949969Y-127529969D01*
X184104176Y-127349416D01*
X184106755Y-127345208D01*
X184106759Y-127345202D01*
X184225654Y-127151183D01*
X184228240Y-127146963D01*
X184243695Y-127109653D01*
X184317211Y-126932167D01*
X184317212Y-126932165D01*
X184319105Y-126927594D01*
X184370163Y-126714922D01*
X184373380Y-126701524D01*
X184373381Y-126701518D01*
X184374535Y-126696711D01*
X184393165Y-126460000D01*
X184374535Y-126223289D01*
X184319105Y-125992406D01*
X184305337Y-125959167D01*
X184230135Y-125777611D01*
X184230133Y-125777607D01*
X184228240Y-125773037D01*
X184204645Y-125734533D01*
X184106759Y-125574798D01*
X184106755Y-125574792D01*
X184104176Y-125570584D01*
X183949969Y-125390031D01*
X183769416Y-125235824D01*
X183765208Y-125233245D01*
X183765202Y-125233241D01*
X183571183Y-125114346D01*
X183566963Y-125111760D01*
X183562393Y-125109867D01*
X183562389Y-125109865D01*
X183352167Y-125022789D01*
X183352165Y-125022788D01*
X183347594Y-125020895D01*
X183235785Y-124994052D01*
X183121524Y-124966620D01*
X183121518Y-124966619D01*
X183116711Y-124965465D01*
X182880000Y-124946835D01*
X182643289Y-124965465D01*
X182638482Y-124966619D01*
X182638476Y-124966620D01*
X182524215Y-124994052D01*
X182412406Y-125020895D01*
X182407835Y-125022788D01*
X182407833Y-125022789D01*
X182197611Y-125109865D01*
X182197607Y-125109867D01*
X182193037Y-125111760D01*
X182188817Y-125114346D01*
X181994798Y-125233241D01*
X181994792Y-125233245D01*
X181990584Y-125235824D01*
X181810031Y-125390031D01*
X181655824Y-125570584D01*
X181653245Y-125574792D01*
X181653241Y-125574798D01*
X181555355Y-125734533D01*
X181531760Y-125773037D01*
X181529867Y-125777607D01*
X181529865Y-125777611D01*
X181454663Y-125959167D01*
X181440895Y-125992406D01*
X181385465Y-126223289D01*
X181366835Y-126460000D01*
X160815183Y-126460000D01*
X160841640Y-126259041D01*
X160843327Y-126190000D01*
X160837032Y-126113434D01*
X160824773Y-125964318D01*
X160824772Y-125964312D01*
X160824349Y-125959167D01*
X160796137Y-125846850D01*
X160769184Y-125739544D01*
X160769183Y-125739540D01*
X160767925Y-125734533D01*
X160765866Y-125729797D01*
X160677630Y-125526868D01*
X160677628Y-125526865D01*
X160675570Y-125522131D01*
X160549764Y-125327665D01*
X160393887Y-125156358D01*
X160389836Y-125153159D01*
X160389832Y-125153155D01*
X160217077Y-125016722D01*
X160176014Y-124958805D01*
X160172782Y-124887882D01*
X160208407Y-124826470D01*
X160222001Y-124815261D01*
X160225872Y-124812500D01*
X160342243Y-124729494D01*
X160506303Y-124566005D01*
X160641458Y-124377917D01*
X160688641Y-124282450D01*
X160741784Y-124174922D01*
X160741785Y-124174920D01*
X160744078Y-124170280D01*
X160811408Y-123948671D01*
X160841640Y-123719041D01*
X160842492Y-123684176D01*
X160843245Y-123653365D01*
X160843245Y-123653361D01*
X160843327Y-123650000D01*
X160833747Y-123533474D01*
X160824773Y-123424318D01*
X160824772Y-123424312D01*
X160824349Y-123419167D01*
X160767925Y-123194533D01*
X160765866Y-123189797D01*
X160677630Y-122986868D01*
X160677628Y-122986865D01*
X160675570Y-122982131D01*
X160549764Y-122787665D01*
X160393887Y-122616358D01*
X160389836Y-122613159D01*
X160389832Y-122613155D01*
X160217077Y-122476722D01*
X160176014Y-122418805D01*
X160172782Y-122347882D01*
X160208407Y-122286470D01*
X160222001Y-122275261D01*
X160225872Y-122272500D01*
X160342243Y-122189494D01*
X160506303Y-122026005D01*
X160641458Y-121837917D01*
X160653755Y-121813037D01*
X160741784Y-121634922D01*
X160741785Y-121634920D01*
X160744078Y-121630280D01*
X160811408Y-121408671D01*
X160841640Y-121179041D01*
X160841722Y-121175691D01*
X160843245Y-121113365D01*
X160843245Y-121113361D01*
X160843327Y-121110000D01*
X160834828Y-121006620D01*
X160824773Y-120884318D01*
X160824772Y-120884312D01*
X160824349Y-120879167D01*
X160779318Y-120699889D01*
X160769184Y-120659544D01*
X160769183Y-120659540D01*
X160767925Y-120654533D01*
X160763283Y-120643856D01*
X160677630Y-120446868D01*
X160677628Y-120446865D01*
X160675570Y-120442131D01*
X160549764Y-120247665D01*
X160393887Y-120076358D01*
X160389836Y-120073159D01*
X160389832Y-120073155D01*
X160216177Y-119936011D01*
X160216172Y-119936008D01*
X160212123Y-119932810D01*
X160207607Y-119930317D01*
X160207604Y-119930315D01*
X160013879Y-119823373D01*
X160013875Y-119823371D01*
X160009355Y-119820876D01*
X160004486Y-119819152D01*
X160004482Y-119819150D01*
X159795903Y-119745288D01*
X159795899Y-119745287D01*
X159791028Y-119743562D01*
X159785935Y-119742655D01*
X159785932Y-119742654D01*
X159568095Y-119703851D01*
X159568089Y-119703850D01*
X159563006Y-119702945D01*
X159490096Y-119702054D01*
X159336581Y-119700179D01*
X159336579Y-119700179D01*
X159331411Y-119700116D01*
X159102464Y-119735150D01*
X158882314Y-119807106D01*
X158877726Y-119809494D01*
X158877722Y-119809496D01*
X158851065Y-119823373D01*
X158676872Y-119914052D01*
X158672739Y-119917155D01*
X158672736Y-119917157D01*
X158647625Y-119936011D01*
X158491655Y-120053117D01*
X158331639Y-120220564D01*
X158328725Y-120224836D01*
X158328724Y-120224837D01*
X158313152Y-120247665D01*
X158201119Y-120411899D01*
X158103602Y-120621981D01*
X158041707Y-120845169D01*
X158017095Y-121075469D01*
X158017392Y-121080622D01*
X158017392Y-121080625D01*
X158027716Y-121259680D01*
X158030427Y-121306697D01*
X158031564Y-121311743D01*
X158031565Y-121311749D01*
X158059068Y-121433787D01*
X158081346Y-121532642D01*
X158083288Y-121537424D01*
X158083289Y-121537428D01*
X158138149Y-121672531D01*
X158168484Y-121747237D01*
X158289501Y-121944719D01*
X158441147Y-122119784D01*
X158619349Y-122267730D01*
X158623819Y-122270342D01*
X158627511Y-122272500D01*
X158676232Y-122324140D01*
X158689301Y-122393924D01*
X158662566Y-122459694D01*
X158639589Y-122482045D01*
X158491655Y-122593117D01*
X158488083Y-122596855D01*
X158349909Y-122741446D01*
X158331639Y-122760564D01*
X158328725Y-122764836D01*
X158328724Y-122764837D01*
X158313152Y-122787665D01*
X158201119Y-122951899D01*
X158103602Y-123161981D01*
X158041707Y-123385169D01*
X158017095Y-123615469D01*
X158017392Y-123620622D01*
X158017392Y-123620625D01*
X158024423Y-123742568D01*
X158030427Y-123846697D01*
X158031564Y-123851743D01*
X158031565Y-123851749D01*
X158063720Y-123994428D01*
X158081346Y-124072642D01*
X158083288Y-124077424D01*
X158083289Y-124077428D01*
X158166540Y-124282450D01*
X158168484Y-124287237D01*
X158289501Y-124484719D01*
X158441147Y-124659784D01*
X158619349Y-124807730D01*
X158623819Y-124810342D01*
X158627511Y-124812500D01*
X158676232Y-124864140D01*
X158689301Y-124933924D01*
X158662566Y-124999694D01*
X158639589Y-125022045D01*
X158516656Y-125114346D01*
X158491655Y-125133117D01*
X158331639Y-125300564D01*
X158328725Y-125304836D01*
X158328724Y-125304837D01*
X158255348Y-125412402D01*
X158201119Y-125491899D01*
X158103602Y-125701981D01*
X158041707Y-125925169D01*
X158017095Y-126155469D01*
X158017392Y-126160622D01*
X158017392Y-126160625D01*
X158023067Y-126259041D01*
X158030427Y-126386697D01*
X158031564Y-126391743D01*
X158031565Y-126391749D01*
X158063741Y-126534523D01*
X158081346Y-126612642D01*
X158083288Y-126617424D01*
X158083289Y-126617428D01*
X158166540Y-126822450D01*
X158168484Y-126827237D01*
X158289501Y-127024719D01*
X158441147Y-127199784D01*
X158619349Y-127347730D01*
X158623819Y-127350342D01*
X158627511Y-127352500D01*
X158676232Y-127404140D01*
X158689301Y-127473924D01*
X158662566Y-127539694D01*
X158639589Y-127562045D01*
X158491655Y-127673117D01*
X158472506Y-127693155D01*
X158362529Y-127808240D01*
X158331639Y-127840564D01*
X158328725Y-127844836D01*
X158328724Y-127844837D01*
X158313152Y-127867665D01*
X158201119Y-128031899D01*
X158103602Y-128241981D01*
X158041707Y-128465169D01*
X158017095Y-128695469D01*
X158017392Y-128700622D01*
X158017392Y-128700625D01*
X158023067Y-128799041D01*
X158030427Y-128926697D01*
X158031564Y-128931743D01*
X158031565Y-128931749D01*
X158063741Y-129074523D01*
X158081346Y-129152642D01*
X158083288Y-129157424D01*
X158083289Y-129157428D01*
X158166540Y-129362450D01*
X158168484Y-129367237D01*
X158289501Y-129564719D01*
X158441147Y-129739784D01*
X158619349Y-129887730D01*
X158623819Y-129890342D01*
X158627511Y-129892500D01*
X158676232Y-129944140D01*
X158689301Y-130013924D01*
X158662566Y-130079694D01*
X158639589Y-130102045D01*
X158491655Y-130213117D01*
X158331639Y-130380564D01*
X158328725Y-130384836D01*
X158328724Y-130384837D01*
X158313152Y-130407665D01*
X158201119Y-130571899D01*
X158103602Y-130781981D01*
X158041707Y-131005169D01*
X158017095Y-131235469D01*
X158017392Y-131240622D01*
X158017392Y-131240625D01*
X158023067Y-131339041D01*
X158030427Y-131466697D01*
X158031564Y-131471743D01*
X158031565Y-131471749D01*
X158063741Y-131614523D01*
X158081346Y-131692642D01*
X158083288Y-131697424D01*
X158083289Y-131697428D01*
X158166540Y-131902450D01*
X158168484Y-131907237D01*
X158289501Y-132104719D01*
X158441147Y-132279784D01*
X158619349Y-132427730D01*
X158623819Y-132430342D01*
X158627511Y-132432500D01*
X158676232Y-132484140D01*
X158689301Y-132553924D01*
X158662566Y-132619694D01*
X158639589Y-132642045D01*
X158491655Y-132753117D01*
X158331639Y-132920564D01*
X158328725Y-132924836D01*
X158328724Y-132924837D01*
X158313152Y-132947665D01*
X158201119Y-133111899D01*
X158103602Y-133321981D01*
X158041707Y-133545169D01*
X158017095Y-133775469D01*
X137980488Y-133775469D01*
X137972853Y-133682598D01*
X137964773Y-133584318D01*
X137964772Y-133584312D01*
X137964349Y-133579167D01*
X137926053Y-133426705D01*
X137909184Y-133359544D01*
X137909183Y-133359540D01*
X137907925Y-133354533D01*
X137905866Y-133349797D01*
X137817630Y-133146868D01*
X137817628Y-133146865D01*
X137815570Y-133142131D01*
X137689764Y-132947665D01*
X137533887Y-132776358D01*
X137529836Y-132773159D01*
X137529832Y-132773155D01*
X137357077Y-132636722D01*
X137316014Y-132578805D01*
X137312782Y-132507882D01*
X137348407Y-132446470D01*
X137362001Y-132435261D01*
X137365872Y-132432500D01*
X137482243Y-132349494D01*
X137646303Y-132186005D01*
X137781458Y-131997917D01*
X137828641Y-131902450D01*
X137881784Y-131794922D01*
X137881785Y-131794920D01*
X137884078Y-131790280D01*
X137951408Y-131568671D01*
X137981640Y-131339041D01*
X137983327Y-131270000D01*
X137977032Y-131193434D01*
X137964773Y-131044318D01*
X137964772Y-131044312D01*
X137964349Y-131039167D01*
X137921778Y-130869684D01*
X137909184Y-130819544D01*
X137909183Y-130819540D01*
X137907925Y-130814533D01*
X137905866Y-130809797D01*
X137817630Y-130606868D01*
X137817628Y-130606865D01*
X137815570Y-130602131D01*
X137689764Y-130407665D01*
X137533887Y-130236358D01*
X137529836Y-130233159D01*
X137529832Y-130233155D01*
X137357077Y-130096722D01*
X137316014Y-130038805D01*
X137312782Y-129967882D01*
X137348407Y-129906470D01*
X137362001Y-129895261D01*
X137365872Y-129892500D01*
X137482243Y-129809494D01*
X137646303Y-129646005D01*
X137781458Y-129457917D01*
X137828641Y-129362450D01*
X137881784Y-129254922D01*
X137881785Y-129254920D01*
X137884078Y-129250280D01*
X137951408Y-129028671D01*
X137981640Y-128799041D01*
X137983327Y-128730000D01*
X137977032Y-128653434D01*
X137964773Y-128504318D01*
X137964772Y-128504312D01*
X137964349Y-128499167D01*
X137907925Y-128274533D01*
X137905866Y-128269797D01*
X137817630Y-128066868D01*
X137817628Y-128066865D01*
X137815570Y-128062131D01*
X137689764Y-127867665D01*
X137533887Y-127696358D01*
X137529836Y-127693159D01*
X137529832Y-127693155D01*
X137357077Y-127556722D01*
X137316014Y-127498805D01*
X137312782Y-127427882D01*
X137348407Y-127366470D01*
X137362001Y-127355261D01*
X137482243Y-127269494D01*
X137646303Y-127106005D01*
X137781458Y-126917917D01*
X137828641Y-126822450D01*
X137881784Y-126714922D01*
X137881785Y-126714920D01*
X137884078Y-126710280D01*
X137951408Y-126488671D01*
X137981640Y-126259041D01*
X137983327Y-126190000D01*
X137977032Y-126113434D01*
X137964773Y-125964318D01*
X137964772Y-125964312D01*
X137964349Y-125959167D01*
X137936137Y-125846850D01*
X137909184Y-125739544D01*
X137909183Y-125739540D01*
X137907925Y-125734533D01*
X137905866Y-125729797D01*
X137817630Y-125526868D01*
X137817628Y-125526865D01*
X137815570Y-125522131D01*
X137689764Y-125327665D01*
X137533887Y-125156358D01*
X137529836Y-125153159D01*
X137529832Y-125153155D01*
X137357077Y-125016722D01*
X137316014Y-124958805D01*
X137312782Y-124887882D01*
X137348407Y-124826470D01*
X137362001Y-124815261D01*
X137365872Y-124812500D01*
X137482243Y-124729494D01*
X137646303Y-124566005D01*
X137781458Y-124377917D01*
X137828641Y-124282450D01*
X137881784Y-124174922D01*
X137881785Y-124174920D01*
X137884078Y-124170280D01*
X137951408Y-123948671D01*
X137981640Y-123719041D01*
X137982492Y-123684176D01*
X137983245Y-123653365D01*
X137983245Y-123653361D01*
X137983327Y-123650000D01*
X137973747Y-123533474D01*
X137964773Y-123424318D01*
X137964772Y-123424312D01*
X137964349Y-123419167D01*
X137907925Y-123194533D01*
X137905866Y-123189797D01*
X137817630Y-122986868D01*
X137817628Y-122986865D01*
X137815570Y-122982131D01*
X137689764Y-122787665D01*
X137533887Y-122616358D01*
X137529836Y-122613159D01*
X137529832Y-122613155D01*
X137357077Y-122476722D01*
X137316014Y-122418805D01*
X137312782Y-122347882D01*
X137348407Y-122286470D01*
X137362001Y-122275261D01*
X137365872Y-122272500D01*
X137482243Y-122189494D01*
X137646303Y-122026005D01*
X137781458Y-121837917D01*
X137793755Y-121813037D01*
X137881784Y-121634922D01*
X137881785Y-121634920D01*
X137884078Y-121630280D01*
X137951408Y-121408671D01*
X137981640Y-121179041D01*
X137981722Y-121175691D01*
X137983245Y-121113365D01*
X137983245Y-121113361D01*
X137983327Y-121110000D01*
X137974828Y-121006620D01*
X137964773Y-120884318D01*
X137964772Y-120884312D01*
X137964349Y-120879167D01*
X137919318Y-120699889D01*
X137909184Y-120659544D01*
X137909183Y-120659540D01*
X137907925Y-120654533D01*
X137903283Y-120643856D01*
X137817630Y-120446868D01*
X137817628Y-120446865D01*
X137815570Y-120442131D01*
X137689764Y-120247665D01*
X137533887Y-120076358D01*
X137529836Y-120073159D01*
X137529832Y-120073155D01*
X137356177Y-119936011D01*
X137356172Y-119936008D01*
X137352123Y-119932810D01*
X137347607Y-119930317D01*
X137347604Y-119930315D01*
X137153879Y-119823373D01*
X137153875Y-119823371D01*
X137149355Y-119820876D01*
X137144486Y-119819152D01*
X137144482Y-119819150D01*
X136935903Y-119745288D01*
X136935899Y-119745287D01*
X136931028Y-119743562D01*
X136925935Y-119742655D01*
X136925932Y-119742654D01*
X136708095Y-119703851D01*
X136708089Y-119703850D01*
X136703006Y-119702945D01*
X136630096Y-119702054D01*
X136476581Y-119700179D01*
X136476579Y-119700179D01*
X136471411Y-119700116D01*
X136242464Y-119735150D01*
X136022314Y-119807106D01*
X136017726Y-119809494D01*
X136017722Y-119809496D01*
X135991065Y-119823373D01*
X135816872Y-119914052D01*
X135812739Y-119917155D01*
X135812736Y-119917157D01*
X135787625Y-119936011D01*
X135631655Y-120053117D01*
X135471639Y-120220564D01*
X135468725Y-120224836D01*
X135468724Y-120224837D01*
X135453152Y-120247665D01*
X135341119Y-120411899D01*
X135243602Y-120621981D01*
X135181707Y-120845169D01*
X135157095Y-121075469D01*
X135157392Y-121080622D01*
X135157392Y-121080625D01*
X135167716Y-121259680D01*
X135170427Y-121306697D01*
X135171564Y-121311743D01*
X135171565Y-121311749D01*
X135199068Y-121433787D01*
X135221346Y-121532642D01*
X135223288Y-121537424D01*
X135223289Y-121537428D01*
X135278149Y-121672531D01*
X135308484Y-121747237D01*
X135429501Y-121944719D01*
X135581147Y-122119784D01*
X135759349Y-122267730D01*
X135763819Y-122270342D01*
X135767511Y-122272500D01*
X135816232Y-122324140D01*
X135829301Y-122393924D01*
X135802566Y-122459694D01*
X135779589Y-122482045D01*
X135631655Y-122593117D01*
X135628083Y-122596855D01*
X135489909Y-122741446D01*
X135471639Y-122760564D01*
X135468725Y-122764836D01*
X135468724Y-122764837D01*
X135453152Y-122787665D01*
X135341119Y-122951899D01*
X135243602Y-123161981D01*
X135181707Y-123385169D01*
X135157095Y-123615469D01*
X135157392Y-123620622D01*
X135157392Y-123620625D01*
X135164423Y-123742568D01*
X135170427Y-123846697D01*
X135171564Y-123851743D01*
X135171565Y-123851749D01*
X135203720Y-123994428D01*
X135221346Y-124072642D01*
X135223288Y-124077424D01*
X135223289Y-124077428D01*
X135306540Y-124282450D01*
X135308484Y-124287237D01*
X135429501Y-124484719D01*
X135581147Y-124659784D01*
X135759349Y-124807730D01*
X135763819Y-124810342D01*
X135767511Y-124812500D01*
X135816232Y-124864140D01*
X135829301Y-124933924D01*
X135802566Y-124999694D01*
X135779589Y-125022045D01*
X135656656Y-125114346D01*
X135631655Y-125133117D01*
X135471639Y-125300564D01*
X135468725Y-125304836D01*
X135468724Y-125304837D01*
X135395348Y-125412402D01*
X135341119Y-125491899D01*
X135243602Y-125701981D01*
X135181707Y-125925169D01*
X135157095Y-126155469D01*
X135157392Y-126160622D01*
X135157392Y-126160625D01*
X135163067Y-126259041D01*
X135170427Y-126386697D01*
X135171564Y-126391743D01*
X135171565Y-126391749D01*
X135203741Y-126534523D01*
X135221346Y-126612642D01*
X135223288Y-126617424D01*
X135223289Y-126617428D01*
X135306540Y-126822450D01*
X135308484Y-126827237D01*
X135429501Y-127024719D01*
X135581147Y-127199784D01*
X135759349Y-127347730D01*
X135763819Y-127350342D01*
X135767511Y-127352500D01*
X135816232Y-127404140D01*
X135829301Y-127473924D01*
X135802566Y-127539694D01*
X135779589Y-127562045D01*
X135631655Y-127673117D01*
X135612506Y-127693155D01*
X135502529Y-127808240D01*
X135471639Y-127840564D01*
X135468725Y-127844836D01*
X135468724Y-127844837D01*
X135453152Y-127867665D01*
X135341119Y-128031899D01*
X135243602Y-128241981D01*
X135181707Y-128465169D01*
X135157095Y-128695469D01*
X135157392Y-128700622D01*
X135157392Y-128700625D01*
X135163067Y-128799041D01*
X135170427Y-128926697D01*
X135171564Y-128931743D01*
X135171565Y-128931749D01*
X135203741Y-129074523D01*
X135221346Y-129152642D01*
X135223288Y-129157424D01*
X135223289Y-129157428D01*
X135306540Y-129362450D01*
X135308484Y-129367237D01*
X135429501Y-129564719D01*
X135581147Y-129739784D01*
X135759349Y-129887730D01*
X135763819Y-129890342D01*
X135767511Y-129892500D01*
X135816232Y-129944140D01*
X135829301Y-130013924D01*
X135802566Y-130079694D01*
X135779589Y-130102045D01*
X135631655Y-130213117D01*
X135471639Y-130380564D01*
X135468725Y-130384836D01*
X135468724Y-130384837D01*
X135453152Y-130407665D01*
X135341119Y-130571899D01*
X135243602Y-130781981D01*
X135181707Y-131005169D01*
X135157095Y-131235469D01*
X135157392Y-131240622D01*
X135157392Y-131240625D01*
X135163067Y-131339041D01*
X135170427Y-131466697D01*
X135171564Y-131471743D01*
X135171565Y-131471749D01*
X135203741Y-131614523D01*
X135221346Y-131692642D01*
X135223288Y-131697424D01*
X135223289Y-131697428D01*
X135306540Y-131902450D01*
X135308484Y-131907237D01*
X135429501Y-132104719D01*
X135581147Y-132279784D01*
X135759349Y-132427730D01*
X135763819Y-132430342D01*
X135767511Y-132432500D01*
X135816232Y-132484140D01*
X135829301Y-132553924D01*
X135802566Y-132619694D01*
X135779589Y-132642045D01*
X135631655Y-132753117D01*
X135471639Y-132920564D01*
X135468725Y-132924836D01*
X135468724Y-132924837D01*
X135453152Y-132947665D01*
X135341119Y-133111899D01*
X135243602Y-133321981D01*
X135181707Y-133545169D01*
X135157095Y-133775469D01*
X135157392Y-133780622D01*
X135157392Y-133780625D01*
X135163067Y-133879041D01*
X135170427Y-134006697D01*
X135171564Y-134011743D01*
X135171565Y-134011749D01*
X135203741Y-134154523D01*
X135221346Y-134232642D01*
X135223288Y-134237424D01*
X135223289Y-134237428D01*
X135306540Y-134442450D01*
X135308484Y-134447237D01*
X135429501Y-134644719D01*
X135581147Y-134819784D01*
X135759349Y-134967730D01*
X135763819Y-134970342D01*
X135767511Y-134972500D01*
X135816232Y-135024140D01*
X135829301Y-135093924D01*
X135802566Y-135159694D01*
X135779589Y-135182045D01*
X135631655Y-135293117D01*
X135471639Y-135460564D01*
X135468725Y-135464836D01*
X135468724Y-135464837D01*
X135453152Y-135487665D01*
X135341119Y-135651899D01*
X135243602Y-135861981D01*
X135181707Y-136085169D01*
X135157095Y-136315469D01*
X135157392Y-136320622D01*
X135157392Y-136320625D01*
X135170129Y-136541529D01*
X135170427Y-136546697D01*
X135171564Y-136551743D01*
X135171565Y-136551749D01*
X135203741Y-136694523D01*
X135221346Y-136772642D01*
X135223288Y-136777424D01*
X135223289Y-136777428D01*
X135302918Y-136973530D01*
X135308484Y-136987237D01*
X135429501Y-137184719D01*
X135581147Y-137359784D01*
X135759349Y-137507730D01*
X135763819Y-137510342D01*
X135767511Y-137512500D01*
X135816232Y-137564140D01*
X135829301Y-137633924D01*
X135802566Y-137699694D01*
X135779589Y-137722045D01*
X135760041Y-137736722D01*
X135702258Y-137780107D01*
X135631655Y-137833117D01*
X135471639Y-138000564D01*
X135468725Y-138004836D01*
X135468724Y-138004837D01*
X135453279Y-138027479D01*
X135341119Y-138191899D01*
X135243602Y-138401981D01*
X135181707Y-138625169D01*
X135157095Y-138855469D01*
X134508500Y-138855469D01*
X134508500Y-109500000D01*
X135486835Y-109500000D01*
X135505465Y-109736711D01*
X135506619Y-109741518D01*
X135506620Y-109741524D01*
X135541640Y-109887391D01*
X135560895Y-109967594D01*
X135651760Y-110186963D01*
X135654346Y-110191183D01*
X135773241Y-110385202D01*
X135773245Y-110385208D01*
X135775824Y-110389416D01*
X135930031Y-110569969D01*
X136110584Y-110724176D01*
X136114792Y-110726755D01*
X136114798Y-110726759D01*
X136308817Y-110845654D01*
X136313037Y-110848240D01*
X136317607Y-110850133D01*
X136317611Y-110850135D01*
X136527833Y-110937211D01*
X136532406Y-110939105D01*
X136612609Y-110958360D01*
X136758476Y-110993380D01*
X136758482Y-110993381D01*
X136763289Y-110994535D01*
X137000000Y-111013165D01*
X137236711Y-110994535D01*
X137241518Y-110993381D01*
X137241524Y-110993380D01*
X137387391Y-110958360D01*
X137467594Y-110939105D01*
X137472167Y-110937211D01*
X137682389Y-110850135D01*
X137682393Y-110850133D01*
X137686963Y-110848240D01*
X137691183Y-110845654D01*
X137885202Y-110726759D01*
X137885208Y-110726755D01*
X137889416Y-110724176D01*
X138069969Y-110569969D01*
X138224176Y-110389416D01*
X138226755Y-110385208D01*
X138226759Y-110385202D01*
X138345654Y-110191183D01*
X138348240Y-110186963D01*
X138439105Y-109967594D01*
X138458360Y-109887391D01*
X138493380Y-109741524D01*
X138493381Y-109741518D01*
X138494535Y-109736711D01*
X138513165Y-109500000D01*
X138494535Y-109263289D01*
X138485455Y-109225465D01*
X138440260Y-109037218D01*
X138439105Y-109032406D01*
X138348240Y-108813037D01*
X138331802Y-108786213D01*
X138226759Y-108614798D01*
X138226755Y-108614792D01*
X138224176Y-108610584D01*
X138069969Y-108430031D01*
X137889416Y-108275824D01*
X137885208Y-108273245D01*
X137885202Y-108273241D01*
X137691183Y-108154346D01*
X137686963Y-108151760D01*
X137682393Y-108149867D01*
X137682389Y-108149865D01*
X137472167Y-108062789D01*
X137472165Y-108062788D01*
X137467594Y-108060895D01*
X137387391Y-108041640D01*
X137241524Y-108006620D01*
X137241518Y-108006619D01*
X137236711Y-108005465D01*
X137000000Y-107986835D01*
X136763289Y-108005465D01*
X136758482Y-108006619D01*
X136758476Y-108006620D01*
X136612609Y-108041640D01*
X136532406Y-108060895D01*
X136527835Y-108062788D01*
X136527833Y-108062789D01*
X136317611Y-108149865D01*
X136317607Y-108149867D01*
X136313037Y-108151760D01*
X136308817Y-108154346D01*
X136114798Y-108273241D01*
X136114792Y-108273245D01*
X136110584Y-108275824D01*
X135930031Y-108430031D01*
X135775824Y-108610584D01*
X135773245Y-108614792D01*
X135773241Y-108614798D01*
X135668198Y-108786213D01*
X135651760Y-108813037D01*
X135560895Y-109032406D01*
X135559740Y-109037218D01*
X135514546Y-109225465D01*
X135505465Y-109263289D01*
X135486835Y-109500000D01*
X134508500Y-109500000D01*
X134508500Y-102500000D01*
X135486835Y-102500000D01*
X135505465Y-102736711D01*
X135560895Y-102967594D01*
X135562788Y-102972165D01*
X135562789Y-102972167D01*
X135635679Y-103148139D01*
X135651760Y-103186963D01*
X135654346Y-103191183D01*
X135773241Y-103385202D01*
X135773245Y-103385208D01*
X135775824Y-103389416D01*
X135930031Y-103569969D01*
X136110584Y-103724176D01*
X136114792Y-103726755D01*
X136114798Y-103726759D01*
X136278091Y-103826825D01*
X136313037Y-103848240D01*
X136317607Y-103850133D01*
X136317611Y-103850135D01*
X136527833Y-103937211D01*
X136532406Y-103939105D01*
X136612609Y-103958360D01*
X136758476Y-103993380D01*
X136758482Y-103993381D01*
X136763289Y-103994535D01*
X137000000Y-104013165D01*
X137236711Y-103994535D01*
X137241518Y-103993381D01*
X137241524Y-103993380D01*
X137459951Y-103940940D01*
X137530859Y-103944487D01*
X137578460Y-103974364D01*
X145756343Y-112152247D01*
X145763887Y-112160537D01*
X145768000Y-112167018D01*
X145773777Y-112172443D01*
X145817667Y-112213658D01*
X145820509Y-112216413D01*
X145840231Y-112236135D01*
X145843355Y-112238558D01*
X145843359Y-112238562D01*
X145843424Y-112238612D01*
X145852445Y-112246317D01*
X145884679Y-112276586D01*
X145891627Y-112280405D01*
X145891629Y-112280407D01*
X145902432Y-112286346D01*
X145918959Y-112297202D01*
X145928698Y-112304757D01*
X145928700Y-112304758D01*
X145934960Y-112309614D01*
X145975540Y-112327174D01*
X145986188Y-112332391D01*
X146024940Y-112353695D01*
X146032616Y-112355666D01*
X146032619Y-112355667D01*
X146044562Y-112358733D01*
X146063267Y-112365137D01*
X146081855Y-112373181D01*
X146089678Y-112374420D01*
X146089688Y-112374423D01*
X146125524Y-112380099D01*
X146137144Y-112382505D01*
X146172289Y-112391528D01*
X146179970Y-112393500D01*
X146200224Y-112393500D01*
X146219934Y-112395051D01*
X146239943Y-112398220D01*
X146247835Y-112397474D01*
X146283961Y-112394059D01*
X146295819Y-112393500D01*
X162245406Y-112393500D01*
X162313527Y-112413502D01*
X162334501Y-112430405D01*
X164429595Y-114525499D01*
X164463621Y-114587811D01*
X164466500Y-114614594D01*
X164466500Y-120521233D01*
X164465973Y-120532416D01*
X164464298Y-120539909D01*
X164464547Y-120547835D01*
X164464547Y-120547836D01*
X164466438Y-120607986D01*
X164466500Y-120611945D01*
X164466500Y-120639856D01*
X164466997Y-120643790D01*
X164466997Y-120643791D01*
X164467005Y-120643856D01*
X164467938Y-120655693D01*
X164469327Y-120699889D01*
X164474978Y-120719339D01*
X164478987Y-120738700D01*
X164481526Y-120758797D01*
X164484445Y-120766168D01*
X164484445Y-120766170D01*
X164497804Y-120799912D01*
X164501649Y-120811142D01*
X164513982Y-120853593D01*
X164518016Y-120860414D01*
X164520529Y-120866221D01*
X164529226Y-120936683D01*
X164498447Y-121000661D01*
X164437966Y-121037843D01*
X164375478Y-121038780D01*
X164241524Y-121006620D01*
X164241518Y-121006619D01*
X164236711Y-121005465D01*
X164000000Y-120986835D01*
X163763289Y-121005465D01*
X163758482Y-121006619D01*
X163758476Y-121006620D01*
X163624522Y-121038780D01*
X163532406Y-121060895D01*
X163527835Y-121062788D01*
X163527833Y-121062789D01*
X163317611Y-121149865D01*
X163317607Y-121149867D01*
X163313037Y-121151760D01*
X163308817Y-121154346D01*
X163114798Y-121273241D01*
X163114792Y-121273245D01*
X163110584Y-121275824D01*
X162930031Y-121430031D01*
X162775824Y-121610584D01*
X162773245Y-121614792D01*
X162773241Y-121614798D01*
X162678858Y-121768817D01*
X162651760Y-121813037D01*
X162649867Y-121817607D01*
X162649865Y-121817611D01*
X162577463Y-121992406D01*
X162560895Y-122032406D01*
X162559740Y-122037218D01*
X162513884Y-122228223D01*
X162505465Y-122263289D01*
X162486835Y-122500000D01*
X162505465Y-122736711D01*
X162506619Y-122741518D01*
X162506620Y-122741524D01*
X162512217Y-122764837D01*
X162560895Y-122967594D01*
X162562788Y-122972165D01*
X162562789Y-122972167D01*
X162649772Y-123182163D01*
X162651760Y-123186963D01*
X162654346Y-123191183D01*
X162773241Y-123385202D01*
X162773245Y-123385208D01*
X162775824Y-123389416D01*
X162930031Y-123569969D01*
X163110584Y-123724176D01*
X163114792Y-123726755D01*
X163114798Y-123726759D01*
X163302086Y-123841529D01*
X163313037Y-123848240D01*
X163317607Y-123850133D01*
X163317611Y-123850135D01*
X163527833Y-123937211D01*
X163532406Y-123939105D01*
X163591866Y-123953380D01*
X163758476Y-123993380D01*
X163758482Y-123993381D01*
X163763289Y-123994535D01*
X164000000Y-124013165D01*
X164236711Y-123994535D01*
X164241518Y-123993381D01*
X164241524Y-123993380D01*
X164408134Y-123953380D01*
X164467594Y-123939105D01*
X164472167Y-123937211D01*
X164682389Y-123850135D01*
X164682393Y-123850133D01*
X164686963Y-123848240D01*
X164697914Y-123841529D01*
X164885202Y-123726759D01*
X164885208Y-123726755D01*
X164889416Y-123724176D01*
X165069969Y-123569969D01*
X165224176Y-123389416D01*
X165226755Y-123385208D01*
X165226759Y-123385202D01*
X165345654Y-123191183D01*
X165348240Y-123186963D01*
X165350229Y-123182163D01*
X165383591Y-123101618D01*
X165428139Y-123046337D01*
X165495503Y-123023916D01*
X165564294Y-123041474D01*
X165612672Y-123093436D01*
X165616409Y-123101618D01*
X165649772Y-123182163D01*
X165651760Y-123186963D01*
X165654346Y-123191183D01*
X165773241Y-123385202D01*
X165773245Y-123385208D01*
X165775824Y-123389416D01*
X165930031Y-123569969D01*
X166110584Y-123724176D01*
X166114792Y-123726755D01*
X166114798Y-123726759D01*
X166302086Y-123841529D01*
X166313037Y-123848240D01*
X166317607Y-123850133D01*
X166317611Y-123850135D01*
X166527833Y-123937211D01*
X166532406Y-123939105D01*
X166591866Y-123953380D01*
X166758476Y-123993380D01*
X166758482Y-123993381D01*
X166763289Y-123994535D01*
X167000000Y-124013165D01*
X167236711Y-123994535D01*
X167241518Y-123993381D01*
X167241524Y-123993380D01*
X167408134Y-123953380D01*
X167467594Y-123939105D01*
X167472167Y-123937211D01*
X167682389Y-123850135D01*
X167682393Y-123850133D01*
X167686963Y-123848240D01*
X167697914Y-123841529D01*
X167885202Y-123726759D01*
X167885208Y-123726755D01*
X167889416Y-123724176D01*
X168069969Y-123569969D01*
X168224176Y-123389416D01*
X168226755Y-123385208D01*
X168226759Y-123385202D01*
X168345654Y-123191183D01*
X168348240Y-123186963D01*
X168350229Y-123182163D01*
X168437211Y-122972167D01*
X168437212Y-122972165D01*
X168439105Y-122967594D01*
X168487783Y-122764837D01*
X168493380Y-122741524D01*
X168493381Y-122741518D01*
X168494535Y-122736711D01*
X168513165Y-122500000D01*
X173486835Y-122500000D01*
X173505465Y-122736711D01*
X173506619Y-122741518D01*
X173506620Y-122741524D01*
X173512217Y-122764837D01*
X173560895Y-122967594D01*
X173562788Y-122972165D01*
X173562789Y-122972167D01*
X173649772Y-123182163D01*
X173651760Y-123186963D01*
X173654346Y-123191183D01*
X173773241Y-123385202D01*
X173773245Y-123385208D01*
X173775824Y-123389416D01*
X173930031Y-123569969D01*
X174110584Y-123724176D01*
X174114792Y-123726755D01*
X174114798Y-123726759D01*
X174302086Y-123841529D01*
X174313037Y-123848240D01*
X174317607Y-123850133D01*
X174317611Y-123850135D01*
X174527833Y-123937211D01*
X174532406Y-123939105D01*
X174591866Y-123953380D01*
X174758476Y-123993380D01*
X174758482Y-123993381D01*
X174763289Y-123994535D01*
X175000000Y-124013165D01*
X175236711Y-123994535D01*
X175241518Y-123993381D01*
X175241524Y-123993380D01*
X175408134Y-123953380D01*
X175467594Y-123939105D01*
X175472167Y-123937211D01*
X175682389Y-123850135D01*
X175682393Y-123850133D01*
X175686963Y-123848240D01*
X175697914Y-123841529D01*
X175875556Y-123732670D01*
X177132160Y-123732670D01*
X177137887Y-123740320D01*
X177309042Y-123845205D01*
X177317837Y-123849687D01*
X177527988Y-123936734D01*
X177537373Y-123939783D01*
X177758554Y-123992885D01*
X177768301Y-123994428D01*
X177995070Y-124012275D01*
X178004930Y-124012275D01*
X178231699Y-123994428D01*
X178241446Y-123992885D01*
X178462627Y-123939783D01*
X178472012Y-123936734D01*
X178682163Y-123849687D01*
X178690958Y-123845205D01*
X178858445Y-123742568D01*
X178867907Y-123732110D01*
X178864124Y-123723334D01*
X178012812Y-122872022D01*
X177998868Y-122864408D01*
X177997035Y-122864539D01*
X177990420Y-122868790D01*
X177138920Y-123720290D01*
X177132160Y-123732670D01*
X175875556Y-123732670D01*
X175885202Y-123726759D01*
X175885208Y-123726755D01*
X175889416Y-123724176D01*
X176069969Y-123569969D01*
X176224176Y-123389416D01*
X176226755Y-123385208D01*
X176226759Y-123385202D01*
X176345654Y-123191183D01*
X176348240Y-123186963D01*
X176350229Y-123182163D01*
X176383862Y-123100964D01*
X176428410Y-123045683D01*
X176495774Y-123023262D01*
X176564565Y-123040820D01*
X176612943Y-123092782D01*
X176616680Y-123100964D01*
X176650313Y-123182163D01*
X176654795Y-123190958D01*
X176757432Y-123358445D01*
X176767890Y-123367907D01*
X176776666Y-123364124D01*
X177627978Y-122512812D01*
X177634356Y-122501132D01*
X178364408Y-122501132D01*
X178364539Y-122502965D01*
X178368790Y-122509580D01*
X179220290Y-123361080D01*
X179232670Y-123367840D01*
X179240320Y-123362113D01*
X179345205Y-123190958D01*
X179349687Y-123182163D01*
X179436734Y-122972012D01*
X179439783Y-122962627D01*
X179492885Y-122741446D01*
X179494428Y-122731699D01*
X179512275Y-122504930D01*
X179512275Y-122495070D01*
X179509515Y-122460000D01*
X181366835Y-122460000D01*
X181385465Y-122696711D01*
X181386619Y-122701518D01*
X181386620Y-122701524D01*
X181406382Y-122783838D01*
X181440895Y-122927594D01*
X181442788Y-122932165D01*
X181442789Y-122932167D01*
X181512978Y-123101618D01*
X181531760Y-123146963D01*
X181534346Y-123151183D01*
X181653241Y-123345202D01*
X181653245Y-123345208D01*
X181655824Y-123349416D01*
X181810031Y-123529969D01*
X181990584Y-123684176D01*
X181994792Y-123686755D01*
X181994798Y-123686759D01*
X182188817Y-123805654D01*
X182193037Y-123808240D01*
X182197607Y-123810133D01*
X182197611Y-123810135D01*
X182407833Y-123897211D01*
X182412406Y-123899105D01*
X182492609Y-123918360D01*
X182638476Y-123953380D01*
X182638482Y-123953381D01*
X182643289Y-123954535D01*
X182880000Y-123973165D01*
X183116711Y-123954535D01*
X183121518Y-123953381D01*
X183121524Y-123953380D01*
X183267391Y-123918360D01*
X183347594Y-123899105D01*
X183352167Y-123897211D01*
X183562389Y-123810135D01*
X183562393Y-123810133D01*
X183566963Y-123808240D01*
X183571183Y-123805654D01*
X183765202Y-123686759D01*
X183765208Y-123686755D01*
X183769416Y-123684176D01*
X183949969Y-123529969D01*
X184104176Y-123349416D01*
X184106755Y-123345208D01*
X184106759Y-123345202D01*
X184225654Y-123151183D01*
X184228240Y-123146963D01*
X184247023Y-123101618D01*
X184317211Y-122932167D01*
X184317212Y-122932165D01*
X184319105Y-122927594D01*
X184353618Y-122783838D01*
X184373380Y-122701524D01*
X184373381Y-122701518D01*
X184374535Y-122696711D01*
X184393165Y-122460000D01*
X184374535Y-122223289D01*
X184367142Y-122192492D01*
X184338360Y-122072609D01*
X184319105Y-121992406D01*
X184312615Y-121976738D01*
X184289114Y-121920000D01*
X188224076Y-121920000D01*
X188243941Y-122172403D01*
X188245095Y-122177210D01*
X188245096Y-122177216D01*
X188282431Y-122332727D01*
X188303045Y-122418591D01*
X188304938Y-122423162D01*
X188304939Y-122423164D01*
X188384963Y-122616358D01*
X188399934Y-122652502D01*
X188532222Y-122868376D01*
X188696652Y-123060898D01*
X188889174Y-123225328D01*
X189105048Y-123357616D01*
X189109618Y-123359509D01*
X189109622Y-123359511D01*
X189334386Y-123452611D01*
X189338959Y-123454505D01*
X189423582Y-123474821D01*
X189580334Y-123512454D01*
X189580340Y-123512455D01*
X189585147Y-123513609D01*
X189837550Y-123533474D01*
X190089953Y-123513609D01*
X190094760Y-123512455D01*
X190094766Y-123512454D01*
X190251518Y-123474821D01*
X190336141Y-123454505D01*
X190340714Y-123452611D01*
X190565478Y-123359511D01*
X190565482Y-123359509D01*
X190570052Y-123357616D01*
X190785926Y-123225328D01*
X190978448Y-123060898D01*
X191142878Y-122868376D01*
X191275166Y-122652502D01*
X191290138Y-122616358D01*
X191370161Y-122423164D01*
X191370162Y-122423162D01*
X191372055Y-122418591D01*
X191392669Y-122332727D01*
X191430004Y-122177216D01*
X191430005Y-122177210D01*
X191431159Y-122172403D01*
X191451024Y-121920000D01*
X191431159Y-121667597D01*
X191424275Y-121638920D01*
X191392371Y-121506032D01*
X191372055Y-121421409D01*
X191370161Y-121416836D01*
X191277061Y-121192072D01*
X191277059Y-121192068D01*
X191275166Y-121187498D01*
X191142878Y-120971624D01*
X190998590Y-120802685D01*
X190981656Y-120782858D01*
X190978448Y-120779102D01*
X190785926Y-120614672D01*
X190570052Y-120482384D01*
X190565482Y-120480491D01*
X190565478Y-120480489D01*
X190340714Y-120387389D01*
X190340712Y-120387388D01*
X190336141Y-120385495D01*
X190251518Y-120365179D01*
X190094766Y-120327546D01*
X190094760Y-120327545D01*
X190089953Y-120326391D01*
X189837550Y-120306526D01*
X189585147Y-120326391D01*
X189580340Y-120327545D01*
X189580334Y-120327546D01*
X189423582Y-120365179D01*
X189338959Y-120385495D01*
X189334388Y-120387388D01*
X189334386Y-120387389D01*
X189109622Y-120480489D01*
X189109618Y-120480491D01*
X189105048Y-120482384D01*
X188889174Y-120614672D01*
X188696652Y-120779102D01*
X188693444Y-120782858D01*
X188676510Y-120802685D01*
X188532222Y-120971624D01*
X188399934Y-121187498D01*
X188398041Y-121192068D01*
X188398039Y-121192072D01*
X188304939Y-121416836D01*
X188303045Y-121421409D01*
X188282729Y-121506032D01*
X188250826Y-121638920D01*
X188243941Y-121667597D01*
X188224076Y-121920000D01*
X184289114Y-121920000D01*
X184230135Y-121777611D01*
X184230133Y-121777607D01*
X184228240Y-121773037D01*
X184225654Y-121768817D01*
X184106759Y-121574798D01*
X184106755Y-121574792D01*
X184104176Y-121570584D01*
X183949969Y-121390031D01*
X183769416Y-121235824D01*
X183765208Y-121233245D01*
X183765202Y-121233241D01*
X183571183Y-121114346D01*
X183566963Y-121111760D01*
X183562393Y-121109867D01*
X183562389Y-121109865D01*
X183352167Y-121022789D01*
X183352165Y-121022788D01*
X183347594Y-121020895D01*
X183263313Y-121000661D01*
X183121524Y-120966620D01*
X183121518Y-120966619D01*
X183116711Y-120965465D01*
X182880000Y-120946835D01*
X182643289Y-120965465D01*
X182638482Y-120966619D01*
X182638476Y-120966620D01*
X182496687Y-121000661D01*
X182412406Y-121020895D01*
X182407835Y-121022788D01*
X182407833Y-121022789D01*
X182197611Y-121109865D01*
X182197607Y-121109867D01*
X182193037Y-121111760D01*
X182188817Y-121114346D01*
X181994798Y-121233241D01*
X181994792Y-121233245D01*
X181990584Y-121235824D01*
X181810031Y-121390031D01*
X181655824Y-121570584D01*
X181653245Y-121574792D01*
X181653241Y-121574798D01*
X181534346Y-121768817D01*
X181531760Y-121773037D01*
X181529867Y-121777607D01*
X181529865Y-121777611D01*
X181447385Y-121976738D01*
X181440895Y-121992406D01*
X181421640Y-122072609D01*
X181392859Y-122192492D01*
X181385465Y-122223289D01*
X181366835Y-122460000D01*
X179509515Y-122460000D01*
X179494428Y-122268301D01*
X179492885Y-122258554D01*
X179439783Y-122037373D01*
X179436734Y-122027988D01*
X179349687Y-121817837D01*
X179345205Y-121809042D01*
X179242568Y-121641555D01*
X179232110Y-121632093D01*
X179223334Y-121635876D01*
X178372022Y-122487188D01*
X178364408Y-122501132D01*
X177634356Y-122501132D01*
X177635592Y-122498868D01*
X177635461Y-122497035D01*
X177631210Y-122490420D01*
X176779710Y-121638920D01*
X176767330Y-121632160D01*
X176759680Y-121637887D01*
X176654795Y-121809042D01*
X176650313Y-121817837D01*
X176616680Y-121899036D01*
X176572132Y-121954317D01*
X176504769Y-121976738D01*
X176435978Y-121959180D01*
X176387599Y-121907218D01*
X176383862Y-121899036D01*
X176350135Y-121817611D01*
X176350133Y-121817607D01*
X176348240Y-121813037D01*
X176321142Y-121768817D01*
X176226759Y-121614798D01*
X176226755Y-121614792D01*
X176224176Y-121610584D01*
X176069969Y-121430031D01*
X175889416Y-121275824D01*
X175885208Y-121273245D01*
X175885202Y-121273241D01*
X175876470Y-121267890D01*
X177132093Y-121267890D01*
X177135876Y-121276666D01*
X177987188Y-122127978D01*
X178001132Y-122135592D01*
X178002965Y-122135461D01*
X178009580Y-122131210D01*
X178861080Y-121279710D01*
X178867840Y-121267330D01*
X178862113Y-121259680D01*
X178690958Y-121154795D01*
X178682163Y-121150313D01*
X178472012Y-121063266D01*
X178462627Y-121060217D01*
X178241446Y-121007115D01*
X178231699Y-121005572D01*
X178004930Y-120987725D01*
X177995070Y-120987725D01*
X177768301Y-121005572D01*
X177758554Y-121007115D01*
X177537373Y-121060217D01*
X177527988Y-121063266D01*
X177317837Y-121150313D01*
X177309042Y-121154795D01*
X177141555Y-121257432D01*
X177132093Y-121267890D01*
X175876470Y-121267890D01*
X175691183Y-121154346D01*
X175686963Y-121151760D01*
X175682393Y-121149867D01*
X175682389Y-121149865D01*
X175472167Y-121062789D01*
X175472165Y-121062788D01*
X175467594Y-121060895D01*
X175375478Y-121038780D01*
X175241524Y-121006620D01*
X175241518Y-121006619D01*
X175236711Y-121005465D01*
X175000000Y-120986835D01*
X174763289Y-121005465D01*
X174758482Y-121006619D01*
X174758476Y-121006620D01*
X174624522Y-121038780D01*
X174532406Y-121060895D01*
X174527835Y-121062788D01*
X174527833Y-121062789D01*
X174317611Y-121149865D01*
X174317607Y-121149867D01*
X174313037Y-121151760D01*
X174308817Y-121154346D01*
X174114798Y-121273241D01*
X174114792Y-121273245D01*
X174110584Y-121275824D01*
X173930031Y-121430031D01*
X173775824Y-121610584D01*
X173773245Y-121614792D01*
X173773241Y-121614798D01*
X173678858Y-121768817D01*
X173651760Y-121813037D01*
X173649867Y-121817607D01*
X173649865Y-121817611D01*
X173577463Y-121992406D01*
X173560895Y-122032406D01*
X173559740Y-122037218D01*
X173513884Y-122228223D01*
X173505465Y-122263289D01*
X173486835Y-122500000D01*
X168513165Y-122500000D01*
X168494535Y-122263289D01*
X168486117Y-122228223D01*
X168440260Y-122037218D01*
X168439105Y-122032406D01*
X168422537Y-121992406D01*
X168350135Y-121817611D01*
X168350133Y-121817607D01*
X168348240Y-121813037D01*
X168321142Y-121768817D01*
X168226759Y-121614798D01*
X168226755Y-121614792D01*
X168224176Y-121610584D01*
X168069969Y-121430031D01*
X167889416Y-121275824D01*
X167885208Y-121273245D01*
X167885202Y-121273241D01*
X167691183Y-121154346D01*
X167686963Y-121151760D01*
X167682393Y-121149867D01*
X167682389Y-121149865D01*
X167472167Y-121062789D01*
X167472165Y-121062788D01*
X167467594Y-121060895D01*
X167375478Y-121038780D01*
X167241524Y-121006620D01*
X167241518Y-121006619D01*
X167236711Y-121005465D01*
X167000000Y-120986835D01*
X166763289Y-121005465D01*
X166758482Y-121006619D01*
X166758476Y-121006620D01*
X166592896Y-121046373D01*
X166540049Y-121059060D01*
X166469142Y-121055513D01*
X166421540Y-121025636D01*
X166103402Y-120707497D01*
X165770404Y-120374499D01*
X165736379Y-120312187D01*
X165733500Y-120285404D01*
X165733500Y-115402378D01*
X166307739Y-115402378D01*
X166320967Y-115631800D01*
X166322102Y-115636837D01*
X166322103Y-115636843D01*
X166366714Y-115834798D01*
X166371488Y-115855981D01*
X166457946Y-116068900D01*
X166578018Y-116264839D01*
X166728479Y-116438537D01*
X166732454Y-116441837D01*
X166732457Y-116441840D01*
X166782383Y-116483289D01*
X166905289Y-116585328D01*
X167103700Y-116701270D01*
X167108520Y-116703110D01*
X167108525Y-116703113D01*
X167213683Y-116743268D01*
X167318384Y-116783249D01*
X167323452Y-116784280D01*
X167323455Y-116784281D01*
X167434144Y-116806801D01*
X167543573Y-116829065D01*
X167548746Y-116829255D01*
X167548749Y-116829255D01*
X167768058Y-116837296D01*
X167768062Y-116837296D01*
X167773222Y-116837485D01*
X167778342Y-116836829D01*
X167778344Y-116836829D01*
X167996035Y-116808943D01*
X167996038Y-116808942D01*
X168001162Y-116808286D01*
X168007749Y-116806310D01*
X168216320Y-116743735D01*
X168221273Y-116742249D01*
X168427643Y-116641150D01*
X168432455Y-116637718D01*
X168610526Y-116510701D01*
X168614729Y-116507703D01*
X168639229Y-116483289D01*
X168773847Y-116349139D01*
X168777508Y-116345491D01*
X168780524Y-116341294D01*
X168780531Y-116341286D01*
X168877299Y-116206619D01*
X168933293Y-116162971D01*
X169003997Y-116156525D01*
X169066961Y-116189328D01*
X169087054Y-116214311D01*
X169115317Y-116260433D01*
X169115321Y-116260438D01*
X169118018Y-116264839D01*
X169268479Y-116438537D01*
X169272454Y-116441837D01*
X169272457Y-116441840D01*
X169322383Y-116483289D01*
X169445289Y-116585328D01*
X169643700Y-116701270D01*
X169648520Y-116703110D01*
X169648525Y-116703113D01*
X169753683Y-116743268D01*
X169858384Y-116783249D01*
X169863452Y-116784280D01*
X169863455Y-116784281D01*
X169974144Y-116806801D01*
X170083573Y-116829065D01*
X170088746Y-116829255D01*
X170088749Y-116829255D01*
X170308058Y-116837296D01*
X170308062Y-116837296D01*
X170313222Y-116837485D01*
X170318342Y-116836829D01*
X170318344Y-116836829D01*
X170536035Y-116808943D01*
X170536038Y-116808942D01*
X170541162Y-116808286D01*
X170547749Y-116806310D01*
X170756320Y-116743735D01*
X170761273Y-116742249D01*
X170967643Y-116641150D01*
X170972455Y-116637718D01*
X171039347Y-116590004D01*
X172001074Y-116590004D01*
X172006355Y-116597059D01*
X172179456Y-116698210D01*
X172188742Y-116702660D01*
X172393693Y-116780922D01*
X172403591Y-116783798D01*
X172618572Y-116827536D01*
X172628800Y-116828755D01*
X172848035Y-116836795D01*
X172858321Y-116836328D01*
X173075930Y-116808452D01*
X173086008Y-116806310D01*
X173296137Y-116743268D01*
X173305735Y-116739507D01*
X173502748Y-116642991D01*
X173511593Y-116637718D01*
X173566819Y-116598325D01*
X173575219Y-116587626D01*
X173568232Y-116574472D01*
X172802421Y-115808660D01*
X172788478Y-115801047D01*
X172786644Y-115801178D01*
X172780030Y-115805429D01*
X172007831Y-116577629D01*
X172001074Y-116590004D01*
X171039347Y-116590004D01*
X171150526Y-116510701D01*
X171154729Y-116507703D01*
X171179229Y-116483289D01*
X171313847Y-116349139D01*
X171317508Y-116345491D01*
X171407613Y-116220097D01*
X171417615Y-116206177D01*
X171473610Y-116162529D01*
X171544313Y-116156083D01*
X171607278Y-116188886D01*
X171627371Y-116213868D01*
X171627710Y-116214421D01*
X171638165Y-116223880D01*
X171646941Y-116220097D01*
X172417589Y-115449450D01*
X172423966Y-115437771D01*
X173154018Y-115437771D01*
X173154149Y-115439605D01*
X173158400Y-115446219D01*
X173928035Y-116215853D01*
X173940041Y-116222409D01*
X173951779Y-116213442D01*
X173957013Y-116206157D01*
X174013007Y-116162509D01*
X174083711Y-116156062D01*
X174146676Y-116188864D01*
X174166770Y-116213847D01*
X174198018Y-116264839D01*
X174348479Y-116438537D01*
X174352454Y-116441837D01*
X174352457Y-116441840D01*
X174402383Y-116483289D01*
X174525289Y-116585328D01*
X174723700Y-116701270D01*
X174728520Y-116703110D01*
X174728525Y-116703113D01*
X174833683Y-116743268D01*
X174938384Y-116783249D01*
X174943452Y-116784280D01*
X174943455Y-116784281D01*
X175054144Y-116806801D01*
X175163573Y-116829065D01*
X175168746Y-116829255D01*
X175168749Y-116829255D01*
X175388058Y-116837296D01*
X175388062Y-116837296D01*
X175393222Y-116837485D01*
X175398342Y-116836829D01*
X175398344Y-116836829D01*
X175616035Y-116808943D01*
X175616038Y-116808942D01*
X175621162Y-116808286D01*
X175627749Y-116806310D01*
X175836320Y-116743735D01*
X175841273Y-116742249D01*
X176047643Y-116641150D01*
X176052455Y-116637718D01*
X176230526Y-116510701D01*
X176234729Y-116507703D01*
X176259229Y-116483289D01*
X176393847Y-116349139D01*
X176397508Y-116345491D01*
X176400524Y-116341294D01*
X176400531Y-116341286D01*
X176497299Y-116206619D01*
X176553293Y-116162971D01*
X176623997Y-116156525D01*
X176686961Y-116189328D01*
X176707054Y-116214311D01*
X176735317Y-116260433D01*
X176735321Y-116260438D01*
X176738018Y-116264839D01*
X176888479Y-116438537D01*
X176892454Y-116441837D01*
X176892457Y-116441840D01*
X176942383Y-116483289D01*
X177065289Y-116585328D01*
X177263700Y-116701270D01*
X177268520Y-116703110D01*
X177268525Y-116703113D01*
X177373683Y-116743268D01*
X177478384Y-116783249D01*
X177483452Y-116784280D01*
X177483455Y-116784281D01*
X177594144Y-116806801D01*
X177703573Y-116829065D01*
X177708746Y-116829255D01*
X177708749Y-116829255D01*
X177928058Y-116837296D01*
X177928062Y-116837296D01*
X177933222Y-116837485D01*
X177938342Y-116836829D01*
X177938344Y-116836829D01*
X178156035Y-116808943D01*
X178156038Y-116808942D01*
X178161162Y-116808286D01*
X178167749Y-116806310D01*
X178376320Y-116743735D01*
X178381273Y-116742249D01*
X178587643Y-116641150D01*
X178592455Y-116637718D01*
X178770526Y-116510701D01*
X178774729Y-116507703D01*
X178799229Y-116483289D01*
X178933847Y-116349139D01*
X178937508Y-116345491D01*
X178940524Y-116341294D01*
X178940531Y-116341286D01*
X179037299Y-116206619D01*
X179093293Y-116162971D01*
X179163997Y-116156525D01*
X179226961Y-116189328D01*
X179247054Y-116214311D01*
X179275317Y-116260433D01*
X179275321Y-116260438D01*
X179278018Y-116264839D01*
X179428479Y-116438537D01*
X179432454Y-116441837D01*
X179432457Y-116441840D01*
X179482383Y-116483289D01*
X179605289Y-116585328D01*
X179803700Y-116701270D01*
X179808520Y-116703110D01*
X179808525Y-116703113D01*
X179913683Y-116743268D01*
X180018384Y-116783249D01*
X180023452Y-116784280D01*
X180023455Y-116784281D01*
X180134144Y-116806801D01*
X180243573Y-116829065D01*
X180248746Y-116829255D01*
X180248749Y-116829255D01*
X180468058Y-116837296D01*
X180468062Y-116837296D01*
X180473222Y-116837485D01*
X180478342Y-116836829D01*
X180478344Y-116836829D01*
X180696035Y-116808943D01*
X180696038Y-116808942D01*
X180701162Y-116808286D01*
X180707749Y-116806310D01*
X180916320Y-116743735D01*
X180921273Y-116742249D01*
X180966689Y-116720000D01*
X189526835Y-116720000D01*
X189545465Y-116956711D01*
X189600895Y-117187594D01*
X189691760Y-117406963D01*
X189694346Y-117411183D01*
X189813241Y-117605202D01*
X189813245Y-117605208D01*
X189815824Y-117609416D01*
X189970031Y-117789969D01*
X190150584Y-117944176D01*
X190154792Y-117946755D01*
X190154798Y-117946759D01*
X190348817Y-118065654D01*
X190353037Y-118068240D01*
X190357607Y-118070133D01*
X190357611Y-118070135D01*
X190567833Y-118157211D01*
X190572406Y-118159105D01*
X190652609Y-118178360D01*
X190798476Y-118213380D01*
X190798482Y-118213381D01*
X190803289Y-118214535D01*
X191040000Y-118233165D01*
X191276711Y-118214535D01*
X191281518Y-118213381D01*
X191281524Y-118213380D01*
X191427391Y-118178360D01*
X191507594Y-118159105D01*
X191512167Y-118157211D01*
X191722389Y-118070135D01*
X191722393Y-118070133D01*
X191726963Y-118068240D01*
X191731183Y-118065654D01*
X191925202Y-117946759D01*
X191925208Y-117946755D01*
X191929416Y-117944176D01*
X192109969Y-117789969D01*
X192264176Y-117609416D01*
X192266755Y-117605208D01*
X192266759Y-117605202D01*
X192385654Y-117411183D01*
X192388240Y-117406963D01*
X192479105Y-117187594D01*
X192534535Y-116956711D01*
X192553165Y-116720000D01*
X192534535Y-116483289D01*
X192502329Y-116349139D01*
X192480260Y-116257218D01*
X192479105Y-116252406D01*
X192465722Y-116220097D01*
X192390135Y-116037611D01*
X192390133Y-116037607D01*
X192388240Y-116033037D01*
X192385654Y-116028817D01*
X192266759Y-115834798D01*
X192266755Y-115834792D01*
X192264176Y-115830584D01*
X192109969Y-115650031D01*
X191929416Y-115495824D01*
X191925208Y-115493245D01*
X191925202Y-115493241D01*
X191731183Y-115374346D01*
X191726963Y-115371760D01*
X191722393Y-115369867D01*
X191722389Y-115369865D01*
X191640964Y-115336138D01*
X191585683Y-115291590D01*
X191563262Y-115224226D01*
X191580820Y-115155435D01*
X191632782Y-115107057D01*
X191640964Y-115103320D01*
X191722163Y-115069687D01*
X191730958Y-115065205D01*
X191898445Y-114962568D01*
X191907907Y-114952110D01*
X191904124Y-114943334D01*
X191052812Y-114092022D01*
X191038868Y-114084408D01*
X191037035Y-114084539D01*
X191030420Y-114088790D01*
X190178920Y-114940290D01*
X190172160Y-114952670D01*
X190177887Y-114960320D01*
X190349042Y-115065205D01*
X190357837Y-115069687D01*
X190439036Y-115103320D01*
X190494317Y-115147868D01*
X190516738Y-115215231D01*
X190499180Y-115284022D01*
X190447218Y-115332401D01*
X190439036Y-115336138D01*
X190357611Y-115369865D01*
X190357607Y-115369867D01*
X190353037Y-115371760D01*
X190348817Y-115374346D01*
X190154798Y-115493241D01*
X190154792Y-115493245D01*
X190150584Y-115495824D01*
X189970031Y-115650031D01*
X189815824Y-115830584D01*
X189813245Y-115834792D01*
X189813241Y-115834798D01*
X189694346Y-116028817D01*
X189691760Y-116033037D01*
X189689867Y-116037607D01*
X189689865Y-116037611D01*
X189614278Y-116220097D01*
X189600895Y-116252406D01*
X189599740Y-116257218D01*
X189577672Y-116349139D01*
X189545465Y-116483289D01*
X189526835Y-116720000D01*
X180966689Y-116720000D01*
X181127643Y-116641150D01*
X181132455Y-116637718D01*
X181310526Y-116510701D01*
X181314729Y-116507703D01*
X181339229Y-116483289D01*
X181473847Y-116349139D01*
X181477508Y-116345491D01*
X181567613Y-116220097D01*
X181608589Y-116163072D01*
X181611607Y-116158872D01*
X181713426Y-115952856D01*
X181729349Y-115900447D01*
X181778727Y-115737930D01*
X181778728Y-115737924D01*
X181780231Y-115732978D01*
X181810226Y-115505141D01*
X181811900Y-115436639D01*
X181799975Y-115291590D01*
X181793494Y-115212760D01*
X181793493Y-115212754D01*
X181793070Y-115207609D01*
X181737087Y-114984729D01*
X181645453Y-114773986D01*
X181642647Y-114769648D01*
X181523440Y-114585382D01*
X181523438Y-114585379D01*
X181520630Y-114581039D01*
X181503674Y-114562404D01*
X181369447Y-114414891D01*
X181369445Y-114414890D01*
X181365969Y-114411069D01*
X181361918Y-114407870D01*
X181361914Y-114407866D01*
X181192261Y-114273883D01*
X181185625Y-114268642D01*
X180984441Y-114157582D01*
X180867221Y-114116072D01*
X180772694Y-114082598D01*
X180772690Y-114082597D01*
X180767819Y-114080872D01*
X180762726Y-114079965D01*
X180762723Y-114079964D01*
X180546666Y-114041478D01*
X180546660Y-114041477D01*
X180541577Y-114040572D01*
X180468394Y-114039678D01*
X180316961Y-114037828D01*
X180316959Y-114037828D01*
X180311791Y-114037765D01*
X180160220Y-114060958D01*
X180089741Y-114071743D01*
X180089738Y-114071744D01*
X180084632Y-114072525D01*
X180017180Y-114094572D01*
X179871114Y-114142314D01*
X179871112Y-114142315D01*
X179866201Y-114143920D01*
X179795628Y-114180658D01*
X179673388Y-114244292D01*
X179662363Y-114250031D01*
X179658230Y-114253134D01*
X179658227Y-114253136D01*
X179482728Y-114384904D01*
X179478593Y-114388009D01*
X179456556Y-114411069D01*
X179347205Y-114525499D01*
X179319826Y-114554149D01*
X179243673Y-114665786D01*
X179188764Y-114710786D01*
X179118240Y-114718957D01*
X179054492Y-114687703D01*
X179033795Y-114663219D01*
X178983440Y-114585382D01*
X178983438Y-114585379D01*
X178980630Y-114581039D01*
X178963674Y-114562404D01*
X178829447Y-114414891D01*
X178829445Y-114414890D01*
X178825969Y-114411069D01*
X178821918Y-114407870D01*
X178821914Y-114407866D01*
X178652261Y-114273883D01*
X178645625Y-114268642D01*
X178444441Y-114157582D01*
X178327221Y-114116072D01*
X178232694Y-114082598D01*
X178232690Y-114082597D01*
X178227819Y-114080872D01*
X178222726Y-114079965D01*
X178222723Y-114079964D01*
X178006666Y-114041478D01*
X178006660Y-114041477D01*
X178001577Y-114040572D01*
X177928394Y-114039678D01*
X177776961Y-114037828D01*
X177776959Y-114037828D01*
X177771791Y-114037765D01*
X177620220Y-114060958D01*
X177549741Y-114071743D01*
X177549738Y-114071744D01*
X177544632Y-114072525D01*
X177477180Y-114094572D01*
X177331114Y-114142314D01*
X177331112Y-114142315D01*
X177326201Y-114143920D01*
X177255628Y-114180658D01*
X177133388Y-114244292D01*
X177122363Y-114250031D01*
X177118230Y-114253134D01*
X177118227Y-114253136D01*
X176942728Y-114384904D01*
X176938593Y-114388009D01*
X176916556Y-114411069D01*
X176807205Y-114525499D01*
X176779826Y-114554149D01*
X176703673Y-114665786D01*
X176648764Y-114710786D01*
X176578240Y-114718957D01*
X176514492Y-114687703D01*
X176493795Y-114663219D01*
X176443440Y-114585382D01*
X176443438Y-114585379D01*
X176440630Y-114581039D01*
X176423674Y-114562404D01*
X176289447Y-114414891D01*
X176289445Y-114414890D01*
X176285969Y-114411069D01*
X176281918Y-114407870D01*
X176281914Y-114407866D01*
X176112261Y-114273883D01*
X176105625Y-114268642D01*
X175904441Y-114157582D01*
X175787221Y-114116072D01*
X175692694Y-114082598D01*
X175692690Y-114082597D01*
X175687819Y-114080872D01*
X175682726Y-114079965D01*
X175682723Y-114079964D01*
X175466666Y-114041478D01*
X175466660Y-114041477D01*
X175461577Y-114040572D01*
X175388394Y-114039678D01*
X175236961Y-114037828D01*
X175236959Y-114037828D01*
X175231791Y-114037765D01*
X175080220Y-114060958D01*
X175009741Y-114071743D01*
X175009738Y-114071744D01*
X175004632Y-114072525D01*
X174937180Y-114094572D01*
X174791114Y-114142314D01*
X174791112Y-114142315D01*
X174786201Y-114143920D01*
X174715628Y-114180658D01*
X174593388Y-114244292D01*
X174582363Y-114250031D01*
X174578230Y-114253134D01*
X174578227Y-114253136D01*
X174402728Y-114384904D01*
X174398593Y-114388009D01*
X174376556Y-114411069D01*
X174267205Y-114525499D01*
X174239826Y-114554149D01*
X174236917Y-114558414D01*
X174236911Y-114558422D01*
X174216798Y-114587907D01*
X174163675Y-114665783D01*
X174163369Y-114666231D01*
X174108458Y-114711234D01*
X174037933Y-114719405D01*
X173974186Y-114688151D01*
X173953489Y-114663668D01*
X173950878Y-114659632D01*
X173940192Y-114650430D01*
X173930627Y-114654833D01*
X173161631Y-115423828D01*
X173154018Y-115437771D01*
X172423966Y-115437771D01*
X172425202Y-115435507D01*
X172425071Y-115433673D01*
X172420820Y-115427059D01*
X171651388Y-114657628D01*
X171639856Y-114651331D01*
X171627575Y-114660953D01*
X171623970Y-114666238D01*
X171569058Y-114711241D01*
X171498533Y-114719412D01*
X171434786Y-114688158D01*
X171414089Y-114663674D01*
X171363440Y-114585382D01*
X171363438Y-114585379D01*
X171360630Y-114581039D01*
X171343674Y-114562404D01*
X171209447Y-114414891D01*
X171209445Y-114414890D01*
X171205969Y-114411069D01*
X171201918Y-114407870D01*
X171201914Y-114407866D01*
X171046602Y-114285209D01*
X172002975Y-114285209D01*
X172009718Y-114297536D01*
X172776799Y-115064618D01*
X172790742Y-115072231D01*
X172792576Y-115072100D01*
X172799190Y-115067849D01*
X173570772Y-114296266D01*
X173577789Y-114283415D01*
X173570015Y-114272746D01*
X173569406Y-114272264D01*
X173560820Y-114266560D01*
X173368761Y-114160539D01*
X173359362Y-114156314D01*
X173152560Y-114083082D01*
X173142603Y-114080452D01*
X172926618Y-114041978D01*
X172916367Y-114041009D01*
X172696996Y-114038329D01*
X172686712Y-114039049D01*
X172469861Y-114072231D01*
X172459834Y-114074620D01*
X172251314Y-114142774D01*
X172241805Y-114146771D01*
X172047213Y-114248070D01*
X172038500Y-114253557D01*
X172011429Y-114273883D01*
X172002975Y-114285209D01*
X171046602Y-114285209D01*
X171032261Y-114273883D01*
X171025625Y-114268642D01*
X170824441Y-114157582D01*
X170707221Y-114116072D01*
X170612694Y-114082598D01*
X170612690Y-114082597D01*
X170607819Y-114080872D01*
X170602726Y-114079965D01*
X170602723Y-114079964D01*
X170386666Y-114041478D01*
X170386660Y-114041477D01*
X170381577Y-114040572D01*
X170308394Y-114039678D01*
X170156961Y-114037828D01*
X170156959Y-114037828D01*
X170151791Y-114037765D01*
X170000220Y-114060958D01*
X169929741Y-114071743D01*
X169929738Y-114071744D01*
X169924632Y-114072525D01*
X169857180Y-114094572D01*
X169711114Y-114142314D01*
X169711112Y-114142315D01*
X169706201Y-114143920D01*
X169635628Y-114180658D01*
X169513388Y-114244292D01*
X169502363Y-114250031D01*
X169498230Y-114253134D01*
X169498227Y-114253136D01*
X169322728Y-114384904D01*
X169318593Y-114388009D01*
X169296556Y-114411069D01*
X169187205Y-114525499D01*
X169159826Y-114554149D01*
X169083673Y-114665786D01*
X169028764Y-114710786D01*
X168958240Y-114718957D01*
X168894492Y-114687703D01*
X168873795Y-114663219D01*
X168823440Y-114585382D01*
X168823438Y-114585379D01*
X168820630Y-114581039D01*
X168803674Y-114562404D01*
X168669447Y-114414891D01*
X168669445Y-114414890D01*
X168665969Y-114411069D01*
X168661918Y-114407870D01*
X168661914Y-114407866D01*
X168492261Y-114273883D01*
X168485625Y-114268642D01*
X168284441Y-114157582D01*
X168167221Y-114116072D01*
X168072694Y-114082598D01*
X168072690Y-114082597D01*
X168067819Y-114080872D01*
X168062726Y-114079965D01*
X168062723Y-114079964D01*
X167846666Y-114041478D01*
X167846660Y-114041477D01*
X167841577Y-114040572D01*
X167768394Y-114039678D01*
X167616961Y-114037828D01*
X167616959Y-114037828D01*
X167611791Y-114037765D01*
X167460220Y-114060958D01*
X167389741Y-114071743D01*
X167389738Y-114071744D01*
X167384632Y-114072525D01*
X167317180Y-114094572D01*
X167171114Y-114142314D01*
X167171112Y-114142315D01*
X167166201Y-114143920D01*
X167095628Y-114180658D01*
X166973388Y-114244292D01*
X166962363Y-114250031D01*
X166958230Y-114253134D01*
X166958227Y-114253136D01*
X166782728Y-114384904D01*
X166778593Y-114388009D01*
X166756556Y-114411069D01*
X166647205Y-114525499D01*
X166619826Y-114554149D01*
X166616917Y-114558414D01*
X166616911Y-114558422D01*
X166596798Y-114587907D01*
X166490326Y-114743989D01*
X166441949Y-114848210D01*
X166397794Y-114943334D01*
X166393571Y-114952431D01*
X166332158Y-115173876D01*
X166307739Y-115402378D01*
X165733500Y-115402378D01*
X165733500Y-114378763D01*
X165734027Y-114367579D01*
X165735701Y-114360091D01*
X165733562Y-114292032D01*
X165733500Y-114288075D01*
X165733500Y-114260144D01*
X165732994Y-114256138D01*
X165732061Y-114244292D01*
X165730922Y-114208037D01*
X165730673Y-114200110D01*
X165725022Y-114180658D01*
X165721014Y-114161306D01*
X165719468Y-114149068D01*
X165719467Y-114149066D01*
X165718474Y-114141203D01*
X165702194Y-114100086D01*
X165698359Y-114088885D01*
X165686018Y-114046406D01*
X165681985Y-114039587D01*
X165681983Y-114039582D01*
X165675707Y-114028971D01*
X165667010Y-114011221D01*
X165659552Y-113992383D01*
X165633571Y-113956623D01*
X165627053Y-113946701D01*
X165608578Y-113915460D01*
X165608574Y-113915455D01*
X165604542Y-113908637D01*
X165590218Y-113894313D01*
X165577376Y-113879278D01*
X165565472Y-113862893D01*
X165531406Y-113834711D01*
X165522627Y-113826722D01*
X165420835Y-113724930D01*
X189527725Y-113724930D01*
X189545572Y-113951699D01*
X189547115Y-113961446D01*
X189600217Y-114182627D01*
X189603266Y-114192012D01*
X189690313Y-114402163D01*
X189694795Y-114410958D01*
X189797432Y-114578445D01*
X189807890Y-114587907D01*
X189816666Y-114584124D01*
X190667978Y-113732812D01*
X190674356Y-113721132D01*
X191404408Y-113721132D01*
X191404539Y-113722965D01*
X191408790Y-113729580D01*
X192260290Y-114581080D01*
X192272670Y-114587840D01*
X192280320Y-114582113D01*
X192385205Y-114410958D01*
X192389687Y-114402163D01*
X192476734Y-114192012D01*
X192479783Y-114182627D01*
X192532885Y-113961446D01*
X192534428Y-113951699D01*
X192552275Y-113724930D01*
X192552275Y-113715070D01*
X192534428Y-113488301D01*
X192532885Y-113478554D01*
X192479783Y-113257373D01*
X192476734Y-113247988D01*
X192389687Y-113037837D01*
X192385205Y-113029042D01*
X192282568Y-112861555D01*
X192272110Y-112852093D01*
X192263334Y-112855876D01*
X191412022Y-113707188D01*
X191404408Y-113721132D01*
X190674356Y-113721132D01*
X190675592Y-113718868D01*
X190675461Y-113717035D01*
X190671210Y-113710420D01*
X189819710Y-112858920D01*
X189807330Y-112852160D01*
X189799680Y-112857887D01*
X189694795Y-113029042D01*
X189690313Y-113037837D01*
X189603266Y-113247988D01*
X189600217Y-113257373D01*
X189547115Y-113478554D01*
X189545572Y-113488301D01*
X189527725Y-113715070D01*
X189527725Y-113724930D01*
X165420835Y-113724930D01*
X163063652Y-111367747D01*
X163056112Y-111359461D01*
X163052000Y-111352982D01*
X163002348Y-111306356D01*
X162999507Y-111303602D01*
X162979770Y-111283865D01*
X162976573Y-111281385D01*
X162967551Y-111273680D01*
X162941100Y-111248841D01*
X162935321Y-111243414D01*
X162928375Y-111239595D01*
X162928372Y-111239593D01*
X162917566Y-111233652D01*
X162901047Y-111222801D01*
X162900583Y-111222441D01*
X162885041Y-111210386D01*
X162877772Y-111207241D01*
X162877768Y-111207238D01*
X162844463Y-111192826D01*
X162833813Y-111187609D01*
X162795060Y-111166305D01*
X162775437Y-111161267D01*
X162756734Y-111154863D01*
X162745420Y-111149967D01*
X162745419Y-111149967D01*
X162738145Y-111146819D01*
X162730322Y-111145580D01*
X162730312Y-111145577D01*
X162694476Y-111139901D01*
X162682856Y-111137495D01*
X162647711Y-111128472D01*
X162647710Y-111128472D01*
X162640030Y-111126500D01*
X162619776Y-111126500D01*
X162600065Y-111124949D01*
X162587886Y-111123020D01*
X162580057Y-111121780D01*
X162572165Y-111122526D01*
X162536039Y-111125941D01*
X162524181Y-111126500D01*
X146574594Y-111126500D01*
X146506473Y-111106498D01*
X146485499Y-111089595D01*
X146115904Y-110720000D01*
X189526835Y-110720000D01*
X189545465Y-110956711D01*
X189546619Y-110961518D01*
X189546620Y-110961524D01*
X189558925Y-111012777D01*
X189600895Y-111187594D01*
X189602788Y-111192165D01*
X189602789Y-111192167D01*
X189672930Y-111361502D01*
X189691760Y-111406963D01*
X189694346Y-111411183D01*
X189813241Y-111605202D01*
X189813245Y-111605208D01*
X189815824Y-111609416D01*
X189970031Y-111789969D01*
X190150584Y-111944176D01*
X190154792Y-111946755D01*
X190154798Y-111946759D01*
X190348817Y-112065654D01*
X190353037Y-112068240D01*
X190357607Y-112070133D01*
X190357611Y-112070135D01*
X190439036Y-112103862D01*
X190494317Y-112148410D01*
X190516738Y-112215774D01*
X190499180Y-112284565D01*
X190447218Y-112332943D01*
X190439036Y-112336680D01*
X190357837Y-112370313D01*
X190349042Y-112374795D01*
X190181555Y-112477432D01*
X190172093Y-112487890D01*
X190175876Y-112496666D01*
X191027188Y-113347978D01*
X191041132Y-113355592D01*
X191042965Y-113355461D01*
X191049580Y-113351210D01*
X191901080Y-112499710D01*
X191907840Y-112487330D01*
X191902113Y-112479680D01*
X191730958Y-112374795D01*
X191722163Y-112370313D01*
X191640964Y-112336680D01*
X191585683Y-112292132D01*
X191563262Y-112224769D01*
X191580820Y-112155978D01*
X191632782Y-112107599D01*
X191640964Y-112103862D01*
X191722389Y-112070135D01*
X191722393Y-112070133D01*
X191726963Y-112068240D01*
X191731183Y-112065654D01*
X191925202Y-111946759D01*
X191925208Y-111946755D01*
X191929416Y-111944176D01*
X192109969Y-111789969D01*
X192264176Y-111609416D01*
X192266755Y-111605208D01*
X192266759Y-111605202D01*
X192385654Y-111411183D01*
X192388240Y-111406963D01*
X192407071Y-111361502D01*
X192477211Y-111192167D01*
X192477212Y-111192165D01*
X192479105Y-111187594D01*
X192521075Y-111012777D01*
X192533380Y-110961524D01*
X192533381Y-110961518D01*
X192534535Y-110956711D01*
X192553165Y-110720000D01*
X192534535Y-110483289D01*
X192510987Y-110385202D01*
X192480260Y-110257218D01*
X192479105Y-110252406D01*
X192388240Y-110033037D01*
X192348136Y-109967594D01*
X192266759Y-109834798D01*
X192266755Y-109834792D01*
X192264176Y-109830584D01*
X192109969Y-109650031D01*
X191929416Y-109495824D01*
X191925208Y-109493245D01*
X191925202Y-109493241D01*
X191731183Y-109374346D01*
X191726963Y-109371760D01*
X191722393Y-109369867D01*
X191722389Y-109369865D01*
X191641618Y-109336409D01*
X191586337Y-109291861D01*
X191563916Y-109224497D01*
X191581474Y-109155706D01*
X191633436Y-109107328D01*
X191641618Y-109103591D01*
X191722389Y-109070135D01*
X191722393Y-109070133D01*
X191726963Y-109068240D01*
X191777586Y-109037218D01*
X191925202Y-108946759D01*
X191925208Y-108946755D01*
X191929416Y-108944176D01*
X192109969Y-108789969D01*
X192264176Y-108609416D01*
X192266755Y-108605208D01*
X192266759Y-108605202D01*
X192385654Y-108411183D01*
X192388240Y-108406963D01*
X192479105Y-108187594D01*
X192522553Y-108006620D01*
X192533380Y-107961524D01*
X192533381Y-107961518D01*
X192534535Y-107956711D01*
X192553165Y-107720000D01*
X192534535Y-107483289D01*
X192479105Y-107252406D01*
X192388240Y-107033037D01*
X192385654Y-107028817D01*
X192266759Y-106834798D01*
X192266755Y-106834792D01*
X192264176Y-106830584D01*
X192109969Y-106650031D01*
X191929416Y-106495824D01*
X191925208Y-106493245D01*
X191925202Y-106493241D01*
X191731183Y-106374346D01*
X191726963Y-106371760D01*
X191722393Y-106369867D01*
X191722389Y-106369865D01*
X191641618Y-106336409D01*
X191586337Y-106291861D01*
X191563916Y-106224497D01*
X191581474Y-106155706D01*
X191633436Y-106107328D01*
X191641618Y-106103591D01*
X191722389Y-106070135D01*
X191722393Y-106070133D01*
X191726963Y-106068240D01*
X191731183Y-106065654D01*
X191925202Y-105946759D01*
X191925208Y-105946755D01*
X191929416Y-105944176D01*
X192109969Y-105789969D01*
X192264176Y-105609416D01*
X192266755Y-105605208D01*
X192266759Y-105605202D01*
X192385654Y-105411183D01*
X192388240Y-105406963D01*
X192479105Y-105187594D01*
X192534535Y-104956711D01*
X192553165Y-104720000D01*
X192534535Y-104483289D01*
X192479105Y-104252406D01*
X192388240Y-104033037D01*
X192352285Y-103974364D01*
X192266759Y-103834798D01*
X192266755Y-103834792D01*
X192264176Y-103830584D01*
X192109969Y-103650031D01*
X191929416Y-103495824D01*
X191925208Y-103493245D01*
X191925202Y-103493241D01*
X191731183Y-103374346D01*
X191726963Y-103371760D01*
X191722393Y-103369867D01*
X191722389Y-103369865D01*
X191641618Y-103336409D01*
X191586337Y-103291861D01*
X191563916Y-103224497D01*
X191581474Y-103155706D01*
X191633436Y-103107328D01*
X191641618Y-103103591D01*
X191722389Y-103070135D01*
X191722393Y-103070133D01*
X191726963Y-103068240D01*
X191811971Y-103016147D01*
X191925202Y-102946759D01*
X191925208Y-102946755D01*
X191929416Y-102944176D01*
X192109969Y-102789969D01*
X192264176Y-102609416D01*
X192266755Y-102605208D01*
X192266759Y-102605202D01*
X192385654Y-102411183D01*
X192388240Y-102406963D01*
X192447752Y-102263289D01*
X192477211Y-102192167D01*
X192477212Y-102192165D01*
X192479105Y-102187594D01*
X192515207Y-102037218D01*
X192533380Y-101961524D01*
X192533381Y-101961518D01*
X192534535Y-101956711D01*
X192553165Y-101720000D01*
X192534535Y-101483289D01*
X192479105Y-101252406D01*
X192477211Y-101247833D01*
X192390135Y-101037611D01*
X192390133Y-101037607D01*
X192388240Y-101033037D01*
X192359927Y-100986835D01*
X192266759Y-100834798D01*
X192266755Y-100834792D01*
X192264176Y-100830584D01*
X192109969Y-100650031D01*
X191929416Y-100495824D01*
X191925208Y-100493245D01*
X191925202Y-100493241D01*
X191731183Y-100374346D01*
X191726963Y-100371760D01*
X191722393Y-100369867D01*
X191722389Y-100369865D01*
X191512167Y-100282789D01*
X191512165Y-100282788D01*
X191507594Y-100280895D01*
X191427391Y-100261640D01*
X191281524Y-100226620D01*
X191281518Y-100226619D01*
X191276711Y-100225465D01*
X191040000Y-100206835D01*
X190803289Y-100225465D01*
X190798482Y-100226619D01*
X190798476Y-100226620D01*
X190652609Y-100261640D01*
X190572406Y-100280895D01*
X190567835Y-100282788D01*
X190567833Y-100282789D01*
X190357611Y-100369865D01*
X190357607Y-100369867D01*
X190353037Y-100371760D01*
X190348817Y-100374346D01*
X190154798Y-100493241D01*
X190154792Y-100493245D01*
X190150584Y-100495824D01*
X189970031Y-100650031D01*
X189815824Y-100830584D01*
X189813245Y-100834792D01*
X189813241Y-100834798D01*
X189720073Y-100986835D01*
X189691760Y-101033037D01*
X189689867Y-101037607D01*
X189689865Y-101037611D01*
X189602789Y-101247833D01*
X189600895Y-101252406D01*
X189545465Y-101483289D01*
X189526835Y-101720000D01*
X189545465Y-101956711D01*
X189546619Y-101961518D01*
X189546620Y-101961524D01*
X189564793Y-102037218D01*
X189600895Y-102187594D01*
X189602788Y-102192165D01*
X189602789Y-102192167D01*
X189632249Y-102263289D01*
X189691760Y-102406963D01*
X189694346Y-102411183D01*
X189813241Y-102605202D01*
X189813245Y-102605208D01*
X189815824Y-102609416D01*
X189970031Y-102789969D01*
X190150584Y-102944176D01*
X190154792Y-102946755D01*
X190154798Y-102946759D01*
X190268029Y-103016147D01*
X190353037Y-103068240D01*
X190357607Y-103070133D01*
X190357611Y-103070135D01*
X190438382Y-103103591D01*
X190493663Y-103148139D01*
X190516084Y-103215503D01*
X190498526Y-103284294D01*
X190446564Y-103332672D01*
X190438382Y-103336409D01*
X190357611Y-103369865D01*
X190357607Y-103369867D01*
X190353037Y-103371760D01*
X190348817Y-103374346D01*
X190154798Y-103493241D01*
X190154792Y-103493245D01*
X190150584Y-103495824D01*
X189970031Y-103650031D01*
X189815824Y-103830584D01*
X189813245Y-103834792D01*
X189813241Y-103834798D01*
X189727715Y-103974364D01*
X189691760Y-104033037D01*
X189600895Y-104252406D01*
X189545465Y-104483289D01*
X189526835Y-104720000D01*
X189545465Y-104956711D01*
X189600895Y-105187594D01*
X189691760Y-105406963D01*
X189694346Y-105411183D01*
X189813241Y-105605202D01*
X189813245Y-105605208D01*
X189815824Y-105609416D01*
X189970031Y-105789969D01*
X190150584Y-105944176D01*
X190154792Y-105946755D01*
X190154798Y-105946759D01*
X190348817Y-106065654D01*
X190353037Y-106068240D01*
X190357607Y-106070133D01*
X190357611Y-106070135D01*
X190438382Y-106103591D01*
X190493663Y-106148139D01*
X190516084Y-106215503D01*
X190498526Y-106284294D01*
X190446564Y-106332672D01*
X190438382Y-106336409D01*
X190357611Y-106369865D01*
X190357607Y-106369867D01*
X190353037Y-106371760D01*
X190348817Y-106374346D01*
X190154798Y-106493241D01*
X190154792Y-106493245D01*
X190150584Y-106495824D01*
X189970031Y-106650031D01*
X189815824Y-106830584D01*
X189813245Y-106834792D01*
X189813241Y-106834798D01*
X189694346Y-107028817D01*
X189691760Y-107033037D01*
X189600895Y-107252406D01*
X189545465Y-107483289D01*
X189526835Y-107720000D01*
X189545465Y-107956711D01*
X189546619Y-107961518D01*
X189546620Y-107961524D01*
X189557447Y-108006620D01*
X189600895Y-108187594D01*
X189691760Y-108406963D01*
X189694346Y-108411183D01*
X189813241Y-108605202D01*
X189813245Y-108605208D01*
X189815824Y-108609416D01*
X189970031Y-108789969D01*
X190150584Y-108944176D01*
X190154792Y-108946755D01*
X190154798Y-108946759D01*
X190302414Y-109037218D01*
X190353037Y-109068240D01*
X190357607Y-109070133D01*
X190357611Y-109070135D01*
X190438382Y-109103591D01*
X190493663Y-109148139D01*
X190516084Y-109215503D01*
X190498526Y-109284294D01*
X190446564Y-109332672D01*
X190438382Y-109336409D01*
X190357611Y-109369865D01*
X190357607Y-109369867D01*
X190353037Y-109371760D01*
X190348817Y-109374346D01*
X190154798Y-109493241D01*
X190154792Y-109493245D01*
X190150584Y-109495824D01*
X189970031Y-109650031D01*
X189815824Y-109830584D01*
X189813245Y-109834792D01*
X189813241Y-109834798D01*
X189731864Y-109967594D01*
X189691760Y-110033037D01*
X189600895Y-110252406D01*
X189599740Y-110257218D01*
X189569014Y-110385202D01*
X189545465Y-110483289D01*
X189526835Y-110720000D01*
X146115904Y-110720000D01*
X138474364Y-103078459D01*
X138440338Y-103016147D01*
X138440940Y-102959950D01*
X138493380Y-102741524D01*
X138493381Y-102741518D01*
X138494535Y-102736711D01*
X138513165Y-102500000D01*
X138494535Y-102263289D01*
X138476363Y-102187594D01*
X138440260Y-102037218D01*
X138439105Y-102032406D01*
X138409745Y-101961524D01*
X138350135Y-101817611D01*
X138350133Y-101817607D01*
X138348240Y-101813037D01*
X138291227Y-101720000D01*
X138226759Y-101614798D01*
X138226755Y-101614792D01*
X138224176Y-101610584D01*
X138069969Y-101430031D01*
X137889416Y-101275824D01*
X137885208Y-101273245D01*
X137885202Y-101273241D01*
X137691183Y-101154346D01*
X137686963Y-101151760D01*
X137682393Y-101149867D01*
X137682389Y-101149865D01*
X137472167Y-101062789D01*
X137472165Y-101062788D01*
X137467594Y-101060895D01*
X137351557Y-101033037D01*
X137241524Y-101006620D01*
X137241518Y-101006619D01*
X137236711Y-101005465D01*
X137000000Y-100986835D01*
X136763289Y-101005465D01*
X136758482Y-101006619D01*
X136758476Y-101006620D01*
X136648443Y-101033037D01*
X136532406Y-101060895D01*
X136527835Y-101062788D01*
X136527833Y-101062789D01*
X136317611Y-101149865D01*
X136317607Y-101149867D01*
X136313037Y-101151760D01*
X136308817Y-101154346D01*
X136114798Y-101273241D01*
X136114792Y-101273245D01*
X136110584Y-101275824D01*
X135930031Y-101430031D01*
X135775824Y-101610584D01*
X135773245Y-101614792D01*
X135773241Y-101614798D01*
X135708773Y-101720000D01*
X135651760Y-101813037D01*
X135649867Y-101817607D01*
X135649865Y-101817611D01*
X135590255Y-101961524D01*
X135560895Y-102032406D01*
X135559740Y-102037218D01*
X135523638Y-102187594D01*
X135505465Y-102263289D01*
X135486835Y-102500000D01*
X134508500Y-102500000D01*
X134508500Y-98000000D01*
X135386526Y-98000000D01*
X135406391Y-98252403D01*
X135407545Y-98257210D01*
X135407546Y-98257216D01*
X135444065Y-98409328D01*
X135465495Y-98498591D01*
X135467388Y-98503162D01*
X135467389Y-98503164D01*
X135531747Y-98658537D01*
X135562384Y-98732502D01*
X135694672Y-98948376D01*
X135859102Y-99140898D01*
X136051624Y-99305328D01*
X136267498Y-99437616D01*
X136272068Y-99439509D01*
X136272072Y-99439511D01*
X136496836Y-99532611D01*
X136501409Y-99534505D01*
X136586032Y-99554821D01*
X136742784Y-99592454D01*
X136742790Y-99592455D01*
X136747597Y-99593609D01*
X137000000Y-99613474D01*
X137252403Y-99593609D01*
X137257210Y-99592455D01*
X137257216Y-99592454D01*
X137413968Y-99554821D01*
X137498591Y-99534505D01*
X137503164Y-99532611D01*
X137727928Y-99439511D01*
X137727932Y-99439509D01*
X137732502Y-99437616D01*
X137948376Y-99305328D01*
X138140898Y-99140898D01*
X138305328Y-98948376D01*
X138437616Y-98732502D01*
X138468254Y-98658537D01*
X138532611Y-98503164D01*
X138532612Y-98503162D01*
X138534505Y-98498591D01*
X138555935Y-98409328D01*
X138592454Y-98257216D01*
X138592455Y-98257210D01*
X138593609Y-98252403D01*
X138613474Y-98000000D01*
X138593609Y-97747597D01*
X138589016Y-97728462D01*
X138563547Y-97622378D01*
X166297739Y-97622378D01*
X166298036Y-97627531D01*
X166298036Y-97627534D01*
X166299908Y-97660004D01*
X166310967Y-97851800D01*
X166312102Y-97856837D01*
X166312103Y-97856843D01*
X166324649Y-97912513D01*
X166361488Y-98075981D01*
X166447946Y-98288900D01*
X166450643Y-98293301D01*
X166450644Y-98293303D01*
X166532341Y-98426619D01*
X166568018Y-98484839D01*
X166718479Y-98658537D01*
X166895289Y-98805328D01*
X167093700Y-98921270D01*
X167098520Y-98923110D01*
X167098525Y-98923113D01*
X167204906Y-98963735D01*
X167308384Y-99003249D01*
X167313452Y-99004280D01*
X167313455Y-99004281D01*
X167424144Y-99026801D01*
X167533573Y-99049065D01*
X167538746Y-99049255D01*
X167538749Y-99049255D01*
X167758058Y-99057296D01*
X167758062Y-99057296D01*
X167763222Y-99057485D01*
X167768342Y-99056829D01*
X167768344Y-99056829D01*
X167986035Y-99028943D01*
X167986038Y-99028942D01*
X167991162Y-99028286D01*
X168039670Y-99013733D01*
X168206320Y-98963735D01*
X168211273Y-98962249D01*
X168417643Y-98861150D01*
X168450274Y-98837875D01*
X168600526Y-98730701D01*
X168604729Y-98727703D01*
X168626923Y-98705587D01*
X168741408Y-98591500D01*
X168767508Y-98565491D01*
X168770524Y-98561294D01*
X168770531Y-98561286D01*
X168867299Y-98426619D01*
X168923293Y-98382971D01*
X168993997Y-98376525D01*
X169056961Y-98409328D01*
X169077054Y-98434311D01*
X169105317Y-98480433D01*
X169105321Y-98480438D01*
X169108018Y-98484839D01*
X169258479Y-98658537D01*
X169435289Y-98805328D01*
X169633700Y-98921270D01*
X169638520Y-98923110D01*
X169638525Y-98923113D01*
X169744906Y-98963735D01*
X169848384Y-99003249D01*
X169853452Y-99004280D01*
X169853455Y-99004281D01*
X169964144Y-99026801D01*
X170073573Y-99049065D01*
X170078746Y-99049255D01*
X170078749Y-99049255D01*
X170298058Y-99057296D01*
X170298062Y-99057296D01*
X170303222Y-99057485D01*
X170308342Y-99056829D01*
X170308344Y-99056829D01*
X170526035Y-99028943D01*
X170526038Y-99028942D01*
X170531162Y-99028286D01*
X170579670Y-99013733D01*
X170746320Y-98963735D01*
X170751273Y-98962249D01*
X170957643Y-98861150D01*
X170990274Y-98837875D01*
X171140526Y-98730701D01*
X171144729Y-98727703D01*
X171166923Y-98705587D01*
X171281408Y-98591500D01*
X171307508Y-98565491D01*
X171310524Y-98561294D01*
X171310531Y-98561286D01*
X171407299Y-98426619D01*
X171463293Y-98382971D01*
X171533997Y-98376525D01*
X171596961Y-98409328D01*
X171617054Y-98434311D01*
X171645317Y-98480433D01*
X171645321Y-98480438D01*
X171648018Y-98484839D01*
X171798479Y-98658537D01*
X171975289Y-98805328D01*
X172173700Y-98921270D01*
X172178520Y-98923110D01*
X172178525Y-98923113D01*
X172284906Y-98963735D01*
X172388384Y-99003249D01*
X172393452Y-99004280D01*
X172393455Y-99004281D01*
X172504144Y-99026801D01*
X172613573Y-99049065D01*
X172618746Y-99049255D01*
X172618749Y-99049255D01*
X172838058Y-99057296D01*
X172838062Y-99057296D01*
X172843222Y-99057485D01*
X172848342Y-99056829D01*
X172848344Y-99056829D01*
X173066035Y-99028943D01*
X173066038Y-99028942D01*
X173071162Y-99028286D01*
X173119670Y-99013733D01*
X173286320Y-98963735D01*
X173291273Y-98962249D01*
X173497643Y-98861150D01*
X173530274Y-98837875D01*
X173680526Y-98730701D01*
X173684729Y-98727703D01*
X173706923Y-98705587D01*
X173821408Y-98591500D01*
X173847508Y-98565491D01*
X173850524Y-98561294D01*
X173850531Y-98561286D01*
X173947299Y-98426619D01*
X174003293Y-98382971D01*
X174073997Y-98376525D01*
X174136961Y-98409328D01*
X174157054Y-98434311D01*
X174185317Y-98480433D01*
X174185321Y-98480438D01*
X174188018Y-98484839D01*
X174338479Y-98658537D01*
X174515289Y-98805328D01*
X174713700Y-98921270D01*
X174718520Y-98923110D01*
X174718525Y-98923113D01*
X174824906Y-98963735D01*
X174928384Y-99003249D01*
X174933452Y-99004280D01*
X174933455Y-99004281D01*
X175044144Y-99026801D01*
X175153573Y-99049065D01*
X175158746Y-99049255D01*
X175158749Y-99049255D01*
X175378058Y-99057296D01*
X175378062Y-99057296D01*
X175383222Y-99057485D01*
X175388342Y-99056829D01*
X175388344Y-99056829D01*
X175606035Y-99028943D01*
X175606038Y-99028942D01*
X175611162Y-99028286D01*
X175659670Y-99013733D01*
X175826320Y-98963735D01*
X175831273Y-98962249D01*
X176037643Y-98861150D01*
X176070274Y-98837875D01*
X176220526Y-98730701D01*
X176224729Y-98727703D01*
X176246923Y-98705587D01*
X176361408Y-98591500D01*
X176387508Y-98565491D01*
X176390524Y-98561294D01*
X176390531Y-98561286D01*
X176487299Y-98426619D01*
X176543293Y-98382971D01*
X176613997Y-98376525D01*
X176676961Y-98409328D01*
X176697054Y-98434311D01*
X176725317Y-98480433D01*
X176725321Y-98480438D01*
X176728018Y-98484839D01*
X176878479Y-98658537D01*
X177055289Y-98805328D01*
X177253700Y-98921270D01*
X177258520Y-98923110D01*
X177258525Y-98923113D01*
X177364906Y-98963735D01*
X177468384Y-99003249D01*
X177473452Y-99004280D01*
X177473455Y-99004281D01*
X177584144Y-99026801D01*
X177693573Y-99049065D01*
X177698746Y-99049255D01*
X177698749Y-99049255D01*
X177918058Y-99057296D01*
X177918062Y-99057296D01*
X177923222Y-99057485D01*
X177928342Y-99056829D01*
X177928344Y-99056829D01*
X178146035Y-99028943D01*
X178146038Y-99028942D01*
X178151162Y-99028286D01*
X178199670Y-99013733D01*
X178366320Y-98963735D01*
X178371273Y-98962249D01*
X178577643Y-98861150D01*
X178610274Y-98837875D01*
X178760526Y-98730701D01*
X178764729Y-98727703D01*
X178786923Y-98705587D01*
X178901408Y-98591500D01*
X178927508Y-98565491D01*
X178930524Y-98561294D01*
X178930531Y-98561286D01*
X179027299Y-98426619D01*
X179083293Y-98382971D01*
X179153997Y-98376525D01*
X179216961Y-98409328D01*
X179237054Y-98434311D01*
X179265317Y-98480433D01*
X179265321Y-98480438D01*
X179268018Y-98484839D01*
X179418479Y-98658537D01*
X179595289Y-98805328D01*
X179793700Y-98921270D01*
X179798520Y-98923110D01*
X179798525Y-98923113D01*
X179904906Y-98963735D01*
X180008384Y-99003249D01*
X180013452Y-99004280D01*
X180013455Y-99004281D01*
X180124144Y-99026801D01*
X180233573Y-99049065D01*
X180238746Y-99049255D01*
X180238749Y-99049255D01*
X180458058Y-99057296D01*
X180458062Y-99057296D01*
X180463222Y-99057485D01*
X180468342Y-99056829D01*
X180468344Y-99056829D01*
X180686035Y-99028943D01*
X180686038Y-99028942D01*
X180691162Y-99028286D01*
X180739670Y-99013733D01*
X180906320Y-98963735D01*
X180911273Y-98962249D01*
X181117643Y-98861150D01*
X181150274Y-98837875D01*
X181300526Y-98730701D01*
X181304729Y-98727703D01*
X181326923Y-98705587D01*
X181441408Y-98591500D01*
X181467508Y-98565491D01*
X181515581Y-98498591D01*
X181598589Y-98383072D01*
X181601607Y-98378872D01*
X181703426Y-98172856D01*
X181719349Y-98120447D01*
X181768727Y-97957930D01*
X181768728Y-97957924D01*
X181770231Y-97952978D01*
X181800226Y-97725141D01*
X181801900Y-97656639D01*
X181788762Y-97496836D01*
X181783494Y-97432760D01*
X181783493Y-97432754D01*
X181783070Y-97427609D01*
X181776200Y-97400259D01*
X192717288Y-97400259D01*
X192737153Y-97652662D01*
X192738307Y-97657469D01*
X192738308Y-97657475D01*
X192761129Y-97752531D01*
X192796257Y-97898850D01*
X192798150Y-97903421D01*
X192798151Y-97903423D01*
X192840197Y-98004930D01*
X192893146Y-98132761D01*
X193025434Y-98348635D01*
X193189864Y-98541157D01*
X193382386Y-98705587D01*
X193598260Y-98837875D01*
X193602830Y-98839768D01*
X193602834Y-98839770D01*
X193827598Y-98932870D01*
X193832171Y-98934764D01*
X193871317Y-98944162D01*
X194073546Y-98992713D01*
X194073552Y-98992714D01*
X194078359Y-98993868D01*
X194330762Y-99013733D01*
X194583165Y-98993868D01*
X194587972Y-98992714D01*
X194587978Y-98992713D01*
X194790207Y-98944162D01*
X194829353Y-98934764D01*
X194833926Y-98932870D01*
X195058690Y-98839770D01*
X195058694Y-98839768D01*
X195063264Y-98837875D01*
X195279138Y-98705587D01*
X195471660Y-98541157D01*
X195636090Y-98348635D01*
X195768378Y-98132761D01*
X195821328Y-98004930D01*
X195863373Y-97903423D01*
X195863374Y-97903421D01*
X195865267Y-97898850D01*
X195900395Y-97752531D01*
X195923216Y-97657475D01*
X195923217Y-97657469D01*
X195924371Y-97652662D01*
X195944236Y-97400259D01*
X195924371Y-97147856D01*
X195913965Y-97104509D01*
X195880229Y-96963989D01*
X195865267Y-96901668D01*
X195857625Y-96883219D01*
X195770273Y-96672331D01*
X195770271Y-96672327D01*
X195768378Y-96667757D01*
X195636090Y-96451883D01*
X195471660Y-96259361D01*
X195279138Y-96094931D01*
X195063264Y-95962643D01*
X195058694Y-95960750D01*
X195058690Y-95960748D01*
X194833926Y-95867648D01*
X194833924Y-95867647D01*
X194829353Y-95865754D01*
X194744730Y-95845438D01*
X194587978Y-95807805D01*
X194587972Y-95807804D01*
X194583165Y-95806650D01*
X194330762Y-95786785D01*
X194078359Y-95806650D01*
X194073552Y-95807804D01*
X194073546Y-95807805D01*
X193916794Y-95845438D01*
X193832171Y-95865754D01*
X193827600Y-95867647D01*
X193827598Y-95867648D01*
X193602834Y-95960748D01*
X193602830Y-95960750D01*
X193598260Y-95962643D01*
X193382386Y-96094931D01*
X193189864Y-96259361D01*
X193025434Y-96451883D01*
X192893146Y-96667757D01*
X192891253Y-96672327D01*
X192891251Y-96672331D01*
X192803899Y-96883219D01*
X192796257Y-96901668D01*
X192781295Y-96963989D01*
X192747560Y-97104509D01*
X192737153Y-97147856D01*
X192717288Y-97400259D01*
X181776200Y-97400259D01*
X181727087Y-97204729D01*
X181635453Y-96993986D01*
X181632647Y-96989648D01*
X181513440Y-96805382D01*
X181513438Y-96805379D01*
X181510630Y-96801039D01*
X181413844Y-96694672D01*
X181359447Y-96634891D01*
X181359445Y-96634890D01*
X181355969Y-96631069D01*
X181351918Y-96627870D01*
X181351914Y-96627866D01*
X181179683Y-96491847D01*
X181175625Y-96488642D01*
X180974441Y-96377582D01*
X180857221Y-96336072D01*
X180762694Y-96302598D01*
X180762690Y-96302597D01*
X180757819Y-96300872D01*
X180752726Y-96299965D01*
X180752723Y-96299964D01*
X180536666Y-96261478D01*
X180536660Y-96261477D01*
X180531577Y-96260572D01*
X180458394Y-96259678D01*
X180306961Y-96257828D01*
X180306959Y-96257828D01*
X180301791Y-96257765D01*
X180150220Y-96280958D01*
X180079741Y-96291743D01*
X180079738Y-96291744D01*
X180074632Y-96292525D01*
X180069720Y-96294130D01*
X180069722Y-96294130D01*
X179861114Y-96362314D01*
X179861112Y-96362315D01*
X179856201Y-96363920D01*
X179825148Y-96380085D01*
X179661077Y-96465495D01*
X179652363Y-96470031D01*
X179648230Y-96473134D01*
X179648227Y-96473136D01*
X179472728Y-96604904D01*
X179468593Y-96608009D01*
X179309826Y-96774149D01*
X179233673Y-96885786D01*
X179178764Y-96930786D01*
X179108240Y-96938957D01*
X179044492Y-96907703D01*
X179023795Y-96883219D01*
X178973440Y-96805382D01*
X178973438Y-96805379D01*
X178970630Y-96801039D01*
X178873844Y-96694672D01*
X178819447Y-96634891D01*
X178819445Y-96634890D01*
X178815969Y-96631069D01*
X178811918Y-96627870D01*
X178811914Y-96627866D01*
X178639683Y-96491847D01*
X178635625Y-96488642D01*
X178434441Y-96377582D01*
X178317221Y-96336072D01*
X178222694Y-96302598D01*
X178222690Y-96302597D01*
X178217819Y-96300872D01*
X178212726Y-96299965D01*
X178212723Y-96299964D01*
X177996666Y-96261478D01*
X177996660Y-96261477D01*
X177991577Y-96260572D01*
X177918394Y-96259678D01*
X177766961Y-96257828D01*
X177766959Y-96257828D01*
X177761791Y-96257765D01*
X177610220Y-96280958D01*
X177539741Y-96291743D01*
X177539738Y-96291744D01*
X177534632Y-96292525D01*
X177529720Y-96294130D01*
X177529722Y-96294130D01*
X177321114Y-96362314D01*
X177321112Y-96362315D01*
X177316201Y-96363920D01*
X177285148Y-96380085D01*
X177121077Y-96465495D01*
X177112363Y-96470031D01*
X177108230Y-96473134D01*
X177108227Y-96473136D01*
X176932728Y-96604904D01*
X176928593Y-96608009D01*
X176769826Y-96774149D01*
X176693673Y-96885786D01*
X176638764Y-96930786D01*
X176568240Y-96938957D01*
X176504492Y-96907703D01*
X176483795Y-96883219D01*
X176433440Y-96805382D01*
X176433438Y-96805379D01*
X176430630Y-96801039D01*
X176333844Y-96694672D01*
X176279447Y-96634891D01*
X176279445Y-96634890D01*
X176275969Y-96631069D01*
X176271918Y-96627870D01*
X176271914Y-96627866D01*
X176099683Y-96491847D01*
X176095625Y-96488642D01*
X175894441Y-96377582D01*
X175777221Y-96336072D01*
X175682694Y-96302598D01*
X175682690Y-96302597D01*
X175677819Y-96300872D01*
X175672726Y-96299965D01*
X175672723Y-96299964D01*
X175456666Y-96261478D01*
X175456660Y-96261477D01*
X175451577Y-96260572D01*
X175378394Y-96259678D01*
X175226961Y-96257828D01*
X175226959Y-96257828D01*
X175221791Y-96257765D01*
X175070220Y-96280958D01*
X174999741Y-96291743D01*
X174999738Y-96291744D01*
X174994632Y-96292525D01*
X174989720Y-96294130D01*
X174989722Y-96294130D01*
X174781114Y-96362314D01*
X174781112Y-96362315D01*
X174776201Y-96363920D01*
X174745148Y-96380085D01*
X174581077Y-96465495D01*
X174572363Y-96470031D01*
X174568230Y-96473134D01*
X174568227Y-96473136D01*
X174392728Y-96604904D01*
X174388593Y-96608009D01*
X174229826Y-96774149D01*
X174153673Y-96885786D01*
X174098764Y-96930786D01*
X174028240Y-96938957D01*
X173964492Y-96907703D01*
X173943795Y-96883219D01*
X173893440Y-96805382D01*
X173893438Y-96805379D01*
X173890630Y-96801039D01*
X173793844Y-96694672D01*
X173739447Y-96634891D01*
X173739445Y-96634890D01*
X173735969Y-96631069D01*
X173731918Y-96627870D01*
X173731914Y-96627866D01*
X173559683Y-96491847D01*
X173555625Y-96488642D01*
X173354441Y-96377582D01*
X173237221Y-96336072D01*
X173142694Y-96302598D01*
X173142690Y-96302597D01*
X173137819Y-96300872D01*
X173132726Y-96299965D01*
X173132723Y-96299964D01*
X172916666Y-96261478D01*
X172916660Y-96261477D01*
X172911577Y-96260572D01*
X172838394Y-96259678D01*
X172686961Y-96257828D01*
X172686959Y-96257828D01*
X172681791Y-96257765D01*
X172530220Y-96280958D01*
X172459741Y-96291743D01*
X172459738Y-96291744D01*
X172454632Y-96292525D01*
X172449720Y-96294130D01*
X172449722Y-96294130D01*
X172241114Y-96362314D01*
X172241112Y-96362315D01*
X172236201Y-96363920D01*
X172205148Y-96380085D01*
X172041077Y-96465495D01*
X172032363Y-96470031D01*
X172028230Y-96473134D01*
X172028227Y-96473136D01*
X171852728Y-96604904D01*
X171848593Y-96608009D01*
X171689826Y-96774149D01*
X171613673Y-96885786D01*
X171558764Y-96930786D01*
X171488240Y-96938957D01*
X171424492Y-96907703D01*
X171403795Y-96883219D01*
X171353440Y-96805382D01*
X171353438Y-96805379D01*
X171350630Y-96801039D01*
X171253844Y-96694672D01*
X171199447Y-96634891D01*
X171199445Y-96634890D01*
X171195969Y-96631069D01*
X171191918Y-96627870D01*
X171191914Y-96627866D01*
X171019683Y-96491847D01*
X171015625Y-96488642D01*
X170814441Y-96377582D01*
X170697221Y-96336072D01*
X170602694Y-96302598D01*
X170602690Y-96302597D01*
X170597819Y-96300872D01*
X170592726Y-96299965D01*
X170592723Y-96299964D01*
X170376666Y-96261478D01*
X170376660Y-96261477D01*
X170371577Y-96260572D01*
X170298394Y-96259678D01*
X170146961Y-96257828D01*
X170146959Y-96257828D01*
X170141791Y-96257765D01*
X169990220Y-96280958D01*
X169919741Y-96291743D01*
X169919738Y-96291744D01*
X169914632Y-96292525D01*
X169909720Y-96294130D01*
X169909722Y-96294130D01*
X169701114Y-96362314D01*
X169701112Y-96362315D01*
X169696201Y-96363920D01*
X169665148Y-96380085D01*
X169501077Y-96465495D01*
X169492363Y-96470031D01*
X169488230Y-96473134D01*
X169488227Y-96473136D01*
X169312728Y-96604904D01*
X169308593Y-96608009D01*
X169149826Y-96774149D01*
X169073673Y-96885786D01*
X169018764Y-96930786D01*
X168948240Y-96938957D01*
X168884492Y-96907703D01*
X168863795Y-96883219D01*
X168813440Y-96805382D01*
X168813438Y-96805379D01*
X168810630Y-96801039D01*
X168713844Y-96694672D01*
X168659447Y-96634891D01*
X168659445Y-96634890D01*
X168655969Y-96631069D01*
X168651918Y-96627870D01*
X168651914Y-96627866D01*
X168479683Y-96491847D01*
X168475625Y-96488642D01*
X168274441Y-96377582D01*
X168157221Y-96336072D01*
X168062694Y-96302598D01*
X168062690Y-96302597D01*
X168057819Y-96300872D01*
X168052726Y-96299965D01*
X168052723Y-96299964D01*
X167836666Y-96261478D01*
X167836660Y-96261477D01*
X167831577Y-96260572D01*
X167758394Y-96259678D01*
X167606961Y-96257828D01*
X167606959Y-96257828D01*
X167601791Y-96257765D01*
X167450220Y-96280958D01*
X167379741Y-96291743D01*
X167379738Y-96291744D01*
X167374632Y-96292525D01*
X167369720Y-96294130D01*
X167369722Y-96294130D01*
X167161114Y-96362314D01*
X167161112Y-96362315D01*
X167156201Y-96363920D01*
X167125148Y-96380085D01*
X166961077Y-96465495D01*
X166952363Y-96470031D01*
X166948230Y-96473134D01*
X166948227Y-96473136D01*
X166772728Y-96604904D01*
X166768593Y-96608009D01*
X166609826Y-96774149D01*
X166480326Y-96963989D01*
X166383571Y-97172431D01*
X166322158Y-97393876D01*
X166297739Y-97622378D01*
X138563547Y-97622378D01*
X138535660Y-97506221D01*
X138534505Y-97501409D01*
X138506070Y-97432760D01*
X138439511Y-97272072D01*
X138439509Y-97272068D01*
X138437616Y-97267498D01*
X138305328Y-97051624D01*
X138140898Y-96859102D01*
X137948376Y-96694672D01*
X137732502Y-96562384D01*
X137727932Y-96560491D01*
X137727928Y-96560489D01*
X137503164Y-96467389D01*
X137503162Y-96467388D01*
X137498591Y-96465495D01*
X137413968Y-96445179D01*
X137257216Y-96407546D01*
X137257210Y-96407545D01*
X137252403Y-96406391D01*
X137000000Y-96386526D01*
X136747597Y-96406391D01*
X136742790Y-96407545D01*
X136742784Y-96407546D01*
X136586032Y-96445179D01*
X136501409Y-96465495D01*
X136496838Y-96467388D01*
X136496836Y-96467389D01*
X136272072Y-96560489D01*
X136272068Y-96560491D01*
X136267498Y-96562384D01*
X136051624Y-96694672D01*
X135859102Y-96859102D01*
X135694672Y-97051624D01*
X135562384Y-97267498D01*
X135560491Y-97272068D01*
X135560489Y-97272072D01*
X135493930Y-97432760D01*
X135465495Y-97501409D01*
X135464340Y-97506221D01*
X135410985Y-97728462D01*
X135406391Y-97747597D01*
X135386526Y-98000000D01*
X134508500Y-98000000D01*
X134508500Y-95634500D01*
X134528502Y-95566379D01*
X134582158Y-95519886D01*
X134634500Y-95508500D01*
X196251125Y-95508500D01*
X196319246Y-95528502D01*
G37*
G04 #@! TD.AperFunction*
M02*
