M48
; DRILL file {KiCad (6.0.10)} date Fri Jan 20 20:27:38 2023
; FORMAT={-:-/ absolute / inch / decimal}
; #@! TF.CreationDate,2023-01-20T20:27:38-05:00
; #@! TF.GenerationSoftware,Kicad,Pcbnew,(6.0.10)
; #@! TF.FileFunction,Plated,1,2,PTH
FMAT,2
INCH
; #@! TA.AperFunction,Plated,PTH,ComponentDrill
T1C0.0300
; #@! TA.AperFunction,Plated,PTH,ComponentDrill
T2C0.0394
; #@! TA.AperFunction,Plated,PTH,ComponentDrill
T3C0.0400
; #@! TA.AperFunction,Plated,PTH,ComponentDrill
T4C0.0433
; #@! TA.AperFunction,Plated,PTH,ComponentDrill
T5C0.0472
; #@! TA.AperFunction,Plated,PTH,ComponentDrill
T6C0.0748
%
G90
G05
T1
X5.3937Y-4.0354
X5.3937Y-4.311
T2
X6.6023Y-3.8447
X6.6027Y-4.5447
X6.7023Y-3.8447
X6.7027Y-4.5447
X6.8023Y-3.8447
X6.8027Y-4.5447
X6.9023Y-3.8447
X6.9027Y-4.5447
X7.0023Y-3.8447
X7.0027Y-4.5447
X7.1023Y-3.8447
X7.1027Y-4.5447
T3
X5.3768Y-4.7681
X5.3768Y-4.8681
X5.3768Y-4.9681
X5.3768Y-5.0681
X5.3768Y-5.1681
X5.3768Y-5.2681
X5.3768Y-5.3681
X5.3768Y-5.4681
X6.2768Y-4.7681
X6.2768Y-4.8681
X6.2768Y-4.9681
X6.2768Y-5.0681
X6.2768Y-5.1681
X6.2768Y-5.2681
X6.2768Y-5.3681
X6.2768Y-5.4681
T4
X7.5Y-4.8488
X7.5Y-5.2488
X7.5Y-5.4
X7.5Y-5.8
T5
X6.4567Y-4.8228
X6.4567Y-5.7087
X6.5748Y-4.8228
X6.8898Y-4.8228
X7.0079Y-4.8228
X7.0079Y-5.7087
X7.2Y-4.8213
X7.2Y-4.9787
X7.5213Y-4.0047
X7.5213Y-4.1228
X7.5213Y-4.2409
X7.5213Y-4.3591
X7.5213Y-4.4772
X7.5213Y-4.5953
T6
X7.1811Y-5.3937
X7.1811Y-5.5512
X7.1811Y-5.7087
X7.2835Y-5.3937
X7.2835Y-5.5512
X7.2835Y-5.7087
T0
M30
